<svg xmlns="http://www.w3.org/2000/svg" width="14.01" height="14.009" viewBox="0 0 14.01 14.009">
  <path id="Path_8717" data-name="Path 8717" d="M8.63,1.08A2.04,2.04,0,0,1,7,1.893,2.04,2.04,0,0,1,5.37,1.08a6.612,6.612,0,0,0-1.45.6l.01.2A2.05,2.05,0,0,1,1.7,3.93a6.1,6.1,0,0,0-.6,1.45,2.04,2.04,0,0,1,.813,1.63A2.04,2.04,0,0,1,1.1,8.64a5.764,5.764,0,0,0,.6,1.45l.2-.01a2.05,2.05,0,0,1,2.03,2.24,5.764,5.764,0,0,0,1.45.6,2.04,2.04,0,0,1,3.26,0,5.764,5.764,0,0,0,1.45-.6l-.01-.2a2.05,2.05,0,0,1,2.24-2.03,5.764,5.764,0,0,0,.6-1.45,2.04,2.04,0,0,1,0-3.26,6.1,6.1,0,0,0-.6-1.45A2.05,2.05,0,0,1,10.09,1.7a6.1,6.1,0,0,0-1.45-.6ZM7.84.42c.17-.24.43-.47.72-.4a6.788,6.788,0,0,1,2.32.96.76.76,0,0,1,.22.76A1.03,1.03,0,0,0,12.26,2.9a.767.767,0,0,1,.76.22,7.227,7.227,0,0,1,.97,2.32.774.774,0,0,1-.41.72,1.02,1.02,0,0,0,0,1.68c.24.17.47.43.4.72a7.12,7.12,0,0,1-.96,2.32.76.76,0,0,1-.76.22,1.03,1.03,0,0,0-1.17,1.01l.01.15a.767.767,0,0,1-.22.76,7.227,7.227,0,0,1-2.32.97.774.774,0,0,1-.72-.41,1.02,1.02,0,0,0-1.68,0c-.17.24-.43.47-.72.4a7.12,7.12,0,0,1-2.32-.96.76.76,0,0,1-.22-.76v-.15a1.02,1.02,0,0,0-1.16-1,.793.793,0,0,1-.76-.23A7.12,7.12,0,0,1,0,8.56a.774.774,0,0,1,.41-.72A1.02,1.02,0,0,0,.851,7,1.02,1.02,0,0,0,.41,6.16c-.24-.17-.47-.43-.4-.72A6.788,6.788,0,0,1,.97,3.12a.76.76,0,0,1,.76-.22h.15a1.02,1.02,0,0,0,1-1.16A.793.793,0,0,1,3.11.98,7.636,7.636,0,0,1,5.44,0a.774.774,0,0,1,.72.41A1.02,1.02,0,0,0,7,.851,1.02,1.02,0,0,0,7.84.41ZM9,7A2,2,0,1,1,7,5,2,2,0,0,1,9,7Zm1,0A3,3,0,1,1,7,4a3,3,0,0,1,3,3Z" transform="translate(0.01 0.01)" fill="#9bafbf" fill-rule="evenodd"/>
</svg>
