<svg xmlns="http://www.w3.org/2000/svg" width="24.386" height="26.386" viewBox="0 0 24.386 26.386">
  <g id="Group_18306" data-name="Group 18306" transform="translate(-0.75 -2.75)">
    <path id="Path_8666" data-name="Path 8666" d="M24.164,19.589h-3.09V3.722A.722.722,0,0,0,20.352,3H1.722A.722.722,0,0,0,1,3.722V24.286c0,.017,0,.033,0,.049.053,2.518,1.1,4.551,3.624,4.551H20.258a4.644,4.644,0,0,0,4.628-4.65V20.311A.722.722,0,0,0,24.164,19.589ZM2.444,24.237V4.444H19.629V19.589H8.535a.722.722,0,0,0-.722.722v3.926a3.2,3.2,0,0,1-3.184,3.205C2.873,27.442,2.444,26,2.444,24.237Zm17.813,3.205H7.973a4.641,4.641,0,0,0,1.284-3.205v-3.2H23.442v3.2A3.2,3.2,0,0,1,20.258,27.442Z" fill="#9bafbf" stroke="#9bafbf" stroke-width="0.5"/>
    <path id="Path_8667" data-name="Path 8667" d="M16.125,17.569H26.856a.722.722,0,1,0,0-1.444H16.125a.722.722,0,1,0,0,1.444Z" transform="translate(-9.954 -8.467)" fill="#9bafbf" stroke="#9bafbf" stroke-width="0.5"/>
    <path id="Path_8668" data-name="Path 8668" d="M16.125,45.257h8.549a.722.722,0,0,0,0-1.444H16.125a.722.722,0,1,0,0,1.444Z" transform="translate(-9.954 -28.157)" fill="#9bafbf" stroke="#9bafbf" stroke-width="0.5"/>
    <path id="Path_8669" data-name="Path 8669" d="M16.125,31.194H26.856a.722.722,0,0,0,0-1.444H16.125a.722.722,0,0,0,0,1.444Z" transform="translate(-9.954 -18.156)" fill="#9bafbf" stroke="#9bafbf" stroke-width="0.5"/>
  </g>
</svg>
