<svg xmlns="http://www.w3.org/2000/svg" width="25.691" height="26.339" viewBox="0 0 25.691 26.339">
  <g id="noun_Alert_1649339" transform="translate(-4.674 -73.133)">
    <g id="Group_18291" data-name="Group 18291" transform="translate(4.674 73.133)">
      <g id="Group_18282" data-name="Group 18282">
        <g id="Group_18281" data-name="Group 18281">
          <path id="Path_8657" data-name="Path 8657" d="M88.575,81.852A12.433,12.433,0,0,1,89.23,79.8l-.091.217a12.436,12.436,0,0,1,1.383-2.446c.036-.048.072-.1.109-.148.009-.012.057-.063.054-.073s-.127.16-.072.094c.076-.1.151-.193.23-.287.151-.181.308-.362.468-.535a12.315,12.315,0,0,1,.991-.954q.159-.136.317-.263c.048-.039.1-.076.145-.115-.236.19-.036.03.018-.012.214-.16.435-.311.661-.459a.905.905,0,1,0-.912-1.564,13.352,13.352,0,0,0-5.05,6.061,12.153,12.153,0,0,0-.655,2.048.907.907,0,0,0,1.749.483Z" transform="translate(-86.802 -73.133)" fill="#9bafbf"/>
        </g>
      </g>
      <g id="Group_18284" data-name="Group 18284" transform="translate(18.61 0.005)">
        <g id="Group_18283" data-name="Group 18283">
          <path id="Path_8658" data-name="Path 8658" d="M703.449,74.976c.211.139.42.281.622.432.051.036.1.076.151.115.079.06-.081-.063-.075-.06.021.015.042.033.063.051.106.085.211.169.314.257a12.323,12.323,0,0,1,1.036.991c.154.166.3.335.45.51.072.088.145.175.214.266a.429.429,0,0,1,.045.057c.006.012-.127-.166-.066-.088.039.051.079.1.118.157a12.967,12.967,0,0,1,.749,1.139,12.288,12.288,0,0,1,.689,1.383l-.091-.217A12.371,12.371,0,0,1,708.317,82a.916.916,0,0,0,1.114.634.926.926,0,0,0,.634-1.114,13.173,13.173,0,0,0-3.772-6.6,13.45,13.45,0,0,0-1.924-1.51.91.91,0,0,0-1.238.326.919.919,0,0,0,.317,1.238Z" transform="translate(-703.011 -73.287)" fill="#9bafbf"/>
        </g>
      </g>
      <g id="Group_18286" data-name="Group 18286" transform="translate(3.651 2.047)">
        <g id="Group_18285" data-name="Group 18285">
          <path id="Path_8659" data-name="Path 8659" d="M224.271,150.05v8.879l.906-.906H210.642c-.667,0-1.341-.018-2.008,0h-.03l.906.906V150.76a13.754,13.754,0,0,1,.072-1.8c-.012.082-.021.16-.033.242a8.3,8.3,0,0,1,.559-2.048l-.091.217a8.351,8.351,0,0,1,.571-1.108c.109-.175.224-.35.344-.516.027-.039.054-.076.082-.112.127-.169-.109.136-.021.024.066-.085.133-.166.2-.248a8.568,8.568,0,0,1,.87-.882c.075-.066.151-.13.23-.193.036-.03.072-.057.109-.088s.133-.094-.088.069c.027-.021.054-.039.079-.06.166-.124.335-.242.51-.353a8.164,8.164,0,0,1,1.247-.652l-.217.091a8.231,8.231,0,0,1,2.093-.568l-.242.033a8.39,8.39,0,0,1,2.184,0l-.242-.033a8.375,8.375,0,0,1,2.141.586l-.217-.091a8.409,8.409,0,0,1,1.1.568c.175.106.344.22.51.341.039.027.076.054.115.085.024.018.051.036.076.057s-.166-.13-.091-.069.16.127.236.193a7.749,7.749,0,0,1,.867.858c.066.076.133.154.2.233.03.036.057.072.088.109.06.075-.079-.1-.069-.091.024.03.048.063.069.094.121.163.239.332.347.5a8.186,8.186,0,0,1,.649,1.238l-.091-.217a8.131,8.131,0,0,1,.562,2.042c-.012-.082-.021-.16-.033-.242a6.365,6.365,0,0,1,.091,1.078.906.906,0,0,0,1.812,0,9.085,9.085,0,0,0-1.513-4.983,9.224,9.224,0,0,0-3.863-3.316,9.682,9.682,0,0,0-2.73-.767,9.17,9.17,0,0,0-2.507.045,8.9,8.9,0,0,0-3.953,1.631,9.343,9.343,0,0,0-2.86,3.352,9.2,9.2,0,0,0-.957,4.05v8.867a.919.919,0,0,0,.906.906h14.536c.67,0,1.341.012,2.008,0h.03a.919.919,0,0,0,.906-.906V150.05a.908.908,0,0,0-1.815,0Z" transform="translate(-207.7 -140.918)" fill="#9bafbf"/>
        </g>
      </g>
      <g id="Group_18288" data-name="Group 18288" transform="translate(0.978 19.148)">
        <g id="Group_18287" data-name="Group 18287">
          <path id="Path_8660" data-name="Path 8660" d="M120.083,708.969H141.1c.287,0,.571,0,.858,0H142a.906.906,0,1,0,0-1.812h-21.02c-.287,0-.571,0-.858,0h-.036a.906.906,0,1,0,0,1.812Z" transform="translate(-119.176 -707.156)" fill="#9bafbf"/>
        </g>
      </g>
      <g id="Group_18290" data-name="Group 18290" transform="translate(9.245 21.779)">
        <g id="Group_18289" data-name="Group 18289">
          <path id="Path_8661" data-name="Path 8661" d="M398.381,795.186a3.067,3.067,0,0,1-.024.375c.012-.082.021-.16.033-.242a2.94,2.94,0,0,1-.193.7l.09-.217a2.876,2.876,0,0,1-.248.453c-.021.033-.045.063-.069.1-.091.13.151-.178.045-.06-.057.063-.112.13-.172.19s-.124.115-.19.172c-.112.1.187-.136.061-.045l-.1.07a2.872,2.872,0,0,1-.453.248l.217-.09a2.842,2.842,0,0,1-.7.193l.242-.033a2.862,2.862,0,0,1-.752,0l.242.033a2.947,2.947,0,0,1-.7-.193l.217.09a2.876,2.876,0,0,1-.453-.248c-.033-.021-.063-.045-.1-.07-.13-.091.178.151.06.045-.063-.057-.13-.112-.19-.172s-.115-.124-.172-.19c-.1-.112.136.187.045.06l-.069-.1a2.877,2.877,0,0,1-.248-.453l.091.217a2.843,2.843,0,0,1-.193-.7c.012.082.021.16.033.242a3.106,3.106,0,0,1-.024-.375.906.906,0,0,0-1.812,0,3.617,3.617,0,0,0,.634,2.051,3.816,3.816,0,0,0,1.809,1.389,3.642,3.642,0,0,0,3.959-1.051,3.754,3.754,0,0,0,.9-2.392.917.917,0,0,0-.906-.906.929.929,0,0,0-.912.909Z" transform="translate(-392.899 -794.276)" fill="#9bafbf"/>
        </g>
      </g>
    </g>
  </g>
</svg>
