<svg id="noun_Alert_1649339" xmlns="http://www.w3.org/2000/svg" width="12.957" height="13.284" viewBox="0 0 12.957 13.284">
  <g id="Group_18291" data-name="Group 18291" transform="translate(0 0)">
    <g id="Group_18282" data-name="Group 18282">
      <g id="Group_18281" data-name="Group 18281">
        <path id="Path_8657" data-name="Path 8657" d="M87.7,77.53a6.272,6.272,0,0,1,.331-1.033l-.046.11a6.271,6.271,0,0,1,.7-1.234l.055-.075c0-.006.029-.032.027-.037s-.064.081-.037.047c.038-.049.076-.1.116-.145.076-.091.155-.183.236-.27a6.21,6.21,0,0,1,.5-.481q.08-.069.16-.133l.073-.058c-.119.1-.018.015.009-.006.108-.081.219-.157.334-.232a.457.457,0,0,0-.46-.789,6.734,6.734,0,0,0-2.547,3.057,6.13,6.13,0,0,0-.331,1.033.457.457,0,0,0,.882.244Z" transform="translate(-86.802 -73.133)" fill="#749dbd"/>
      </g>
    </g>
    <g id="Group_18284" data-name="Group 18284" transform="translate(9.386 0.002)">
      <g id="Group_18283" data-name="Group 18283">
        <path id="Path_8658" data-name="Path 8658" d="M703.232,74.139c.107.07.212.142.314.218.026.018.05.038.076.058s-.041-.032-.038-.03l.032.026c.053.043.107.085.158.129a6.2,6.2,0,0,1,.522.5c.078.084.154.169.227.257.036.044.073.088.108.134a.227.227,0,0,1,.023.029c0,.006-.064-.084-.034-.044s.04.052.059.079a6.537,6.537,0,0,1,.378.574,6.209,6.209,0,0,1,.347.7l-.046-.11a6.242,6.242,0,0,1,.328,1.027.462.462,0,0,0,.562.32.467.467,0,0,0,.32-.562,6.645,6.645,0,0,0-1.9-3.33,6.781,6.781,0,0,0-.97-.762.459.459,0,0,0-.625.164.464.464,0,0,0,.16.625Z" transform="translate(-703.011 -73.287)" fill="#749dbd"/>
      </g>
    </g>
    <g id="Group_18286" data-name="Group 18286" transform="translate(1.841 1.032)">
      <g id="Group_18285" data-name="Group 18285">
        <path id="Path_8659" data-name="Path 8659" d="M216.058,145.524V150l.457-.457h-7.331c-.337,0-.676-.009-1.013,0h-.015l.457.457v-4.12a6.935,6.935,0,0,1,.037-.908c-.006.041-.011.081-.017.122a4.186,4.186,0,0,1,.282-1.033l-.046.11a4.21,4.21,0,0,1,.288-.559c.055-.088.113-.177.174-.26.014-.02.027-.038.041-.056.064-.085-.055.069-.011.012s.067-.084.1-.125a4.321,4.321,0,0,1,.439-.445c.038-.033.076-.065.116-.1l.055-.044c.024-.02.067-.047-.044.035.014-.011.027-.02.04-.03.084-.062.169-.122.257-.178a4.117,4.117,0,0,1,.629-.329l-.11.046a4.153,4.153,0,0,1,1.056-.286l-.122.017a4.231,4.231,0,0,1,1.1,0l-.122-.017a4.226,4.226,0,0,1,1.08.3l-.11-.046a4.243,4.243,0,0,1,.554.286c.088.053.174.111.257.172l.058.043c.012.009.026.018.038.029s-.084-.065-.046-.035.081.064.119.1a3.908,3.908,0,0,1,.437.433c.034.038.067.078.1.117l.044.055c.03.038-.04-.052-.035-.046s.024.032.035.047c.061.082.12.168.175.254a4.127,4.127,0,0,1,.327.625l-.046-.11a4.1,4.1,0,0,1,.283,1.03c-.006-.041-.011-.081-.017-.122a3.212,3.212,0,0,1,.046.544.457.457,0,0,0,.914,0,4.582,4.582,0,0,0-.763-2.513,4.652,4.652,0,0,0-1.948-1.672,4.883,4.883,0,0,0-1.377-.387,4.625,4.625,0,0,0-1.264.023,4.49,4.49,0,0,0-1.994.823,4.712,4.712,0,0,0-1.442,1.691,4.639,4.639,0,0,0-.483,2.043V150a.463.463,0,0,0,.457.457h7.331c.338,0,.676.006,1.013,0h.015a.463.463,0,0,0,.457-.457v-4.478a.458.458,0,0,0-.915,0Z" transform="translate(-207.7 -140.918)" fill="#749dbd"/>
      </g>
    </g>
    <g id="Group_18288" data-name="Group 18288" transform="translate(0.493 9.657)">
      <g id="Group_18287" data-name="Group 18287">
        <path id="Path_8660" data-name="Path 8660" d="M119.634,708.07h10.6c.145,0,.288,0,.433,0h.018a.457.457,0,0,0,0-.914h-10.6c-.145,0-.288,0-.433,0h-.018a.457.457,0,1,0,0,.914Z" transform="translate(-119.176 -707.156)" fill="#749dbd"/>
      </g>
    </g>
    <g id="Group_18290" data-name="Group 18290" transform="translate(4.662 10.984)">
      <g id="Group_18289" data-name="Group 18289">
        <path id="Path_8661" data-name="Path 8661" d="M395.664,794.735a1.556,1.556,0,0,1-.012.189c.006-.041.011-.081.017-.122a1.484,1.484,0,0,1-.1.353l.046-.109a1.446,1.446,0,0,1-.125.228c-.011.017-.023.032-.035.049-.046.066.076-.09.023-.03-.029.032-.056.065-.087.1s-.062.058-.1.087c-.056.049.094-.069.031-.023l-.049.035a1.444,1.444,0,0,1-.228.125l.11-.046a1.435,1.435,0,0,1-.353.1l.122-.017a1.44,1.44,0,0,1-.379,0l.122.017a1.486,1.486,0,0,1-.353-.1l.11.046a1.444,1.444,0,0,1-.228-.125c-.017-.011-.032-.023-.049-.035-.065-.046.09.076.031.023-.032-.029-.066-.056-.1-.087s-.058-.062-.087-.1c-.049-.056.069.094.023.03l-.035-.049a1.449,1.449,0,0,1-.125-.228l.046.109a1.429,1.429,0,0,1-.1-.353c.006.041.011.081.017.122a1.557,1.557,0,0,1-.012-.189.457.457,0,0,0-.914,0,1.824,1.824,0,0,0,.32,1.034,1.924,1.924,0,0,0,.912.7,1.837,1.837,0,0,0,2-.53,1.893,1.893,0,0,0,.452-1.206.462.462,0,0,0-.457-.457.468.468,0,0,0-.46.458Z" transform="translate(-392.899 -794.276)" fill="#749dbd"/>
      </g>
    </g>
  </g>
</svg>
