<?xml version="1.0" encoding="iso-8859-1"?>
<!-- Generator: Adobe Illustrator 23.0.0, SVG Export Plug-In . SVG Version: 6.00 Build 0)  -->
<svg version="1.1" id="Layer_1" xmlns="http://www.w3.org/2000/svg" xmlns:xlink="http://www.w3.org/1999/xlink" x="0px" y="0px"
	 viewBox="0 0 20.241 20.178" style="enable-background:new 0 0 20.241 20.178;" xml:space="preserve">
<g id="Group_18210" transform="translate(19.759 312)">
	<g id="Path_8583" transform="translate(0 -1)">
		<path d="M-46.964-300.911h-15.493c-0.758,0-1.374-0.616-1.374-1.374v-15.43c0-0.758,0.616-1.374,1.374-1.374h15.493
			c0.758,0,1.374,0.616,1.374,1.374v15.43C-45.59-301.527-46.206-300.911-46.964-300.911z"/>
		<path style="fill:#9BAFBF;" d="M-62.457-318.089c-0.206,0-0.374,0.168-0.374,0.374v15.43c0,0.206,0.168,0.374,0.374,0.374h15.493
			c0.206,0,0.374-0.168,0.374-0.374v-15.43c0-0.206-0.168-0.374-0.374-0.374H-62.457 M-62.457-320.089h15.493
			c1.311,0,2.374,1.063,2.374,2.374v15.43c0,1.311-1.063,2.374-2.374,2.374h-15.493c-1.311,0-2.374-1.063-2.374-2.374v-15.43
			C-64.83-319.026-63.768-320.089-62.457-320.089z"/>
	</g>
</g>
<path id="Path_8584" style="fill:none;stroke:#9BAFBF;stroke-width:2;" d="M-43.692-0.221h17.721"/>
<path id="Path_8585" style="fill:none;stroke:#9BAFBF;stroke-width:2;" d="M-34.951-1.076v10.8"/>
<path id="Path_8584_1_" style="fill:none;stroke:#9BAFBF;stroke-width:2;" d="M36.901,8.868h17.721"/>
<g>
	<path id="Path_8585_1_" style="fill:none;stroke:#9BAFBF;stroke-width:2;" d="M10.118,11.971v8.228"/>
	<path id="Path_8585_4_" style="fill:none;stroke:#9BAFBF;stroke-width:2;" d="M12.013,10.057l8.228,0.019"/>
	<path id="Path_8585_3_" style="fill:none;stroke:#9BAFBF;stroke-width:2;" d="M10.135,8.199V-0.03"/>
	<path id="Path_8585_2_" style="fill:none;stroke:#9BAFBF;stroke-width:2;" d="M8.24,10.112l-8.228-0.019"/>
</g>
</svg>
