<svg xmlns="http://www.w3.org/2000/svg" width="16.423" height="13.149" viewBox="0 0 16.423 13.149">
  <g id="Group_18315" data-name="Group 18315" transform="translate(-21.199 -29.732)">
    <path id="Path_8677" data-name="Path 8677" d="M22,35.977l4.389,2.194a3.613,3.613,0,0,0,2.914,0l7.512-3.756a1.143,1.143,0,0,0,0-2.182L32.438,30.04a3.619,3.619,0,0,0-2.922,0L22,33.8l0,0a1.139,1.139,0,0,0,0,2.177Zm.48-1.219L30,31a2.556,2.556,0,0,1,1.96,0l4.381,2.191c.12.06.175.112.2.121a.635.635,0,0,1-.2.139L28.821,37.21a2.533,2.533,0,0,1-1.952,0L22.48,35.014c-.115-.058-.171-.108-.195-.118A.707.707,0,0,1,22.485,34.757Z" transform="translate(0 0)" fill="#497293"/>
    <path id="Path_8678" data-name="Path 8678" d="M37.146,60.143,29.923,63.77a3.673,3.673,0,0,1-3.3-.009l-4.152-2.113a.537.537,0,0,0-.487.958l4.152,2.113a4.754,4.754,0,0,0,4.268.012L37.628,61.1a.538.538,0,1,0-.483-.961Z" transform="translate(-0.398 -24.53)" fill="#497293"/>
    <path id="Path_8679" data-name="Path 8679" d="M37.146,72.128l-6.779,3.4a4.653,4.653,0,0,1-4.186-.011l-3.709-1.888a.537.537,0,1,0-.487.958l3.709,1.888a5.742,5.742,0,0,0,5.155.014l6.779-3.4a.538.538,0,1,0-.483-.961Z" transform="translate(-0.398 -34.215)" fill="#497293"/>
    <path id="Path_8680" data-name="Path 8680" d="M50.89,46.964a4.382,4.382,0,0,0,3.529,0h0a1.3,1.3,0,0,0,0-2.486,4.384,4.384,0,0,0-3.53,0,1.3,1.3,0,0,0,0,2.486Zm.48-1.525a3.294,3.294,0,0,1,2.569,0c.277.139.334.263.334.282s-.058.144-.333.283a3.294,3.294,0,0,1-2.569,0c-.277-.139-.334-.263-.334-.283s.058-.143.333-.282Z" transform="translate(-23.244 -11.617)" fill="#497293"/>
  </g>
</svg>
