<svg width="99" height="107" viewBox="0 0 99 107" fill="none" xmlns="http://www.w3.org/2000/svg">
<path d="M69.86 30.41C67.57 13.24 52.88 0 35.09 0C15.71 0 0 15.71 0 35.09C0 54.47 15.71 70.18 35.09 70.18C40.44 70.18 45.5 68.98 50.03 66.84C54.21 72.65 61.03 76.44 68.73 76.44C81.45 76.44 91.76 66.13 91.76 53.41C91.76 41.07 82.05 31 69.86 30.41Z" fill="#DFFEFB"/>
<path d="M24.69 29.64L17.93 38.82C16.78 40.38 14.63 40.94 12.96 39.96C12.95 39.95 12.94 39.95 12.92 39.94C11.38 39.01 10.53 37.26 10.77 35.47C11.44 30.48 13.52 25.79 16.79 21.95C20.1 18.06 24.43 15.18 29.3 13.64C33.86 12.19 38.77 12.24 43.31 13.77C48.62 15.56 53.17 19.08 56.23 23.78C58.73 27.62 60.44 31.92 61.26 36.43L71.01 90.3C71.65 93.84 69.36 97.25 65.83 97.99L29.91 105.51C26.27 106.27 22.71 103.89 22.02 100.24L17.1 74.08C14.98 65.22 20.66 56.39 29.6 54.64L35.81 53.43" stroke="#13436B" stroke-width="1.5" stroke-miterlimit="10"/>
<path d="M55.24 92.19L36.76 95.63C30.84 96.73 25.15 92.83 24.05 86.91C22.95 80.99 26.85 75.3 32.77 74.2L51.25 70.76C57.17 69.66 62.86 73.56 63.96 79.48C65.06 85.39 61.15 91.08 55.24 92.19Z" fill="#26A69A"/>
<path d="M40.9 87.56L36.61 88.36L36.28 90.55L34.01 90.97L35.87 79.45L38.39 78.98L44.28 89.05L41.99 89.48L40.9 87.56ZM39.99 85.94L37.59 81.72L36.87 86.52L39.99 85.94Z" fill="white"/>
<path d="M50.6 77.42C51.54 77.7 52.32 78.21 52.94 78.94C53.56 79.67 53.97 80.58 54.17 81.66C54.37 82.74 54.31 83.73 54 84.62C53.68 85.52 53.13 86.26 52.36 86.87C51.58 87.47 50.63 87.88 49.5 88.09L45.73 88.79L43.72 78.01L47.49 77.31C48.62 77.1 49.66 77.13 50.6 77.42ZM51.53 84.85C52.03 84.12 52.18 83.19 51.97 82.07C51.76 80.95 51.29 80.13 50.55 79.61C49.81 79.09 48.88 78.94 47.75 79.15L46.22 79.43L47.55 86.55L49.08 86.27C50.21 86.05 51.03 85.58 51.53 84.85Z" fill="white"/>
<path d="M98.18 39.22C98.18 40.56 97.74 41.91 96.84 43.05C95.04 45.31 91.93 46.02 89.33 44.77L81.54 40.66C80.03 39.96 78.38 39.59 76.71 39.59H51.81C51.21 47.33 44.74 53.41 36.86 53.41C28.58 53.41 21.86 46.7 21.86 38.41C21.86 30.13 28.58 23.41 36.86 23.41H79.37C81.49 23.41 83.58 24.01 85.39 25.13L95.8 33.47C97.58 34.68 98.18 37.24 98.18 39.22Z" fill="white" stroke="#13436B" stroke-width="1.5" stroke-miterlimit="10"/>
<path d="M36.94 33.95V41.68" stroke="#13436B" stroke-width="1.5" stroke-miterlimit="10"/>
</svg>
