<svg width="27" height="22" viewBox="0 0 27 22" fill="none" xmlns="http://www.w3.org/2000/svg">
<path d="M3.5 9.75C4.42852 8.0268 5.68121 6.49889 7.18848 5.25C7.32648 5.15 7.46598 5.05002 7.87598 4.79102C9.19848 3.95202 10.6946 3.42503 12.251 3.25" stroke="#26A69A" stroke-width="1.2"/>
<path d="M23.25 10C22.3218 8.27689 21.0704 6.74898 19.5635 5.5C19.4255 5.4 19.285 5.30002 18.876 5.04102C17.5535 4.20202 16.0573 3.67503 14.501 3.5" stroke="#26A69A" stroke-width="1.2"/>
<path d="M3.5 12.5C4.42852 14.2232 5.68121 15.7511 7.18848 17C7.32648 17.1 7.46598 17.2 7.87598 17.459C9.19848 18.298 10.6946 18.825 12.251 19" stroke="#26A69A" stroke-width="1.2"/>
<path d="M23.25 12.25C22.3218 13.9731 21.0704 15.501 19.5635 16.75C19.4255 16.85 19.285 16.95 18.876 17.209C17.5535 18.048 16.0573 18.575 14.501 18.75" stroke="#26A69A" stroke-width="1.2"/>
<path d="M2.5 13.3C3.49411 13.3 4.3 12.4941 4.3 11.5C4.3 10.5059 3.49411 9.70001 2.5 9.70001C1.50588 9.70001 0.699997 10.5059 0.699997 11.5C0.699997 12.4941 1.50588 13.3 2.5 13.3Z" stroke="#26A69A" stroke-width="1.2"/>
<path d="M13.5 4.30001C14.4941 4.30001 15.3 3.49412 15.3 2.50001C15.3 1.5059 14.4941 0.700012 13.5 0.700012C12.5059 0.700012 11.7 1.5059 11.7 2.50001C11.7 3.49412 12.5059 4.30001 13.5 4.30001Z" stroke="#26A69A" stroke-width="1.2"/>
<path d="M13.5 21.3C14.4941 21.3 15.3 20.4941 15.3 19.5C15.3 18.5059 14.4941 17.7 13.5 17.7C12.5059 17.7 11.7 18.5059 11.7 19.5C11.7 20.4941 12.5059 21.3 13.5 21.3Z" stroke="#26A69A" stroke-width="1.2"/>
<path d="M24.5 13.3C25.4941 13.3 26.3 12.4941 26.3 11.5C26.3 10.5059 25.4941 9.70001 24.5 9.70001C23.5059 9.70001 22.7 10.5059 22.7 11.5C22.7 12.4941 23.5059 13.3 24.5 13.3Z" stroke="#26A69A" stroke-width="1.2"/>
</svg>
