<svg xmlns="http://www.w3.org/2000/svg" xmlns:xlink="http://www.w3.org/1999/xlink" width="32" height="32" viewBox="0 0 32 32">
  <defs>
    <clipPath id="clip-Elipse">
      <rect width="32" height="32"/>
    </clipPath>
  </defs>
  <g id="Elipse" clip-path="url(#clip-Elipse)">
    <g id="Component_50_1" data-name="Component 50 – 1" transform="translate(3 5)">
      <path id="Path_8762" data-name="Path 8762" d="M-12684.5-3959.25a15.22,15.22,0,0,1,3.688-4.5c.138-.1.278-.2.688-.459a10.32,10.32,0,0,1,4.375-1.541" transform="translate(12688 3969)" fill="none" stroke="#26a69a" stroke-width="1.7"/>
      <path id="Path_8768" data-name="Path 8768" d="M-12675.75-3959.25a15.22,15.22,0,0,0-3.687-4.5c-.138-.1-.278-.2-.687-.459a10.32,10.32,0,0,0-4.375-1.541" transform="translate(12699 3969.25)" fill="none" stroke="#26a69a" stroke-width="1.7"/>
      <path id="Path_8769" data-name="Path 8769" d="M-12684.5-3965.75a15.22,15.22,0,0,0,3.688,4.5c.138.1.278.2.688.459a10.32,10.32,0,0,0,4.375,1.541" transform="translate(12688 3978.25)" fill="none" stroke="#26a69a" stroke-width="1.7"/>
      <path id="Path_8767" data-name="Path 8767" d="M-12675.75-3965.75a15.22,15.22,0,0,1-3.687,4.5c-.138.1-.278.2-.687.459a10.32,10.32,0,0,1-4.375,1.541" transform="translate(12699 3978)" fill="none" stroke="#26a69a" stroke-width="1.7"/>
      <path id="Path_8763" data-name="Path 8763" d="M-12684.5-3959.25" transform="translate(401.503 13285.857) rotate(71)" fill="none" stroke="#26a69a" stroke-width="1.7"/>
      <g id="Ellipse_30" data-name="Ellipse 30" transform="translate(0 9)" fill="none" stroke="#26a69a" stroke-width="1.7">
        <circle cx="2.5" cy="2.5" r="2.5" stroke="none"/>
        <circle cx="2.5" cy="2.5" r="1.8" fill="none"/>
      </g>
      <g id="Ellipse_31" data-name="Ellipse 31" transform="translate(11)" fill="none" stroke="#26a69a" stroke-width="1.7">
        <circle cx="2.5" cy="2.5" r="2.5" stroke="none"/>
        <circle cx="2.5" cy="2.5" r="1.8" fill="none"/>
      </g>
      <g id="Ellipse_32" data-name="Ellipse 32" transform="translate(11 17)" fill="none" stroke="#26a69a" stroke-width="1.7">
        <circle cx="2.5" cy="2.5" r="2.5" stroke="none"/>
        <circle cx="2.5" cy="2.5" r="1.8" fill="none"/>
      </g>
      <g id="Ellipse_33" data-name="Ellipse 33" transform="translate(22 9)" fill="none" stroke="#26a69a" stroke-width="1.7">
        <circle cx="2.5" cy="2.5" r="2.5" stroke="none"/>
        <circle cx="2.5" cy="2.5" r="1.8" fill="none"/>
      </g>
    </g>
  </g>
</svg>
