<svg xmlns="http://www.w3.org/2000/svg" width="13.4" height="14.353" viewBox="0 0 13.4 14.353">
  <g id="floppy-disk" transform="translate(-17)">
    <path id="Path_8623" data-name="Path 8623" d="M30.278,3.741,26.689.124a.421.421,0,0,0-.3-.124h-8.55A.842.842,0,0,0,17,.841V13.512a.842.842,0,0,0,.841.841H29.559a.842.842,0,0,0,.841-.841V4.037A.42.42,0,0,0,30.278,3.741Zm-6.1-2.9v1.85a.42.42,0,0,0,.841,0V.841h.953V4.065H21.429V.841Zm5.382,12.671H17.841V.841h2.747V4.485a.421.421,0,0,0,.42.42h5.382a.421.421,0,0,0,.42-.42V1.441L29.559,4.21Z" transform="translate(0 0)" fill="#749DBD"/>
    <path id="Path_8624" data-name="Path 8624" d="M81.421,241a.421.421,0,0,0-.42.421v4.934a.421.421,0,0,0,.42.421h8.971a.421.421,0,0,0,.421-.421v-4.934a.421.421,0,0,0-.421-.421Zm8.55,4.934h-8.13v-4.093h8.13Z" transform="translate(-62.206 -234.244)" fill="#749DBD"/>
    <path id="Path_8625" data-name="Path 8625" d="M145.421,305.841h1.346a.42.42,0,0,0,0-.841h-1.346a.42.42,0,1,0,0,.841Z" transform="translate(-124.412 -296.45)" fill="#749DBD"/>
  </g>
</svg>
