<svg id="full-screen" xmlns="http://www.w3.org/2000/svg" width="9.488" height="9.488" viewBox="0 0 9.488 9.488">
  <g id="Group_18235" data-name="Group 18235">
    <g id="Group_18234" data-name="Group 18234">
      <path id="Path_8629" data-name="Path 8629" d="M2.372.593V0H.3A.3.3,0,0,0,0,.3V2.372H.593V1.011L3.348,3.766l.418-.418L1.011.593Z" fill="#749dbd"/>
      <path id="Path_8630" data-name="Path 8630" d="M312.269,0h-2.076V.593h1.361L308.8,3.348l.418.418,2.755-2.755V2.372h.593V.3A.3.3,0,0,0,312.269,0Z" transform="translate(-303.077)" fill="#749dbd"/>
      <path id="Path_8631" data-name="Path 8631" d="M311.973,311.555l-2.755-2.755-.418.418,2.755,2.755h-1.361v.593h2.076a.3.3,0,0,0,.3-.3v-2.076h-.593Z" transform="translate(-303.077 -303.077)" fill="#749dbd"/>
      <path id="Path_8632" data-name="Path 8632" d="M3.348,308.64.593,311.4v-1.361H0v2.076a.3.3,0,0,0,.3.3H2.372v-.593H1.011l2.755-2.755Z" transform="translate(0 -302.92)" fill="#749dbd"/>
    </g>
  </g>
</svg>
