<svg xmlns="http://www.w3.org/2000/svg" width="17.103" height="9.702" viewBox="0 0 17.103 9.702">
  <path id="Path_8676" data-name="Path 8676" d="M31.751,49.438l3.274-2.766-3.274-2.766a.7.7,0,0,1,.9-1.072l3.895,3.3a.693.693,0,0,1,0,1.072l-3.895,3.3a.7.7,0,0,1-.9-1.072Zm-11.8-2.23a.693.693,0,0,1,0-1.072l3.895-3.3a.7.7,0,1,1,.9,1.072l-3.274,2.766,3.274,2.766a.686.686,0,0,1,.085.988.69.69,0,0,1-.988.085Zm5.983,3.33,3.3-8.269a.715.715,0,0,1,1.326.536l-3.33,8.269a.7.7,0,0,1-.649.452.824.824,0,0,1-.254-.056A.728.728,0,0,1,25.937,50.539Z" transform="translate(-19.7 -41.825)" fill="#749dbd"/>
</svg>
