<svg width="23" height="21" viewBox="0 0 23 21" fill="none" xmlns="http://www.w3.org/2000/svg">
<path d="M4.33301 2.5H22.0615" stroke="#26A69A" stroke-width="1.2"/>
<path d="M4.33301 12.5H18.2861" stroke="#26A69A" stroke-width="1.2"/>
<path d="M4.33496 18.5H22.0645" stroke="#26A69A" stroke-width="1.2"/>
<path d="M5.64616 10.8209L13.8654 7.50007L22.0847 4.17928" stroke="#26A69A" stroke-width="1.2" stroke-dasharray="2 3"/>
<path d="M2.5 4.30001C3.49411 4.30001 4.3 3.49412 4.3 2.50001C4.3 1.5059 3.49411 0.700012 2.5 0.700012C1.50588 0.700012 0.699997 1.5059 0.699997 2.50001C0.699997 3.49412 1.50588 4.30001 2.5 4.30001Z" stroke="#26A69A" stroke-width="1.2"/>
<path d="M20.5 14.3C21.4941 14.3 22.3 13.4941 22.3 12.5C22.3 11.5059 21.4941 10.7 20.5 10.7C19.5059 10.7 18.7 11.5059 18.7 12.5C18.7 13.4941 19.5059 14.3 20.5 14.3Z" stroke="#26A69A" stroke-width="1.2"/>
<path d="M2.5 14.3C3.49411 14.3 4.3 13.4941 4.3 12.5C4.3 11.5059 3.49411 10.7 2.5 10.7C1.50588 10.7 0.699997 11.5059 0.699997 12.5C0.699997 13.4941 1.50588 14.3 2.5 14.3Z" stroke="#26A69A" stroke-width="1.2"/>
<path d="M2.5 20.3C3.49411 20.3 4.3 19.4941 4.3 18.5C4.3 17.5059 3.49411 16.7 2.5 16.7C1.50588 16.7 0.699997 17.5059 0.699997 18.5C0.699997 19.4941 1.50588 20.3 2.5 20.3Z" stroke="#26A69A" stroke-width="1.2"/>
</svg>
