<svg xmlns="http://www.w3.org/2000/svg" width="23.954" height="14.354" viewBox="0 0 23.954 14.354">
  <g id="Group_18267" data-name="Group 18267" transform="translate(-4.956 -23.008)">
    <path id="Path_8654" data-name="Path 8654" d="M42.545,38.62A3.029,3.029,0,0,0,39.9,40.182a.415.415,0,0,0,.26.6.888.888,0,0,1,0,1.72.415.415,0,0,0-.26.6,3.026,3.026,0,1,0,2.648-4.489Z" transform="translate(-25.612 -11.461)" fill="#9bafbf"/>
    <path id="Path_8655" data-name="Path 8655" d="M28.826,29.873a13.733,13.733,0,0,0-23.786,0,.623.623,0,0,0,0,.624,13.733,13.733,0,0,0,23.786,0A.623.623,0,0,0,28.826,29.873ZM16.933,36.088a5.9,5.9,0,1,1,5.9-5.9A5.91,5.91,0,0,1,16.933,36.088Zm-10.628-5.9a12.562,12.562,0,0,1,4.3-4.209c.315-.186.639-.356.968-.513a7.129,7.129,0,0,0,0,9.443q-.494-.235-.968-.513A12.558,12.558,0,0,1,6.305,30.185Zm16.958,4.209c-.315.186-.639.356-.968.513a7.129,7.129,0,0,0,0-9.443c.329.157.653.327.968.513a12.558,12.558,0,0,1,4.3,4.209A12.564,12.564,0,0,1,23.263,34.394Z" transform="translate(0)" fill="#9bafbf"/>
  </g>
</svg>
