<svg xmlns="http://www.w3.org/2000/svg" width="16.591" height="23.131" viewBox="0 0 16.591 23.131">
  <g id="noun_Delete_3157779" transform="translate(-86 -30)">
    <g id="Group_18266" data-name="Group 18266" transform="translate(86 30)">
      <g id="Group_18265" data-name="Group 18265">
        <g id="Group_18261" data-name="Group 18261">
          <path id="Path_8651" data-name="Path 8651" d="M101.81,33.173H97.741V30.894A.843.843,0,0,0,96.961,30h-5.33a.843.843,0,0,0-.781.894v2.279H86.781a.843.843,0,0,0-.781.894v4.509a.843.843,0,0,0,.781.894h.712V51.456a1.582,1.582,0,0,0,1.464,1.676H99.635a1.582,1.582,0,0,0,1.464-1.676V44a.788.788,0,1,0-1.562,0v7.349H89.054V39.469H101.81a.843.843,0,0,0,.781-.894V34.067A.843.843,0,0,0,101.81,33.173Zm-9.4-1.385H96.18v1.385H92.411V31.787Zm8.618,5.895H87.562V34.96H101.03Z" transform="translate(-86 -30)" fill="#9bafbf"/>
        </g>
        <g id="Group_18264" data-name="Group 18264" transform="translate(5.56 10.768)">
          <g id="Group_18262" data-name="Group 18262">
            <path id="Path_8652" data-name="Path 8652" d="M200.723,254.087a.843.843,0,0,1-.781-.894v-7.118a.788.788,0,1,1,1.562,0v7.118A.843.843,0,0,1,200.723,254.087Z" transform="translate(-199.942 -245.182)" fill="#9bafbf"/>
          </g>
          <g id="Group_18263" data-name="Group 18263" transform="translate(3.909)">
            <path id="Path_8653" data-name="Path 8653" d="M280.839,253.975a.843.843,0,0,1-.781-.894v-7.006a.788.788,0,1,1,1.561,0v7.006A.843.843,0,0,1,280.839,253.975Z" transform="translate(-280.058 -245.182)" fill="#9bafbf"/>
          </g>
        </g>
      </g>
    </g>
  </g>
</svg>
