<svg xmlns="http://www.w3.org/2000/svg" width="24.759" height="32.178" viewBox="0 0 24.759 32.178">
  <path id="Path_8656" data-name="Path 8656" d="M33.7,24.654v.037c0,.037,0,.037.037.074a.036.036,0,0,0,.037.037c0,.037.037.037.037.074a.036.036,0,0,0,.037.037c.037.037.037.074.074.074h0c.037.037.074.074.111.074a.036.036,0,0,1,.037.037c.037,0,.037.037.074.037l1.594.741A3.469,3.469,0,0,1,37.7,29.362l-1.075,9.971a3.431,3.431,0,0,0,.89,2.484,3.279,3.279,0,0,0,2.409,1.038,3.371,3.371,0,0,0,2.372-1,3.237,3.237,0,0,0,.927-2.409v-.037l-.853-10.12A3.453,3.453,0,0,1,44.3,25.915l1.631-.778c.037,0,.037-.037.074-.037a.036.036,0,0,0,.037-.037c.037-.037.074-.037.111-.074h0c.037-.037.074-.074.074-.111a.036.036,0,0,1,.037-.037c0-.037.037-.037.037-.074a.036.036,0,0,1,.037-.037c0-.037,0-.037.037-.074V21.466a.8.8,0,0,0-.148-.445v-7.08a.744.744,0,0,0-.741-.741H34.59a.744.744,0,0,0-.741.741v7.117a.647.647,0,0,0-.148.445V24.58S33.7,24.617,33.7,24.654Zm11.121-.89H35.183V22.208h9.638Zm-3.966,5.709.853,10.083a1.852,1.852,0,0,1-.519,1.3,1.739,1.739,0,0,1-1.3.556,1.977,1.977,0,0,1-1.334-.556,1.809,1.809,0,0,1-.482-1.334l1.075-9.934a4.915,4.915,0,0,0-1.742-4.337h5.227A4.97,4.97,0,0,0,40.854,29.473Zm-5.523-14.79h1.52v1.223a.741.741,0,0,0,1.483,0V14.683H39v.667a.741.741,0,1,0,1.483,0v-.667h4.152v6.079h-9.3Z" transform="matrix(-0.891, -0.454, 0.454, -0.891, 35.33, 59.239)" fill="#9bafbf"/>
</svg>
