<svg xmlns="http://www.w3.org/2000/svg" width="20.241" height="20.178" viewBox="0 0 20.241 20.178">
  <g id="Group_18216" data-name="Group 18216" transform="translate(-19.759 -312)">
    <g id="Group_18210" data-name="Group 18210" transform="translate(19.759 312)">
      <g id="Path_8583" data-name="Path 8583" transform="translate(0 -1)" fill="transparent">
        <path d="M 17.86670112609863 20.17812538146973 L 2.373900175094604 20.17812538146973 C 1.61633026599884 20.17812538146973 1.000000238418579 19.56180381774902 1.000000238418579 18.80423545837402 L 1.000000238418579 3.373894691467285 C 1.000000238418579 2.616324663162231 1.61633026599884 2.000004529953003 2.373900175094604 2.000004529953003 L 17.86670112609863 2.000004529953003 C 18.62426948547363 2.000004529953003 19.2406005859375 2.616324663162231 19.2406005859375 3.373894691467285 L 19.2406005859375 18.80423545837402 C 19.2406005859375 19.56180381774902 18.62426948547363 20.17812538146973 17.86670112609863 20.17812538146973 Z" stroke="none"/>
        <path d="M 2.373899459838867 3.000003814697266 C 2.167730331420898 3.000003814697266 2 3.167734146118164 2 3.373893737792969 L 2 18.80423355102539 C 2 19.01039505004883 2.167730331420898 19.17812538146973 2.373899459838867 19.17812538146973 L 17.86670112609863 19.17812538146973 C 18.0728702545166 19.17812538146973 18.2406005859375 19.01039505004883 18.2406005859375 18.80423355102539 L 18.2406005859375 3.373893737792969 C 18.2406005859375 3.167734146118164 18.0728702545166 3.000003814697266 17.86670112609863 3.000003814697266 L 2.373899459838867 3.000003814697266 M 2.373899459838867 1.000003814697266 L 17.86670112609863 1.000003814697266 C 19.17777061462402 1.000003814697266 20.2406005859375 2.062833786010742 20.2406005859375 3.373893737792969 L 20.2406005859375 18.80423355102539 C 20.2406005859375 20.11529541015625 19.17777061462402 21.17812538146973 17.86670112609863 21.17812538146973 L 2.373899459838867 21.17812538146973 C 1.062829971313477 21.17812538146973 0 20.11529541015625 0 18.80423355102539 L 0 3.373893737792969 C 0 2.062833786010742 1.062829971313477 1.000003814697266 2.373899459838867 1.000003814697266 Z" stroke="none" fill="#9bafbf"/>
      </g>
    </g>
    <path id="Path_8584" data-name="Path 8584" d="M-4033.68-2266.214h17.721" transform="translate(4054.818 2587.082)" fill="none" stroke="#9bafbf" stroke-width="2"/>
    <path id="Path_8585" data-name="Path 8585" d="M-4030.11-2265.714v10.8" transform="translate(4059.99 2585.727)" fill="none" stroke="#9bafbf" stroke-width="2"/>
  </g>
</svg>
