<svg xmlns="http://www.w3.org/2000/svg" width="22" height="21.932" viewBox="0 0 22 21.932">
  <g id="Group_18214" data-name="Group 18214" transform="translate(-20 -193.062)">
    <g id="Group_18213" data-name="Group 18213" transform="translate(20 193.062)">
      <g id="Group_18208" data-name="Group 18208">
        <g id="Path_8583" data-name="Path 8583" transform="translate(0 -1)" fill="transparent">
          <path d="M 19.41974830627441 21.93209838867188 L 2.580249071121216 21.93209838867188 C 1.708899021148682 21.93209838867188 0.9999990463256836 21.22319793701172 0.9999990463256836 20.35184860229492 L 0.9999990463256836 3.580248355865479 C 0.9999990463256836 2.708898305892944 1.708899021148682 1.999998211860657 2.580249071121216 1.999998211860657 L 19.41974830627441 1.999998211860657 C 20.29109954833984 1.999998211860657 21 2.708898305892944 21 3.580248355865479 L 21 20.35184860229492 C 21 21.22319793701172 20.29109954833984 21.93209838867188 19.41974830627441 21.93209838867188 Z" stroke="none"/>
          <path d="M 2.580249786376953 2.999998092651367 C 2.260299682617188 2.999998092651367 1.999998092651367 3.260297775268555 1.999998092651367 3.58024787902832 L 1.999998092651367 20.35184860229492 C 1.999998092651367 20.67179870605469 2.260299682617188 20.93209838867188 2.580249786376953 20.93209838867188 L 19.41974830627441 20.93209838867188 C 19.73969841003418 20.93209838867188 20 20.67179870605469 20 20.35184860229492 L 20 3.58024787902832 C 20 3.260297775268555 19.73969841003418 2.999998092651367 19.41974830627441 2.999998092651367 L 2.580249786376953 2.999998092651367 M 2.580249786376953 0.9999980926513672 L 19.41974830627441 0.9999980926513672 C 20.84477996826172 0.9999980926513672 22 2.155218124389648 22 3.58024787902832 L 22 20.35184860229492 C 22 21.77688789367676 20.84477996826172 22.93209838867188 19.41974830627441 22.93209838867188 L 2.580249786376953 22.93209838867188 C 1.155218124389648 22.93209838867188 -1.9073486328125e-06 21.77688789367676 -1.9073486328125e-06 20.35184860229492 L -1.9073486328125e-06 3.58024787902832 C -1.9073486328125e-06 2.155218124389648 1.155218124389648 0.9999980926513672 2.580249786376953 0.9999980926513672 Z" stroke="none" fill="#26A69A"/>
        </g>
      </g>
    </g>
  </g>
</svg>
