<svg xmlns="http://www.w3.org/2000/svg" xmlns:xlink="http://www.w3.org/1999/xlink" width="16" height="16" viewBox="0 0 16 16">
  <defs>
    <clipPath id="clip-Search">
      <rect width="16" height="16"/>
    </clipPath>
  </defs>
  <g id="Search" clip-path="url(#clip-Search)">
    <rect width="16" height="16" fill="transparent"/>
    <g id="Group_18348" data-name="Group 18348">
      <path id="Line_1" data-name="Line 1" d="M3,4a1,1,0,0,1-.707-.293l-3-3a1,1,0,0,1,0-1.414,1,1,0,0,1,1.414,0l3,3A1,1,0,0,1,3,4Z" transform="translate(11.5 11.5)" fill="#9bafbf"/>
      <path id="Ellipse_19" data-name="Ellipse 19" d="M7,2a5,5,0,1,0,5,5A5.006,5.006,0,0,0,7,2M7,0A7,7,0,1,1,0,7,7,7,0,0,1,7,0Z" fill="#9bafbf"/>
    </g>
  </g>
</svg>
