<svg id="Group_18236" data-name="Group 18236" xmlns="http://www.w3.org/2000/svg" width="14.353" height="14.353" viewBox="0 0 14.353 14.353">
  <g id="gear" transform="translate(0)">
    <path id="Path_8619" data-name="Path 8619" d="M137.041,133.609a3.432,3.432,0,1,0,3.432,3.432A3.436,3.436,0,0,0,137.041,133.609Zm0,6.006a2.574,2.574,0,1,1,2.574-2.574A2.577,2.577,0,0,1,137.041,139.615Zm0,0" transform="translate(-129.865 -129.865)" fill="#749dbd"/>
    <path id="Path_8620" data-name="Path 8620" d="M14.015,5.542l-1.1-.24a6,6,0,0,0-.355-.856l.611-.95a.429.429,0,0,0-.057-.535L11.392,1.243a.429.429,0,0,0-.535-.057l-.95.611a6,6,0,0,0-.856-.355l-.24-1.1A.429.429,0,0,0,8.392,0H5.961a.429.429,0,0,0-.419.338l-.24,1.1a6,6,0,0,0-.856.355L3.5,1.185a.429.429,0,0,0-.535.057L1.243,2.961a.429.429,0,0,0-.057.535l.611.95a6,6,0,0,0-.355.856l-1.1.24A.429.429,0,0,0,0,5.961v2.43a.429.429,0,0,0,.338.419l1.1.24a6,6,0,0,0,.355.856l-.611.95a.429.429,0,0,0,.057.535L2.961,13.11a.429.429,0,0,0,.535.057l.95-.611a6,6,0,0,0,.856.355l.24,1.1a.429.429,0,0,0,.419.338h2.43a.429.429,0,0,0,.419-.338l.24-1.1a6,6,0,0,0,.856-.355l.95.611a.429.429,0,0,0,.535-.057l1.719-1.719a.429.429,0,0,0,.057-.535l-.611-.95a6,6,0,0,0,.355-.856l1.1-.24a.429.429,0,0,0,.338-.419V5.961A.429.429,0,0,0,14.015,5.542Zm-.52,2.5-1.011.22a.429.429,0,0,0-.322.3,5.146,5.146,0,0,1-.475,1.146.429.429,0,0,0,.013.443l.56.871-1.23,1.23-.871-.56a.429.429,0,0,0-.443-.013,5.149,5.149,0,0,1-1.146.475.429.429,0,0,0-.3.322L8.046,13.5H6.307l-.22-1.011a.429.429,0,0,0-.3-.322,5.146,5.146,0,0,1-1.146-.475.429.429,0,0,0-.443.013l-.871.56-1.23-1.23.56-.871a.429.429,0,0,0,.013-.443A5.151,5.151,0,0,1,2.191,8.57a.429.429,0,0,0-.322-.3L.858,8.046V6.307l1.011-.22a.429.429,0,0,0,.322-.3,5.146,5.146,0,0,1,.475-1.146.429.429,0,0,0-.013-.443l-.56-.871,1.23-1.23.871.56a.429.429,0,0,0,.443.013,5.149,5.149,0,0,1,1.146-.475.429.429,0,0,0,.3-.322L6.307.858H8.046l.22,1.011a.429.429,0,0,0,.3.322,5.146,5.146,0,0,1,1.146.475.429.429,0,0,0,.443-.013l.871-.56,1.23,1.23-.56.871a.429.429,0,0,0-.013.443,5.146,5.146,0,0,1,.475,1.146.429.429,0,0,0,.322.3l1.012.22Zm0,0" transform="translate(0 0)" fill="#749dbd"/>
  </g>
</svg>
