<svg id="Group_18236" data-name="Group 18236" xmlns="http://www.w3.org/2000/svg" width="22.263" height="22.263" viewBox="0 0 22.263 22.263">
  <g id="gear" transform="translate(0)">
    <path id="Path_8619" data-name="Path 8619" d="M138.933,133.609a5.324,5.324,0,1,0,5.324,5.324A5.33,5.33,0,0,0,138.933,133.609Zm0,9.317a3.993,3.993,0,1,1,3.993-3.993A4,4,0,0,1,138.933,142.926Zm0,0" transform="translate(-127.801 -127.801)" fill="#749dbd"/>
    <path id="Path_8620" data-name="Path 8620" d="M21.739,8.6l-1.711-.372A9.312,9.312,0,0,0,19.477,6.9l.947-1.473a.665.665,0,0,0-.089-.83L17.67,1.927a.665.665,0,0,0-.83-.089l-1.473.947a9.313,9.313,0,0,0-1.328-.551L13.666.524A.665.665,0,0,0,13.016,0H9.247A.665.665,0,0,0,8.6.524L8.225,2.235A9.312,9.312,0,0,0,6.9,2.785L5.423,1.838a.665.665,0,0,0-.83.089L1.927,4.593a.665.665,0,0,0-.089.83L2.786,6.9a9.313,9.313,0,0,0-.551,1.328L.524,8.6A.665.665,0,0,0,0,9.247v3.77a.665.665,0,0,0,.524.65l1.711.372a9.312,9.312,0,0,0,.551,1.328L1.838,16.84a.665.665,0,0,0,.089.83l2.666,2.666a.665.665,0,0,0,.83.089L6.9,19.477a9.312,9.312,0,0,0,1.328.551L8.6,21.739a.665.665,0,0,0,.65.524h3.77a.665.665,0,0,0,.65-.524l.372-1.711a9.312,9.312,0,0,0,1.328-.551l1.473.947a.665.665,0,0,0,.83-.089l2.666-2.666a.665.665,0,0,0,.089-.83l-.947-1.473a9.312,9.312,0,0,0,.551-1.328l1.711-.372a.665.665,0,0,0,.524-.65V9.247A.665.665,0,0,0,21.739,8.6Zm-.807,3.884-1.569.341a.666.666,0,0,0-.5.471,7.982,7.982,0,0,1-.737,1.778.665.665,0,0,0,.02.687l.869,1.351-1.907,1.907-1.352-.869a.665.665,0,0,0-.687-.02,7.987,7.987,0,0,1-1.778.737.666.666,0,0,0-.471.5l-.341,1.569h-2.7l-.341-1.569a.666.666,0,0,0-.471-.5,7.982,7.982,0,0,1-1.778-.737.665.665,0,0,0-.687.02l-1.351.869L3.248,17.108l.869-1.351a.665.665,0,0,0,.02-.687A7.99,7.99,0,0,1,3.4,13.292a.665.665,0,0,0-.5-.471L1.33,12.48v-2.7L2.9,9.442a.666.666,0,0,0,.5-.471,7.982,7.982,0,0,1,.737-1.778.665.665,0,0,0-.02-.687L3.247,5.155,5.155,3.247l1.352.869a.665.665,0,0,0,.687.02A7.987,7.987,0,0,1,8.97,3.4a.666.666,0,0,0,.471-.5L9.783,1.33h2.7L12.821,2.9a.666.666,0,0,0,.471.5,7.982,7.982,0,0,1,1.778.737.665.665,0,0,0,.687-.02l1.351-.869,1.907,1.907-.869,1.351a.665.665,0,0,0-.02.687,7.982,7.982,0,0,1,.737,1.778.665.665,0,0,0,.5.471l1.569.341Zm0,0" transform="translate(0 0)" fill="#749dbd"/>
  </g>
</svg>
