<svg width="25" height="23" viewBox="0 0 25 23" fill="none" xmlns="http://www.w3.org/2000/svg">
<path d="M5.33301 19.5H23.0615" stroke="#26A69A" stroke-width="1.2"/>
<path d="M5.33301 9.5H19.2861" stroke="#26A69A" stroke-width="1.2"/>
<path d="M5.33496 3.5H23.0645" stroke="#26A69A" stroke-width="1.2"/>
<path d="M3.5 21.5C4.60457 21.5 5.5 20.6046 5.5 19.5C5.5 18.3954 4.60457 17.5 3.5 17.5C2.39543 17.5 1.5 18.3954 1.5 19.5C1.5 20.6046 2.39543 21.5 3.5 21.5Z" stroke="#26A69A" stroke-width="1.2"/>
<path d="M21.5 11.5C22.6046 11.5 23.5 10.6046 23.5 9.5C23.5 8.39543 22.6046 7.5 21.5 7.5C20.3954 7.5 19.5 8.39543 19.5 9.5C19.5 10.6046 20.3954 11.5 21.5 11.5Z" stroke="#26A69A" stroke-width="1.2"/>
<path d="M3.5 11.5C4.60457 11.5 5.5 10.6046 5.5 9.5C5.5 8.39543 4.60457 7.5 3.5 7.5C2.39543 7.5 1.5 8.39543 1.5 9.5C1.5 10.6046 2.39543 11.5 3.5 11.5Z" stroke="#26A69A" stroke-width="1.2"/>
<path d="M3.5 5.5C4.60457 5.5 5.5 4.60457 5.5 3.5C5.5 2.39543 4.60457 1.5 3.5 1.5C2.39543 1.5 1.5 2.39543 1.5 3.5C1.5 4.60457 2.39543 5.5 3.5 5.5Z" stroke="#26A69A" stroke-width="1.2"/>
<path d="M22.5 17.641L6.06288 11" stroke="#26A69A" stroke-width="1.2" stroke-dasharray="2 3"/>
</svg>
