<svg xmlns="http://www.w3.org/2000/svg" xmlns:xlink="http://www.w3.org/1999/xlink" width="32" height="32" viewBox="0 0 32 32">
  <defs>
    <clipPath id="clip-Signpost">
      <rect width="32" height="32"/>
    </clipPath>
  </defs>
  <g id="Signpost" clip-path="url(#clip-Signpost)">
    <g id="Signpost-2" data-name="Signpost" transform="translate(6 3.375)">
      <path id="Path_8731" data-name="Path 8731" d="M-11582.306-5918.046s5.159-3.287-1.194-6.62" transform="translate(11882.127 5318.937) rotate(-3)" fill="none" stroke="#26a79b" stroke-width="1"/>
      <g id="Signpost-3" data-name="Signpost">
        <path id="Path_8736" data-name="Path 8736" d="M1.146,0S6.354,3.333,0,6.667" transform="translate(15.276 15.28) rotate(-177)" fill="none" stroke="#26a79b" stroke-width="1"/>
        <path id="Path_8732" data-name="Path 8732" d="M-11582.354-5918s5.207-3.333-1.146-6.667" transform="matrix(0.454, 0.891, -0.891, 0.454, -10.337, 13015.256)" fill="none" stroke="#26a79b" stroke-width="1"/>
        <path id="Path_8737" data-name="Path 8737" d="M1.146,0S6.549,3.734.2,7.067" transform="matrix(-0.454, 0.891, -0.891, -0.454, 16.214, 7.565)" fill="none" stroke="#26a79b" stroke-width="1"/>
        <path id="Path_8735" data-name="Path 8735" d="M-11581.949-5916.253c.753-1.312,4.141-3.914-.426-7.564" transform="translate(7108.51 -10884.965) rotate(-84)" fill="none" stroke="#26a79b" stroke-width="1"/>
        <g id="Ellipse_18" data-name="Ellipse 18" fill="none" stroke="#26a79b" stroke-width="1">
          <circle cx="10" cy="10" r="10" stroke="none"/>
          <circle cx="10" cy="10" r="9.5" fill="none"/>
        </g>
        <path id="Path_8738" data-name="Path 8738" d="M-11578-5907v-6.094" transform="translate(11588 5933)" fill="none" stroke="#26a79b" stroke-width="1"/>
      </g>
    </g>
  </g>
</svg>
