<svg xmlns="http://www.w3.org/2000/svg" width="22.599" height="17.553" viewBox="0 0 22.599 17.553">
  <g id="Group_18344" data-name="Group 18344" transform="translate(-85.504 -335.5)">
    <g id="Group_18336" data-name="Group 18336" transform="translate(-3.996 203.553)">
      <path id="Path_8703" data-name="Path 8703" d="M-7424.473-2810.1h21" transform="translate(7513.973 2946.605)" fill="none" stroke="#26a69a" stroke-width="1.4"/>
      <g id="Group_18327" data-name="Group 18327" transform="matrix(0.755, 0.656, -0.656, 0.755, 2217.126, 3913.569)">
        <g id="Group_18328" data-name="Group 18328" transform="translate(4.015 -1.968)">
          <g id="Ellipse_2" data-name="Ellipse 2" transform="translate(-4077.32 -1467.86)" fill="#fff" stroke="#26a69a" stroke-width="1.5">
            <ellipse cx="3.207" cy="3.245" rx="3.207" ry="3.245" stroke="none"/>
            <ellipse cx="3.207" cy="3.245" rx="2.457" ry="2.495" fill="none"/>
          </g>
        </g>
      </g>
    </g>
    <g id="Group_18335" data-name="Group 18335" transform="translate(-3.996 212)">
      <path id="Path_8703-2" data-name="Path 8703" d="M-7424.473-2810.1h21" transform="translate(7513.973 2946.605)" fill="none" stroke="#26a69a" stroke-width="1.4"/>
      <g id="Group_18327-2" data-name="Group 18327" transform="matrix(0.755, 0.656, -0.656, 0.755, 2215.126, 3913.569)">
        <g id="Group_18328-2" data-name="Group 18328" transform="translate(4.015 -1.968)">
          <g id="Ellipse_2-2" data-name="Ellipse 2" transform="translate(-4077.32 -1467.86)" fill="#fff" stroke="#26a69a" stroke-width="1.5">
            <ellipse cx="3.207" cy="3.245" rx="3.207" ry="3.245" stroke="none"/>
            <ellipse cx="3.207" cy="3.245" rx="2.457" ry="2.495" fill="none"/>
          </g>
        </g>
      </g>
      <g id="Group_18334" data-name="Group 18334" transform="matrix(0.755, 0.656, -0.656, 0.755, 2203.626, 3913.569)">
        <g id="Group_18328-3" data-name="Group 18328" transform="translate(4.015 -1.968)">
          <g id="Ellipse_2-3" data-name="Ellipse 2" transform="translate(-4077.32 -1467.86)" fill="#fff" stroke="#26a69a" stroke-width="1.5">
            <ellipse cx="3.207" cy="3.245" rx="3.207" ry="3.245" stroke="none"/>
            <ellipse cx="3.207" cy="3.245" rx="2.457" ry="2.495" fill="none"/>
          </g>
        </g>
      </g>
    </g>
  </g>
</svg>
