<svg xmlns="http://www.w3.org/2000/svg" width="12.991" height="13.646" viewBox="0 0 12.991 13.646">
  <g id="Group_18295" data-name="Group 18295" transform="translate(-16.4 -14.7)">
    <path id="Path_8662" data-name="Path 8662" d="M38.455,16.611A6.439,6.439,0,0,0,33.861,14.7a6.372,6.372,0,0,0-3.494,1.023.49.49,0,1,0,.521.83,5.539,5.539,0,1,1,2.973,10.211,5.93,5.93,0,0,1-1.023-.1l.27-.54a.368.368,0,0,0-.347-.54l-2.374.077a.376.376,0,0,0-.29.6l1.39,1.93a.372.372,0,0,0,.637-.058l.29-.579a6.225,6.225,0,0,0,1.467.174,6.525,6.525,0,0,0,6.505-6.505A6.549,6.549,0,0,0,38.455,16.611Z" transform="translate(-10.994)" fill="#749dbd"/>
    <path id="Path_8663" data-name="Path 8663" d="M47.883,22.8a.478.478,0,0,0-.483.483v4.459h0V27.9a88317370860.9,88317370860.9,0,0,0,.077.077l.019.019a.019.019,0,0,0,.019.019l.019.019.019.019.019.019.019.019h0L50.141,30a.574.574,0,0,0,.29.1.451.451,0,0,0,.386-.193.488.488,0,0,0-.1-.676l-2.355-1.776V23.283A.478.478,0,0,0,47.883,22.8Z" transform="translate(-25.016 -6.536)" fill="#749dbd"/>
    <circle id="Ellipse_10" data-name="Ellipse 10" cx="0.463" cy="0.463" r="0.463" transform="matrix(0.5, -0.866, 0.866, 0.5, 17.048, 18.379)" fill="#749dbd"/>
    <circle id="Ellipse_11" data-name="Ellipse 11" cx="0.463" cy="0.463" r="0.463" transform="translate(16.4 20.742)" fill="#749dbd"/>
    <circle id="Ellipse_12" data-name="Ellipse 12" cx="0.463" cy="0.463" r="0.463" transform="matrix(0.866, -0.5, 0.5, 0.866, 17.037, 24.028)" fill="#749dbd"/>
  </g>
</svg>
