<svg xmlns="http://www.w3.org/2000/svg" width="9.997" height="10" viewBox="0 0 9.997 10">
  <g id="Group_18761" data-name="Group 18761" transform="translate(0 0)">
    <path id="Icon_ionic-ios-arrow-back" data-name="Icon ionic-ios-arrow-back" d="M12.974,11.192l3.784-3.781A.715.715,0,1,0,15.746,6.4l-4.287,4.284a.713.713,0,0,0-.021.985l4.3,4.314a.715.715,0,1,0,1.012-1.009Z" transform="translate(-6.971 -6.194)" fill="#686868"/>
    <path id="Icon_ionic-ios-arrow-back-2" data-name="Icon ionic-ios-arrow-back" d="M12.974,11.192l3.784-3.781A.715.715,0,1,0,15.746,6.4l-4.287,4.284a.713.713,0,0,0-.021.985l4.3,4.314a.715.715,0,1,0,1.012-1.009Z" transform="translate(-11.25 -6.194)" fill="#686868"/>
  </g>
</svg>
