<svg xmlns="http://www.w3.org/2000/svg" width="11.679" height="11.683" viewBox="0 0 11.679 11.683">
  <g id="Group_18760" data-name="Group 18760" transform="translate(-907.251 -389)">
    <path id="Icon_ionic-ios-arrow-back" data-name="Icon ionic-ios-arrow-back" d="M15.916,12.034,11.5,7.617a.835.835,0,0,1,1.183-1.179l5.008,5a.833.833,0,0,1,.024,1.151l-5.029,5.04A.835.835,0,0,1,11.5,16.454Z" transform="translate(896 382.806)" fill="#fff"/>
    <path id="Icon_ionic-ios-arrow-back-2" data-name="Icon ionic-ios-arrow-back" d="M15.916,12.034,11.5,7.617a.835.835,0,0,1,1.183-1.179l5.008,5a.833.833,0,0,1,.024,1.151l-5.029,5.04A.835.835,0,0,1,11.5,16.454Z" transform="translate(901 382.806)" fill="#fff"/>
  </g>
</svg>
