<svg xmlns="http://www.w3.org/2000/svg" width="2444.586" height="258.496" viewBox="0 0 2444.586 258.496">
  <g id="Group_19194" data-name="Group 19194" transform="translate(1691.793 -910)">
    <g id="Group_19192" data-name="Group 19192" transform="translate(-1724.29 425.999)">
      <g id="Group_18204" data-name="Group 18204" transform="translate(393.094 -237.809)" opacity="0.53">
        <path id="Path_8527" data-name="Path 8527" d="M843.808,800.494V965.867H240V805.486l98.325-47.969,81.044,5.964,72.055-1.758,83.9-41.775,72.551,30.71,61.954-9.177,92.092,30.6Z" transform="translate(0.357 13.469)" fill="#26a69a"/>
        <path id="Path_8528" data-name="Path 8528" d="M240.36,806.768a.958.958,0,0,1-.857-.524.939.939,0,0,1,.431-1.266l97.846-47.968a.881.881,0,0,1,.5-.094l81.523,5.964,71.745-1.755,83.708-41.681a.969.969,0,0,1,.809-.023l72.3,30.6,61.864-9.232a1,1,0,0,1,.45.041l91.91,30.7a1.032,1.032,0,0,1,.236.116L844.7,800.054a.936.936,0,0,1,.249,1.313.958.958,0,0,1-1.33.242l-41.777-28.333L710.282,742.7l-61.905,9.236a1,1,0,0,1-.52-.067l-72.139-30.536-83.5,41.578a.953.953,0,0,1-.405.1l-72.056,1.758L338.4,758.819l-97.611,47.852A.959.959,0,0,1,240.36,806.768Z" transform="translate(0 13.129)" fill="#fff"/>
        <path id="Path_8529" data-name="Path 8529" d="M240,910.285l97.846-40.922,81.523-45.156,72.054-.928,84.38-40.39L648.354,848.3l61-15.143,92.091-22.89L843.808,828.6V930.441H240Z" transform="translate(0.357 48.894)" fill="#0f8d82"/>
        <g id="Group_18189" data-name="Group 18189" transform="translate(337.727 732.946)">
          <g id="Group_18164" data-name="Group 18164" transform="translate(0 37.569)" opacity="0.35">
            <g id="Group_18161" data-name="Group 18161">
              <path id="Path_8530" data-name="Path 8530" d="M301.486,748.406a.475.475,0,0,1-.479-.472v-3.777a.478.478,0,0,1,.956,0v3.777A.475.475,0,0,1,301.486,748.406Z" transform="translate(-301.007 -743.686)" fill="#fff"/>
            </g>
            <g id="Group_18162" data-name="Group 18162" transform="translate(0 15.142)">
              <path id="Path_8531" data-name="Path 8531" d="M301.486,932.382a.476.476,0,0,1-.479-.472v-7.575a.478.478,0,0,1,.956,0v7.575A.475.475,0,0,1,301.486,932.382Zm0-18.941a.476.476,0,0,1-.479-.472v-7.577a.478.478,0,0,1,.956,0v7.577A.475.475,0,0,1,301.486,913.44Zm0-18.943a.476.476,0,0,1-.479-.472v-7.578a.478.478,0,0,1,.956,0v7.578A.476.476,0,0,1,301.486,894.5Zm0-18.943a.476.476,0,0,1-.479-.473V867.5a.478.478,0,0,1,.956,0v7.577A.476.476,0,0,1,301.486,875.554Zm0-18.943a.476.476,0,0,1-.479-.472v-7.578a.478.478,0,0,1,.956,0v7.578A.476.476,0,0,1,301.486,856.611Zm0-18.943a.475.475,0,0,1-.479-.472v-7.577a.478.478,0,0,1,.956,0V837.2A.475.475,0,0,1,301.486,837.668Zm0-18.943a.475.475,0,0,1-.479-.47v-7.58a.478.478,0,0,1,.956,0v7.58A.474.474,0,0,1,301.486,818.725Zm0-18.943a.476.476,0,0,1-.479-.472v-7.577a.478.478,0,0,1,.956,0v7.577A.476.476,0,0,1,301.486,799.782Zm0-18.943a.475.475,0,0,1-.479-.472V772.79a.478.478,0,0,1,.956,0v7.577A.475.475,0,0,1,301.486,780.839Zm0-18.943a.475.475,0,0,1-.479-.472v-7.577a.478.478,0,0,1,.956,0v7.577A.475.475,0,0,1,301.486,761.9Z" transform="translate(-301.007 -753.375)" fill="#fff"/>
            </g>
            <g id="Group_18163" data-name="Group 18163" transform="translate(0 204.571)">
              <path id="Path_8532" data-name="Path 8532" d="M301.486,879.3a.475.475,0,0,1-.479-.47v-3.777a.478.478,0,0,1,.956,0v3.777A.474.474,0,0,1,301.486,879.3Z" transform="translate(-301.007 -874.584)" fill="#fff"/>
            </g>
          </g>
          <g id="Group_18168" data-name="Group 18168" transform="translate(81.523 43.533)">
            <g id="Group_18165" data-name="Group 18165">
              <path id="Path_8533" data-name="Path 8533" d="M352.563,752.222a.474.474,0,0,1-.479-.47v-3.777a.478.478,0,0,1,.956,0v3.777A.473.473,0,0,1,352.563,752.222Z" transform="translate(-352.084 -747.502)" fill="#cfccff"/>
            </g>
            <g id="Group_18166" data-name="Group 18166" transform="translate(0 14.806)" opacity="0.35">
              <path id="Path_8534" data-name="Path 8534" d="M352.563,930.694a.476.476,0,0,1-.479-.474v-7.352a.478.478,0,0,1,.956,0v7.352A.476.476,0,0,1,352.563,930.694Zm0-18.382a.475.475,0,0,1-.479-.472v-7.352a.478.478,0,0,1,.956,0v7.352A.475.475,0,0,1,352.563,912.312Zm0-18.379a.475.475,0,0,1-.479-.472v-7.353a.478.478,0,0,1,.956,0v7.353A.475.475,0,0,1,352.563,893.933Zm0-18.38a.475.475,0,0,1-.479-.472v-7.352a.478.478,0,0,1,.956,0v7.352A.475.475,0,0,1,352.563,875.553Zm0-18.38a.476.476,0,0,1-.479-.472v-7.353a.478.478,0,0,1,.956,0V856.7A.476.476,0,0,1,352.563,857.172Zm0-18.38a.476.476,0,0,1-.479-.472v-7.353a.478.478,0,0,1,.956,0v7.353A.476.476,0,0,1,352.563,838.792Zm0-18.381a.474.474,0,0,1-.479-.47v-7.353a.478.478,0,0,1,.956,0v7.353A.474.474,0,0,1,352.563,820.411Zm0-18.38a.476.476,0,0,1-.479-.472v-7.351a.478.478,0,0,1,.956,0v7.351A.476.476,0,0,1,352.563,802.031Zm0-18.381a.476.476,0,0,1-.479-.472v-7.352a.478.478,0,0,1,.956,0v7.352A.475.475,0,0,1,352.563,783.65Zm0-18.38a.476.476,0,0,1-.479-.472v-7.352a.478.478,0,0,1,.956,0V764.8A.475.475,0,0,1,352.563,765.27Z" transform="translate(-352.084 -756.976)" fill="#fff" stroke="rgba(0,0,0,0)" stroke-width="1"/>
            </g>
            <g id="Group_18167" data-name="Group 18167" transform="translate(0 198.608)">
              <path id="Path_8535" data-name="Path 8535" d="M352.563,879.3a.475.475,0,0,1-.479-.47v-3.777a.478.478,0,0,1,.956,0v3.777A.474.474,0,0,1,352.563,879.3Z" transform="translate(-352.084 -874.584)" fill="#cfccff"/>
            </g>
          </g>
          <g id="Group_18172" data-name="Group 18172" transform="translate(153.578 41.775)" opacity="0.35">
            <g id="Group_18169" data-name="Group 18169">
              <path id="Path_8536" data-name="Path 8536" d="M397.706,751.1a.473.473,0,0,1-.477-.47v-3.777a.478.478,0,0,1,.956,0v3.777A.474.474,0,0,1,397.706,751.1Z" transform="translate(-397.229 -746.377)" fill="#fff" stroke="rgba(0,0,0,0)" stroke-width="1"/>
            </g>
            <g id="Group_18170" data-name="Group 18170" transform="translate(0 14.905)">
              <path id="Path_8537" data-name="Path 8537" d="M397.706,931.19a.474.474,0,0,1-.477-.471V923.3a.478.478,0,0,1,.956,0v7.417A.475.475,0,0,1,397.706,931.19Zm0-18.546a.475.475,0,0,1-.477-.472v-7.417a.478.478,0,0,1,.956,0v7.417A.475.475,0,0,1,397.706,912.644Zm0-18.544a.476.476,0,0,1-.477-.472v-7.419a.478.478,0,0,1,.956,0v7.419A.476.476,0,0,1,397.706,894.1Zm0-18.546a.475.475,0,0,1-.477-.472v-7.419a.478.478,0,0,1,.956,0v7.419A.476.476,0,0,1,397.706,875.553Zm0-18.546a.476.476,0,0,1-.477-.472v-7.417a.478.478,0,0,1,.956,0v7.417A.476.476,0,0,1,397.706,857.007Zm0-18.546a.475.475,0,0,1-.477-.472v-7.417a.478.478,0,0,1,.956,0v7.417A.476.476,0,0,1,397.706,838.461Zm0-18.546a.476.476,0,0,1-.477-.472v-7.419a.478.478,0,0,1,.956,0v7.419A.476.476,0,0,1,397.706,819.915Zm0-18.546a.476.476,0,0,1-.477-.474v-7.417a.478.478,0,0,1,.956,0V800.9A.476.476,0,0,1,397.706,801.369Zm0-18.546a.475.475,0,0,1-.477-.472v-7.419a.478.478,0,0,1,.956,0v7.419A.475.475,0,0,1,397.706,782.823Zm0-18.546a.475.475,0,0,1-.477-.474v-7.417a.478.478,0,0,1,.956,0V763.8A.475.475,0,0,1,397.706,764.277Z" transform="translate(-397.229 -755.914)" fill="#fff" stroke="rgba(0,0,0,0)" stroke-width="1"/>
            </g>
            <g id="Group_18171" data-name="Group 18171" transform="translate(0 200.366)">
              <path id="Path_8538" data-name="Path 8538" d="M397.706,879.3a.474.474,0,0,1-.477-.47v-3.777a.478.478,0,0,1,.956,0v3.777A.475.475,0,0,1,397.706,879.3Z" transform="translate(-397.229 -874.584)" fill="#fff" stroke="rgba(0,0,0,0)" stroke-width="1"/>
            </g>
          </g>
          <g id="Group_18176" data-name="Group 18176" transform="translate(237.479)">
            <g id="Group_18173" data-name="Group 18173">
              <path id="Path_8539" data-name="Path 8539" d="M450.275,724.367a.476.476,0,0,1-.479-.474v-3.776a.478.478,0,0,1,.956,0v3.776A.475.475,0,0,1,450.275,724.367Z" transform="translate(-449.796 -719.647)" fill="#cfccff"/>
            </g>
            <g id="Group_18174" data-name="Group 18174" transform="translate(0 15.125)">
              <path id="Path_8540" data-name="Path 8540" d="M450.275,945.933a.477.477,0,0,1-.479-.472v-7.569a.478.478,0,0,1,.956,0v7.569A.475.475,0,0,1,450.275,945.933Zm0-18.92a.476.476,0,0,1-.479-.47v-7.566a.478.478,0,0,1,.956,0v7.566A.474.474,0,0,1,450.275,927.014Zm0-18.915a.477.477,0,0,1-.479-.474v-7.567a.478.478,0,0,1,.956,0v7.567A.476.476,0,0,1,450.275,908.1Zm0-18.92a.476.476,0,0,1-.479-.47V881.14a.478.478,0,0,1,.956,0v7.569A.474.474,0,0,1,450.275,889.179Zm0-18.918a.477.477,0,0,1-.479-.472v-7.566a.478.478,0,0,1,.956,0v7.566A.475.475,0,0,1,450.275,870.261Zm0-18.918a.475.475,0,0,1-.479-.47v-7.567a.478.478,0,0,1,.956,0v7.567A.473.473,0,0,1,450.275,851.343Zm0-18.917a.477.477,0,0,1-.479-.474v-7.567a.478.478,0,0,1,.956,0v7.567A.476.476,0,0,1,450.275,832.427Zm0-18.918a.476.476,0,0,1-.479-.47v-7.567a.478.478,0,0,1,.956,0v7.567A.474.474,0,0,1,450.275,813.508Zm0-18.918a.477.477,0,0,1-.479-.472v-7.567a.478.478,0,0,1,.956,0v7.567A.475.475,0,0,1,450.275,794.59Zm0-18.918a.476.476,0,0,1-.479-.472v-7.567a.478.478,0,0,1,.956,0V775.2A.475.475,0,0,1,450.275,775.672Zm0-18.918a.476.476,0,0,1-.479-.472v-7.569a.478.478,0,0,1,.956,0v7.569A.474.474,0,0,1,450.275,756.754Zm0-18.916a.476.476,0,0,1-.479-.472V729.8a.478.478,0,0,1,.956,0v7.567A.474.474,0,0,1,450.275,737.838Z" transform="translate(-449.796 -729.325)" fill="#cfccff"/>
            </g>
            <g id="Group_18175" data-name="Group 18175" transform="translate(0 242.14)">
              <path id="Path_8541" data-name="Path 8541" d="M450.275,879.3a.476.476,0,0,1-.479-.47v-3.777a.478.478,0,0,1,.956,0v3.777A.474.474,0,0,1,450.275,879.3Z" transform="translate(-449.796 -874.584)" fill="#cfccff"/>
            </g>
          </g>
          <g id="Group_18180" data-name="Group 18180" transform="translate(310.028 30.708)">
            <g id="Group_18177" data-name="Group 18177">
              <path id="Path_8542" data-name="Path 8542" d="M495.73,744.017a.476.476,0,0,1-.479-.472v-3.776a.478.478,0,0,1,.956,0v3.776A.476.476,0,0,1,495.73,744.017Z" transform="translate(-495.251 -739.296)" fill="#cfccff"/>
            </g>
            <g id="Group_18178" data-name="Group 18178" transform="translate(0 15.53)">
              <path id="Path_8543" data-name="Path 8543" d="M495.73,934.325a.478.478,0,0,1-.479-.473v-7.833a.478.478,0,0,1,.956,0v7.833A.478.478,0,0,1,495.73,934.325Zm0-19.59a.477.477,0,0,1-.479-.472v-7.838a.478.478,0,0,1,.956,0v7.838A.477.477,0,0,1,495.73,914.735Zm0-19.59a.477.477,0,0,1-.479-.472v-7.838a.478.478,0,0,1,.956,0v7.838A.477.477,0,0,1,495.73,895.145Zm0-19.589a.477.477,0,0,1-.479-.472v-7.837a.478.478,0,0,1,.956,0v7.837A.477.477,0,0,1,495.73,875.557Zm0-19.593a.476.476,0,0,1-.479-.47v-7.836a.478.478,0,0,1,.956,0v7.836A.475.475,0,0,1,495.73,855.963Zm0-19.59a.477.477,0,0,1-.479-.471v-7.838a.478.478,0,0,1,.956,0V835.9A.476.476,0,0,1,495.73,836.373Zm0-19.589a.477.477,0,0,1-.479-.474v-7.834a.478.478,0,0,1,.956,0v7.834A.477.477,0,0,1,495.73,816.785Zm0-19.59a.477.477,0,0,1-.479-.472v-7.838a.478.478,0,0,1,.956,0v7.838A.477.477,0,0,1,495.73,797.195Zm0-19.59a.477.477,0,0,1-.479-.472V769.3a.478.478,0,0,1,.956,0v7.838A.477.477,0,0,1,495.73,777.6Zm0-19.59a.477.477,0,0,1-.479-.472v-7.836a.478.478,0,0,1,.956,0v7.836A.477.477,0,0,1,495.73,758.015Z" transform="translate(-495.251 -749.233)" fill="#cfccff"/>
            </g>
            <g id="Group_18179" data-name="Group 18179" transform="translate(0 211.432)">
              <path id="Path_8544" data-name="Path 8544" d="M495.73,879.3a.476.476,0,0,1-.479-.47v-3.777a.478.478,0,0,1,.956,0v3.777A.475.475,0,0,1,495.73,879.3Z" transform="translate(-495.251 -874.584)" fill="#cfccff"/>
            </g>
          </g>
          <g id="Group_18184" data-name="Group 18184" transform="translate(371.982 21.437)">
            <g id="Group_18181" data-name="Group 18181">
              <path id="Path_8545" data-name="Path 8545" d="M534.546,738.085a.476.476,0,0,1-.479-.472v-3.776a.479.479,0,0,1,.957,0v3.776A.476.476,0,0,1,534.546,738.085Z" transform="translate(-534.067 -733.364)" fill="#cfccff"/>
            </g>
            <g id="Group_18182" data-name="Group 18182" transform="translate(0 14.997)">
              <path id="Path_8546" data-name="Path 8546" d="M534.546,938.39a.477.477,0,0,1-.479-.472v-7.481a.479.479,0,0,1,.957,0v7.481A.477.477,0,0,1,534.546,938.39Zm0-18.7a.477.477,0,0,1-.479-.474v-7.48a.479.479,0,0,1,.957,0v7.48A.477.477,0,0,1,534.546,919.69Zm0-18.7a.477.477,0,0,1-.479-.472v-7.478a.479.479,0,0,1,.957,0v7.478A.477.477,0,0,1,534.546,900.987Zm0-18.7a.475.475,0,0,1-.479-.47v-7.483a.479.479,0,0,1,.957,0v7.483A.475.475,0,0,1,534.546,882.288Zm0-18.7a.477.477,0,0,1-.479-.472v-7.481a.479.479,0,0,1,.957,0v7.481A.477.477,0,0,1,534.546,863.589Zm0-18.7a.477.477,0,0,1-.479-.472v-7.482a.479.479,0,0,1,.957,0v7.482A.477.477,0,0,1,534.546,844.888Zm0-18.7a.476.476,0,0,1-.479-.472v-7.478a.479.479,0,0,1,.957,0v7.478A.476.476,0,0,1,534.546,826.185Zm0-18.7a.476.476,0,0,1-.479-.472v-7.48a.479.479,0,0,1,.957,0v7.48A.476.476,0,0,1,534.546,807.485Zm0-18.7a.476.476,0,0,1-.479-.472v-7.48a.479.479,0,0,1,.957,0v7.48A.476.476,0,0,1,534.546,788.785Zm0-18.7a.475.475,0,0,1-.479-.47v-7.481a.479.479,0,0,1,.957,0v7.481A.475.475,0,0,1,534.546,770.084Zm0-18.7a.476.476,0,0,1-.479-.474v-7.478a.479.479,0,0,1,.957,0v7.478A.476.476,0,0,1,534.546,751.385Z" transform="translate(-534.067 -742.96)" fill="#cfccff"/>
            </g>
            <g id="Group_18183" data-name="Group 18183" transform="translate(0 220.703)">
              <path id="Path_8547" data-name="Path 8547" d="M534.546,879.3a.476.476,0,0,1-.479-.47v-3.777a.479.479,0,0,1,.957,0v3.777A.475.475,0,0,1,534.546,879.3Z" transform="translate(-534.067 -874.584)" fill="#cfccff"/>
            </g>
          </g>
          <g id="Group_18188" data-name="Group 18188" transform="translate(464.073 52.136)">
            <g id="Group_18185" data-name="Group 18185">
              <path id="Path_8548" data-name="Path 8548" d="M592.243,757.728a.474.474,0,0,1-.477-.472v-3.776a.478.478,0,0,1,.956,0v3.776A.476.476,0,0,1,592.243,757.728Z" transform="translate(-591.766 -753.007)" fill="#cfccff"/>
            </g>
            <g id="Group_18186" data-name="Group 18186" transform="translate(0 15.416)">
              <path id="Path_8549" data-name="Path 8549" d="M592.243,926.765a.476.476,0,0,1-.477-.472v-7.761a.478.478,0,0,1,.956,0v7.761A.477.477,0,0,1,592.243,926.765Zm0-19.4a.476.476,0,0,1-.477-.473v-7.76a.478.478,0,0,1,.956,0v7.76A.477.477,0,0,1,592.243,907.366Zm0-19.4a.476.476,0,0,1-.477-.474v-7.759a.478.478,0,0,1,.956,0v7.759A.477.477,0,0,1,592.243,887.968Zm0-19.4a.475.475,0,0,1-.477-.472v-7.759a.478.478,0,0,1,.956,0v7.759A.477.477,0,0,1,592.243,868.567Zm0-19.4a.474.474,0,0,1-.477-.472v-7.759a.478.478,0,0,1,.956,0V848.7A.476.476,0,0,1,592.243,849.169Zm0-19.4a.475.475,0,0,1-.477-.472v-7.759a.478.478,0,0,1,.956,0V829.3A.477.477,0,0,1,592.243,829.77Zm0-19.4a.476.476,0,0,1-.477-.472V802.14a.478.478,0,0,1,.956,0V809.9A.477.477,0,0,1,592.243,810.372Zm0-19.4a.474.474,0,0,1-.477-.472v-7.761a.478.478,0,0,1,.956,0V790.5A.476.476,0,0,1,592.243,790.974Zm0-19.4a.475.475,0,0,1-.477-.472v-7.76a.478.478,0,0,1,.956,0v7.76A.477.477,0,0,1,592.243,771.574Z" transform="translate(-591.766 -762.871)" fill="#cfccff"/>
            </g>
            <g id="Group_18187" data-name="Group 18187" transform="translate(0 190.004)">
              <path id="Path_8550" data-name="Path 8550" d="M592.243,879.3a.474.474,0,0,1-.477-.47v-3.777a.478.478,0,0,1,.956,0v3.777A.475.475,0,0,1,592.243,879.3Z" transform="translate(-591.766 -874.584)" fill="#cfccff"/>
            </g>
          </g>
        </g>
        <g id="Group_18193" data-name="Group 18193" transform="translate(484.836 768.333)">
          <path id="Path_8557" data-name="Path 8557" d="M407.073,749.149a6.949,6.949,0,1,1-6.951-6.859A6.907,6.907,0,0,1,407.073,749.149Z" transform="translate(-393.176 -742.29)" fill="#fff"/>
          <path id="Path_8558" data-name="Path 8558" d="M404.784,748.557a5.283,5.283,0,1,1-5.285-5.214A5.252,5.252,0,0,1,404.784,748.557Z" transform="translate(-392.554 -741.697)" fill="#0f8d82"/>
        </g>
        <g id="Group_18201" data-name="Group 18201" transform="translate(569.27 727.98)">
          <path id="Path_8557-2" data-name="Path 8557" d="M407.073,749.149a6.949,6.949,0,1,1-6.951-6.859A6.907,6.907,0,0,1,407.073,749.149Z" transform="translate(-393.176 -742.29)" fill="#fff"/>
          <path id="Path_8558-2" data-name="Path 8558" d="M404.784,748.557a5.283,5.283,0,1,1-5.285-5.214A5.252,5.252,0,0,1,404.784,748.557Z" transform="translate(-392.554 -741.697)" fill="#0f8d82"/>
        </g>
        <g id="Group_18202" data-name="Group 18202" transform="translate(642.647 755.538)">
          <path id="Path_8557-3" data-name="Path 8557" d="M407.073,749.149a6.949,6.949,0,1,1-6.951-6.859A6.907,6.907,0,0,1,407.073,749.149Z" transform="translate(-393.176 -742.29)" fill="#fff"/>
          <path id="Path_8558-3" data-name="Path 8558" d="M404.784,748.557a5.283,5.283,0,1,1-5.285-5.214A5.252,5.252,0,0,1,404.784,748.557Z" transform="translate(-392.554 -741.697)" fill="#0f8d82"/>
        </g>
        <g id="Group_18203" data-name="Group 18203" transform="translate(795.809 780.233)">
          <path id="Path_8557-4" data-name="Path 8557" d="M407.073,749.149a6.949,6.949,0,1,1-6.951-6.859A6.907,6.907,0,0,1,407.073,749.149Z" transform="translate(-393.176 -742.29)" fill="#fff"/>
          <path id="Path_8558-4" data-name="Path 8558" d="M404.784,748.557a5.283,5.283,0,1,1-5.285-5.214A5.252,5.252,0,0,1,404.784,748.557Z" transform="translate(-392.554 -741.697)" fill="#0f8d82"/>
        </g>
        <g id="Group_18194" data-name="Group 18194" transform="translate(412.78 770.091)">
          <path id="Path_8559" data-name="Path 8559" d="M361.927,750.274a6.949,6.949,0,1,1-6.949-6.859A6.906,6.906,0,0,1,361.927,750.274Z" transform="translate(-348.03 -743.415)" fill="#fff"/>
          <path id="Path_8560" data-name="Path 8560" d="M359.638,749.682a5.283,5.283,0,1,1-5.283-5.214A5.251,5.251,0,0,1,359.638,749.682Z" transform="translate(-347.408 -742.822)" fill="#0f8d82"/>
        </g>
        <g id="Group_18195" data-name="Group 18195" transform="translate(331.257 764.128)">
          <path id="Path_8561" data-name="Path 8561" d="M310.85,746.457A6.949,6.949,0,1,1,303.9,739.6,6.906,6.906,0,0,1,310.85,746.457Z" transform="translate(-296.953 -739.599)" fill="#fff"/>
          <path id="Path_8562" data-name="Path 8562" d="M308.561,745.865a5.283,5.283,0,1,1-5.281-5.214A5.249,5.249,0,0,1,308.561,745.865Z" transform="translate(-296.331 -739.007)" fill="#0f8d82"/>
        </g>
        <g id="Group_18196" data-name="Group 18196" transform="translate(852.34 978.39)">
          <path id="Path_8563" data-name="Path 8563" d="M728.668,931.161Z" transform="translate(-728.668 -931.161)" fill="#fff" opacity="0.25"/>
        </g>
        <path id="Path_8564" data-name="Path 8564" d="M579.083,745.3a32.559,32.559,0,1,1-32.558-32.144A32.353,32.353,0,0,1,579.083,745.3Z" transform="translate(163.662 9.647)" fill="#26a69a" opacity="0.4"/>
        <g id="Group_18197" data-name="Group 18197" transform="translate(692.192 737.18)">
          <path id="Path_8565" data-name="Path 8565" d="M559.087,740.127a18,18,0,1,1-18-17.771A17.884,17.884,0,0,1,559.087,740.127Z" transform="translate(-523.092 -722.356)" fill="#26a69a"/>
          <path id="Path_8566" data-name="Path 8566" d="M551.212,738.088a12.265,12.265,0,1,1-12.266-12.11A12.19,12.19,0,0,1,551.212,738.088Z" transform="translate(-520.951 -720.318)" fill="#fefefe" opacity="0.46"/>
          <path id="Path_8567" data-name="Path 8567" d="M543.339,736.049a6.533,6.533,0,1,1-6.533-6.448A6.492,6.492,0,0,1,543.339,736.049Z" transform="translate(-518.81 -718.278)" fill="#26a69a"/>
        </g>
      </g>
      <g id="Group_18206" data-name="Group 18206" transform="translate(1614.834 -238.803)" opacity="0.5">
        <path id="Path_8527-2" data-name="Path 8527" d="M853.765,800.457v165.3H240V805.447L339.948,757.5l82.38,5.962,73.243-1.758,85.284-41.756,73.748,30.7,62.976-9.173,93.611,30.591Z" transform="translate(-0.836 13.571)" fill="#26a69a"/>
        <path id="Path_8528-2" data-name="Path 8528" d="M240.376,807.61a.974.974,0,0,1-.871-.529.945.945,0,0,1,.438-1.278l99.451-48.43a.9.9,0,0,1,.5-.095l82.86,6.021,72.922-1.772,85.081-42.082a.991.991,0,0,1,.822-.024l73.485,30.9L717.947,741a1.025,1.025,0,0,1,.457.041l93.418,30.993a1.058,1.058,0,0,1,.24.117l42.571,28.681a.941.941,0,0,1,.253,1.326.978.978,0,0,1-1.351.245L811.073,773.8,718.005,742.92l-62.921,9.325a1.02,1.02,0,0,1-.529-.068l-73.323-30.83L496.36,763.325a.974.974,0,0,1-.412.1L422.71,765.2l-82.69-6-99.212,48.313A.981.981,0,0,1,240.376,807.61Z" transform="translate(0.057 13.222)" fill="#fff"/>
        <path id="Path_8529-2" data-name="Path 8529" d="M240,911.511l99.46-41.316L422.33,824.6l73.242-.937,85.772-40.778,73.745,66.044,62-15.289,93.609-23.11,43.063,18.5V931.862H240Z" transform="translate(-0.597 47.465)" fill="#0f8d82"/>
        <g id="Group_18189-2" data-name="Group 18189" transform="translate(353.506 733.044)">
          <g id="Group_18164-2" data-name="Group 18164" transform="translate(0 35.452)" opacity="0.35">
            <g id="Group_18161-2" data-name="Group 18161">
              <path id="Path_8530-2" data-name="Path 8530" d="M301.48,748.451a.474.474,0,0,1-.473-.476v-3.814a.473.473,0,1,1,.945,0v3.814A.474.474,0,0,1,301.48,748.451Z" transform="translate(-301.007 -743.686)" fill="#fff"/>
            </g>
            <g id="Group_18162-2" data-name="Group 18162" transform="translate(0 15.288)">
              <path id="Path_8531-2" data-name="Path 8531" d="M301.48,934.1a.475.475,0,0,1-.473-.477V925.98a.473.473,0,1,1,.945,0v7.648A.475.475,0,0,1,301.48,934.1Zm0-19.124a.475.475,0,0,1-.473-.477v-7.649a.473.473,0,1,1,.945,0V914.5A.475.475,0,0,1,301.48,914.981Zm0-19.125a.475.475,0,0,1-.473-.477v-7.651a.473.473,0,1,1,.945,0v7.651A.475.475,0,0,1,301.48,895.856Zm0-19.125a.476.476,0,0,1-.473-.478V868.6a.473.473,0,1,1,.945,0v7.649A.475.475,0,0,1,301.48,876.73Zm0-19.125a.475.475,0,0,1-.473-.477v-7.651a.473.473,0,1,1,.945,0v7.651A.475.475,0,0,1,301.48,857.6Zm0-19.126a.474.474,0,0,1-.473-.477v-7.649a.473.473,0,1,1,.945,0V838A.474.474,0,0,1,301.48,838.479Zm0-19.125a.474.474,0,0,1-.473-.475v-7.653a.473.473,0,1,1,.945,0v7.653A.474.474,0,0,1,301.48,819.354Zm0-19.125a.475.475,0,0,1-.473-.476V792.1a.473.473,0,1,1,.945,0v7.649A.475.475,0,0,1,301.48,800.228Zm0-19.125a.474.474,0,0,1-.473-.477v-7.65a.473.473,0,1,1,.945,0v7.65A.474.474,0,0,1,301.48,781.1Zm0-19.125a.474.474,0,0,1-.473-.477v-7.649a.473.473,0,1,1,.945,0V761.5A.474.474,0,0,1,301.48,761.978Z" transform="translate(-301.007 -753.375)" fill="#fff"/>
            </g>
            <g id="Group_18163-2" data-name="Group 18163" transform="translate(0 206.541)">
              <path id="Path_8532-2" data-name="Path 8532" d="M301.48,879.349a.474.474,0,0,1-.473-.475v-3.814a.473.473,0,1,1,.945,0v3.814A.474.474,0,0,1,301.48,879.349Z" transform="translate(-301.007 -874.584)" fill="#fff"/>
            </g>
          </g>
          <g id="Group_18168-2" data-name="Group 18168" transform="translate(80.593 41.474)">
            <g id="Group_18165-2" data-name="Group 18165">
              <path id="Path_8533-2" data-name="Path 8533" d="M352.557,752.267a.473.473,0,0,1-.473-.475v-3.814a.473.473,0,1,1,.945,0v3.814A.473.473,0,0,1,352.557,752.267Z" transform="translate(-352.084 -747.502)" fill="#cfccff"/>
            </g>
            <g id="Group_18166-2" data-name="Group 18166" transform="translate(0 14.949)" opacity="0.35">
              <path id="Path_8534-2" data-name="Path 8534" d="M352.557,932.366a.476.476,0,0,1-.473-.478v-7.422a.473.473,0,1,1,.945,0v7.422A.476.476,0,0,1,352.557,932.366Zm0-18.559a.474.474,0,0,1-.473-.476v-7.422a.473.473,0,1,1,.945,0v7.422A.474.474,0,0,1,352.557,913.807Zm0-18.556a.474.474,0,0,1-.473-.477v-7.424a.473.473,0,1,1,.945,0v7.424A.474.474,0,0,1,352.557,895.252Zm0-18.557a.474.474,0,0,1-.473-.477V868.8a.473.473,0,1,1,.945,0v7.422A.474.474,0,0,1,352.557,876.694Zm0-18.557a.475.475,0,0,1-.473-.477v-7.424a.473.473,0,1,1,.945,0v7.424A.475.475,0,0,1,352.557,858.137Zm0-18.557a.476.476,0,0,1-.473-.477v-7.424a.473.473,0,1,1,.945,0V839.1A.475.475,0,0,1,352.557,839.579Zm0-18.557a.474.474,0,0,1-.473-.475v-7.424a.473.473,0,1,1,.945,0v7.424A.474.474,0,0,1,352.557,821.022Zm0-18.557a.475.475,0,0,1-.473-.476v-7.422a.473.473,0,1,1,.945,0v7.422A.475.475,0,0,1,352.557,802.465Zm0-18.557a.475.475,0,0,1-.473-.477v-7.422a.473.473,0,1,1,.945,0v7.422A.475.475,0,0,1,352.557,783.907Zm0-18.557a.475.475,0,0,1-.473-.477v-7.422a.473.473,0,1,1,.945,0v7.422A.475.475,0,0,1,352.557,765.35Z" transform="translate(-352.084 -756.976)" fill="#fff" stroke="rgba(0,0,0,0)" stroke-width="1"/>
            </g>
            <g id="Group_18167-2" data-name="Group 18167" transform="translate(0 200.519)">
              <path id="Path_8535-2" data-name="Path 8535" d="M352.557,879.349a.474.474,0,0,1-.473-.475v-3.814a.473.473,0,1,1,.945,0v3.814A.474.474,0,0,1,352.557,879.349Z" transform="translate(-352.084 -874.584)" fill="#cfccff"/>
            </g>
          </g>
          <g id="Group_18172-2" data-name="Group 18172" transform="translate(151.826 39.699)" opacity="0.35">
            <g id="Group_18169-2" data-name="Group 18169">
              <path id="Path_8536-2" data-name="Path 8536" d="M397.7,751.142a.473.473,0,0,1-.472-.475v-3.814a.473.473,0,1,1,.945,0v3.814A.473.473,0,0,1,397.7,751.142Z" transform="translate(-397.229 -746.377)" fill="#fff" stroke="rgba(0,0,0,0)" stroke-width="1"/>
            </g>
            <g id="Group_18170-2" data-name="Group 18170" transform="translate(0 15.048)">
              <path id="Path_8537-2" data-name="Path 8537" d="M397.7,932.877a.474.474,0,0,1-.472-.475v-7.488a.473.473,0,1,1,.945,0V932.4A.474.474,0,0,1,397.7,932.877Zm0-18.725a.474.474,0,0,1-.472-.477v-7.489a.473.473,0,1,1,.945,0v7.489A.474.474,0,0,1,397.7,914.153Zm0-18.723a.475.475,0,0,1-.472-.477v-7.49a.473.473,0,1,1,.945,0v7.49A.475.475,0,0,1,397.7,895.43Zm0-18.725a.475.475,0,0,1-.472-.476v-7.49a.473.473,0,1,1,.945,0v7.49A.475.475,0,0,1,397.7,876.7Zm0-18.724a.475.475,0,0,1-.472-.477v-7.489a.473.473,0,1,1,.945,0V857.5A.476.476,0,0,1,397.7,857.98Zm0-18.725a.475.475,0,0,1-.472-.476v-7.489a.473.473,0,1,1,.945,0v7.489A.475.475,0,0,1,397.7,839.256Zm0-18.724a.475.475,0,0,1-.472-.477v-7.49a.473.473,0,1,1,.945,0v7.49A.476.476,0,0,1,397.7,820.531Zm0-18.725a.476.476,0,0,1-.472-.478V793.84a.473.473,0,1,1,.945,0v7.489A.476.476,0,0,1,397.7,801.807Zm0-18.725a.474.474,0,0,1-.472-.477v-7.49a.473.473,0,1,1,.945,0v7.49A.474.474,0,0,1,397.7,783.082Zm0-18.725a.474.474,0,0,1-.472-.478v-7.489a.473.473,0,1,1,.945,0v7.489A.475.475,0,0,1,397.7,764.357Z" transform="translate(-397.229 -755.914)" fill="#fff" stroke="rgba(0,0,0,0)" stroke-width="1"/>
            </g>
            <g id="Group_18171-2" data-name="Group 18171" transform="translate(0 202.294)">
              <path id="Path_8538-2" data-name="Path 8538" d="M397.7,879.349a.474.474,0,0,1-.472-.475v-3.814a.473.473,0,1,1,.945,0v3.814A.474.474,0,0,1,397.7,879.349Z" transform="translate(-397.229 -874.584)" fill="#fff" stroke="rgba(0,0,0,0)" stroke-width="1"/>
            </g>
          </g>
          <g id="Group_18176-2" data-name="Group 18176" transform="translate(234.77)">
            <g id="Group_18173-2" data-name="Group 18173">
              <path id="Path_8539-2" data-name="Path 8539" d="M450.269,724.412a.476.476,0,0,1-.473-.478v-3.812a.473.473,0,1,1,.945,0v3.812A.474.474,0,0,1,450.269,724.412Z" transform="translate(-449.796 -719.647)" fill="#cfccff"/>
            </g>
            <g id="Group_18174-2" data-name="Group 18174" transform="translate(0 15.271)">
              <path id="Path_8540-2" data-name="Path 8540" d="M450.269,945.54a.474.474,0,0,1-.473-.471v-7.555a.473.473,0,0,1,.945,0v7.555A.472.472,0,0,1,450.269,945.54Zm0-18.885a.472.472,0,0,1-.473-.469v-7.552a.473.473,0,0,1,.945,0v7.552A.471.471,0,0,1,450.269,926.655Zm0-18.881a.474.474,0,0,1-.473-.473v-7.553a.473.473,0,0,1,.945,0V907.3A.473.473,0,0,1,450.269,907.774Zm0-18.885a.472.472,0,0,1-.473-.47v-7.555a.473.473,0,0,1,.945,0v7.555A.471.471,0,0,1,450.269,888.889Zm0-18.884a.474.474,0,0,1-.473-.471v-7.552a.473.473,0,0,1,.945,0v7.552A.472.472,0,0,1,450.269,870.005Zm0-18.884a.471.471,0,0,1-.473-.469V843.1a.473.473,0,0,1,.945,0v7.553A.47.47,0,0,1,450.269,851.122Zm0-18.882a.474.474,0,0,1-.473-.473v-7.553a.473.473,0,0,1,.945,0v7.553A.473.473,0,0,1,450.269,832.239Zm0-18.884a.472.472,0,0,1-.473-.469v-7.554a.473.473,0,1,1,.945,0v7.554A.471.471,0,0,1,450.269,813.356Zm0-18.884A.474.474,0,0,1,449.8,794v-7.553a.473.473,0,0,1,.945,0V794A.472.472,0,0,1,450.269,794.472Zm0-18.884a.473.473,0,0,1-.473-.471v-7.553a.473.473,0,0,1,.945,0v7.553A.471.471,0,0,1,450.269,775.588Zm0-18.884a.473.473,0,0,1-.473-.471v-7.555a.473.473,0,0,1,.945,0v7.555A.471.471,0,0,1,450.269,756.7Zm0-18.882a.473.473,0,0,1-.473-.471V729.8a.473.473,0,1,1,.945,0v7.553A.471.471,0,0,1,450.269,737.822Z" transform="translate(-449.796 -729.325)" fill="#cfccff"/>
            </g>
            <g id="Group_18175-2" data-name="Group 18175" transform="translate(0 241.993)">
              <path id="Path_8541-2" data-name="Path 8541" d="M450.269,879.349a.475.475,0,0,1-.473-.475v-3.814a.473.473,0,1,1,.945,0v3.814A.474.474,0,0,1,450.269,879.349Z" transform="translate(-449.796 -874.584)" fill="#cfccff"/>
            </g>
          </g>
          <g id="Group_18180-2" data-name="Group 18180" transform="translate(306.493 31.004)">
            <g id="Group_18177-2" data-name="Group 18177">
              <path id="Path_8542-2" data-name="Path 8542" d="M495.724,744.063a.475.475,0,0,1-.473-.477v-3.812a.473.473,0,1,1,.945,0v3.812A.475.475,0,0,1,495.724,744.063Z" transform="translate(-495.251 -739.296)" fill="#cfccff"/>
            </g>
            <g id="Group_18178-2" data-name="Group 18178" transform="translate(0 15.679)">
              <path id="Path_8543-2" data-name="Path 8543" d="M495.724,933.629a.475.475,0,0,1-.473-.472v-7.8a.473.473,0,0,1,.945,0v7.8A.474.474,0,0,1,495.724,933.629Zm0-19.516a.473.473,0,0,1-.473-.47v-7.808a.473.473,0,0,1,.945,0v7.808A.473.473,0,0,1,495.724,914.113Zm0-19.516a.473.473,0,0,1-.473-.47v-7.808a.473.473,0,0,1,.945,0v7.808A.473.473,0,0,1,495.724,894.6Zm0-19.515a.473.473,0,0,1-.473-.47V866.8a.473.473,0,0,1,.945,0v7.808A.473.473,0,0,1,495.724,875.081Zm0-19.52a.472.472,0,0,1-.473-.469v-7.806a.473.473,0,0,1,.945,0v7.806A.472.472,0,0,1,495.724,855.562Zm0-19.516a.473.473,0,0,1-.473-.469v-7.808a.473.473,0,0,1,.945,0v7.808A.473.473,0,0,1,495.724,836.046Zm0-19.515a.474.474,0,0,1-.473-.472v-7.8a.473.473,0,0,1,.945,0v7.8A.473.473,0,0,1,495.724,816.531Zm0-19.516a.473.473,0,0,1-.473-.47v-7.808a.473.473,0,0,1,.945,0v7.808A.473.473,0,0,1,495.724,797.014Zm0-19.516a.473.473,0,0,1-.473-.47V769.22a.473.473,0,0,1,.945,0v7.808A.473.473,0,0,1,495.724,777.5Zm0-19.517a.473.473,0,0,1-.473-.47V749.7a.473.473,0,0,1,.945,0v7.807A.473.473,0,0,1,495.724,757.981Z" transform="translate(-495.251 -749.233)" fill="#cfccff"/>
            </g>
            <g id="Group_18179-2" data-name="Group 18179" transform="translate(0 210.989)">
              <path id="Path_8544-2" data-name="Path 8544" d="M495.724,879.349a.475.475,0,0,1-.473-.475v-3.814a.473.473,0,1,1,.945,0v3.814A.475.475,0,0,1,495.724,879.349Z" transform="translate(-495.251 -874.584)" fill="#cfccff"/>
            </g>
          </g>
          <g id="Group_18184-2" data-name="Group 18184" transform="translate(367.739 21.644)">
            <g id="Group_18181-2" data-name="Group 18181">
              <path id="Path_8545-2" data-name="Path 8545" d="M534.54,738.131a.475.475,0,0,1-.473-.477v-3.812a.473.473,0,1,1,.947,0v3.812A.475.475,0,0,1,534.54,738.131Z" transform="translate(-534.067 -733.364)" fill="#cfccff"/>
            </g>
            <g id="Group_18182-2" data-name="Group 18182" transform="translate(0 15.141)">
              <path id="Path_8546-2" data-name="Path 8546" d="M534.54,937.793a.473.473,0,0,1-.473-.47v-7.458a.473.473,0,0,1,.947,0v7.458A.473.473,0,0,1,534.54,937.793Zm0-18.644a.474.474,0,0,1-.473-.472v-7.457a.473.473,0,0,1,.947,0v7.457A.474.474,0,0,1,534.54,919.15Zm0-18.645a.473.473,0,0,1-.473-.471v-7.455a.473.473,0,0,1,.947,0v7.455A.473.473,0,0,1,534.54,900.5Zm0-18.642a.472.472,0,0,1-.473-.469v-7.46a.473.473,0,0,1,.947,0v7.46A.472.472,0,0,1,534.54,881.862Zm0-18.642a.473.473,0,0,1-.473-.47v-7.459a.473.473,0,0,1,.947,0v7.459A.473.473,0,0,1,534.54,863.22Zm0-18.644a.474.474,0,0,1-.473-.471v-7.458a.473.473,0,0,1,.947,0v7.458A.473.473,0,0,1,534.54,844.577Zm0-18.645a.472.472,0,0,1-.473-.47v-7.455a.473.473,0,0,1,.947,0v7.455A.472.472,0,0,1,534.54,825.931Zm0-18.644a.473.473,0,0,1-.473-.471V799.36a.473.473,0,0,1,.947,0v7.457A.472.472,0,0,1,534.54,807.288Zm0-18.642a.472.472,0,0,1-.473-.47v-7.457a.473.473,0,0,1,.947,0v7.457A.472.472,0,0,1,534.54,788.645Zm0-18.644a.472.472,0,0,1-.473-.469v-7.458a.473.473,0,0,1,.947,0v7.458A.472.472,0,0,1,534.54,770Zm0-18.642a.473.473,0,0,1-.473-.472v-7.455a.473.473,0,0,1,.947,0v7.455A.473.473,0,0,1,534.54,751.359Z" transform="translate(-534.067 -742.96)" fill="#cfccff"/>
            </g>
            <g id="Group_18183-2" data-name="Group 18183" transform="translate(0 220.349)">
              <path id="Path_8547-2" data-name="Path 8547" d="M534.54,879.349a.475.475,0,0,1-.473-.475v-3.814a.473.473,0,1,1,.947,0v3.814A.475.475,0,0,1,534.54,879.349Z" transform="translate(-534.067 -874.584)" fill="#cfccff"/>
            </g>
          </g>
          <g id="Group_18188-2" data-name="Group 18188" transform="translate(458.781 50.16)">
            <g id="Group_18185-2" data-name="Group 18185">
              <path id="Path_8548-2" data-name="Path 8548" d="M592.238,757.774a.474.474,0,0,1-.472-.477v-3.812a.473.473,0,1,1,.945,0V757.3A.475.475,0,0,1,592.238,757.774Z" transform="translate(-591.766 -753.007)" fill="#cfccff"/>
            </g>
            <g id="Group_18186-2" data-name="Group 18186" transform="translate(0 15.564)">
              <path id="Path_8549-2" data-name="Path 8549" d="M592.238,928.343a.475.475,0,0,1-.472-.477V920.03a.473.473,0,1,1,.945,0v7.836A.477.477,0,0,1,592.238,928.343Zm0-19.586a.475.475,0,0,1-.472-.478v-7.834a.473.473,0,1,1,.945,0v7.834A.477.477,0,0,1,592.238,908.757Zm0-19.584a.475.475,0,0,1-.472-.478V880.86a.473.473,0,1,1,.945,0v7.834A.477.477,0,0,1,592.238,889.172Zm0-19.588a.475.475,0,0,1-.472-.477v-7.834a.473.473,0,1,1,.945,0v7.834A.476.476,0,0,1,592.238,869.584Zm0-19.585a.474.474,0,0,1-.472-.476v-7.834a.473.473,0,1,1,.945,0v7.834A.475.475,0,0,1,592.238,850Zm0-19.586a.475.475,0,0,1-.472-.476V822.1a.473.473,0,1,1,.945,0v7.834A.476.476,0,0,1,592.238,830.414Zm0-19.585a.475.475,0,0,1-.472-.477v-7.834a.473.473,0,1,1,.945,0v7.834A.476.476,0,0,1,592.238,810.829Zm0-19.584a.474.474,0,0,1-.472-.477v-7.836a.473.473,0,1,1,.945,0v7.836A.475.475,0,0,1,592.238,791.244Zm0-19.586a.475.475,0,0,1-.472-.477v-7.834a.473.473,0,1,1,.945,0v7.834A.476.476,0,0,1,592.238,771.658Z" transform="translate(-591.766 -762.871)" fill="#cfccff"/>
            </g>
            <g id="Group_18187-2" data-name="Group 18187" transform="translate(0 191.833)">
              <path id="Path_8550-2" data-name="Path 8550" d="M592.238,879.349a.474.474,0,0,1-.472-.475v-3.814a.473.473,0,1,1,.945,0v3.814A.475.475,0,0,1,592.238,879.349Z" transform="translate(-591.766 -874.584)" fill="#cfccff"/>
            </g>
          </g>
        </g>
        <g id="Group_18193-2" data-name="Group 18193" transform="translate(488.999 768.308)">
          <path id="Path_8557-5" data-name="Path 8557" d="M406.915,749.215a6.869,6.869,0,1,1-6.872-6.925A6.9,6.9,0,0,1,406.915,749.215Z" transform="translate(-393.176 -742.29)" fill="#fff"/>
          <path id="Path_8558-5" data-name="Path 8558" d="M404.664,748.607a5.222,5.222,0,1,1-5.224-5.264A5.247,5.247,0,0,1,404.664,748.607Z" transform="translate(-392.573 -741.681)" fill="#0f8d82"/>
        </g>
        <g id="Group_18201-2" data-name="Group 18201" transform="translate(574.843 728.03)">
          <path id="Path_8557-6" data-name="Path 8557" d="M406.915,749.215a6.869,6.869,0,1,1-6.872-6.925A6.9,6.9,0,0,1,406.915,749.215Z" transform="translate(-393.176 -742.29)" fill="#fff"/>
          <path id="Path_8558-6" data-name="Path 8558" d="M404.664,748.607a5.222,5.222,0,1,1-5.224-5.264A5.247,5.247,0,0,1,404.664,748.607Z" transform="translate(-392.573 -741.681)" fill="#0f8d82"/>
        </g>
        <g id="Group_18202-2" data-name="Group 18202" transform="translate(649.446 755.853)">
          <path id="Path_8557-7" data-name="Path 8557" d="M406.915,749.215a6.869,6.869,0,1,1-6.872-6.925A6.9,6.9,0,0,1,406.915,749.215Z" transform="translate(-393.176 -742.29)" fill="#fff"/>
          <path id="Path_8558-7" data-name="Path 8558" d="M404.664,748.607a5.222,5.222,0,1,1-5.224-5.264A5.247,5.247,0,0,1,404.664,748.607Z" transform="translate(-392.573 -741.681)" fill="#0f8d82"/>
        </g>
        <g id="Group_18203-2" data-name="Group 18203" transform="translate(806.363 780.201)">
          <path id="Path_8557-8" data-name="Path 8557" d="M406.915,749.215a6.869,6.869,0,1,1-6.872-6.925A6.9,6.9,0,0,1,406.915,749.215Z" transform="translate(-393.176 -742.29)" fill="#fff"/>
          <path id="Path_8558-8" data-name="Path 8558" d="M404.664,748.607a5.222,5.222,0,1,1-5.224-5.264A5.247,5.247,0,0,1,404.664,748.607Z" transform="translate(-392.573 -741.681)" fill="#0f8d82"/>
        </g>
        <g id="Group_18194-2" data-name="Group 18194" transform="translate(415.74 770.065)">
          <path id="Path_8559-2" data-name="Path 8559" d="M361.769,750.34a6.869,6.869,0,1,1-6.87-6.925A6.9,6.9,0,0,1,361.769,750.34Z" transform="translate(-348.03 -743.415)" fill="#fff"/>
          <path id="Path_8560-2" data-name="Path 8560" d="M359.518,749.732a5.222,5.222,0,1,1-5.223-5.264A5.246,5.246,0,0,1,359.518,749.732Z" transform="translate(-347.427 -742.807)" fill="#0f8d82"/>
        </g>
        <g id="Group_18195-2" data-name="Group 18195" transform="translate(330.266 764.104)">
          <path id="Path_8561-2" data-name="Path 8561" d="M310.692,746.523a6.869,6.869,0,1,1-6.868-6.924A6.9,6.9,0,0,1,310.692,746.523Z" transform="translate(-296.953 -739.599)" fill="#fff"/>
          <path id="Path_8562-2" data-name="Path 8562" d="M308.441,745.915a5.222,5.222,0,1,1-5.221-5.264A5.244,5.244,0,0,1,308.441,745.915Z" transform="translate(-296.35 -738.991)" fill="#0f8d82"/>
        </g>
        <g id="Group_18196-2" data-name="Group 18196" transform="translate(862.25 978.373)">
          <path id="Path_8563-2" data-name="Path 8563" d="M728.668,931.161Z" transform="translate(-728.668 -931.161)" fill="#fff" opacity="0.25"/>
        </g>
        <path id="Path_8564-2" data-name="Path 8564" d="M578.341,745.613a32.187,32.187,0,1,1-32.187-32.454A32.321,32.321,0,0,1,578.341,745.613Z" transform="translate(172.197 9.647)" fill="#26a69a" opacity="0.4"/>
        <g id="Group_18197-2" data-name="Group 18197" transform="translate(700.305 737.318)">
          <path id="Path_8565-2" data-name="Path 8565" d="M558.676,740.3a17.793,17.793,0,1,1-17.794-17.942A17.867,17.867,0,0,1,558.676,740.3Z" transform="translate(-523.092 -722.356)" fill="#26a69a"/>
          <path id="Path_8566-2" data-name="Path 8566" d="M550.933,738.205a12.125,12.125,0,1,1-12.126-12.227A12.178,12.178,0,0,1,550.933,738.205Z" transform="translate(-521.016 -720.263)" fill="#fefefe" opacity="0.46"/>
          <path id="Path_8567-2" data-name="Path 8567" d="M543.19,736.111a6.458,6.458,0,1,1-6.458-6.51A6.486,6.486,0,0,1,543.19,736.111Z" transform="translate(-518.941 -718.169)" fill="#26a69a"/>
        </g>
      </g>
      <g id="Group_19170" data-name="Group 19170" transform="translate(999.267 -238.805)" opacity="0.5">
        <path id="Path_8527-3" data-name="Path 8527" d="M853.765,800.457v165.3H240V805.447L339.948,757.5l82.38,5.962,73.243-1.758,85.284-41.756,73.748,30.7,62.976-9.173,93.611,30.591Z" transform="translate(-0.836 13.571)" fill="#26a69a"/>
        <path id="Path_8528-3" data-name="Path 8528" d="M240.376,807.61a.974.974,0,0,1-.871-.529.945.945,0,0,1,.438-1.278l99.451-48.43a.9.9,0,0,1,.5-.095l82.86,6.021,72.922-1.772,85.081-42.082a.991.991,0,0,1,.822-.024l73.485,30.9L717.947,741a1.025,1.025,0,0,1,.457.041l93.418,30.993a1.058,1.058,0,0,1,.24.117l42.571,28.681a.941.941,0,0,1,.253,1.326.978.978,0,0,1-1.351.245L811.073,773.8,718.005,742.92l-62.921,9.325a1.02,1.02,0,0,1-.529-.068l-73.323-30.83L496.36,763.325a.974.974,0,0,1-.412.1L422.71,765.2l-82.69-6-99.212,48.313A.981.981,0,0,1,240.376,807.61Z" transform="translate(0.057 13.222)" fill="#fff"/>
        <path id="Path_8529-3" data-name="Path 8529" d="M240,911.252l99.259-41.233,82.7-45.5,73.094-.935,85.6-40.7,73.6,65.911,61.879-15.258,93.42-23.063,42.976,18.464V931.561H240Z" transform="translate(0.403 47.766)" fill="#0f8d82"/>
        <g id="Group_18189-3" data-name="Group 18189" transform="translate(353.506 733.044)">
          <g id="Group_18164-3" data-name="Group 18164" transform="translate(0 35.452)" opacity="0.35">
            <g id="Group_18161-3" data-name="Group 18161">
              <path id="Path_8530-3" data-name="Path 8530" d="M301.48,748.451a.474.474,0,0,1-.473-.476v-3.814a.473.473,0,1,1,.945,0v3.814A.474.474,0,0,1,301.48,748.451Z" transform="translate(-301.007 -743.686)" fill="#fff"/>
            </g>
            <g id="Group_18162-3" data-name="Group 18162" transform="translate(0 15.288)">
              <path id="Path_8531-3" data-name="Path 8531" d="M301.48,934.1a.475.475,0,0,1-.473-.477V925.98a.473.473,0,1,1,.945,0v7.648A.475.475,0,0,1,301.48,934.1Zm0-19.124a.475.475,0,0,1-.473-.477v-7.649a.473.473,0,1,1,.945,0V914.5A.475.475,0,0,1,301.48,914.981Zm0-19.125a.475.475,0,0,1-.473-.477v-7.651a.473.473,0,1,1,.945,0v7.651A.475.475,0,0,1,301.48,895.856Zm0-19.125a.476.476,0,0,1-.473-.478V868.6a.473.473,0,1,1,.945,0v7.649A.475.475,0,0,1,301.48,876.73Zm0-19.125a.475.475,0,0,1-.473-.477v-7.651a.473.473,0,1,1,.945,0v7.651A.475.475,0,0,1,301.48,857.6Zm0-19.126a.474.474,0,0,1-.473-.477v-7.649a.473.473,0,1,1,.945,0V838A.474.474,0,0,1,301.48,838.479Zm0-19.125a.474.474,0,0,1-.473-.475v-7.653a.473.473,0,1,1,.945,0v7.653A.474.474,0,0,1,301.48,819.354Zm0-19.125a.475.475,0,0,1-.473-.476V792.1a.473.473,0,1,1,.945,0v7.649A.475.475,0,0,1,301.48,800.228Zm0-19.125a.474.474,0,0,1-.473-.477v-7.65a.473.473,0,1,1,.945,0v7.65A.474.474,0,0,1,301.48,781.1Zm0-19.125a.474.474,0,0,1-.473-.477v-7.649a.473.473,0,1,1,.945,0V761.5A.474.474,0,0,1,301.48,761.978Z" transform="translate(-301.007 -753.375)" fill="#fff"/>
            </g>
            <g id="Group_18163-3" data-name="Group 18163" transform="translate(0 206.541)">
              <path id="Path_8532-3" data-name="Path 8532" d="M301.48,879.349a.474.474,0,0,1-.473-.475v-3.814a.473.473,0,1,1,.945,0v3.814A.474.474,0,0,1,301.48,879.349Z" transform="translate(-301.007 -874.584)" fill="#fff"/>
            </g>
          </g>
          <g id="Group_18168-3" data-name="Group 18168" transform="translate(80.593 41.474)">
            <g id="Group_18165-3" data-name="Group 18165">
              <path id="Path_8533-3" data-name="Path 8533" d="M352.557,752.267a.473.473,0,0,1-.473-.475v-3.814a.473.473,0,1,1,.945,0v3.814A.473.473,0,0,1,352.557,752.267Z" transform="translate(-352.084 -747.502)" fill="#cfccff"/>
            </g>
            <g id="Group_18166-3" data-name="Group 18166" transform="translate(0 14.949)" opacity="0.35">
              <path id="Path_8534-3" data-name="Path 8534" d="M352.557,932.366a.476.476,0,0,1-.473-.478v-7.422a.473.473,0,1,1,.945,0v7.422A.476.476,0,0,1,352.557,932.366Zm0-18.559a.474.474,0,0,1-.473-.476v-7.422a.473.473,0,1,1,.945,0v7.422A.474.474,0,0,1,352.557,913.807Zm0-18.556a.474.474,0,0,1-.473-.477v-7.424a.473.473,0,1,1,.945,0v7.424A.474.474,0,0,1,352.557,895.252Zm0-18.557a.474.474,0,0,1-.473-.477V868.8a.473.473,0,1,1,.945,0v7.422A.474.474,0,0,1,352.557,876.694Zm0-18.557a.475.475,0,0,1-.473-.477v-7.424a.473.473,0,1,1,.945,0v7.424A.475.475,0,0,1,352.557,858.137Zm0-18.557a.476.476,0,0,1-.473-.477v-7.424a.473.473,0,1,1,.945,0V839.1A.475.475,0,0,1,352.557,839.579Zm0-18.557a.474.474,0,0,1-.473-.475v-7.424a.473.473,0,1,1,.945,0v7.424A.474.474,0,0,1,352.557,821.022Zm0-18.557a.475.475,0,0,1-.473-.476v-7.422a.473.473,0,1,1,.945,0v7.422A.475.475,0,0,1,352.557,802.465Zm0-18.557a.475.475,0,0,1-.473-.477v-7.422a.473.473,0,1,1,.945,0v7.422A.475.475,0,0,1,352.557,783.907Zm0-18.557a.475.475,0,0,1-.473-.477v-7.422a.473.473,0,1,1,.945,0v7.422A.475.475,0,0,1,352.557,765.35Z" transform="translate(-352.084 -756.976)" fill="#fff" stroke="rgba(0,0,0,0)" stroke-width="1"/>
            </g>
            <g id="Group_18167-3" data-name="Group 18167" transform="translate(0 200.519)">
              <path id="Path_8535-3" data-name="Path 8535" d="M352.557,879.349a.474.474,0,0,1-.473-.475v-3.814a.473.473,0,1,1,.945,0v3.814A.474.474,0,0,1,352.557,879.349Z" transform="translate(-352.084 -874.584)" fill="#cfccff"/>
            </g>
          </g>
          <g id="Group_18172-3" data-name="Group 18172" transform="translate(151.826 39.699)" opacity="0.35">
            <g id="Group_18169-3" data-name="Group 18169">
              <path id="Path_8536-3" data-name="Path 8536" d="M397.7,751.142a.473.473,0,0,1-.472-.475v-3.814a.473.473,0,1,1,.945,0v3.814A.473.473,0,0,1,397.7,751.142Z" transform="translate(-397.229 -746.377)" fill="#fff" stroke="rgba(0,0,0,0)" stroke-width="1"/>
            </g>
            <g id="Group_18170-3" data-name="Group 18170" transform="translate(0 15.048)">
              <path id="Path_8537-3" data-name="Path 8537" d="M397.7,932.877a.474.474,0,0,1-.472-.475v-7.488a.473.473,0,1,1,.945,0V932.4A.474.474,0,0,1,397.7,932.877Zm0-18.725a.474.474,0,0,1-.472-.477v-7.489a.473.473,0,1,1,.945,0v7.489A.474.474,0,0,1,397.7,914.153Zm0-18.723a.475.475,0,0,1-.472-.477v-7.49a.473.473,0,1,1,.945,0v7.49A.475.475,0,0,1,397.7,895.43Zm0-18.725a.475.475,0,0,1-.472-.476v-7.49a.473.473,0,1,1,.945,0v7.49A.475.475,0,0,1,397.7,876.7Zm0-18.724a.475.475,0,0,1-.472-.477v-7.489a.473.473,0,1,1,.945,0V857.5A.476.476,0,0,1,397.7,857.98Zm0-18.725a.475.475,0,0,1-.472-.476v-7.489a.473.473,0,1,1,.945,0v7.489A.475.475,0,0,1,397.7,839.256Zm0-18.724a.475.475,0,0,1-.472-.477v-7.49a.473.473,0,1,1,.945,0v7.49A.476.476,0,0,1,397.7,820.531Zm0-18.725a.476.476,0,0,1-.472-.478V793.84a.473.473,0,1,1,.945,0v7.489A.476.476,0,0,1,397.7,801.807Zm0-18.725a.474.474,0,0,1-.472-.477v-7.49a.473.473,0,1,1,.945,0v7.49A.474.474,0,0,1,397.7,783.082Zm0-18.725a.474.474,0,0,1-.472-.478v-7.489a.473.473,0,1,1,.945,0v7.489A.475.475,0,0,1,397.7,764.357Z" transform="translate(-397.229 -755.914)" fill="#fff" stroke="rgba(0,0,0,0)" stroke-width="1"/>
            </g>
            <g id="Group_18171-3" data-name="Group 18171" transform="translate(0 202.294)">
              <path id="Path_8538-3" data-name="Path 8538" d="M397.7,879.349a.474.474,0,0,1-.472-.475v-3.814a.473.473,0,1,1,.945,0v3.814A.474.474,0,0,1,397.7,879.349Z" transform="translate(-397.229 -874.584)" fill="#fff" stroke="rgba(0,0,0,0)" stroke-width="1"/>
            </g>
          </g>
          <g id="Group_18176-3" data-name="Group 18176" transform="translate(234.77)">
            <g id="Group_18173-3" data-name="Group 18173">
              <path id="Path_8539-3" data-name="Path 8539" d="M450.269,724.412a.476.476,0,0,1-.473-.478v-3.812a.473.473,0,1,1,.945,0v3.812A.474.474,0,0,1,450.269,724.412Z" transform="translate(-449.796 -719.647)" fill="#cfccff"/>
            </g>
            <g id="Group_18174-3" data-name="Group 18174" transform="translate(0 15.271)">
              <path id="Path_8540-3" data-name="Path 8540" d="M450.269,945.54a.474.474,0,0,1-.473-.471v-7.555a.473.473,0,0,1,.945,0v7.555A.472.472,0,0,1,450.269,945.54Zm0-18.885a.472.472,0,0,1-.473-.469v-7.552a.473.473,0,0,1,.945,0v7.552A.471.471,0,0,1,450.269,926.655Zm0-18.881a.474.474,0,0,1-.473-.473v-7.553a.473.473,0,0,1,.945,0V907.3A.473.473,0,0,1,450.269,907.774Zm0-18.885a.472.472,0,0,1-.473-.47v-7.555a.473.473,0,0,1,.945,0v7.555A.471.471,0,0,1,450.269,888.889Zm0-18.884a.474.474,0,0,1-.473-.471v-7.552a.473.473,0,0,1,.945,0v7.552A.472.472,0,0,1,450.269,870.005Zm0-18.884a.471.471,0,0,1-.473-.469V843.1a.473.473,0,0,1,.945,0v7.553A.47.47,0,0,1,450.269,851.122Zm0-18.882a.474.474,0,0,1-.473-.473v-7.553a.473.473,0,0,1,.945,0v7.553A.473.473,0,0,1,450.269,832.239Zm0-18.884a.472.472,0,0,1-.473-.469v-7.554a.473.473,0,1,1,.945,0v7.554A.471.471,0,0,1,450.269,813.356Zm0-18.884A.474.474,0,0,1,449.8,794v-7.553a.473.473,0,0,1,.945,0V794A.472.472,0,0,1,450.269,794.472Zm0-18.884a.473.473,0,0,1-.473-.471v-7.553a.473.473,0,0,1,.945,0v7.553A.471.471,0,0,1,450.269,775.588Zm0-18.884a.473.473,0,0,1-.473-.471v-7.555a.473.473,0,0,1,.945,0v7.555A.471.471,0,0,1,450.269,756.7Zm0-18.882a.473.473,0,0,1-.473-.471V729.8a.473.473,0,1,1,.945,0v7.553A.471.471,0,0,1,450.269,737.822Z" transform="translate(-449.796 -729.325)" fill="#cfccff"/>
            </g>
            <g id="Group_18175-3" data-name="Group 18175" transform="translate(0 241.993)">
              <path id="Path_8541-3" data-name="Path 8541" d="M450.269,879.349a.475.475,0,0,1-.473-.475v-3.814a.473.473,0,1,1,.945,0v3.814A.474.474,0,0,1,450.269,879.349Z" transform="translate(-449.796 -874.584)" fill="#cfccff"/>
            </g>
          </g>
          <g id="Group_18180-3" data-name="Group 18180" transform="translate(306.493 31.004)">
            <g id="Group_18177-3" data-name="Group 18177">
              <path id="Path_8542-3" data-name="Path 8542" d="M495.724,744.063a.475.475,0,0,1-.473-.477v-3.812a.473.473,0,1,1,.945,0v3.812A.475.475,0,0,1,495.724,744.063Z" transform="translate(-495.251 -739.296)" fill="#cfccff"/>
            </g>
            <g id="Group_18178-3" data-name="Group 18178" transform="translate(0 15.679)">
              <path id="Path_8543-3" data-name="Path 8543" d="M495.724,933.629a.475.475,0,0,1-.473-.472v-7.8a.473.473,0,0,1,.945,0v7.8A.474.474,0,0,1,495.724,933.629Zm0-19.516a.473.473,0,0,1-.473-.47v-7.808a.473.473,0,0,1,.945,0v7.808A.473.473,0,0,1,495.724,914.113Zm0-19.516a.473.473,0,0,1-.473-.47v-7.808a.473.473,0,0,1,.945,0v7.808A.473.473,0,0,1,495.724,894.6Zm0-19.515a.473.473,0,0,1-.473-.47V866.8a.473.473,0,0,1,.945,0v7.808A.473.473,0,0,1,495.724,875.081Zm0-19.52a.472.472,0,0,1-.473-.469v-7.806a.473.473,0,0,1,.945,0v7.806A.472.472,0,0,1,495.724,855.562Zm0-19.516a.473.473,0,0,1-.473-.469v-7.808a.473.473,0,0,1,.945,0v7.808A.473.473,0,0,1,495.724,836.046Zm0-19.515a.474.474,0,0,1-.473-.472v-7.8a.473.473,0,0,1,.945,0v7.8A.473.473,0,0,1,495.724,816.531Zm0-19.516a.473.473,0,0,1-.473-.47v-7.808a.473.473,0,0,1,.945,0v7.808A.473.473,0,0,1,495.724,797.014Zm0-19.516a.473.473,0,0,1-.473-.47V769.22a.473.473,0,0,1,.945,0v7.808A.473.473,0,0,1,495.724,777.5Zm0-19.517a.473.473,0,0,1-.473-.47V749.7a.473.473,0,0,1,.945,0v7.807A.473.473,0,0,1,495.724,757.981Z" transform="translate(-495.251 -749.233)" fill="#cfccff"/>
            </g>
            <g id="Group_18179-3" data-name="Group 18179" transform="translate(0 210.989)">
              <path id="Path_8544-3" data-name="Path 8544" d="M495.724,879.349a.475.475,0,0,1-.473-.475v-3.814a.473.473,0,1,1,.945,0v3.814A.475.475,0,0,1,495.724,879.349Z" transform="translate(-495.251 -874.584)" fill="#cfccff"/>
            </g>
          </g>
          <g id="Group_18184-3" data-name="Group 18184" transform="translate(367.739 21.644)">
            <g id="Group_18181-3" data-name="Group 18181">
              <path id="Path_8545-3" data-name="Path 8545" d="M534.54,738.131a.475.475,0,0,1-.473-.477v-3.812a.473.473,0,1,1,.947,0v3.812A.475.475,0,0,1,534.54,738.131Z" transform="translate(-534.067 -733.364)" fill="#cfccff"/>
            </g>
            <g id="Group_18182-3" data-name="Group 18182" transform="translate(0 15.141)">
              <path id="Path_8546-3" data-name="Path 8546" d="M534.54,937.793a.473.473,0,0,1-.473-.47v-7.458a.473.473,0,0,1,.947,0v7.458A.473.473,0,0,1,534.54,937.793Zm0-18.644a.474.474,0,0,1-.473-.472v-7.457a.473.473,0,0,1,.947,0v7.457A.474.474,0,0,1,534.54,919.15Zm0-18.645a.473.473,0,0,1-.473-.471v-7.455a.473.473,0,0,1,.947,0v7.455A.473.473,0,0,1,534.54,900.5Zm0-18.642a.472.472,0,0,1-.473-.469v-7.46a.473.473,0,0,1,.947,0v7.46A.472.472,0,0,1,534.54,881.862Zm0-18.642a.473.473,0,0,1-.473-.47v-7.459a.473.473,0,0,1,.947,0v7.459A.473.473,0,0,1,534.54,863.22Zm0-18.644a.474.474,0,0,1-.473-.471v-7.458a.473.473,0,0,1,.947,0v7.458A.473.473,0,0,1,534.54,844.577Zm0-18.645a.472.472,0,0,1-.473-.47v-7.455a.473.473,0,0,1,.947,0v7.455A.472.472,0,0,1,534.54,825.931Zm0-18.644a.473.473,0,0,1-.473-.471V799.36a.473.473,0,0,1,.947,0v7.457A.472.472,0,0,1,534.54,807.288Zm0-18.642a.472.472,0,0,1-.473-.47v-7.457a.473.473,0,0,1,.947,0v7.457A.472.472,0,0,1,534.54,788.645Zm0-18.644a.472.472,0,0,1-.473-.469v-7.458a.473.473,0,0,1,.947,0v7.458A.472.472,0,0,1,534.54,770Zm0-18.642a.473.473,0,0,1-.473-.472v-7.455a.473.473,0,0,1,.947,0v7.455A.473.473,0,0,1,534.54,751.359Z" transform="translate(-534.067 -742.96)" fill="#cfccff"/>
            </g>
            <g id="Group_18183-3" data-name="Group 18183" transform="translate(0 220.349)">
              <path id="Path_8547-3" data-name="Path 8547" d="M534.54,879.349a.475.475,0,0,1-.473-.475v-3.814a.473.473,0,1,1,.947,0v3.814A.475.475,0,0,1,534.54,879.349Z" transform="translate(-534.067 -874.584)" fill="#cfccff"/>
            </g>
          </g>
          <g id="Group_18188-3" data-name="Group 18188" transform="translate(458.781 50.16)">
            <g id="Group_18185-3" data-name="Group 18185">
              <path id="Path_8548-3" data-name="Path 8548" d="M592.238,757.774a.474.474,0,0,1-.472-.477v-3.812a.473.473,0,1,1,.945,0V757.3A.475.475,0,0,1,592.238,757.774Z" transform="translate(-591.766 -753.007)" fill="#cfccff"/>
            </g>
            <g id="Group_18186-3" data-name="Group 18186" transform="translate(0 15.564)">
              <path id="Path_8549-3" data-name="Path 8549" d="M592.238,928.343a.475.475,0,0,1-.472-.477V920.03a.473.473,0,1,1,.945,0v7.836A.477.477,0,0,1,592.238,928.343Zm0-19.586a.475.475,0,0,1-.472-.478v-7.834a.473.473,0,1,1,.945,0v7.834A.477.477,0,0,1,592.238,908.757Zm0-19.584a.475.475,0,0,1-.472-.478V880.86a.473.473,0,1,1,.945,0v7.834A.477.477,0,0,1,592.238,889.172Zm0-19.588a.475.475,0,0,1-.472-.477v-7.834a.473.473,0,1,1,.945,0v7.834A.476.476,0,0,1,592.238,869.584Zm0-19.585a.474.474,0,0,1-.472-.476v-7.834a.473.473,0,1,1,.945,0v7.834A.475.475,0,0,1,592.238,850Zm0-19.586a.475.475,0,0,1-.472-.476V822.1a.473.473,0,1,1,.945,0v7.834A.476.476,0,0,1,592.238,830.414Zm0-19.585a.475.475,0,0,1-.472-.477v-7.834a.473.473,0,1,1,.945,0v7.834A.476.476,0,0,1,592.238,810.829Zm0-19.584a.474.474,0,0,1-.472-.477v-7.836a.473.473,0,1,1,.945,0v7.836A.475.475,0,0,1,592.238,791.244Zm0-19.586a.475.475,0,0,1-.472-.477v-7.834a.473.473,0,1,1,.945,0v7.834A.476.476,0,0,1,592.238,771.658Z" transform="translate(-591.766 -762.871)" fill="#cfccff"/>
            </g>
            <g id="Group_18187-3" data-name="Group 18187" transform="translate(0 191.833)">
              <path id="Path_8550-3" data-name="Path 8550" d="M592.238,879.349a.474.474,0,0,1-.472-.475v-3.814a.473.473,0,1,1,.945,0v3.814A.475.475,0,0,1,592.238,879.349Z" transform="translate(-591.766 -874.584)" fill="#cfccff"/>
            </g>
          </g>
        </g>
        <g id="Group_18193-3" data-name="Group 18193" transform="translate(488.999 768.308)">
          <path id="Path_8557-9" data-name="Path 8557" d="M406.915,749.215a6.869,6.869,0,1,1-6.872-6.925A6.9,6.9,0,0,1,406.915,749.215Z" transform="translate(-393.176 -742.29)" fill="#fff"/>
          <path id="Path_8558-9" data-name="Path 8558" d="M404.664,748.607a5.222,5.222,0,1,1-5.224-5.264A5.247,5.247,0,0,1,404.664,748.607Z" transform="translate(-392.573 -741.681)" fill="#0f8d82"/>
        </g>
        <g id="Group_18201-3" data-name="Group 18201" transform="translate(574.843 728.03)">
          <path id="Path_8557-10" data-name="Path 8557" d="M406.915,749.215a6.869,6.869,0,1,1-6.872-6.925A6.9,6.9,0,0,1,406.915,749.215Z" transform="translate(-393.176 -742.29)" fill="#fff"/>
          <path id="Path_8558-10" data-name="Path 8558" d="M404.664,748.607a5.222,5.222,0,1,1-5.224-5.264A5.247,5.247,0,0,1,404.664,748.607Z" transform="translate(-392.573 -741.681)" fill="#0f8d82"/>
        </g>
        <g id="Group_18202-3" data-name="Group 18202" transform="translate(649.446 755.853)">
          <path id="Path_8557-11" data-name="Path 8557" d="M406.915,749.215a6.869,6.869,0,1,1-6.872-6.925A6.9,6.9,0,0,1,406.915,749.215Z" transform="translate(-393.176 -742.29)" fill="#fff"/>
          <path id="Path_8558-11" data-name="Path 8558" d="M404.664,748.607a5.222,5.222,0,1,1-5.224-5.264A5.247,5.247,0,0,1,404.664,748.607Z" transform="translate(-392.573 -741.681)" fill="#0f8d82"/>
        </g>
        <g id="Group_18203-3" data-name="Group 18203" transform="translate(806.363 780.201)">
          <path id="Path_8557-12" data-name="Path 8557" d="M406.915,749.215a6.869,6.869,0,1,1-6.872-6.925A6.9,6.9,0,0,1,406.915,749.215Z" transform="translate(-393.176 -742.29)" fill="#fff"/>
          <path id="Path_8558-12" data-name="Path 8558" d="M404.664,748.607a5.222,5.222,0,1,1-5.224-5.264A5.247,5.247,0,0,1,404.664,748.607Z" transform="translate(-392.573 -741.681)" fill="#0f8d82"/>
        </g>
        <g id="Group_18194-3" data-name="Group 18194" transform="translate(415.74 770.065)">
          <path id="Path_8559-3" data-name="Path 8559" d="M361.769,750.34a6.869,6.869,0,1,1-6.87-6.925A6.9,6.9,0,0,1,361.769,750.34Z" transform="translate(-348.03 -743.415)" fill="#fff"/>
          <path id="Path_8560-3" data-name="Path 8560" d="M359.518,749.732a5.222,5.222,0,1,1-5.223-5.264A5.246,5.246,0,0,1,359.518,749.732Z" transform="translate(-347.427 -742.807)" fill="#0f8d82"/>
        </g>
        <g id="Group_18195-3" data-name="Group 18195" transform="translate(330.266 764.104)">
          <path id="Path_8561-3" data-name="Path 8561" d="M310.692,746.523a6.869,6.869,0,1,1-6.868-6.924A6.9,6.9,0,0,1,310.692,746.523Z" transform="translate(-296.953 -739.599)" fill="#fff"/>
          <path id="Path_8562-3" data-name="Path 8562" d="M308.441,745.915a5.222,5.222,0,1,1-5.221-5.264A5.244,5.244,0,0,1,308.441,745.915Z" transform="translate(-296.35 -738.991)" fill="#0f8d82"/>
        </g>
        <g id="Group_18196-3" data-name="Group 18196" transform="translate(862.25 978.373)">
          <path id="Path_8563-3" data-name="Path 8563" d="M728.668,931.161Z" transform="translate(-728.668 -931.161)" fill="#fff" opacity="0.25"/>
        </g>
        <path id="Path_8564-3" data-name="Path 8564" d="M578.341,745.613a32.187,32.187,0,1,1-32.187-32.454A32.321,32.321,0,0,1,578.341,745.613Z" transform="translate(172.197 9.647)" fill="#26a69a" opacity="0.4"/>
        <g id="Group_18197-3" data-name="Group 18197" transform="translate(700.305 737.318)">
          <path id="Path_8565-3" data-name="Path 8565" d="M558.676,740.3a17.793,17.793,0,1,1-17.794-17.942A17.867,17.867,0,0,1,558.676,740.3Z" transform="translate(-523.092 -722.356)" fill="#26a69a"/>
          <path id="Path_8566-3" data-name="Path 8566" d="M550.933,738.205a12.125,12.125,0,1,1-12.126-12.227A12.178,12.178,0,0,1,550.933,738.205Z" transform="translate(-521.016 -720.263)" fill="#fefefe" opacity="0.46"/>
          <path id="Path_8567-3" data-name="Path 8567" d="M543.19,736.111a6.458,6.458,0,1,1-6.458-6.51A6.486,6.486,0,0,1,543.19,736.111Z" transform="translate(-518.941 -718.169)" fill="#26a69a"/>
        </g>
      </g>
    </g>
    <g id="Group_19193" data-name="Group 19193" transform="translate(-1931.197 190.189)" opacity="0.53">
      <path id="Path_8527-4" data-name="Path 8527" d="M839.109,799.867V963.953H240V804.82l97.56-47.6,80.413,5.918,71.494-1.745,83.247-41.45L644.7,750.42l61.472-9.106,91.376,30.367Z" transform="translate(0.35 13.386)" fill="#26a69a"/>
      <path id="Path_8528-4" data-name="Path 8528" d="M240.353,806.088a.95.95,0,0,1-.85-.519.932.932,0,0,1,.428-1.256l97.085-47.595a.874.874,0,0,1,.493-.093l80.888,5.917,71.187-1.741,83.056-41.356a.962.962,0,0,1,.8-.023l71.736,30.365,61.383-9.16a1,1,0,0,1,.447.04L798.2,771.125a1.025,1.025,0,0,1,.234.115l41.558,28.186a.929.929,0,0,1,.247,1.3.951.951,0,0,1-1.319.24L797.47,772.857l-90.853-30.343-61.424,9.164a.988.988,0,0,1-.516-.067l-71.578-30.3-82.854,41.254a.945.945,0,0,1-.4.1l-71.5,1.745-80.722-5.9-96.852,47.48A.951.951,0,0,1,240.353,806.088Z" transform="translate(0 13.054)" fill="#fff"/>
      <path id="Path_8529-4" data-name="Path 8529" d="M240,909.294l97.085-40.6,80.889-44.8,71.493-.92,83.724-40.075L645.176,847.8,705.7,832.77l91.374-22.712,42.035,18.182V929.293H240Z" transform="translate(0.35 48.046)" fill="#0f8d82"/>
      <g id="Group_18189-4" data-name="Group 18189" transform="translate(336.962 732.867)">
        <g id="Group_18164-4" data-name="Group 18164" transform="translate(0 37.277)" opacity="0.35">
          <g id="Group_18161-4" data-name="Group 18161">
            <path id="Path_8530-4" data-name="Path 8530" d="M301.482,748.369a.471.471,0,0,1-.475-.468v-3.748a.474.474,0,0,1,.949,0V747.9A.471.471,0,0,1,301.482,748.369Z" transform="translate(-301.007 -743.686)" fill="#fff"/>
          </g>
          <g id="Group_18162-4" data-name="Group 18162" transform="translate(0 15.024)">
            <path id="Path_8531-4" data-name="Path 8531" d="M301.482,930.989a.472.472,0,0,1-.475-.468V923a.474.474,0,0,1,.949,0v7.516A.472.472,0,0,1,301.482,930.989Zm0-18.794a.472.472,0,0,1-.475-.468v-7.518a.474.474,0,0,1,.949,0v7.518A.472.472,0,0,1,301.482,912.195Zm0-18.8a.472.472,0,0,1-.475-.468v-7.519a.474.474,0,0,1,.949,0v7.519A.472.472,0,0,1,301.482,893.4Zm0-18.8a.472.472,0,0,1-.475-.47v-7.518a.474.474,0,0,1,.949,0v7.518A.472.472,0,0,1,301.482,874.6Zm0-18.8a.472.472,0,0,1-.475-.468V847.82a.474.474,0,0,1,.949,0v7.519A.472.472,0,0,1,301.482,855.808Zm0-18.8a.471.471,0,0,1-.475-.468v-7.518a.474.474,0,0,1,.949,0v7.518A.471.471,0,0,1,301.482,837.012Zm0-18.8a.471.471,0,0,1-.475-.467v-7.521a.474.474,0,0,1,.949,0v7.521A.471.471,0,0,1,301.482,818.216Zm0-18.8a.472.472,0,0,1-.475-.468v-7.518a.474.474,0,0,1,.949,0v7.518A.472.472,0,0,1,301.482,799.421Zm0-18.8a.471.471,0,0,1-.475-.468v-7.518a.474.474,0,0,1,.949,0v7.518A.471.471,0,0,1,301.482,780.625Zm0-18.8a.471.471,0,0,1-.475-.468v-7.518a.474.474,0,0,1,.949,0v7.518A.471.471,0,0,1,301.482,761.829Z" transform="translate(-301.007 -753.375)" fill="#fff"/>
          </g>
          <g id="Group_18163-4" data-name="Group 18163" transform="translate(0 202.98)">
            <path id="Path_8532-4" data-name="Path 8532" d="M301.482,879.267a.471.471,0,0,1-.475-.467v-3.748a.474.474,0,0,1,.949,0V878.8A.471.471,0,0,1,301.482,879.267Z" transform="translate(-301.007 -874.584)" fill="#fff"/>
          </g>
        </g>
        <g id="Group_18168-4" data-name="Group 18168" transform="translate(80.888 43.194)">
          <g id="Group_18165-4" data-name="Group 18165">
            <path id="Path_8533-4" data-name="Path 8533" d="M352.559,752.185a.47.47,0,0,1-.475-.467V747.97a.474.474,0,0,1,.949,0v3.748A.47.47,0,0,1,352.559,752.185Z" transform="translate(-352.084 -747.502)" fill="#cfccff"/>
          </g>
          <g id="Group_18166-4" data-name="Group 18166" transform="translate(0 14.691)" opacity="0.35">
            <path id="Path_8534-4" data-name="Path 8534" d="M352.559,929.342a.472.472,0,0,1-.475-.47v-7.294a.474.474,0,0,1,.949,0v7.294A.472.472,0,0,1,352.559,929.342Zm0-18.239a.471.471,0,0,1-.475-.468v-7.294a.474.474,0,0,1,.949,0v7.294A.471.471,0,0,1,352.559,911.1Zm0-18.236a.471.471,0,0,1-.475-.468v-7.3a.474.474,0,0,1,.949,0v7.3A.471.471,0,0,1,352.559,892.867Zm0-18.237a.471.471,0,0,1-.475-.468v-7.294a.474.474,0,0,1,.949,0v7.294A.471.471,0,0,1,352.559,874.63Zm0-18.237a.472.472,0,0,1-.475-.468v-7.3a.474.474,0,0,1,.949,0v7.3A.472.472,0,0,1,352.559,856.393Zm0-18.237a.472.472,0,0,1-.475-.468v-7.3a.474.474,0,0,1,.949,0v7.3A.472.472,0,0,1,352.559,838.155Zm0-18.238a.471.471,0,0,1-.475-.467v-7.3a.474.474,0,0,1,.949,0v7.3A.47.47,0,0,1,352.559,819.918Zm0-18.237a.472.472,0,0,1-.475-.468v-7.294a.474.474,0,0,1,.949,0v7.294A.472.472,0,0,1,352.559,801.68Zm0-18.238a.472.472,0,0,1-.475-.468V775.68a.474.474,0,0,1,.949,0v7.294A.472.472,0,0,1,352.559,783.443Zm0-18.237a.472.472,0,0,1-.475-.468v-7.294a.474.474,0,0,1,.949,0v7.294A.472.472,0,0,1,352.559,765.205Z" transform="translate(-352.084 -756.976)" fill="#fff" stroke="rgba(0,0,0,0)" stroke-width="1"/>
          </g>
          <g id="Group_18167-4" data-name="Group 18167" transform="translate(0 197.062)">
            <path id="Path_8535-4" data-name="Path 8535" d="M352.559,879.267a.471.471,0,0,1-.475-.467v-3.748a.474.474,0,0,1,.949,0V878.8A.471.471,0,0,1,352.559,879.267Z" transform="translate(-352.084 -874.584)" fill="#cfccff"/>
          </g>
        </g>
        <g id="Group_18172-4" data-name="Group 18172" transform="translate(152.383 41.449)" opacity="0.35">
          <g id="Group_18169-4" data-name="Group 18169">
            <path id="Path_8536-4" data-name="Path 8536" d="M397.7,751.06a.47.47,0,0,1-.474-.467v-3.748a.474.474,0,0,1,.949,0v3.748A.47.47,0,0,1,397.7,751.06Z" transform="translate(-397.229 -746.377)" fill="#fff" stroke="rgba(0,0,0,0)" stroke-width="1"/>
          </g>
          <g id="Group_18170-4" data-name="Group 18170" transform="translate(0 14.789)">
            <path id="Path_8537-4" data-name="Path 8537" d="M397.7,929.826a.471.471,0,0,1-.474-.467V922a.474.474,0,0,1,.949,0v7.359A.471.471,0,0,1,397.7,929.826Zm0-18.4a.471.471,0,0,1-.474-.468V903.6a.474.474,0,0,1,.949,0v7.36A.471.471,0,0,1,397.7,911.424Zm0-18.4a.472.472,0,0,1-.474-.468v-7.361a.474.474,0,0,1,.949,0v7.361A.472.472,0,0,1,397.7,893.024Zm0-18.4a.472.472,0,0,1-.474-.468v-7.361a.474.474,0,0,1,.949,0v7.361A.472.472,0,0,1,397.7,874.622Zm0-18.4a.472.472,0,0,1-.474-.468v-7.359a.474.474,0,0,1,.949,0v7.359A.472.472,0,0,1,397.7,856.221Zm0-18.4a.472.472,0,0,1-.474-.468v-7.36a.474.474,0,0,1,.949,0v7.36A.472.472,0,0,1,397.7,837.819Zm0-18.4a.472.472,0,0,1-.474-.468v-7.361a.474.474,0,0,1,.949,0v7.361A.472.472,0,0,1,397.7,819.417Zm0-18.4a.472.472,0,0,1-.474-.47v-7.359a.474.474,0,0,1,.949,0v7.359A.473.473,0,0,1,397.7,801.015Zm0-18.4a.471.471,0,0,1-.474-.468v-7.361a.474.474,0,0,1,.949,0v7.361A.471.471,0,0,1,397.7,782.614Zm0-18.4a.471.471,0,0,1-.474-.47v-7.359a.474.474,0,0,1,.949,0v7.359A.471.471,0,0,1,397.7,764.212Z" transform="translate(-397.229 -755.914)" fill="#fff" stroke="rgba(0,0,0,0)" stroke-width="1"/>
          </g>
          <g id="Group_18171-4" data-name="Group 18171" transform="translate(0 198.807)">
            <path id="Path_8538-4" data-name="Path 8538" d="M397.7,879.267a.471.471,0,0,1-.474-.467v-3.748a.474.474,0,0,1,.949,0V878.8A.471.471,0,0,1,397.7,879.267Z" transform="translate(-397.229 -874.584)" fill="#fff" stroke="rgba(0,0,0,0)" stroke-width="1"/>
          </g>
        </g>
        <g id="Group_18176-4" data-name="Group 18176" transform="translate(235.631)">
          <g id="Group_18173-4" data-name="Group 18173">
            <path id="Path_8539-4" data-name="Path 8539" d="M450.271,724.33a.473.473,0,0,1-.475-.47v-3.746a.474.474,0,0,1,.949,0v3.746A.471.471,0,0,1,450.271,724.33Z" transform="translate(-449.796 -719.647)" fill="#cfccff"/>
          </g>
          <g id="Group_18174-4" data-name="Group 18174" transform="translate(0 15.007)">
            <path id="Path_8540-4" data-name="Path 8540" d="M450.271,944.248a.473.473,0,0,1-.475-.468v-7.51a.474.474,0,0,1,.949,0v7.51A.472.472,0,0,1,450.271,944.248Zm0-18.772a.472.472,0,0,1-.475-.467V917.5a.474.474,0,0,1,.949,0v7.507A.47.47,0,0,1,450.271,925.475Zm0-18.768a.474.474,0,0,1-.475-.47v-7.508a.474.474,0,0,1,.949,0v7.508A.472.472,0,0,1,450.271,906.708Zm0-18.772a.472.472,0,0,1-.475-.467v-7.51a.474.474,0,0,1,.949,0v7.51A.471.471,0,0,1,450.271,887.935Zm0-18.771a.473.473,0,0,1-.475-.468v-7.507a.474.474,0,0,1,.949,0V868.7A.472.472,0,0,1,450.271,869.164Zm0-18.771a.471.471,0,0,1-.475-.467v-7.508a.474.474,0,0,1,.949,0v7.508A.47.47,0,0,1,450.271,850.394Zm0-18.769a.473.473,0,0,1-.475-.47v-7.508a.474.474,0,0,1,.949,0v7.508A.472.472,0,0,1,450.271,831.624Zm0-18.771a.472.472,0,0,1-.475-.467v-7.508a.474.474,0,0,1,.949,0v7.508A.47.47,0,0,1,450.271,812.853Zm0-18.771a.473.473,0,0,1-.475-.468v-7.508a.474.474,0,0,1,.949,0v7.508A.472.472,0,0,1,450.271,794.083Zm0-18.771a.472.472,0,0,1-.475-.468v-7.508a.474.474,0,0,1,.949,0v7.508A.471.471,0,0,1,450.271,775.312Zm0-18.771a.472.472,0,0,1-.475-.468v-7.51a.474.474,0,0,1,.949,0v7.51A.471.471,0,0,1,450.271,756.541Zm0-18.769a.472.472,0,0,1-.475-.468v-7.508a.474.474,0,0,1,.949,0V737.3A.471.471,0,0,1,450.271,737.772Z" transform="translate(-449.796 -729.325)" fill="#cfccff"/>
          </g>
          <g id="Group_18175-4" data-name="Group 18175" transform="translate(0 240.256)">
            <path id="Path_8541-4" data-name="Path 8541" d="M450.271,879.267a.472.472,0,0,1-.475-.467v-3.748a.474.474,0,0,1,.949,0V878.8A.47.47,0,0,1,450.271,879.267Z" transform="translate(-449.796 -874.584)" fill="#cfccff"/>
          </g>
        </g>
        <g id="Group_18180-4" data-name="Group 18180" transform="translate(307.616 30.469)">
          <g id="Group_18177-4" data-name="Group 18177">
            <path id="Path_8542-4" data-name="Path 8542" d="M495.726,743.981a.472.472,0,0,1-.475-.468v-3.746a.474.474,0,0,1,.949,0v3.746A.472.472,0,0,1,495.726,743.981Z" transform="translate(-495.251 -739.296)" fill="#cfccff"/>
          </g>
          <g id="Group_18178-4" data-name="Group 18178" transform="translate(0 15.409)">
            <path id="Path_8543-4" data-name="Path 8543" d="M495.726,932.885a.475.475,0,0,1-.475-.47v-7.772a.474.474,0,0,1,.949,0v7.772A.474.474,0,0,1,495.726,932.885Zm0-19.438a.473.473,0,0,1-.475-.468V905.2a.474.474,0,0,1,.949,0v7.777A.473.473,0,0,1,495.726,913.448Zm0-19.438a.473.473,0,0,1-.475-.468v-7.777a.474.474,0,0,1,.949,0v7.777A.473.473,0,0,1,495.726,894.01Zm0-19.436a.473.473,0,0,1-.475-.468v-7.776a.474.474,0,0,1,.949,0v7.776A.473.473,0,0,1,495.726,874.574Zm0-19.441a.472.472,0,0,1-.475-.467v-7.775a.474.474,0,0,1,.949,0v7.775A.472.472,0,0,1,495.726,855.133Zm0-19.437a.473.473,0,0,1-.475-.467v-7.777a.474.474,0,0,1,.949,0v7.777A.473.473,0,0,1,495.726,835.7Zm0-19.436a.474.474,0,0,1-.475-.47v-7.773a.474.474,0,0,1,.949,0v7.773A.473.473,0,0,1,495.726,816.259Zm0-19.438a.473.473,0,0,1-.475-.468v-7.777a.474.474,0,0,1,.949,0v7.777A.473.473,0,0,1,495.726,796.821Zm0-19.437a.473.473,0,0,1-.475-.468v-7.777a.474.474,0,0,1,.949,0v7.777A.473.473,0,0,1,495.726,777.384Zm0-19.438a.473.473,0,0,1-.475-.468V749.7a.474.474,0,0,1,.949,0v7.775A.473.473,0,0,1,495.726,757.946Z" transform="translate(-495.251 -749.233)" fill="#cfccff"/>
          </g>
          <g id="Group_18179-4" data-name="Group 18179" transform="translate(0 209.787)">
            <path id="Path_8544-4" data-name="Path 8544" d="M495.726,879.267a.472.472,0,0,1-.475-.467v-3.748a.474.474,0,0,1,.949,0V878.8A.472.472,0,0,1,495.726,879.267Z" transform="translate(-495.251 -874.584)" fill="#cfccff"/>
          </g>
        </g>
        <g id="Group_18184-4" data-name="Group 18184" transform="translate(369.087 21.271)">
          <g id="Group_18181-4" data-name="Group 18181">
            <path id="Path_8545-4" data-name="Path 8545" d="M534.542,738.049a.472.472,0,0,1-.475-.468v-3.746a.475.475,0,0,1,.95,0v3.746A.472.472,0,0,1,534.542,738.049Z" transform="translate(-534.067 -733.364)" fill="#cfccff"/>
          </g>
          <g id="Group_18182-4" data-name="Group 18182" transform="translate(0 14.88)">
            <path id="Path_8546-4" data-name="Path 8546" d="M534.542,936.87a.473.473,0,0,1-.475-.468v-7.423a.475.475,0,0,1,.95,0V936.4A.473.473,0,0,1,534.542,936.87Zm0-18.555a.474.474,0,0,1-.475-.47v-7.422a.475.475,0,0,1,.95,0v7.422A.474.474,0,0,1,534.542,918.314Zm0-18.557a.473.473,0,0,1-.475-.468v-7.42a.475.475,0,0,1,.95,0v7.42A.473.473,0,0,1,534.542,899.757Zm0-18.554a.472.472,0,0,1-.475-.467v-7.424a.475.475,0,0,1,.95,0v7.424A.472.472,0,0,1,534.542,881.2Zm0-18.554a.473.473,0,0,1-.475-.468v-7.423a.475.475,0,0,1,.95,0v7.423A.473.473,0,0,1,534.542,862.65Zm0-18.555a.473.473,0,0,1-.475-.468V836.2a.475.475,0,0,1,.95,0v7.423A.473.473,0,0,1,534.542,844.095Zm0-18.557a.472.472,0,0,1-.475-.468v-7.42a.475.475,0,0,1,.95,0v7.42A.472.472,0,0,1,534.542,825.538Zm0-18.555a.472.472,0,0,1-.475-.468v-7.422a.475.475,0,0,1,.95,0v7.422A.472.472,0,0,1,534.542,806.982Zm0-18.554a.472.472,0,0,1-.475-.468v-7.422a.475.475,0,0,1,.95,0v7.422A.472.472,0,0,1,534.542,788.429Zm0-18.555a.472.472,0,0,1-.475-.467v-7.423a.475.475,0,0,1,.95,0v7.423A.472.472,0,0,1,534.542,769.873Zm0-18.554a.472.472,0,0,1-.475-.47v-7.42a.475.475,0,0,1,.95,0v7.42A.472.472,0,0,1,534.542,751.32Z" transform="translate(-534.067 -742.96)" fill="#cfccff"/>
          </g>
          <g id="Group_18183-4" data-name="Group 18183" transform="translate(0 218.985)">
            <path id="Path_8547-4" data-name="Path 8547" d="M534.542,879.267a.472.472,0,0,1-.475-.467v-3.748a.475.475,0,0,1,.95,0V878.8A.472.472,0,0,1,534.542,879.267Z" transform="translate(-534.067 -874.584)" fill="#cfccff"/>
          </g>
        </g>
        <g id="Group_18188-4" data-name="Group 18188" transform="translate(460.462 51.73)">
          <g id="Group_18185-4" data-name="Group 18185">
            <path id="Path_8548-4" data-name="Path 8548" d="M592.24,757.692a.471.471,0,0,1-.473-.468v-3.746a.474.474,0,0,1,.948,0v3.746A.472.472,0,0,1,592.24,757.692Z" transform="translate(-591.766 -753.007)" fill="#cfccff"/>
          </g>
          <g id="Group_18186-4" data-name="Group 18186" transform="translate(0 15.296)">
            <path id="Path_8549-4" data-name="Path 8549" d="M592.24,925.49a.472.472,0,0,1-.473-.468v-7.7a.474.474,0,0,1,.948,0v7.7A.473.473,0,0,1,592.24,925.49Zm0-19.249a.472.472,0,0,1-.473-.47v-7.7a.474.474,0,0,1,.948,0v7.7A.473.473,0,0,1,592.24,906.241Zm0-19.247a.472.472,0,0,1-.473-.47v-7.7a.474.474,0,0,1,.948,0v7.7A.473.473,0,0,1,592.24,886.994Zm0-19.25a.472.472,0,0,1-.473-.468v-7.7a.474.474,0,0,1,.948,0v7.7A.473.473,0,0,1,592.24,867.744Zm0-19.247a.471.471,0,0,1-.473-.468v-7.7a.474.474,0,0,1,.948,0v7.7A.472.472,0,0,1,592.24,848.5Zm0-19.248a.472.472,0,0,1-.473-.468v-7.7a.474.474,0,0,1,.948,0v7.7A.473.473,0,0,1,592.24,829.249Zm0-19.247a.472.472,0,0,1-.473-.468v-7.7a.474.474,0,0,1,.948,0v7.7A.473.473,0,0,1,592.24,810Zm0-19.247a.471.471,0,0,1-.473-.468v-7.7a.474.474,0,0,1,.948,0v7.7A.472.472,0,0,1,592.24,790.755Zm0-19.248a.472.472,0,0,1-.473-.468v-7.7a.474.474,0,0,1,.948,0v7.7A.473.473,0,0,1,592.24,771.507Z" transform="translate(-591.766 -762.871)" fill="#cfccff"/>
          </g>
          <g id="Group_18187-4" data-name="Group 18187" transform="translate(0 188.526)">
            <path id="Path_8550-4" data-name="Path 8550" d="M592.24,879.267a.47.47,0,0,1-.473-.467v-3.748a.474.474,0,0,1,.948,0V878.8A.472.472,0,0,1,592.24,879.267Z" transform="translate(-591.766 -874.584)" fill="#cfccff"/>
          </g>
        </g>
      </g>
      <g id="Group_18193-4" data-name="Group 18193" transform="translate(482.926 767.979)">
        <path id="Path_8557-13" data-name="Path 8557" d="M406.965,749.1a6.9,6.9,0,1,1-6.9-6.806A6.853,6.853,0,0,1,406.965,749.1Z" transform="translate(-393.176 -742.29)" fill="#fff"/>
        <path id="Path_8558-13" data-name="Path 8558" d="M404.7,748.516a5.242,5.242,0,1,1-5.243-5.173A5.211,5.211,0,0,1,404.7,748.516Z" transform="translate(-392.567 -741.71)" fill="#0f8d82"/>
      </g>
      <g id="Group_18201-4" data-name="Group 18201" transform="translate(566.703 727.94)">
        <path id="Path_8557-14" data-name="Path 8557" d="M406.965,749.1a6.9,6.9,0,1,1-6.9-6.806A6.853,6.853,0,0,1,406.965,749.1Z" transform="translate(-393.176 -742.29)" fill="#fff"/>
        <path id="Path_8558-14" data-name="Path 8558" d="M404.7,748.516a5.242,5.242,0,1,1-5.243-5.173A5.211,5.211,0,0,1,404.7,748.516Z" transform="translate(-392.567 -741.71)" fill="#0f8d82"/>
      </g>
      <g id="Group_18202-4" data-name="Group 18202" transform="translate(639.509 755.283)">
        <path id="Path_8557-15" data-name="Path 8557" d="M406.965,749.1a6.9,6.9,0,1,1-6.9-6.806A6.853,6.853,0,0,1,406.965,749.1Z" transform="translate(-393.176 -742.29)" fill="#fff"/>
        <path id="Path_8558-15" data-name="Path 8558" d="M404.7,748.516a5.242,5.242,0,1,1-5.243-5.173A5.211,5.211,0,0,1,404.7,748.516Z" transform="translate(-392.567 -741.71)" fill="#0f8d82"/>
      </g>
      <g id="Group_18203-4" data-name="Group 18203" transform="translate(791.479 779.786)">
        <path id="Path_8557-16" data-name="Path 8557" d="M406.965,749.1a6.9,6.9,0,1,1-6.9-6.806A6.853,6.853,0,0,1,406.965,749.1Z" transform="translate(-393.176 -742.29)" fill="#fff"/>
        <path id="Path_8558-16" data-name="Path 8558" d="M404.7,748.516a5.242,5.242,0,1,1-5.243-5.173A5.211,5.211,0,0,1,404.7,748.516Z" transform="translate(-392.567 -741.71)" fill="#0f8d82"/>
      </g>
      <g id="Group_18194-4" data-name="Group 18194" transform="translate(411.431 769.723)">
        <path id="Path_8559-4" data-name="Path 8559" d="M361.819,750.221a6.895,6.895,0,1,1-6.9-6.806A6.852,6.852,0,0,1,361.819,750.221Z" transform="translate(-348.03 -743.415)" fill="#fff"/>
        <path id="Path_8560-4" data-name="Path 8560" d="M359.556,749.641a5.242,5.242,0,1,1-5.242-5.173A5.21,5.21,0,0,1,359.556,749.641Z" transform="translate(-347.421 -742.835)" fill="#0f8d82"/>
      </g>
      <g id="Group_18195-4" data-name="Group 18195" transform="translate(330.542 763.806)">
        <path id="Path_8561-4" data-name="Path 8561" d="M310.742,746.4a6.9,6.9,0,1,1-6.894-6.8A6.852,6.852,0,0,1,310.742,746.4Z" transform="translate(-296.953 -739.599)" fill="#fff"/>
        <path id="Path_8562-4" data-name="Path 8562" d="M308.479,745.824a5.242,5.242,0,1,1-5.24-5.173A5.209,5.209,0,0,1,308.479,745.824Z" transform="translate(-296.344 -739.02)" fill="#0f8d82"/>
      </g>
      <g id="Group_18196-4" data-name="Group 18196" transform="translate(847.57 976.402)">
        <path id="Path_8563-4" data-name="Path 8563" d="M728.668,931.161Z" transform="translate(-728.668 -931.161)" fill="#fff" opacity="0.25"/>
      </g>
      <path id="Path_8564-4" data-name="Path 8564" d="M578.577,745.053a32.306,32.306,0,1,1-32.305-31.894A32.1,32.1,0,0,1,578.577,745.053Z" transform="translate(160.252 9.647)" fill="#26a69a" opacity="0.4"/>
      <g id="Group_18197-4" data-name="Group 18197" transform="translate(688.668 737.068)">
        <path id="Path_8565-4" data-name="Path 8565" d="M558.807,739.989a17.859,17.859,0,1,1-17.859-17.633A17.745,17.745,0,0,1,558.807,739.989Z" transform="translate(-523.092 -722.356)" fill="#26a69a"/>
        <path id="Path_8566-4" data-name="Path 8566" d="M551.022,737.994a12.17,12.17,0,1,1-12.17-12.016A12.095,12.095,0,0,1,551.022,737.994Z" transform="translate(-520.995 -720.362)" fill="#fefefe" opacity="0.46"/>
        <path id="Path_8567-4" data-name="Path 8567" d="M543.237,736a6.482,6.482,0,1,1-6.482-6.4A6.442,6.442,0,0,1,543.237,736Z" transform="translate(-518.899 -718.367)" fill="#26a69a"/>
      </g>
    </g>
  </g>
</svg>
