<svg xmlns="http://www.w3.org/2000/svg" width="22.802" height="26.31" viewBox="0 0 22.802 26.31">
  <path id="Path_9060" data-name="Path 9060" d="M22.392,957.362a.877.877,0,0,0-.868.895V959.7a8.8,8.8,0,0,0-7.838,8.8v6.3c0,.782-.081.94-.164,1.032a5.429,5.429,0,0,1-1.087.557l-.064.027v.009A2.242,2.242,0,0,0,11,978.468v1.059a.877.877,0,0,0,.877.876h7.254a3.308,3.308,0,0,0,3.261,3.268H22.4a3.314,3.314,0,0,0,3.271-3.268h7.254a.877.877,0,0,0,.877-.876v-1.059a2.245,2.245,0,0,0-1.37-2.045v-.009l-.064-.027a5.439,5.439,0,0,1-1.087-.557c-.084-.091-.164-.25-.164-1.032v-6.3a8.8,8.8,0,0,0-7.838-8.8v-1.443a.877.877,0,0,0-.886-.895ZM22.4,961.4a7.009,7.009,0,0,1,6.961,7.1v6.3a3.128,3.128,0,0,0,.63,2.219,4.513,4.513,0,0,0,1.736,1q.031.015.064.027c.261.091.256.033.256.42v.183H12.754v-.183c0-.387,0-.329.256-.42q.033-.012.064-.027a4.516,4.516,0,0,0,1.736-1,3.128,3.128,0,0,0,.63-2.219v-6.3A7.008,7.008,0,0,1,22.4,961.4ZM20.885,980.4h3.033A1.53,1.53,0,0,1,22.4,981.92h-.009A1.521,1.521,0,0,1,20.885,980.4Z" transform="translate(-11 -957.362)" fill="#4a4a63"/>
</svg>
