<svg xmlns="http://www.w3.org/2000/svg" width="16.46" height="18.992" viewBox="0 0 16.46 18.992">
  <g id="Group_19122" data-name="Group 19122" transform="translate(-9.599 -957.362)">
    <path id="Path_9060" data-name="Path 9060" d="M19.223,957.362a.633.633,0,0,0-.626.646v1.041a6.356,6.356,0,0,0-5.658,6.353v4.547c0,.564-.058.679-.119.745a3.919,3.919,0,0,1-.785.4l-.046.02v.007A1.619,1.619,0,0,0,11,972.6v.765a.633.633,0,0,0,.633.633h5.236a2.388,2.388,0,0,0,2.354,2.359h.007a2.392,2.392,0,0,0,2.361-2.359h5.236a.633.633,0,0,0,.633-.633V972.6a1.621,1.621,0,0,0-.989-1.476v-.007l-.046-.02a3.926,3.926,0,0,1-.785-.4c-.06-.066-.119-.18-.119-.745V965.4a6.355,6.355,0,0,0-5.658-6.352v-1.041a.633.633,0,0,0-.64-.646Zm.007,2.913a5.059,5.059,0,0,1,5.025,5.127v4.547a2.258,2.258,0,0,0,.455,1.6,3.257,3.257,0,0,0,1.253.725l.046.02c.188.065.185.023.185.3v.132H12.266V972.6c0-.279,0-.238.185-.3l.046-.02a3.26,3.26,0,0,0,1.253-.725,2.258,2.258,0,0,0,.455-1.6V965.4A5.059,5.059,0,0,1,19.23,960.275Zm-1.095,13.72h2.189a1.1,1.1,0,0,1-1.095,1.094h-.007A1.1,1.1,0,0,1,18.135,973.995Z" transform="translate(-1.401 0)" fill="#fff"/>
  </g>
</svg>
