<svg xmlns="http://www.w3.org/2000/svg" width="2444.586" height="265.362" viewBox="0 0 2444.586 265.362">
  <g id="Group_4" data-name="Group 4" transform="translate(1 -34.137)" opacity="0.5">
    <path id="Path_1" data-name="Path 1" d="M454,714.2l99.846-47.337,76.923,5.325h74.556l82.84-43.2,69.823,31.361L921.3,650.3l91.124,31.361,53.663,43.595,86.574-58.388,81.065,21.893,67.76-42,89.637-17.767,73.964,29.586,60.355-13.609,88.757,36.686,56.288,37.7,87.5-55.45L1843.2,671.6l66.864,13.609,92.308-56.213,69.822,27.811,66.272-8.284,95.858,33.136,47.929,11.243,95.266-27.811,76.923,13.018,79.29-10.059L2613.61,614.2l78.106,42.6,62.722-8.284,92.308,29.586,42.9,42.9v150H454Z" transform="translate(-454 -574)" fill="#26a69a"/>
    <path id="Path_2" data-name="Path 2" d="M454,852.982s97.662-40.51,99.027-40.965S634.5,767.41,634.5,767.41h69.641l82.385-40.965,73.282,64.634,151.57-38.234,141.1,63.268,81.475-76.468,73.282,27.765,80.169-3.186L1465.4,803l152.261-50.614,156.122,25.489,70.6-23.214,71.412,9.558,86.772-17.244,73.9,42.733,157.882-22.3,140.1,32.806,78.585-35.992,89.065-9.558,75.1-31.406,74.123,40.965,66.979,9.1,88.758-23.213,43.241,18.662V870.733H454Z" transform="translate(-454 -574)" fill="#0f8d82"/>
    <path id="Path_8528" data-name="Path 8528" d="M252.892,819.689a.958.958,0,0,1-.857-.524.939.939,0,0,1,.431-1.266l86.32-57.729a.881.881,0,0,1,.5-.094l81.314,21.4,67.343-42.467,88.638-16.736a.969.969,0,0,1,.809-.023l70.976,27.768,61.864-12.232a1,1,0,0,1,.45.041l91.959,36.8a1.032,1.032,0,0,1,.236.116l54.456,37.363a.936.936,0,0,1,.249,1.313.958.958,0,0,1-1.33.242l-54.358-37.288L710.282,739.7l-61.905,12.236a1,1,0,0,1-.52-.067l-70.815-27.7L488.612,740.8a.954.954,0,0,1-.4.1l-67.654,42.47-81.147-21.388-86.085,57.613A.96.96,0,0,1,252.892,819.689Z" transform="translate(359.596 -667.677)" fill="#fff"/>
    <g id="Group_18164" data-name="Group 18164" transform="translate(697.323 89.709)">
      <g id="Group_18161" data-name="Group 18161">
        <path id="Path_8530" data-name="Path 8530" d="M301.486,748.406a.475.475,0,0,1-.479-.472v-3.777a.478.478,0,1,1,.956,0v3.777A.475.475,0,0,1,301.486,748.406Z" transform="translate(-301.007 -743.686)" fill="#fff"/>
      </g>
      <g id="Group_18162" data-name="Group 18162" transform="translate(0 15.142)">
        <path id="Path_8531" data-name="Path 8531" d="M301.486,932.382a.476.476,0,0,1-.479-.472v-7.575a.478.478,0,1,1,.956,0v7.575A.475.475,0,0,1,301.486,932.382Zm0-18.941a.476.476,0,0,1-.479-.472v-7.577a.478.478,0,0,1,.956,0v7.577a.475.475,0,0,1-.477.471Zm0-18.943a.476.476,0,0,1-.479-.472v-7.578a.478.478,0,1,1,.956,0v7.578a.476.476,0,0,1-.477.474Zm0-18.943a.476.476,0,0,1-.479-.473V867.5a.478.478,0,1,1,.956,0v7.577a.476.476,0,0,1-.477.477Zm0-18.943a.476.476,0,0,1-.479-.472v-7.578a.478.478,0,1,1,.956,0v7.578a.476.476,0,0,1-.477.471Zm0-18.943a.475.475,0,0,1-.479-.472V829.62a.478.478,0,0,1,.956,0v7.58a.475.475,0,0,1-.477.468Zm0-18.943a.475.475,0,0,1-.479-.47v-7.58a.478.478,0,0,1,.956,0v7.58a.474.474,0,0,1-.477.469Zm0-18.943a.476.476,0,0,1-.479-.472v-7.577a.478.478,0,1,1,.956,0v7.577a.476.476,0,0,1-.477.471Zm0-18.943a.475.475,0,0,1-.479-.472V772.79a.478.478,0,0,1,.956,0v7.577a.475.475,0,0,1-.477.472Zm0-18.943a.475.475,0,0,1-.479-.472v-7.577a.478.478,0,1,1,.956,0v7.577a.475.475,0,0,1-.477.475Z" transform="translate(-301.007 -753.375)" fill="#fff"/>
      </g>
      <g id="Group_18163" data-name="Group 18163" transform="translate(0 204.571)">
        <path id="Path_8532" data-name="Path 8532" d="M301.486,879.3a.475.475,0,0,1-.479-.47v-3.777a.478.478,0,0,1,.956,0v3.777a.474.474,0,0,1-.477.47Z" transform="translate(-301.007 -874.584)" fill="#fff"/>
      </g>
    </g>
    <path id="Path_8534" data-name="Path 8534" d="M352.563,925.977a.484.484,0,0,1-.338-.134.457.457,0,0,1-.141-.327v-7.152a.478.478,0,0,1,.956,0v7.152A.47.47,0,0,1,352.563,925.977Zm0-17.883a.482.482,0,0,1-.337-.133.456.456,0,0,1-.142-.326v-7.152a.478.478,0,0,1,.956,0v7.152a.469.469,0,0,1-.477.459Zm0-17.88a.482.482,0,0,1-.337-.133.456.456,0,0,1-.142-.326V882.6a.478.478,0,0,1,.956,0v7.153A.469.469,0,0,1,352.563,890.214Zm0-17.881a.482.482,0,0,1-.337-.133.456.456,0,0,1-.142-.326v-7.152a.478.478,0,0,1,.956,0v7.152a.469.469,0,0,1-.477.459Zm0-17.881a.47.47,0,0,1-.479-.459V846.84a.478.478,0,0,1,.956,0v7.152a.47.47,0,0,1-.477.459Zm0-17.881a.47.47,0,0,1-.479-.459v-7.153a.478.478,0,0,1,.956,0v7.153a.47.47,0,0,1-.477.458Zm0-17.882a.481.481,0,0,1-.337-.132.455.455,0,0,1-.142-.325v-7.153a.478.478,0,0,1,.956,0v7.153a.468.468,0,0,1-.477.456Zm0-17.881a.47.47,0,0,1-.479-.459V793.2a.478.478,0,0,1,.956,0v7.151a.47.47,0,0,1-.477.458Zm0-17.882a.47.47,0,0,1-.479-.459v-7.152a.478.478,0,0,1,.956,0v7.152a.469.469,0,0,1-.477.458Zm0-17.881a.47.47,0,0,1-.479-.459v-7.152a.478.478,0,0,1,.956,0v7.153a.469.469,0,0,1-.477.457Z" transform="translate(426.762 -641.78)" fill="#fff" stroke="rgba(0,0,0,0)" stroke-width="1"/>
    <g id="Group_18167" data-name="Group 18167" transform="translate(778.846 294.272)">
      <path id="Path_8535" data-name="Path 8535" d="M352.563,879.3a.475.475,0,0,1-.479-.47v-3.777a.478.478,0,0,1,.956,0v3.777a.474.474,0,0,1-.477.47Z" transform="translate(-352.084 -874.575)" fill="#cfccff"/>
    </g>
    <g id="Group_18172" data-name="Group 18172" transform="translate(848.381 74.035)">
      <g id="Group_18169" data-name="Group 18169" transform="translate(0 -0.002)">
        <path id="Path_8536" data-name="Path 8536" d="M397.706,751.1a.473.473,0,0,1-.477-.47v-3.777a.478.478,0,1,1,.956,0v3.777a.474.474,0,0,1-.479.47Z" transform="translate(-397.229 -746.375)" fill="#fff" stroke="rgba(0,0,0,0)" stroke-width="1"/>
      </g>
      <g id="Group_18170" data-name="Group 18170" transform="translate(0 14.9)">
        <path id="Path_8537" data-name="Path 8537" d="M397.706,951.07a.5.5,0,0,1-.477-.525v-8.26a.481.481,0,1,1,.956,0v8.258a.56.56,0,0,1-.141.374.451.451,0,0,1-.338.153Zm0-20.649a.5.5,0,0,1-.477-.526v-8.258a.481.481,0,1,1,.956,0v8.258a.56.56,0,0,1-.142.373.451.451,0,0,1-.337.152Zm0-20.647a.5.5,0,0,1-.477-.525v-8.26a.481.481,0,1,1,.956,0v8.26a.5.5,0,0,1-.479.526Zm0-20.649a.5.5,0,0,1-.477-.526v-8.26a.481.481,0,1,1,.956,0v8.26a.5.5,0,0,1-.479.524Zm0-20.649a.5.5,0,0,1-.477-.525V859.69a.481.481,0,1,1,.956,0v8.258a.5.5,0,0,1-.479.525Zm0-20.649a.5.5,0,0,1-.477-.526v-8.258a.481.481,0,1,1,.956,0V847.3a.5.5,0,0,1-.479.524Zm0-20.649a.5.5,0,0,1-.477-.526v-8.26a.481.481,0,1,1,.956,0v8.26a.5.5,0,0,1-.479.525Zm0-20.649a.5.5,0,0,1-.477-.528V797.74a.481.481,0,1,1,.956,0V806a.5.5,0,0,1-.479.522Zm0-20.649a.5.5,0,0,1-.477-.526v-8.26a.481.481,0,1,1,.956,0v8.26a.5.5,0,0,1-.479.525Zm0-20.649a.452.452,0,0,1-.337-.154.56.56,0,0,1-.14-.374v-8.258a.481.481,0,1,1,.956,0V764.7a.561.561,0,0,1-.14.377.451.451,0,0,1-.339.154Z" transform="translate(-397.229 -755.909)" fill="#fff" stroke="rgba(0,0,0,0)" stroke-width="1"/>
      </g>
      <g id="Group_18171" data-name="Group 18171" transform="translate(0 220.237)">
        <path id="Path_8538" data-name="Path 8538" d="M397.706,879.3a.474.474,0,0,1-.477-.47v-3.777a.478.478,0,0,1,.956,0v3.777a.475.475,0,0,1-.479.47Z" transform="translate(-397.229 -874.575)" fill="#fff" stroke="rgba(0,0,0,0)" stroke-width="1"/>
      </g>
    </g>
    <g id="Group_18173" data-name="Group 18173" transform="translate(934.802 52.14)">
      <path id="Path_8539" data-name="Path 8539" d="M450.275,724.367a.476.476,0,0,1-.479-.474v-3.776a.478.478,0,1,1,.956,0v3.776a.475.475,0,0,1-.477.474Z" transform="translate(-449.796 -719.647)" fill="#cfccff"/>
    </g>
    <g id="Group_18174" data-name="Group 18174" transform="translate(934.802 67.265)">
      <path id="Path_8540" data-name="Path 8540" d="M450.275,945.933a.477.477,0,0,1-.479-.472v-7.569a.478.478,0,1,1,.956,0v7.569A.475.475,0,0,1,450.275,945.933Zm0-18.92a.476.476,0,0,1-.479-.47v-7.566a.478.478,0,0,1,.956,0v7.566a.474.474,0,0,1-.477.471Zm0-18.915a.477.477,0,0,1-.479-.474v-7.567a.478.478,0,0,1,.956,0v7.567a.476.476,0,0,1-.477.476Zm0-18.92a.476.476,0,0,1-.479-.47V881.14a.478.478,0,0,1,.956,0v7.569a.474.474,0,0,1-.477.47Zm0-18.918a.477.477,0,0,1-.479-.472v-7.566a.478.478,0,1,1,.956,0v7.566a.475.475,0,0,1-.477.473Zm0-18.918a.475.475,0,0,1-.479-.47v-7.567a.478.478,0,1,1,.956,0v7.567a.473.473,0,0,1-.477.471Zm0-18.917a.477.477,0,0,1-.479-.474v-7.567a.478.478,0,1,1,.956,0v7.567a.476.476,0,0,1-.477.476Zm0-18.918a.476.476,0,0,1-.479-.47V805.47a.478.478,0,1,1,.956,0v7.567a.474.474,0,0,1-.477.471Zm0-18.918a.477.477,0,0,1-.479-.472V786.55a.478.478,0,0,1,.956,0v7.567a.475.475,0,0,1-.477.473Zm0-18.918a.476.476,0,0,1-.479-.472v-7.567a.478.478,0,1,1,.956,0V775.2a.475.475,0,0,1-.477.472Zm0-18.918a.476.476,0,0,1-.479-.472v-7.569a.478.478,0,1,1,.956,0v7.569a.474.474,0,0,1-.477.473Zm0-18.916a.476.476,0,0,1-.479-.472V729.8a.478.478,0,1,1,.956,0v7.567a.474.474,0,0,1-.477.471Z" transform="translate(-449.796 -729.325)" fill="#cfccff"/>
    </g>
    <g id="Group_18175" data-name="Group 18175" transform="translate(934.802 294.28)">
      <path id="Path_8541" data-name="Path 8541" d="M450.275,879.3a.476.476,0,0,1-.479-.47v-3.777a.478.478,0,0,1,.956,0v3.777a.474.474,0,0,1-.477.47Z" transform="translate(-449.796 -874.584)" fill="#cfccff"/>
    </g>
    <g id="Group_18180" data-name="Group 18180" transform="translate(1007.352 82.848)">
      <g id="Group_18177" data-name="Group 18177">
        <path id="Path_8542" data-name="Path 8542" d="M495.73,744.017a.476.476,0,0,1-.479-.472v-3.776a.478.478,0,1,1,.956,0v3.776a.476.476,0,0,1-.477.472Z" transform="translate(-495.251 -739.296)" fill="#cfccff"/>
      </g>
      <g id="Group_18178" data-name="Group 18178" transform="translate(0 15.53)">
        <path id="Path_8543" data-name="Path 8543" d="M495.73,934.325a.478.478,0,0,1-.479-.473v-7.833a.478.478,0,1,1,.956,0v7.833a.478.478,0,0,1-.477.473Zm0-19.59a.477.477,0,0,1-.479-.472v-7.838a.478.478,0,1,1,.956,0v7.838a.477.477,0,0,1-.477.472Zm0-19.59a.477.477,0,0,1-.479-.472v-7.838a.478.478,0,1,1,.956,0v7.838a.477.477,0,0,1-.477.472Zm0-19.589a.477.477,0,0,1-.479-.472v-7.837a.478.478,0,1,1,.956,0v7.837a.477.477,0,0,1-.477.473Zm0-19.593a.476.476,0,0,1-.479-.47v-7.836a.478.478,0,1,1,.956,0v7.836a.475.475,0,0,1-.477.47Zm0-19.59a.477.477,0,0,1-.479-.471v-7.838a.478.478,0,1,1,.956,0V835.9a.476.476,0,0,1-.477.473Zm0-19.589a.477.477,0,0,1-.479-.474v-7.834a.478.478,0,1,1,.956,0v7.834a.477.477,0,0,1-.477.475Zm0-19.59a.477.477,0,0,1-.479-.472v-7.838a.478.478,0,1,1,.956,0v7.838a.477.477,0,0,1-.477.473Zm0-19.59a.477.477,0,0,1-.479-.472V769.3a.478.478,0,1,1,.956,0v7.838a.477.477,0,0,1-.477.462Zm0-19.59a.477.477,0,0,1-.479-.472v-7.836a.478.478,0,1,1,.956,0v7.836a.477.477,0,0,1-.477.473Z" transform="translate(-495.251 -749.233)" fill="#cfccff"/>
      </g>
      <g id="Group_18179" data-name="Group 18179" transform="translate(0 211.432)">
        <path id="Path_8544" data-name="Path 8544" d="M495.73,879.3a.476.476,0,0,1-.479-.47v-3.777a.478.478,0,1,1,.956,0v3.777a.475.475,0,0,1-.477.47Z" transform="translate(-495.251 -874.584)" fill="#cfccff"/>
      </g>
    </g>
    <g id="Group_18184" data-name="Group 18184" transform="translate(1069.305 73.577)">
      <g id="Group_18181" data-name="Group 18181">
        <path id="Path_8545" data-name="Path 8545" d="M534.546,738.085a.476.476,0,0,1-.479-.472v-3.776a.479.479,0,0,1,.957,0v3.776a.476.476,0,0,1-.478.472Z" transform="translate(-534.067 -733.364)" fill="#cfccff"/>
      </g>
      <g id="Group_18182" data-name="Group 18182" transform="translate(0 14.997)">
        <path id="Path_8546" data-name="Path 8546" d="M534.546,938.39a.477.477,0,0,1-.479-.472v-7.481a.479.479,0,0,1,.957,0v7.481A.477.477,0,0,1,534.546,938.39Zm0-18.7a.477.477,0,0,1-.479-.474v-7.48a.479.479,0,0,1,.957,0v7.48a.477.477,0,0,1-.478.474Zm0-18.7a.477.477,0,0,1-.479-.472V893.04a.479.479,0,0,1,.957,0v7.478a.477.477,0,0,1-.478.469Zm0-18.7a.475.475,0,0,1-.479-.47v-7.483a.479.479,0,0,1,.957,0v7.483a.475.475,0,0,1-.478.468Zm0-18.7a.477.477,0,0,1-.479-.472v-7.481a.479.479,0,0,1,.957,0v7.481a.477.477,0,0,1-.478.471Zm0-18.7a.477.477,0,0,1-.479-.472v-7.482a.479.479,0,0,1,.957,0v7.482a.477.477,0,0,1-.478.47Zm0-18.7a.476.476,0,0,1-.479-.472V818.24a.479.479,0,0,1,.957,0v7.478a.476.476,0,0,1-.478.467Zm0-18.7a.476.476,0,0,1-.479-.472v-7.48a.479.479,0,0,1,.957,0v7.48a.476.476,0,0,1-.478.467Zm0-18.7a.476.476,0,0,1-.479-.472v-7.48a.479.479,0,0,1,.957,0v7.48a.476.476,0,0,1-.478.467Zm0-18.7a.475.475,0,0,1-.479-.47v-7.481a.479.479,0,0,1,.957,0v7.481a.475.475,0,0,1-.478.464Zm0-18.7a.476.476,0,0,1-.479-.474v-7.478a.479.479,0,0,1,.957,0v7.478a.476.476,0,0,1-.478.469Z" transform="translate(-534.067 -742.96)" fill="#cfccff"/>
      </g>
      <g id="Group_18183" data-name="Group 18183" transform="translate(0 220.703)">
        <path id="Path_8547" data-name="Path 8547" d="M534.546,879.3a.476.476,0,0,1-.479-.47v-3.777a.479.479,0,0,1,.957,0v3.777a.475.475,0,0,1-.478.47Z" transform="translate(-534.067 -874.584)" fill="#cfccff"/>
      </g>
    </g>
    <g id="Group_18185" data-name="Group 18185" transform="translate(1161.396 104.276)">
      <path id="Path_8548" data-name="Path 8548" d="M592.243,757.728a.474.474,0,0,1-.477-.472V753.48a.478.478,0,0,1,.956,0v3.776a.476.476,0,0,1-.479.472Z" transform="translate(-591.766 -753.007)" fill="#cfccff"/>
    </g>
    <g id="Group_18186" data-name="Group 18186" transform="translate(1161.396 119.692)">
      <path id="Path_8549" data-name="Path 8549" d="M592.243,926.765a.476.476,0,0,1-.477-.472v-7.761a.478.478,0,0,1,.956,0v7.761A.477.477,0,0,1,592.243,926.765Zm0-19.4a.476.476,0,0,1-.477-.473v-7.76a.478.478,0,0,1,.956,0v7.76a.477.477,0,0,1-.479.474Zm0-19.4a.476.476,0,0,1-.477-.474v-7.759a.478.478,0,0,1,.956,0v7.759a.477.477,0,0,1-.479.477Zm0-19.4a.475.475,0,0,1-.477-.472v-7.759a.478.478,0,0,1,.956,0v7.759a.477.477,0,0,1-.479.474Zm0-19.4a.474.474,0,0,1-.477-.472v-7.759a.478.478,0,0,1,.956,0V848.7a.476.476,0,0,1-.479.469Zm0-19.4a.475.475,0,0,1-.477-.472v-7.759a.478.478,0,0,1,.956,0V829.3a.477.477,0,0,1-.479.47Zm0-19.4a.476.476,0,0,1-.477-.472V802.14a.478.478,0,0,1,.956,0v7.76a.477.477,0,0,1-.479.472Zm0-19.4a.474.474,0,0,1-.477-.472v-7.761a.478.478,0,0,1,.956,0V790.5a.476.476,0,0,1-.479.474Zm0-19.4a.475.475,0,0,1-.477-.472v-7.76a.478.478,0,0,1,.956,0v7.76a.477.477,0,0,1-.479.481Z" transform="translate(-591.766 -762.871)" fill="#cfccff"/>
    </g>
    <g id="Group_18187" data-name="Group 18187" transform="translate(1161.396 294.28)">
      <path id="Path_8550" data-name="Path 8550" d="M592.243,879.3a.474.474,0,0,1-.477-.47v-3.777a.478.478,0,0,1,.956,0v3.777a.475.475,0,0,1-.479.47Z" transform="translate(-591.766 -874.584)" fill="#cfccff"/>
    </g>
    <g id="Group_18193" data-name="Group 18193" transform="translate(841.432 64.945)">
      <path id="Path_8557" data-name="Path 8557" d="M407.073,749.149a6.949,6.949,0,1,1-6.951-6.859,6.949,6.949,0,0,1,6.951,6.859Z" transform="translate(-393.176 -742.29)" fill="#fff"/>
      <path id="Path_8558" data-name="Path 8558" d="M404.784,748.557a5.283,5.283,0,1,1-5.285-5.214,5.283,5.283,0,0,1,5.285,5.214Z" transform="translate(-392.554 -741.697)" fill="#0f8d82"/>
    </g>
    <g id="Group_18201" data-name="Group 18201" transform="translate(928.866 47.174)">
      <path id="Path_8557-2" data-name="Path 8557" d="M407.073,749.149a6.949,6.949,0,1,1-6.951-6.859,6.949,6.949,0,0,1,6.951,6.859Z" transform="translate(-393.176 -742.29)" fill="#fff"/>
      <path id="Path_8558-2" data-name="Path 8558" d="M404.784,748.557a5.283,5.283,0,1,1-5.285-5.214,5.283,5.283,0,0,1,5.285,5.214Z" transform="translate(-392.554 -741.697)" fill="#0f8d82"/>
    </g>
    <g id="Group_18202" data-name="Group 18202" transform="translate(1002.243 74.732)">
      <path id="Path_8557-3" data-name="Path 8557" d="M407.073,749.149a6.949,6.949,0,1,1-6.951-6.859,6.949,6.949,0,0,1,6.951,6.859Z" transform="translate(-393.176 -742.29)" fill="#fff"/>
      <path id="Path_8558-3" data-name="Path 8558" d="M404.784,748.557a5.283,5.283,0,1,1-5.285-5.214,5.283,5.283,0,0,1,5.285,5.214Z" transform="translate(-392.554 -741.697)" fill="#0f8d82"/>
    </g>
    <g id="Group_18203" data-name="Group 18203" transform="translate(1155.406 99.427)">
      <path id="Path_8557-4" data-name="Path 8557" d="M407.073,749.149a6.949,6.949,0,1,1-6.951-6.859,6.949,6.949,0,0,1,6.951,6.859Z" transform="translate(-393.176 -742.29)" fill="#fff"/>
      <path id="Path_8558-4" data-name="Path 8558" d="M404.784,748.557a5.283,5.283,0,1,1-5.285-5.214,5.283,5.283,0,0,1,5.285,5.214Z" transform="translate(-392.554 -741.697)" fill="#0f8d82"/>
    </g>
    <g id="Group_18194" data-name="Group 18194" transform="translate(772.376 105.804)">
      <path id="Path_8559" data-name="Path 8559" d="M361.927,750.274a6.949,6.949,0,1,1-6.949-6.859,6.949,6.949,0,0,1,6.949,6.859Z" transform="translate(-348.03 -743.415)" fill="#fff"/>
      <path id="Path_8560" data-name="Path 8560" d="M359.638,749.682a5.283,5.283,0,1,1-5.283-5.214A5.283,5.283,0,0,1,359.638,749.682Z" transform="translate(-347.408 -742.822)" fill="#0f8d82"/>
    </g>
    <g id="Group_18195" data-name="Group 18195" transform="translate(690.853 83.322)">
      <path id="Path_8561" data-name="Path 8561" d="M310.85,746.457a6.949,6.949,0,1,1-6.95-6.857A6.949,6.949,0,0,1,310.85,746.457Z" transform="translate(-296.953 -739.599)" fill="#fff"/>
      <path id="Path_8562" data-name="Path 8562" d="M308.561,745.865a5.283,5.283,0,1,1-5.281-5.214A5.283,5.283,0,0,1,308.561,745.865Z" transform="translate(-296.331 -739.007)" fill="#0f8d82"/>
    </g>
    <g id="Group_18196" data-name="Group 18196" transform="translate(1211.937 297.584)">
      <path id="Path_8563" data-name="Path 8563" d="M728.668,931.161Z" transform="translate(-728.668 -931.161)" fill="#fff" opacity="0.25"/>
    </g>
    <path id="Path_8564" data-name="Path 8564" d="M579.083,745.3a32.559,32.559,0,1,1-32.558-32.144A32.559,32.559,0,0,1,579.083,745.3Z" transform="translate(523.258 -671.159)" fill="#26a69a" opacity="0.4"/>
    <g id="Group_18197" data-name="Group 18197" transform="translate(1051.788 56.374)">
      <path id="Path_8565" data-name="Path 8565" d="M559.087,740.127a18,18,0,1,1-18-17.771A18,18,0,0,1,559.087,740.127Z" transform="translate(-523.092 -722.356)" fill="#26a69a"/>
      <path id="Path_8566" data-name="Path 8566" d="M551.212,738.088a12.265,12.265,0,1,1-12.266-12.11,12.265,12.265,0,0,1,12.266,12.11Z" transform="translate(-520.951 -720.318)" fill="#fefefe" opacity="0.46"/>
      <path id="Path_8567" data-name="Path 8567" d="M543.339,736.049a6.533,6.533,0,1,1-6.533-6.448,6.533,6.533,0,0,1,6.533,6.448Z" transform="translate(-518.81 -718.278)" fill="#26a69a"/>
    </g>
    <path id="Path_8528-2" data-name="Path 8528" d="M246.415,788.276a.974.974,0,0,1-.871-.529.945.945,0,0,1,.438-1.278l93.7-27.072a.9.9,0,0,1,.5-.095l78.956,11.972,77.5-9.34L576.9,707.917a.991.991,0,0,1,.822-.024l77.343,42.428L717.947,741a1.024,1.024,0,0,1,.457.041l93.418,30.993a1.059,1.059,0,0,1,.24.117L854.929,814.8a.941.941,0,0,1,.253,1.326.978.978,0,0,1-1.351.245L811.073,773.8l-93.068-30.88-62.921,9.325a1.019,1.019,0,0,1-.529-.068l-77.181-42.358-80.05,53.914a.974.974,0,0,1-.412.1l-77.82,9.343-78.786-11.951-93.459,26.955a.982.982,0,0,1-.432.1Z" transform="translate(1581.393 -668.578)" fill="#fff"/>
    <g id="Group_18164-2" data-name="Group 18164" transform="translate(1918 86.696)">
      <g id="Group_18161-2" data-name="Group 18161">
        <path id="Path_8530-2" data-name="Path 8530" d="M301.48,748.451a.474.474,0,0,1-.473-.476v-3.814a.473.473,0,1,1,.945,0v3.814a.474.474,0,0,1-.472.476Z" transform="translate(-301.007 -743.686)" fill="#fff"/>
      </g>
      <g id="Group_18162-2" data-name="Group 18162" transform="translate(0 15.288)">
        <path id="Path_8531-2" data-name="Path 8531" d="M301.48,934.1a.475.475,0,0,1-.473-.477V925.98a.473.473,0,1,1,.945,0v7.648A.475.475,0,0,1,301.48,934.1Zm0-19.124a.475.475,0,0,1-.473-.477V906.85a.473.473,0,1,1,.945,0v7.65a.475.475,0,0,1-.472.481Zm0-19.125a.475.475,0,0,1-.473-.477v-7.651a.473.473,0,1,1,.945,0v7.651a.475.475,0,0,1-.472.482Zm0-19.125a.476.476,0,0,1-.473-.478V868.6a.473.473,0,1,1,.945,0v7.649a.475.475,0,0,1-.472.481Zm0-19.125a.475.475,0,0,1-.473-.477v-7.651a.473.473,0,1,1,.945,0v7.651a.475.475,0,0,1-.472.476Zm0-19.126a.474.474,0,0,1-.473-.477v-7.649a.473.473,0,1,1,.945,0V838a.474.474,0,0,1-.472.479Zm0-19.125a.474.474,0,0,1-.473-.475v-7.653a.473.473,0,1,1,.945,0v7.653a.474.474,0,0,1-.472.479Zm0-19.125a.475.475,0,0,1-.473-.476V792.1a.473.473,0,1,1,.945,0v7.649a.475.475,0,0,1-.472.479Zm0-19.125a.474.474,0,0,1-.473-.477v-7.65a.473.473,0,1,1,.945,0v7.65a.474.474,0,0,1-.472.477Zm0-19.125a.474.474,0,0,1-.473-.477v-7.649a.473.473,0,1,1,.945,0V761.5a.474.474,0,0,1-.472.478Z" transform="translate(-301.007 -753.375)" fill="#fff"/>
      </g>
      <g id="Group_18163-2" data-name="Group 18163" transform="translate(0 206.541)">
        <path id="Path_8532-2" data-name="Path 8532" d="M301.48,879.349a.474.474,0,0,1-.473-.475V875.06a.473.473,0,1,1,.945,0v3.814a.474.474,0,0,1-.472.475Z" transform="translate(-301.007 -874.584)" fill="#fff"/>
      </g>
    </g>
    <g id="Group_18165" data-name="Group 18165" transform="translate(1999 105.268)">
      <path id="Path_8533" data-name="Path 8533" d="M352.557,752.267a.473.473,0,0,1-.473-.475v-3.814a.473.473,0,1,1,.945,0v3.814a.473.473,0,0,1-.472.475Z" transform="translate(-352.084 -747.484)" fill="#cfccff"/>
    </g>
    <g id="Group_18166" data-name="Group 18166" transform="translate(1999 120.218)">
      <path id="Path_8534-2" data-name="Path 8534" d="M352.557,919.8a.459.459,0,0,1-.473-.444v-6.89a.432.432,0,0,1,.23-.4.5.5,0,0,1,.485,0,.432.432,0,0,1,.23.4v6.89a.459.459,0,0,1-.472.444Zm0-17.229a.494.494,0,0,1-.335-.13.424.424,0,0,1-.138-.312v-6.89a.432.432,0,0,1,.23-.4.5.5,0,0,1,.485,0,.432.432,0,0,1,.23.4v6.89a.458.458,0,0,1-.472.442Zm0-17.226a.493.493,0,0,1-.336-.13.424.424,0,0,1-.137-.313v-6.892a.432.432,0,0,1,.23-.4.5.5,0,0,1,.485,0,.432.432,0,0,1,.23.4V884.9a.424.424,0,0,1-.137.313.493.493,0,0,1-.335.131Zm0-17.227a.493.493,0,0,1-.336-.13.424.424,0,0,1-.137-.313v-6.886a.432.432,0,0,1,.23-.4.5.5,0,0,1,.485,0,.432.432,0,0,1,.23.4v6.89a.458.458,0,0,1-.472.438Zm0-17.227a.459.459,0,0,1-.473-.443v-6.892a.432.432,0,0,1,.23-.4.5.5,0,0,1,.485,0,.432.432,0,0,1,.23.4v6.892a.458.458,0,0,1-.472.443Zm0-17.227a.459.459,0,0,1-.473-.443v-6.892a.432.432,0,0,1,.23-.4.5.5,0,0,1,.485,0,.432.432,0,0,1,.23.4v6.889a.425.425,0,0,1-.137.313.494.494,0,0,1-.335.131Zm0-17.227a.458.458,0,0,1-.473-.441V809.1a.432.432,0,0,1,.23-.4.5.5,0,0,1,.485,0,.432.432,0,0,1,.23.4v6.892a.458.458,0,0,1-.472.44Zm0-17.227a.459.459,0,0,1-.473-.442v-6.89a.432.432,0,0,1,.23-.4.5.5,0,0,1,.485,0,.432.432,0,0,1,.23.4v6.89a.459.459,0,0,1-.472.441Zm0-17.227a.459.459,0,0,1-.473-.443v-6.89a.432.432,0,0,1,.23-.4.5.5,0,0,1,.485,0,.432.432,0,0,1,.23.4v6.89a.459.459,0,0,1-.472.441Zm0-17.227a.459.459,0,0,1-.473-.443v-6.89a.432.432,0,0,1,.23-.4.5.5,0,0,1,.485,0,.432.432,0,0,1,.23.4v6.89a.459.459,0,0,1-.472.441Z" transform="translate(-352.084 -756.958)" fill="#fff" stroke="rgba(0,0,0,0)" stroke-width="1"/>
    </g>
    <g id="Group_18167-2" data-name="Group 18167" transform="translate(1999 293.218)">
      <path id="Path_8535-2" data-name="Path 8535" d="M352.557,879.349a.474.474,0,0,1-.473-.475V875.06a.473.473,0,1,1,.945,0v3.814a.474.474,0,0,1-.472.475Z" transform="translate(-352.084 -874.565)" fill="#cfccff"/>
    </g>
    <g id="Group_18172-2" data-name="Group 18172" transform="translate(2076.733 90.943)">
      <g id="Group_18169-2" data-name="Group 18169">
        <path id="Path_8536-2" data-name="Path 8536" d="M397.7,751.142a.473.473,0,0,1-.472-.475v-3.814a.473.473,0,1,1,.945,0v3.814a.473.473,0,0,1-.473.475Z" transform="translate(-397.229 -746.377)" fill="#fff" stroke="rgba(0,0,0,0)" stroke-width="1"/>
      </g>
      <g id="Group_18170-2" data-name="Group 18170" transform="translate(0 15.048)">
        <path id="Path_8537-2" data-name="Path 8537" d="M397.7,932.877a.474.474,0,0,1-.472-.475v-7.488a.473.473,0,1,1,.945,0V932.4a.474.474,0,0,1-.473.477Zm0-18.725a.474.474,0,0,1-.472-.477v-7.489a.473.473,0,1,1,.945,0v7.489a.474.474,0,0,1-.473.478Zm0-18.723a.475.475,0,0,1-.472-.477v-7.49a.473.473,0,1,1,.945,0v7.49a.475.475,0,0,1-.473.478Zm0-18.725a.475.475,0,0,1-.472-.476v-7.49a.473.473,0,1,1,.945,0v7.49a.475.475,0,0,1-.473.472Zm0-18.724a.475.475,0,0,1-.472-.477v-7.489a.473.473,0,1,1,.945,0V857.5a.476.476,0,0,1-.473.48Zm0-18.725a.475.475,0,0,1-.472-.476V831.29a.473.473,0,1,1,.945,0v7.489a.475.475,0,0,1-.473.477Zm0-18.724a.475.475,0,0,1-.472-.477v-7.49a.473.473,0,1,1,.945,0v7.49A.476.476,0,0,1,397.7,820.531Zm0-18.725a.476.476,0,0,1-.472-.478V793.84a.473.473,0,1,1,.945,0v7.489a.476.476,0,0,1-.473.478Zm0-18.725a.474.474,0,0,1-.472-.477v-7.49a.473.473,0,1,1,.945,0v7.49a.474.474,0,0,1-.473.478Zm0-18.725a.474.474,0,0,1-.472-.478v-7.489a.473.473,0,1,1,.945,0v7.489a.475.475,0,0,1-.473.479Z" transform="translate(-397.229 -755.914)" fill="#fff" stroke="rgba(0,0,0,0)" stroke-width="1"/>
      </g>
      <g id="Group_18171-2" data-name="Group 18171" transform="translate(0 202.294)">
        <path id="Path_8538-2" data-name="Path 8538" d="M397.7,879.349a.474.474,0,0,1-.472-.475V875.06a.473.473,0,1,1,.945,0v3.814a.474.474,0,0,1-.473.475Z" transform="translate(-397.229 -874.584)" fill="#fff" stroke="rgba(0,0,0,0)" stroke-width="1"/>
      </g>
    </g>
    <g id="Group_18176" data-name="Group 18176" transform="translate(2158.05 51.244)">
      <g id="Group_18173-2" data-name="Group 18173">
        <path id="Path_8539-2" data-name="Path 8539" d="M450.269,724.412a.476.476,0,0,1-.473-.478v-3.812a.473.473,0,1,1,.945,0v3.812a.474.474,0,0,1-.472.478Z" transform="translate(-449.796 -719.647)" fill="#cfccff"/>
      </g>
      <g id="Group_18174-2" data-name="Group 18174" transform="translate(0 15.271)">
        <path id="Path_8540-2" data-name="Path 8540" d="M450.269,945.54a.474.474,0,0,1-.473-.471v-7.555a.473.473,0,0,1,.945,0v7.555a.472.472,0,0,1-.472.471Zm0-18.885a.472.472,0,0,1-.473-.469v-7.552a.473.473,0,0,1,.945,0v7.552A.471.471,0,0,1,450.269,926.655Zm0-18.881a.474.474,0,0,1-.473-.473v-7.553a.473.473,0,0,1,.945,0V907.3a.473.473,0,0,1-.472.474Zm0-18.885a.472.472,0,0,1-.473-.47v-7.555a.473.473,0,0,1,.945,0v7.555A.471.471,0,0,1,450.269,888.889Zm0-18.884a.474.474,0,0,1-.473-.471v-7.552a.473.473,0,0,1,.945,0v7.552a.472.472,0,0,1-.472.471Zm0-18.884a.471.471,0,0,1-.473-.469V843.1a.473.473,0,0,1,.945,0v7.553a.47.47,0,0,1-.472.469Zm0-18.882a.474.474,0,0,1-.473-.473v-7.553a.473.473,0,0,1,.945,0v7.553a.473.473,0,0,1-.472.473Zm0-18.884a.472.472,0,0,1-.473-.469v-7.554a.473.473,0,1,1,.945,0v7.554a.471.471,0,0,1-.472.47Zm0-18.884A.474.474,0,0,1,449.8,794v-7.553a.473.473,0,0,1,.945,0V794a.472.472,0,0,1-.476.472Zm0-18.884a.473.473,0,0,1-.473-.471v-7.553a.473.473,0,0,1,.945,0v7.553a.471.471,0,0,1-.472.472Zm0-18.884a.473.473,0,0,1-.473-.471v-7.555a.473.473,0,0,1,.945,0v7.555a.471.471,0,0,1-.472.468Zm0-18.882a.473.473,0,0,1-.473-.471V729.8a.473.473,0,1,1,.945,0v7.553a.471.471,0,0,1-.472.469Z" transform="translate(-449.796 -729.325)" fill="#cfccff"/>
      </g>
      <g id="Group_18175-2" data-name="Group 18175" transform="translate(0 241.993)">
        <path id="Path_8541-2" data-name="Path 8541" d="M450.269,879.349a.475.475,0,0,1-.473-.475V875.06a.473.473,0,1,1,.945,0v3.814a.474.474,0,0,1-.472.475Z" transform="translate(-449.796 -874.584)" fill="#cfccff"/>
      </g>
    </g>
    <g id="Group_18180-2" data-name="Group 18180" transform="translate(2236.706 82.248)">
      <g id="Group_18177-2" data-name="Group 18177">
        <path id="Path_8542-2" data-name="Path 8542" d="M495.724,744.063a.475.475,0,0,1-.473-.477v-3.812a.473.473,0,1,1,.945,0v3.812a.475.475,0,0,1-.472.477Z" transform="translate(-495.251 -739.296)" fill="#cfccff"/>
      </g>
      <g id="Group_18178-2" data-name="Group 18178" transform="translate(0 15.679)">
        <path id="Path_8543-2" data-name="Path 8543" d="M495.724,933.629a.475.475,0,0,1-.473-.472v-7.8a.473.473,0,0,1,.945,0v7.8a.474.474,0,0,1-.472.472Zm0-19.516a.473.473,0,0,1-.473-.47v-7.808a.473.473,0,0,1,.945,0v7.808a.473.473,0,0,1-.472.47Zm0-19.516a.473.473,0,0,1-.473-.47v-7.808a.473.473,0,0,1,.945,0v7.808a.473.473,0,0,1-.472.473Zm0-19.515a.473.473,0,0,1-.473-.47V866.8a.473.473,0,0,1,.945,0v7.808a.473.473,0,0,1-.472.473Zm0-19.52a.472.472,0,0,1-.473-.469v-7.806a.473.473,0,0,1,.945,0v7.806A.472.472,0,0,1,495.724,855.562Zm0-19.516a.473.473,0,0,1-.473-.469v-7.808a.473.473,0,0,1,.945,0v7.808a.473.473,0,0,1-.472.469Zm0-19.515a.474.474,0,0,1-.473-.472v-7.8a.473.473,0,0,1,.945,0v7.8a.473.473,0,0,1-.472.472Zm0-19.516a.473.473,0,0,1-.473-.47v-7.808a.473.473,0,0,1,.945,0v7.808a.473.473,0,0,1-.472.469Zm0-19.516a.473.473,0,0,1-.473-.47V769.22a.473.473,0,0,1,.945,0v7.808a.473.473,0,0,1-.472.472Zm0-19.517a.473.473,0,0,1-.473-.47V749.7a.473.473,0,0,1,.945,0v7.807a.473.473,0,0,1-.472.474Z" transform="translate(-495.251 -749.233)" fill="#cfccff"/>
      </g>
      <g id="Group_18179-2" data-name="Group 18179" transform="translate(0 210.989)">
        <path id="Path_8544-2" data-name="Path 8544" d="M495.724,879.349a.475.475,0,0,1-.473-.475V875.06a.473.473,0,1,1,.945,0v3.814a.475.475,0,0,1-.472.475Z" transform="translate(-495.251 -874.584)" fill="#cfccff"/>
      </g>
    </g>
    <g id="Group_18184-2" data-name="Group 18184" transform="translate(2298.741 72.888)">
      <g id="Group_18181-2" data-name="Group 18181">
        <path id="Path_8545-2" data-name="Path 8545" d="M534.54,738.131a.475.475,0,0,1-.473-.477v-3.812a.474.474,0,0,1,.947,0v3.812a.475.475,0,0,1-.474.477Z" transform="translate(-534.067 -733.364)" fill="#cfccff"/>
      </g>
      <g id="Group_18182-2" data-name="Group 18182" transform="translate(0 15.141)">
        <path id="Path_8546-2" data-name="Path 8546" d="M534.54,937.793a.473.473,0,0,1-.473-.47v-7.458a.474.474,0,0,1,.947,0v7.458a.473.473,0,0,1-.474.47Zm0-18.644a.474.474,0,0,1-.473-.472V911.22a.474.474,0,0,1,.947,0v7.457a.474.474,0,0,1-.474.473Zm0-18.645a.473.473,0,0,1-.473-.471v-7.455a.474.474,0,0,1,.947,0v7.455a.473.473,0,0,1-.474.467Zm0-18.642a.472.472,0,0,1-.473-.469v-7.46a.474.474,0,0,1,.947,0v7.46A.472.472,0,0,1,534.54,881.862Zm0-18.642a.473.473,0,0,1-.473-.47v-7.459a.474.474,0,0,1,.947,0v7.459a.473.473,0,0,1-.474.47Zm0-18.644a.474.474,0,0,1-.473-.471v-7.458a.474.474,0,0,1,.947,0V844.1a.473.473,0,0,1-.474.472Zm0-18.645a.472.472,0,0,1-.473-.47v-7.455a.474.474,0,0,1,.947,0v7.455a.472.472,0,0,1-.474.47Zm0-18.644a.473.473,0,0,1-.473-.471V799.36a.474.474,0,0,1,.947,0v7.457a.472.472,0,0,1-.474.471Zm0-18.642a.472.472,0,0,1-.473-.47v-7.457a.474.474,0,0,1,.947,0v7.457A.472.472,0,0,1,534.54,788.645Zm0-18.644a.472.472,0,0,1-.473-.469v-7.458a.474.474,0,0,1,.947,0v7.458a.472.472,0,0,1-.474.468Zm0-18.642a.473.473,0,0,1-.473-.472v-7.455a.474.474,0,0,1,.947,0v7.455a.473.473,0,0,1-.474.472Z" transform="translate(-534.067 -742.96)" fill="#cfccff"/>
      </g>
      <g id="Group_18183-2" data-name="Group 18183" transform="translate(0 220.349)">
        <path id="Path_8547-2" data-name="Path 8547" d="M534.54,879.349a.475.475,0,0,1-.473-.475V875.06a.474.474,0,0,1,.947,0v3.814A.475.475,0,0,1,534.54,879.349Z" transform="translate(-534.067 -874.584)" fill="#cfccff"/>
      </g>
    </g>
    <g id="Group_18188" data-name="Group 18188" transform="translate(2393.623 101.404)">
      <g id="Group_18185-2" data-name="Group 18185">
        <path id="Path_8548-2" data-name="Path 8548" d="M592.238,757.774a.474.474,0,0,1-.472-.477v-3.812a.473.473,0,1,1,.945,0V757.3A.475.475,0,0,1,592.238,757.774Z" transform="translate(-591.766 -753.007)" fill="#cfccff"/>
      </g>
      <g id="Group_18186-2" data-name="Group 18186" transform="translate(0 15.564)">
        <path id="Path_8549-2" data-name="Path 8549" d="M592.238,928.343a.475.475,0,0,1-.472-.477V920.03a.473.473,0,1,1,.945,0v7.836A.477.477,0,0,1,592.238,928.343Zm0-19.586a.475.475,0,0,1-.472-.478v-7.834a.473.473,0,1,1,.945,0v7.834A.477.477,0,0,1,592.238,908.757Zm0-19.584a.475.475,0,0,1-.472-.478V880.86a.473.473,0,1,1,.945,0v7.834a.477.477,0,0,1-.473.478Zm0-19.588a.475.475,0,0,1-.472-.477v-7.834a.473.473,0,1,1,.945,0v7.834a.476.476,0,0,1-.473.476Zm0-19.585a.474.474,0,0,1-.472-.476V841.69a.473.473,0,1,1,.945,0v7.834A.475.475,0,0,1,592.238,850Zm0-19.586a.475.475,0,0,1-.472-.476V822.1a.473.473,0,1,1,.945,0v7.834a.476.476,0,0,1-.473.48Zm0-19.585a.475.475,0,0,1-.472-.477v-7.834a.473.473,0,1,1,.945,0v7.834a.476.476,0,0,1-.473.477Zm0-19.584a.474.474,0,0,1-.472-.477v-7.836a.473.473,0,1,1,.945,0v7.836a.475.475,0,0,1-.473.476Zm0-19.586a.475.475,0,0,1-.472-.477v-7.834a.473.473,0,1,1,.945,0v7.834a.476.476,0,0,1-.473.476Z" transform="translate(-591.766 -762.871)" fill="#cfccff"/>
      </g>
      <g id="Group_18187-2" data-name="Group 18187" transform="translate(0 191.833)">
        <path id="Path_8550-2" data-name="Path 8550" d="M592.238,879.349a.474.474,0,0,1-.472-.475V875.06a.473.473,0,1,1,.945,0v3.814A.475.475,0,0,1,592.238,879.349Z" transform="translate(-591.766 -874.584)" fill="#cfccff"/>
      </g>
    </g>
    <path id="Path_8557-5" data-name="Path 8557" d="M406.915,749.215a6.869,6.869,0,1,1-6.872-6.925,6.869,6.869,0,0,1,6.872,6.925Z" transform="translate(1677.159 -655.782)" fill="#fff"/>
    <path id="Path_8558-5" data-name="Path 8558" d="M404.664,748.607a5.222,5.222,0,1,1-5.224-5.264,5.222,5.222,0,0,1,5.224,5.264Z" transform="translate(1677.762 -655.173)" fill="#0f8d82"/>
    <g id="Group_2" data-name="Group 2" transform="translate(-5 -12.093)">
      <path id="Path_8557-6" data-name="Path 8557" d="M406.915,749.215a6.869,6.869,0,1,1-6.872-6.925,6.869,6.869,0,0,1,6.872,6.925Z" transform="translate(1763.003 -696.06)" fill="#fff"/>
      <path id="Path_8558-6" data-name="Path 8558" d="M404.664,748.607a5.222,5.222,0,1,1-5.224-5.264,5.222,5.222,0,0,1,5.224,5.264Z" transform="translate(1763.606 -695.451)" fill="#0f8d82"/>
    </g>
    <path id="Path_8557-7" data-name="Path 8557" d="M406.915,749.215a6.869,6.869,0,1,1-6.872-6.925,6.869,6.869,0,0,1,6.872,6.925Z" transform="translate(1837.606 -668.237)" fill="#fff"/>
    <path id="Path_8558-7" data-name="Path 8558" d="M404.664,748.607a5.222,5.222,0,1,1-5.224-5.264,5.222,5.222,0,0,1,5.224,5.264Z" transform="translate(1838.209 -667.628)" fill="#0f8d82"/>
    <path id="Path_8557-8" data-name="Path 8557" d="M406.915,749.215a6.869,6.869,0,1,1-6.872-6.925,6.869,6.869,0,0,1,6.872,6.925Z" transform="translate(1994.523 -643.889)" fill="#fff"/>
    <path id="Path_8558-8" data-name="Path 8558" d="M404.664,748.607a5.222,5.222,0,1,1-5.224-5.264,5.222,5.222,0,0,1,5.224,5.264Z" transform="translate(1995.126 -643.28)" fill="#0f8d82"/>
    <g id="Group_3" data-name="Group 3" transform="translate(-4 9)">
      <path id="Path_8559-2" data-name="Path 8559" d="M361.769,750.34a6.869,6.869,0,1,1-6.87-6.925A6.869,6.869,0,0,1,361.769,750.34Z" transform="translate(1649.046 -655.15)" fill="#fff"/>
      <path id="Path_8560-2" data-name="Path 8560" d="M359.518,749.732a5.222,5.222,0,1,1-5.223-5.264,5.222,5.222,0,0,1,5.223,5.264Z" transform="translate(1649.649 -654.542)" fill="#0f8d82"/>
    </g>
    <path id="Path_8561-2" data-name="Path 8561" d="M310.692,746.523a6.869,6.869,0,1,1-6.868-6.924,6.869,6.869,0,0,1,6.868,6.924Z" transform="translate(1614.649 -655.295)" fill="#fff"/>
    <path id="Path_8562-2" data-name="Path 8562" d="M308.441,745.915a5.222,5.222,0,1,1-5.221-5.264,5.222,5.222,0,0,1,5.221,5.264Z" transform="translate(1615.252 -654.687)" fill="#0f8d82"/>
    <path id="Path_8564-2" data-name="Path 8564" d="M578.341,745.613a32.187,32.187,0,1,1-32.187-32.454A32.187,32.187,0,0,1,578.341,745.613Z" transform="translate(1753.533 -672.153)" fill="#26a69a" opacity="0.4"/>
    <path id="Path_8565-2" data-name="Path 8565" d="M558.676,740.3a17.793,17.793,0,1,1-17.794-17.942A17.793,17.793,0,0,1,558.676,740.3Z" transform="translate(1758.549 -666.838)" fill="#26a69a"/>
    <path id="Path_8566-2" data-name="Path 8566" d="M550.933,738.205a12.125,12.125,0,1,1-12.126-12.227,12.125,12.125,0,0,1,12.126,12.227Z" transform="translate(1760.625 -664.745)" fill="#fefefe" opacity="0.46"/>
    <path id="Path_8567-2" data-name="Path 8567" d="M543.19,736.111a6.458,6.458,0,1,1-6.458-6.51A6.458,6.458,0,0,1,543.19,736.111Z" transform="translate(1762.7 -662.651)" fill="#26a69a"/>
    <path id="Path_8528-3" data-name="Path 8528" d="M250.917,814.621a.974.974,0,0,1-.871-.529.945.945,0,0,1,.438-1.278l88.91-55.441a.9.9,0,0,1,.5-.095l83.04,8.138,66.416,13.755,92.664-56.617a.991.991,0,0,1,.822-.024l72.228,27.791L717.947,741a1.024,1.024,0,0,1,.457.041l93.477,33.1a1.059,1.059,0,0,1,.24.117l50.417,12.222a.941.941,0,0,1,.253,1.326.978.978,0,0,1-1.351.245L811.132,775.9,718.005,742.92l-62.921,9.325a1.019,1.019,0,0,1-.529-.068l-72.066-27.721-92.456,56.513a.974.974,0,0,1-.412.1L422.89,767.317,340.02,759.2l-88.671,55.324a.982.982,0,0,1-.432.1Z" transform="translate(965.827 -668.58)" fill="#fff"/>
    <g id="Group_18164-3" data-name="Group 18164" transform="translate(1302.433 86.694)">
      <g id="Group_18161-3" data-name="Group 18161">
        <path id="Path_8530-3" data-name="Path 8530" d="M301.48,748.451a.474.474,0,0,1-.473-.476v-3.814a.473.473,0,1,1,.945,0v3.814a.474.474,0,0,1-.472.476Z" transform="translate(-301.007 -743.686)" fill="#fff"/>
      </g>
      <g id="Group_18162-3" data-name="Group 18162" transform="translate(0 15.288)">
        <path id="Path_8531-3" data-name="Path 8531" d="M301.48,934.1a.475.475,0,0,1-.473-.477V925.98a.473.473,0,1,1,.945,0v7.648A.475.475,0,0,1,301.48,934.1Zm0-19.124a.475.475,0,0,1-.473-.477V906.85a.473.473,0,1,1,.945,0v7.65a.475.475,0,0,1-.472.481Zm0-19.125a.475.475,0,0,1-.473-.477v-7.651a.473.473,0,1,1,.945,0v7.651a.475.475,0,0,1-.472.482Zm0-19.125a.476.476,0,0,1-.473-.478V868.6a.473.473,0,1,1,.945,0v7.649a.475.475,0,0,1-.472.481Zm0-19.125a.475.475,0,0,1-.473-.477v-7.651a.473.473,0,1,1,.945,0v7.651a.475.475,0,0,1-.472.476Zm0-19.126a.474.474,0,0,1-.473-.477v-7.649a.473.473,0,1,1,.945,0V838a.474.474,0,0,1-.472.479Zm0-19.125a.474.474,0,0,1-.473-.475v-7.653a.473.473,0,1,1,.945,0v7.653a.474.474,0,0,1-.472.479Zm0-19.125a.475.475,0,0,1-.473-.476V792.1a.473.473,0,1,1,.945,0v7.649a.475.475,0,0,1-.472.479Zm0-19.125a.474.474,0,0,1-.473-.477v-7.65a.473.473,0,1,1,.945,0v7.65a.474.474,0,0,1-.472.477Zm0-19.125a.474.474,0,0,1-.473-.477v-7.649a.473.473,0,1,1,.945,0V761.5a.474.474,0,0,1-.472.478Z" transform="translate(-301.007 -753.375)" fill="#fff"/>
      </g>
      <g id="Group_18163-3" data-name="Group 18163" transform="translate(0 206.541)">
        <path id="Path_8532-3" data-name="Path 8532" d="M301.48,879.349a.474.474,0,0,1-.473-.475V875.06a.473.473,0,1,1,.945,0v3.814a.474.474,0,0,1-.472.475Z" transform="translate(-301.007 -874.584)" fill="#fff"/>
      </g>
    </g>
    <g id="Group_18164-4" data-name="Group 18164" transform="translate(1215.5 91.768)">
      <g id="Group_18162-4" data-name="Group 18162" transform="translate(0 53.518)">
        <path id="Path_8531-4" data-name="Path 8531" d="M301.48,929.026a.467.467,0,0,1-.473-.46v-7.371a.452.452,0,0,1,.23-.413.488.488,0,0,1,.486,0,.452.452,0,0,1,.23.413v7.375A.467.467,0,0,1,301.48,929.026Zm0-18.443a.467.467,0,0,1-.473-.46v-7.377a.452.452,0,0,1,.23-.412.488.488,0,0,1,.486,0,.452.452,0,0,1,.23.413v7.378a.45.45,0,0,1-.136.327.484.484,0,0,1-.336.137Zm0-18.444a.467.467,0,0,1-.473-.46V884.3a.452.452,0,0,1,.23-.413.488.488,0,0,1,.486,0,.452.452,0,0,1,.23.413v7.378a.45.45,0,0,1-.136.327.484.484,0,0,1-.336.138Zm0-18.444a.467.467,0,0,1-.473-.461v-7.376a.452.452,0,0,1,.23-.413.488.488,0,0,1,.486,0,.452.452,0,0,1,.23.413v7.376a.45.45,0,0,1-.136.327.484.484,0,0,1-.336.137Zm0-18.444a.467.467,0,0,1-.473-.46v-7.379a.452.452,0,0,1,.23-.413.488.488,0,0,1,.486,0,.452.452,0,0,1,.23.413v7.379a.467.467,0,0,1-.472.459Zm0-18.445a.483.483,0,0,1-.336-.135.449.449,0,0,1-.137-.325v-7.377a.452.452,0,0,1,.23-.413.488.488,0,0,1,.486,0,.452.452,0,0,1,.23.413v7.378a.449.449,0,0,1-.136.326.483.483,0,0,1-.336.136Zm0-18.444a.466.466,0,0,1-.473-.458v-7.38a.452.452,0,0,1,.23-.413.488.488,0,0,1,.486,0,.452.452,0,0,1,.23.413v7.38a.449.449,0,0,1-.136.326.483.483,0,0,1-.336.136Zm0-18.444a.467.467,0,0,1-.473-.459v-7.377a.452.452,0,0,1,.23-.413.488.488,0,0,1,.486,0,.452.452,0,0,1,.23.413v7.377a.45.45,0,0,1-.137.325.483.483,0,0,1-.335.137Z" transform="translate(-301.007 -791.605)" fill="#fff"/>
      </g>
      <g id="Group_18163-4" data-name="Group 18163" transform="translate(0 201.448)">
        <path id="Path_8532-4" data-name="Path 8532" d="M301.48,879.349a.474.474,0,0,1-.473-.475V875.06a.473.473,0,1,1,.945,0v3.814a.474.474,0,0,1-.472.475Z" transform="translate(-301.007 -874.565)" fill="#fff"/>
      </g>
    </g>
    <g id="Group_18165-2" data-name="Group 18165" transform="translate(1387.907 92.716)">
      <path id="Path_8533-2" data-name="Path 8533" d="M352.557,752.267a.473.473,0,0,1-.473-.475v-3.814a.473.473,0,1,1,.945,0v3.814a.473.473,0,0,1-.472.475Z" transform="translate(-352.084 -747.502)" fill="#cfccff"/>
    </g>
    <g id="Group_18166-2" data-name="Group 18166" transform="translate(1387.907 107.665)">
      <path id="Path_8534-3" data-name="Path 8534" d="M352.557,932.366a.476.476,0,0,1-.473-.478v-7.422a.473.473,0,1,1,.945,0v7.422a.476.476,0,0,1-.472.478Zm0-18.559a.474.474,0,0,1-.473-.476v-7.422a.473.473,0,1,1,.945,0v7.422a.474.474,0,0,1-.472.476Zm0-18.556a.474.474,0,0,1-.473-.477V887.35a.473.473,0,1,1,.945,0v7.424a.474.474,0,0,1-.472.478Zm0-18.557a.474.474,0,0,1-.473-.477V868.8a.473.473,0,1,1,.945,0v7.422a.474.474,0,0,1-.472.472Zm0-18.557a.475.475,0,0,1-.473-.477v-7.424a.473.473,0,1,1,.945,0v7.424a.475.475,0,0,1-.472.477Zm0-18.557a.476.476,0,0,1-.473-.477v-7.424a.473.473,0,1,1,.945,0V839.1a.475.475,0,0,1-.472.479Zm0-18.557a.474.474,0,0,1-.473-.475v-7.424a.473.473,0,1,1,.945,0v7.424a.474.474,0,0,1-.472.474Zm0-18.557a.475.475,0,0,1-.473-.476v-7.422a.473.473,0,1,1,.945,0v7.422a.475.475,0,0,1-.472.475Zm0-18.557a.475.475,0,0,1-.473-.477V776.01a.473.473,0,1,1,.945,0v7.422a.475.475,0,0,1-.472.475Zm0-18.557a.475.475,0,0,1-.473-.477v-7.422a.473.473,0,1,1,.945,0v7.422a.475.475,0,0,1-.472.475Z" transform="translate(-352.084 -756.976)" fill="#cfccff"/>
    </g>
    <g id="Group_18167-3" data-name="Group 18167" transform="translate(1387.907 293.235)">
      <path id="Path_8535-3" data-name="Path 8535" d="M352.557,879.349a.474.474,0,0,1-.473-.475V875.06a.473.473,0,1,1,.945,0v3.814a.474.474,0,0,1-.472.475Z" transform="translate(-352.084 -874.584)" fill="#cfccff"/>
    </g>
    <g id="Group_18172-3" data-name="Group 18172" transform="translate(1454.64 110.523)">
      <g id="Group_18169-3" data-name="Group 18169" transform="translate(-0.001 -0.018)">
        <path id="Path_8536-3" data-name="Path 8536" d="M397.7,751.142a.473.473,0,0,1-.472-.475v-3.814a.473.473,0,1,1,.945,0v3.814a.473.473,0,0,1-.473.475Z" transform="translate(-397.228 -746.359)" fill="#fff" stroke="rgba(0,0,0,0)" stroke-width="1"/>
      </g>
      <g id="Group_18170-3" data-name="Group 18170" transform="translate(-0.001 15.029)">
        <path id="Path_8537-3" data-name="Path 8537" d="M397.7,913.295a.45.45,0,0,1-.472-.422v-6.659a.411.411,0,0,1,.23-.38.524.524,0,0,1,.485,0,.411.411,0,0,1,.23.38v6.658a.4.4,0,0,1-.137.3.5.5,0,0,1-.336.125Zm0-16.653a.505.505,0,0,1-.335-.125.4.4,0,0,1-.137-.3v-6.66a.411.411,0,0,1,.23-.38.524.524,0,0,1,.485,0,.411.411,0,0,1,.23.38v6.66a.4.4,0,0,1-.137.3.5.5,0,0,1-.336.125Zm0-16.651a.45.45,0,0,1-.472-.424V872.9a.411.411,0,0,1,.23-.38.524.524,0,0,1,.485,0,.411.411,0,0,1,.23.38v6.661a.4.4,0,0,1-.137.3.506.506,0,0,1-.336.125Zm0-16.653a.451.451,0,0,1-.472-.423v-6.661a.411.411,0,0,1,.23-.38.524.524,0,0,1,.485,0,.411.411,0,0,1,.23.38v6.661a.451.451,0,0,1-.473.42Zm0-16.652a.45.45,0,0,1-.472-.424V839.6a.411.411,0,0,1,.23-.38.524.524,0,0,1,.485,0,.411.411,0,0,1,.23.38v6.658a.4.4,0,0,1-.137.3.507.507,0,0,1-.336.126Zm0-16.653a.45.45,0,0,1-.472-.423v-6.66a.411.411,0,0,1,.23-.38.524.524,0,0,1,.485,0,.411.411,0,0,1,.23.38v6.66a.451.451,0,0,1-.473.424Zm0-16.652a.45.45,0,0,1-.472-.424v-6.661a.411.411,0,0,1,.23-.38.524.524,0,0,1,.485,0,.411.411,0,0,1,.23.38v6.661A.451.451,0,0,1,397.7,813.379Zm0-16.653a.451.451,0,0,1-.472-.425v-6.659a.411.411,0,0,1,.23-.38.524.524,0,0,1,.485,0,.411.411,0,0,1,.23.38v6.66a.451.451,0,0,1-.473.425Zm0-16.653a.505.505,0,0,1-.335-.125.4.4,0,0,1-.137-.3v-6.661a.411.411,0,0,1,.23-.38.524.524,0,0,1,.485,0,.411.411,0,0,1,.23.38v6.661a.4.4,0,0,1-.137.3.505.505,0,0,1-.336.125Zm0-16.653a.505.505,0,0,1-.335-.125.4.4,0,0,1-.137-.3v-6.66a.411.411,0,0,1,.23-.38.524.524,0,0,1,.485,0,.411.411,0,0,1,.23.38v6.66a.4.4,0,0,1-.137.3.506.506,0,0,1-.336.126Z" transform="translate(-397.228 -755.895)" fill="#fff" stroke="rgba(0,0,0,0)" stroke-width="1"/>
      </g>
      <g id="Group_18171-3" data-name="Group 18171" transform="translate(-0.001 182.693)">
        <path id="Path_8538-3" data-name="Path 8538" d="M397.7,879.349a.474.474,0,0,1-.472-.475V875.06a.473.473,0,1,1,.945,0v3.814a.474.474,0,0,1-.473.475Z" transform="translate(-397.228 -874.565)" fill="#fff" stroke="rgba(0,0,0,0)" stroke-width="1"/>
      </g>
    </g>
    <g id="Group_18176-2" data-name="Group 18176" transform="translate(1547.483 53.892)">
      <g id="Group_18173-3" data-name="Group 18173" transform="translate(0 -0.02)">
        <path id="Path_8539-3" data-name="Path 8539" d="M450.269,724.412a.476.476,0,0,1-.473-.478v-3.812a.473.473,0,1,1,.945,0v3.812a.474.474,0,0,1-.472.478Z" transform="translate(-449.796 -719.627)" fill="#cfccff"/>
      </g>
      <g id="Group_18174-3" data-name="Group 18174" transform="translate(0 15.251)">
        <path id="Path_8540-3" data-name="Path 8540" d="M450.269,942.89a.471.471,0,0,1-.473-.465v-7.462a.473.473,0,0,1,.945,0v7.462a.469.469,0,0,1-.472.465Zm0-18.654a.469.469,0,0,1-.473-.463v-7.459a.473.473,0,0,1,.945,0v7.459A.468.468,0,0,1,450.269,924.236Zm0-18.65a.471.471,0,0,1-.473-.467v-7.46a.473.473,0,0,1,.945,0v7.459a.47.47,0,0,1-.472.468Zm0-18.654a.469.469,0,0,1-.473-.464v-7.462a.473.473,0,0,1,.945,0v7.462A.468.468,0,0,1,450.269,886.933Zm0-18.653a.471.471,0,0,1-.473-.465v-7.459a.473.473,0,0,1,.945,0v7.459a.469.469,0,0,1-.472.465Zm0-18.653a.468.468,0,0,1-.473-.463v-7.46a.473.473,0,0,1,.945,0v7.46a.461.461,0,0,1-.139.328.473.473,0,0,1-.333.135Zm0-18.651a.471.471,0,0,1-.473-.467v-7.46a.473.473,0,0,1,.945,0v7.46a.47.47,0,0,1-.472.467Zm0-18.653a.469.469,0,0,1-.473-.463V804.4a.466.466,0,0,1,.23-.423.478.478,0,0,1,.486,0,.466.466,0,0,1,.23.423v7.461a.468.468,0,0,1-.472.464Zm0-18.653a.471.471,0,0,1-.469-.465v-7.46a.473.473,0,0,1,.945,0v7.46a.464.464,0,0,1-.14.331.475.475,0,0,1-.336.135Zm0-18.653a.47.47,0,0,1-.473-.465v-7.46a.473.473,0,0,1,.945,0v7.46a.462.462,0,0,1-.138.33.474.474,0,0,1-.334.136Zm0-18.653a.47.47,0,0,1-.473-.465V748.44a.473.473,0,0,1,.945,0V755.9a.468.468,0,0,1-.472.462Zm0-18.651a.47.47,0,0,1-.473-.465v-7.458a.466.466,0,0,1,.23-.423.478.478,0,0,1,.486,0,.466.466,0,0,1,.23.423v7.46a.468.468,0,0,1-.472.463Z" transform="translate(-449.796 -729.305)" fill="#cfccff"/>
      </g>
      <g id="Group_18175-3" data-name="Group 18175" transform="translate(0 239.324)">
        <path id="Path_8541-3" data-name="Path 8541" d="M450.269,879.349a.475.475,0,0,1-.473-.475V875.06a.473.473,0,1,1,.945,0v3.814a.474.474,0,0,1-.472.475Z" transform="translate(-449.796 -874.565)" fill="#cfccff"/>
      </g>
    </g>
    <g id="Group_18180-3" data-name="Group 18180" transform="translate(1621.139 82.246)">
      <g id="Group_18177-3" data-name="Group 18177">
        <path id="Path_8542-3" data-name="Path 8542" d="M495.724,744.063a.475.475,0,0,1-.473-.477v-3.812a.473.473,0,1,1,.945,0v3.812a.475.475,0,0,1-.472.477Z" transform="translate(-495.251 -739.296)" fill="#cfccff"/>
      </g>
      <g id="Group_18178-3" data-name="Group 18178" transform="translate(0 15.679)">
        <path id="Path_8543-3" data-name="Path 8543" d="M495.724,933.629a.475.475,0,0,1-.473-.472v-7.8a.473.473,0,0,1,.945,0v7.8a.474.474,0,0,1-.472.472Zm0-19.516a.473.473,0,0,1-.473-.47v-7.808a.473.473,0,0,1,.945,0v7.808a.473.473,0,0,1-.472.47Zm0-19.516a.473.473,0,0,1-.473-.47v-7.808a.473.473,0,0,1,.945,0v7.808a.473.473,0,0,1-.472.473Zm0-19.515a.473.473,0,0,1-.473-.47V866.8a.473.473,0,0,1,.945,0v7.808a.473.473,0,0,1-.472.473Zm0-19.52a.472.472,0,0,1-.473-.469v-7.806a.473.473,0,0,1,.945,0v7.806A.472.472,0,0,1,495.724,855.562Zm0-19.516a.473.473,0,0,1-.473-.469v-7.808a.473.473,0,0,1,.945,0v7.808a.473.473,0,0,1-.472.469Zm0-19.515a.474.474,0,0,1-.473-.472v-7.8a.473.473,0,0,1,.945,0v7.8a.473.473,0,0,1-.472.472Zm0-19.516a.473.473,0,0,1-.473-.47v-7.808a.473.473,0,0,1,.945,0v7.808a.473.473,0,0,1-.472.469Zm0-19.516a.473.473,0,0,1-.473-.47V769.22a.473.473,0,0,1,.945,0v7.808a.473.473,0,0,1-.472.472Zm0-19.517a.473.473,0,0,1-.473-.47V749.7a.473.473,0,0,1,.945,0v7.807a.473.473,0,0,1-.472.474Z" transform="translate(-495.251 -749.233)" fill="#cfccff"/>
      </g>
      <g id="Group_18179-3" data-name="Group 18179" transform="translate(0 210.989)">
        <path id="Path_8544-3" data-name="Path 8544" d="M495.724,879.349a.475.475,0,0,1-.473-.475V875.06a.473.473,0,1,1,.945,0v3.814a.475.475,0,0,1-.472.475Z" transform="translate(-495.251 -874.584)" fill="#cfccff"/>
      </g>
    </g>
    <g id="Group_18184-3" data-name="Group 18184" transform="translate(1683.375 72.886)">
      <g id="Group_18181-3" data-name="Group 18181">
        <path id="Path_8545-3" data-name="Path 8545" d="M534.54,738.131a.475.475,0,0,1-.473-.477v-3.812a.474.474,0,0,1,.947,0v3.812a.475.475,0,0,1-.474.477Z" transform="translate(-534.067 -733.364)" fill="#cfccff"/>
      </g>
      <g id="Group_18182-3" data-name="Group 18182" transform="translate(0 15.141)">
        <path id="Path_8546-3" data-name="Path 8546" d="M534.54,937.793a.473.473,0,0,1-.473-.47v-7.458a.474.474,0,0,1,.947,0v7.458a.473.473,0,0,1-.474.47Zm0-18.644a.474.474,0,0,1-.473-.472V911.22a.474.474,0,0,1,.947,0v7.457a.474.474,0,0,1-.474.473Zm0-18.645a.473.473,0,0,1-.473-.471v-7.455a.474.474,0,0,1,.947,0v7.455a.473.473,0,0,1-.474.467Zm0-18.642a.472.472,0,0,1-.473-.469v-7.46a.474.474,0,0,1,.947,0v7.46A.472.472,0,0,1,534.54,881.862Zm0-18.642a.473.473,0,0,1-.473-.47v-7.459a.474.474,0,0,1,.947,0v7.459a.473.473,0,0,1-.474.47Zm0-18.644a.474.474,0,0,1-.473-.471v-7.458a.474.474,0,0,1,.947,0V844.1a.473.473,0,0,1-.474.472Zm0-18.645a.472.472,0,0,1-.473-.47v-7.455a.474.474,0,0,1,.947,0v7.455a.472.472,0,0,1-.474.47Zm0-18.644a.473.473,0,0,1-.473-.471V799.36a.474.474,0,0,1,.947,0v7.457a.472.472,0,0,1-.474.471Zm0-18.642a.472.472,0,0,1-.473-.47v-7.457a.474.474,0,0,1,.947,0v7.457A.472.472,0,0,1,534.54,788.645Zm0-18.644a.472.472,0,0,1-.473-.469v-7.458a.474.474,0,0,1,.947,0v7.458a.472.472,0,0,1-.474.468Zm0-18.642a.473.473,0,0,1-.473-.472v-7.455a.474.474,0,0,1,.947,0v7.455a.473.473,0,0,1-.474.472Z" transform="translate(-534.067 -742.96)" fill="#cfccff"/>
      </g>
      <g id="Group_18183-3" data-name="Group 18183" transform="translate(0 220.349)">
        <path id="Path_8547-3" data-name="Path 8547" d="M534.54,879.349a.475.475,0,0,1-.473-.475V875.06a.474.474,0,0,1,.947,0v3.814A.475.475,0,0,1,534.54,879.349Z" transform="translate(-534.067 -874.584)" fill="#cfccff"/>
      </g>
    </g>
    <g id="Group_18188-2" data-name="Group 18188" transform="translate(1778.057 101.402)">
      <g id="Group_18185-3" data-name="Group 18185">
        <path id="Path_8548-3" data-name="Path 8548" d="M592.238,757.774a.474.474,0,0,1-.472-.477v-3.812a.473.473,0,1,1,.945,0V757.3A.475.475,0,0,1,592.238,757.774Z" transform="translate(-591.766 -753.007)" fill="#cfccff"/>
      </g>
      <g id="Group_18186-3" data-name="Group 18186" transform="translate(0 15.564)">
        <path id="Path_8549-3" data-name="Path 8549" d="M592.238,928.343a.475.475,0,0,1-.472-.477V920.03a.473.473,0,1,1,.945,0v7.836A.477.477,0,0,1,592.238,928.343Zm0-19.586a.475.475,0,0,1-.472-.478v-7.834a.473.473,0,1,1,.945,0v7.834A.477.477,0,0,1,592.238,908.757Zm0-19.584a.475.475,0,0,1-.472-.478V880.86a.473.473,0,1,1,.945,0v7.834a.477.477,0,0,1-.473.478Zm0-19.588a.475.475,0,0,1-.472-.477v-7.834a.473.473,0,1,1,.945,0v7.834a.476.476,0,0,1-.473.476Zm0-19.585a.474.474,0,0,1-.472-.476V841.69a.473.473,0,1,1,.945,0v7.834A.475.475,0,0,1,592.238,850Zm0-19.586a.475.475,0,0,1-.472-.476V822.1a.473.473,0,1,1,.945,0v7.834a.476.476,0,0,1-.473.48Zm0-19.585a.475.475,0,0,1-.472-.477v-7.834a.473.473,0,1,1,.945,0v7.834a.476.476,0,0,1-.473.477Zm0-19.584a.474.474,0,0,1-.472-.477v-7.836a.473.473,0,1,1,.945,0v7.836a.475.475,0,0,1-.473.476Zm0-19.586a.475.475,0,0,1-.472-.477v-7.834a.473.473,0,1,1,.945,0v7.834a.476.476,0,0,1-.473.476Z" transform="translate(-591.766 -762.871)" fill="#cfccff"/>
      </g>
      <g id="Group_18187-3" data-name="Group 18187" transform="translate(0 191.833)">
        <path id="Path_8550-3" data-name="Path 8550" d="M592.238,879.349a.474.474,0,0,1-.472-.475V875.06a.473.473,0,1,1,.945,0v3.814A.475.475,0,0,1,592.238,879.349Z" transform="translate(-591.766 -874.584)" fill="#cfccff"/>
      </g>
    </g>
    <path id="Path_8557-9" data-name="Path 8557" d="M406.915,749.215a6.869,6.869,0,1,1-6.872-6.925,6.869,6.869,0,0,1,6.872,6.925Z" transform="translate(1054.593 -638.784)" fill="#fff"/>
    <path id="Path_8558-9" data-name="Path 8558" d="M404.664,748.607a5.222,5.222,0,1,1-5.224-5.264,5.222,5.222,0,0,1,5.224,5.264Z" transform="translate(1055.196 -638.175)" fill="#0f8d82"/>
    <path id="Path_8557-10" data-name="Path 8557" d="M406.915,749.215a6.869,6.869,0,1,1-6.872-6.925,6.869,6.869,0,0,1,6.872,6.925Z" transform="translate(1147.437 -696.062)" fill="#fff"/>
    <path id="Path_8558-10" data-name="Path 8558" d="M404.664,748.607a5.222,5.222,0,1,1-5.224-5.264,5.222,5.222,0,0,1,5.224,5.264Z" transform="translate(1148.04 -695.453)" fill="#0f8d82"/>
    <path id="Path_8557-11" data-name="Path 8557" d="M406.915,749.215a6.869,6.869,0,1,1-6.872-6.925,6.869,6.869,0,0,1,6.872,6.925Z" transform="translate(1222.04 -668.239)" fill="#fff"/>
    <path id="Path_8558-11" data-name="Path 8558" d="M404.664,748.607a5.222,5.222,0,1,1-5.224-5.264,5.222,5.222,0,0,1,5.224,5.264Z" transform="translate(1222.643 -667.63)" fill="#0f8d82"/>
    <path id="Path_8557-12" data-name="Path 8557" d="M406.915,749.215a6.869,6.869,0,1,1-6.872-6.925,6.869,6.869,0,0,1,6.872,6.925Z" transform="translate(1378.957 -643.891)" fill="#fff"/>
    <path id="Path_8558-12" data-name="Path 8558" d="M404.664,748.607a5.222,5.222,0,1,1-5.224-5.264,5.222,5.222,0,0,1,5.224,5.264Z" transform="translate(1379.56 -643.282)" fill="#0f8d82"/>
    <g id="Group_5" data-name="Group 5">
      <g id="Group_18164-5" data-name="Group 18164" transform="translate(1827.529 114.772)">
        <g id="Group_18161-4" data-name="Group 18161" transform="translate(0 -0.02)">
          <path id="Path_8530-4" data-name="Path 8530" d="M301.48,748.451a.474.474,0,0,1-.473-.476v-3.814a.473.473,0,1,1,.945,0v3.814a.474.474,0,0,1-.472.476Z" transform="translate(-301.007 -743.666)" fill="#fff"/>
        </g>
        <g id="Group_18162-5" data-name="Group 18162" transform="translate(0 15.267)">
          <path id="Path_8531-5" data-name="Path 8531" d="M301.48,906.023a.442.442,0,0,1-.473-.4v-6.456a.388.388,0,0,1,.23-.361.548.548,0,0,1,.486,0,.388.388,0,0,1,.23.361v6.46A.443.443,0,0,1,301.48,906.023Zm0-16.153a.442.442,0,0,1-.473-.4v-6.461a.388.388,0,0,1,.23-.361.549.549,0,0,1,.486,0,.388.388,0,0,1,.23.361v6.462a.371.371,0,0,1-.136.286.522.522,0,0,1-.336.12Zm0-16.154a.442.442,0,0,1-.473-.4v-6.463a.388.388,0,0,1,.23-.361.548.548,0,0,1,.486,0,.388.388,0,0,1,.23.361v6.462a.371.371,0,0,1-.136.287.522.522,0,0,1-.336.12Zm0-16.154a.443.443,0,0,1-.473-.4V850.7a.388.388,0,0,1,.23-.361.549.549,0,0,1,.486,0,.388.388,0,0,1,.23.361v6.461a.371.371,0,0,1-.136.286.522.522,0,0,1-.336.12Zm0-16.154a.442.442,0,0,1-.473-.4v-6.463a.388.388,0,0,1,.23-.361.548.548,0,0,1,.486,0,.388.388,0,0,1,.23.361V841a.442.442,0,0,1-.472.4Zm0-16.155a.521.521,0,0,1-.336-.119.371.371,0,0,1-.137-.284v-6.461a.388.388,0,0,1,.23-.361.548.548,0,0,1,.486,0,.388.388,0,0,1,.23.361v6.462a.371.371,0,0,1-.136.285.521.521,0,0,1-.336.119Zm0-16.154a.442.442,0,0,1-.473-.4v-6.464a.388.388,0,0,1,.23-.361.549.549,0,0,1,.486,0,.388.388,0,0,1,.23.361V808.7a.371.371,0,0,1-.136.285.521.521,0,0,1-.336.119Zm0-16.154a.442.442,0,0,1-.473-.4v-6.461a.388.388,0,0,1,.23-.361.549.549,0,0,1,.486,0,.388.388,0,0,1,.23.361v6.461a.371.371,0,0,1-.137.285.521.521,0,0,1-.335.12Zm0-16.154a.521.521,0,0,1-.336-.119.371.371,0,0,1-.137-.284v-6.462a.388.388,0,0,1,.23-.361.549.549,0,0,1,.486,0,.388.388,0,0,1,.23.361v6.462a.371.371,0,0,1-.137.284.521.521,0,0,1-.335.119Zm0-16.154a.521.521,0,0,1-.336-.118.371.371,0,0,1-.137-.284v-6.461a.388.388,0,0,1,.23-.361.548.548,0,0,1,.486,0,.388.388,0,0,1,.23.361v6.462a.371.371,0,0,1-.137.285.52.52,0,0,1-.335.119Z" transform="translate(-301.007 -753.354)" fill="#fff"/>
        </g>
        <g id="Group_18163-5" data-name="Group 18163" transform="translate(0 178.446)">
          <path id="Path_8532-5" data-name="Path 8532" d="M301.48,879.349a.474.474,0,0,1-.473-.475V875.06a.473.473,0,1,1,.945,0v3.814a.474.474,0,0,1-.472.475Z" transform="translate(-301.007 -874.565)" fill="#fff"/>
        </g>
      </g>
      <path id="Path_8557-13" data-name="Path 8557" d="M406.915,749.215a6.869,6.869,0,1,1-6.872-6.925,6.869,6.869,0,0,1,6.872,6.925Z" transform="translate(1427.957 -631.785)" fill="#fff"/>
      <path id="Path_8558-13" data-name="Path 8558" d="M404.664,748.607a5.222,5.222,0,1,1-5.224-5.264,5.222,5.222,0,0,1,5.224,5.264Z" transform="translate(1428.56 -631.176)" fill="#0f8d82"/>
    </g>
    <path id="Path_8559-3" data-name="Path 8559" d="M361.769,750.34a6.869,6.869,0,1,1-6.87-6.925A6.869,6.869,0,0,1,361.769,750.34Z" transform="translate(1033.479 -655.152)" fill="#fff"/>
    <path id="Path_8560-3" data-name="Path 8560" d="M359.518,749.732a5.222,5.222,0,1,1-5.223-5.264,5.222,5.222,0,0,1,5.223,5.264Z" transform="translate(1034.083 -654.544)" fill="#0f8d82"/>
    <path id="Path_8561-3" data-name="Path 8561" d="M310.692,746.523a6.869,6.869,0,1,1-6.868-6.924,6.869,6.869,0,0,1,6.868,6.924Z" transform="translate(1000.083 -656.297)" fill="#fff"/>
    <path id="Path_8561-4" data-name="Path 8561" d="M310.692,746.523a6.869,6.869,0,1,1-6.868-6.924,6.869,6.869,0,0,1,6.868,6.924Z" transform="translate(912.623 -604.297)" fill="#fff"/>
    <path id="Path_8562-3" data-name="Path 8562" d="M308.441,745.915a5.222,5.222,0,1,1-5.221-5.264,5.222,5.222,0,0,1,5.221,5.264Z" transform="translate(1000.686 -655.689)" fill="#0f8d82"/>
    <path id="Path_8562-4" data-name="Path 8562" d="M308.441,745.915a5.222,5.222,0,1,1-5.221-5.264,5.222,5.222,0,0,1,5.221,5.264Z" transform="translate(913.226 -603.689)" fill="#0f8d82"/>
    <path id="Path_8563-2" data-name="Path 8563" d="M728.668,931.161Z" transform="translate(1099.352 -634.59)" fill="#fff"/>
    <path id="Path_8564-3" data-name="Path 8564" d="M578.341,745.613a32.187,32.187,0,1,1-32.187-32.454A32.187,32.187,0,0,1,578.341,745.613Z" transform="translate(1137.967 -672.155)" fill="#26a69a" opacity="0.4"/>
    <path id="Path_8565-3" data-name="Path 8565" d="M558.676,740.3a17.793,17.793,0,1,1-17.794-17.942A17.793,17.793,0,0,1,558.676,740.3Z" transform="translate(1142.982 -666.84)" fill="#26a69a"/>
    <path id="Path_8566-3" data-name="Path 8566" d="M550.933,738.205a12.125,12.125,0,1,1-12.126-12.227,12.125,12.125,0,0,1,12.126,12.227Z" transform="translate(1145.058 -664.747)" fill="#fefefe" opacity="0.46"/>
    <path id="Path_8567-3" data-name="Path 8567" d="M543.19,736.111a6.458,6.458,0,1,1-6.458-6.51A6.458,6.458,0,0,1,543.19,736.111Z" transform="translate(1147.134 -662.653)" fill="#26a69a"/>
    <path id="Path_8528-4" data-name="Path 8528" d="M240.353,806.088a.95.95,0,0,1-.85-.519.932.932,0,0,1,.428-1.256l97.085-47.6a.874.874,0,0,1,.493-.093l80.888,5.917,71.642.45,82.6-43.547a.962.962,0,0,1,.8-.023l72.2,31.864,60.924-10.659a1,1,0,0,1,.447.04L798.2,771.125a1.024,1.024,0,0,1,.234.115l54.641,45.128a.929.929,0,0,1,.247,1.3.951.951,0,0,1-1.319.24L797.47,772.857l-90.853-30.343-60.965,10.663a.987.987,0,0,1-.516-.067l-72.037-31.8-82.4,43.445a.946.946,0,0,1-.4.1l-71.955-.446-80.722-5.9-96.852,47.48A.951.951,0,0,1,240.353,806.088Z" transform="translate(-240.405 -665.753)" fill="#fff"/>
    <g id="Group_18161-5" data-name="Group 18161" transform="translate(96.557 91.337)">
      <path id="Path_8530-5" data-name="Path 8530" d="M301.482,748.369a.471.471,0,0,1-.475-.468v-3.748a.475.475,0,0,1,.949,0V747.9a.471.471,0,0,1-.474.469Z" transform="translate(-301.007 -743.686)" fill="#fff"/>
    </g>
    <g id="Group_18162-6" data-name="Group 18162" transform="translate(96.557 106.361)">
      <path id="Path_8531-6" data-name="Path 8531" d="M301.482,930.989a.472.472,0,0,1-.475-.468V923a.475.475,0,0,1,.949,0v7.516a.472.472,0,0,1-.474.473Zm0-18.794a.472.472,0,0,1-.475-.468v-7.518a.475.475,0,0,1,.949,0v7.518a.472.472,0,0,1-.474.468Zm0-18.8a.472.472,0,0,1-.475-.468v-7.519a.475.475,0,0,1,.949,0v7.519a.472.472,0,0,1-.474.473Zm0-18.8a.472.472,0,0,1-.475-.47v-7.518a.475.475,0,0,1,.949,0v7.518a.472.472,0,0,1-.474.475Zm0-18.8a.472.472,0,0,1-.475-.468V847.82a.475.475,0,0,1,.949,0v7.519a.472.472,0,0,1-.474.469Zm0-18.8a.471.471,0,0,1-.475-.468v-7.518a.475.475,0,0,1,.949,0v7.518a.471.471,0,0,1-.474.485Zm0-18.8a.471.471,0,0,1-.475-.467v-7.521a.475.475,0,0,1,.949,0v7.521a.471.471,0,0,1-.474.488Zm0-18.8a.472.472,0,0,1-.475-.468v-7.518a.475.475,0,0,1,.949,0v7.518a.472.472,0,0,1-.474.494Zm0-18.8a.471.471,0,0,1-.475-.468v-7.518a.475.475,0,0,1,.949,0v7.518a.471.471,0,0,1-.474.5Zm0-18.8a.471.471,0,0,1-.475-.468v-7.518a.475.475,0,0,1,.949,0v7.518a.471.471,0,0,1-.474.5Z" transform="translate(-301.007 -753.375)" fill="#fff"/>
    </g>
    <g id="Group_18163-6" data-name="Group 18163" transform="translate(96.557 294.317)">
      <path id="Path_8532-6" data-name="Path 8532" d="M301.482,879.267a.471.471,0,0,1-.475-.467v-3.748a.475.475,0,0,1,.949,0V878.8a.471.471,0,0,1-.474.467Z" transform="translate(-301.007 -874.584)" fill="#fff"/>
    </g>
    <g id="Group_18165-3" data-name="Group 18165" transform="translate(177.445 97.254)">
      <path id="Path_8533-3" data-name="Path 8533" d="M352.559,752.185a.47.47,0,0,1-.475-.467V747.97a.475.475,0,0,1,.949,0v3.748a.47.47,0,0,1-.474.467Z" transform="translate(-352.084 -747.502)" fill="#cfccff"/>
    </g>
    <path id="Path_8534-4" data-name="Path 8534" d="M352.559,929.342a.472.472,0,0,1-.475-.47v-7.294a.475.475,0,0,1,.949,0v7.294a.472.472,0,0,1-.474.47Zm0-18.239a.471.471,0,0,1-.475-.468v-7.294a.475.475,0,0,1,.949,0v7.294a.471.471,0,0,1-.474.465Zm0-18.236a.471.471,0,0,1-.475-.468v-7.3a.475.475,0,0,1,.949,0v7.3a.471.471,0,0,1-.474.468Zm0-18.237a.471.471,0,0,1-.475-.468v-7.294a.475.475,0,0,1,.949,0v7.294a.471.471,0,0,1-.474.468Zm0-18.237a.472.472,0,0,1-.475-.468v-7.3a.475.475,0,0,1,.949,0v7.3a.472.472,0,0,1-.474.468Zm0-18.237a.472.472,0,0,1-.475-.468v-7.3a.475.475,0,0,1,.949,0v7.3a.472.472,0,0,1-.474.467Zm0-18.238a.471.471,0,0,1-.475-.467v-7.3a.475.475,0,0,1,.949,0v7.3a.47.47,0,0,1-.474.467Zm0-18.237a.472.472,0,0,1-.475-.468v-7.294a.475.475,0,0,1,.949,0v7.294a.472.472,0,0,1-.474.467Zm0-18.238a.472.472,0,0,1-.475-.468V775.68a.475.475,0,0,1,.949,0v7.294a.472.472,0,0,1-.474.469Zm0-18.237a.472.472,0,0,1-.475-.468v-7.294a.475.475,0,0,1,.949,0v7.294a.472.472,0,0,1-.474.467Z" transform="translate(-174.639 -645.031)" fill="#fff" stroke="rgba(0,0,0,0)" stroke-width="1"/>
    <g id="Group_18167-4" data-name="Group 18167" transform="translate(177.445 294.316)">
      <path id="Path_8535-4" data-name="Path 8535" d="M352.559,879.267a.471.471,0,0,1-.475-.467v-3.748a.475.475,0,0,1,.949,0V878.8a.471.471,0,0,1-.474.467Z" transform="translate(-352.084 -874.584)" fill="#cfccff"/>
    </g>
    <g id="Group_18169-4" data-name="Group 18169" transform="translate(248.94 95.509)">
      <path id="Path_8536-4" data-name="Path 8536" d="M397.7,751.06a.47.47,0,0,1-.474-.467v-3.748a.475.475,0,0,1,.949,0v3.748a.47.47,0,0,1-.475.467Z" transform="translate(-397.229 -746.377)" fill="#fff" stroke="rgba(0,0,0,0)" stroke-width="1"/>
    </g>
    <g id="Group_18170-4" data-name="Group 18170" transform="translate(248.94 110.298)">
      <path id="Path_8537-4" data-name="Path 8537" d="M397.7,929.826a.471.471,0,0,1-.474-.467V922a.475.475,0,0,1,.949,0v7.359A.471.471,0,0,1,397.7,929.826Zm0-18.4a.471.471,0,0,1-.474-.468V903.6a.475.475,0,0,1,.949,0v7.36a.471.471,0,0,1-.475.464Zm0-18.4a.472.472,0,0,1-.474-.468V885.2a.475.475,0,0,1,.949,0v7.361a.472.472,0,0,1-.475.466Zm0-18.4a.472.472,0,0,1-.474-.468V866.8a.475.475,0,0,1,.949,0v7.361a.472.472,0,0,1-.475.464Zm0-18.4a.472.472,0,0,1-.474-.468V848.4a.475.475,0,0,1,.949,0v7.359a.472.472,0,0,1-.475.463Zm0-18.4a.472.472,0,0,1-.474-.468V830a.475.475,0,0,1,.949,0v7.36a.472.472,0,0,1-.475.461Zm0-18.4a.472.472,0,0,1-.474-.468V811.6a.475.475,0,0,1,.949,0v7.361a.472.472,0,0,1-.475.459Zm0-18.4a.472.472,0,0,1-.474-.47V793.2a.475.475,0,0,1,.949,0v7.359a.473.473,0,0,1-.475.459Zm0-18.4a.471.471,0,0,1-.474-.468V774.8a.475.475,0,0,1,.949,0v7.361a.471.471,0,0,1-.475.456Zm0-18.4a.471.471,0,0,1-.474-.47V756.4a.475.475,0,0,1,.949,0v7.359a.471.471,0,0,1-.475.456Z" transform="translate(-397.229 -755.914)" fill="#fff" stroke="rgba(0,0,0,0)" stroke-width="1"/>
    </g>
    <g id="Group_18171-4" data-name="Group 18171" transform="translate(248.94 294.316)">
      <path id="Path_8538-4" data-name="Path 8538" d="M397.7,879.267a.471.471,0,0,1-.474-.467v-3.748a.475.475,0,0,1,.949,0V878.8a.471.471,0,0,1-.475.467Z" transform="translate(-397.229 -874.584)" fill="#fff" stroke="rgba(0,0,0,0)" stroke-width="1"/>
    </g>
    <g id="Group_18176-3" data-name="Group 18176" transform="translate(332.188 54.06)">
      <g id="Group_18173-4" data-name="Group 18173">
        <path id="Path_8539-4" data-name="Path 8539" d="M450.271,724.33a.473.473,0,0,1-.475-.47v-3.746a.475.475,0,0,1,.949,0v3.746a.471.471,0,0,1-.474.47Z" transform="translate(-449.796 -719.647)" fill="#cfccff"/>
      </g>
      <g id="Group_18174-4" data-name="Group 18174" transform="translate(0 15.007)">
        <path id="Path_8540-4" data-name="Path 8540" d="M450.271,944.248a.473.473,0,0,1-.475-.468v-7.51a.475.475,0,0,1,.949,0v7.51a.472.472,0,0,1-.474.468Zm0-18.772a.472.472,0,0,1-.475-.467V917.5a.475.475,0,0,1,.949,0v7.507a.47.47,0,0,1-.474.468Zm0-18.768a.474.474,0,0,1-.475-.47V898.73a.475.475,0,0,1,.949,0v7.508a.472.472,0,0,1-.474.47Zm0-18.772a.472.472,0,0,1-.475-.467v-7.51a.475.475,0,0,1,.949,0v7.51a.471.471,0,0,1-.474.466Zm0-18.771a.473.473,0,0,1-.475-.468V861.19a.475.475,0,0,1,.949,0v7.51a.472.472,0,0,1-.474.464Zm0-18.771a.471.471,0,0,1-.475-.467v-7.508a.475.475,0,0,1,.949,0v7.508a.47.47,0,0,1-.474.467Zm0-18.769a.473.473,0,0,1-.475-.47v-7.508a.475.475,0,0,1,.949,0v7.508a.472.472,0,0,1-.474.469Zm0-18.771a.472.472,0,0,1-.475-.467v-7.508a.475.475,0,0,1,.949,0v7.508a.47.47,0,0,1-.474.466Zm0-18.771a.473.473,0,0,1-.475-.468v-7.508a.475.475,0,0,1,.949,0v7.508a.472.472,0,0,1-.474.468Zm0-18.771a.472.472,0,0,1-.475-.468v-7.508a.475.475,0,0,1,.949,0v7.508a.471.471,0,0,1-.474.468Zm0-18.771a.472.472,0,0,1-.475-.468v-7.51a.475.475,0,0,1,.949,0v7.51a.471.471,0,0,1-.474.468Zm0-18.769a.472.472,0,0,1-.475-.468V729.8a.475.475,0,0,1,.949,0v7.5a.471.471,0,0,1-.474.472Z" transform="translate(-449.796 -729.325)" fill="#cfccff"/>
      </g>
      <g id="Group_18175-4" data-name="Group 18175" transform="translate(0 240.256)">
        <path id="Path_8541-4" data-name="Path 8541" d="M450.271,879.267a.472.472,0,0,1-.475-.467v-3.748a.475.475,0,0,1,.949,0V878.8a.47.47,0,0,1-.474.467Z" transform="translate(-449.796 -874.584)" fill="#cfccff"/>
      </g>
    </g>
    <g id="Group_18180-4" data-name="Group 18180" transform="translate(404.173 84.529)">
      <g id="Group_18177-4" data-name="Group 18177">
        <path id="Path_8542-4" data-name="Path 8542" d="M495.726,743.981a.472.472,0,0,1-.475-.468v-3.746a.475.475,0,0,1,.949,0v3.746A.472.472,0,0,1,495.726,743.981Z" transform="translate(-495.251 -739.296)" fill="#cfccff"/>
      </g>
      <g id="Group_18178-4" data-name="Group 18178" transform="translate(0 15.409)">
        <path id="Path_8543-4" data-name="Path 8543" d="M495.726,932.885a.475.475,0,0,1-.475-.47v-7.772a.475.475,0,0,1,.949,0v7.772a.474.474,0,0,1-.474.47Zm0-19.438a.473.473,0,0,1-.475-.468V905.2a.475.475,0,0,1,.949,0v7.777a.473.473,0,0,1-.474.471Zm0-19.438a.473.473,0,0,1-.475-.468v-7.777a.475.475,0,0,1,.949,0v7.777a.473.473,0,0,1-.474.469Zm0-19.436a.473.473,0,0,1-.475-.468v-7.776a.475.475,0,0,1,.949,0v7.776a.473.473,0,0,1-.474.469Zm0-19.441a.472.472,0,0,1-.475-.467V846.89a.475.475,0,0,1,.949,0v7.775a.472.472,0,0,1-.474.468Zm0-19.437a.473.473,0,0,1-.475-.467v-7.777a.475.475,0,0,1,.949,0v7.777a.473.473,0,0,1-.474.472Zm0-19.436a.474.474,0,0,1-.475-.47v-7.773a.475.475,0,0,1,.949,0v7.773a.473.473,0,0,1-.474.47Zm0-19.438a.473.473,0,0,1-.475-.468v-7.777a.475.475,0,0,1,.949,0v7.777a.473.473,0,0,1-.474.468Zm0-19.437a.473.473,0,0,1-.475-.468v-7.777a.475.475,0,0,1,.949,0v7.777a.473.473,0,0,1-.474.468Zm0-19.438a.473.473,0,0,1-.475-.468V749.7a.475.475,0,0,1,.949,0v7.775a.473.473,0,0,1-.474.471Z" transform="translate(-495.251 -749.233)" fill="#cfccff"/>
      </g>
      <g id="Group_18179-4" data-name="Group 18179" transform="translate(0 209.787)">
        <path id="Path_8544-4" data-name="Path 8544" d="M495.726,879.267a.472.472,0,0,1-.475-.467v-3.748a.475.475,0,0,1,.949,0V878.8A.472.472,0,0,1,495.726,879.267Z" transform="translate(-495.251 -874.584)" fill="#cfccff"/>
      </g>
    </g>
    <g id="Group_18184-4" data-name="Group 18184" transform="translate(465.645 75.331)">
      <g id="Group_18181-4" data-name="Group 18181">
        <path id="Path_8545-4" data-name="Path 8545" d="M534.542,738.049a.472.472,0,0,1-.475-.468v-3.746a.475.475,0,1,1,.95,0v3.746a.472.472,0,0,1-.475.468Z" transform="translate(-534.067 -733.364)" fill="#cfccff"/>
      </g>
      <g id="Group_18182-4" data-name="Group 18182" transform="translate(0 14.88)">
        <path id="Path_8546-4" data-name="Path 8546" d="M534.542,936.87a.473.473,0,0,1-.475-.468v-7.423a.475.475,0,0,1,.95,0V936.4a.473.473,0,0,1-.475.47Zm0-18.555a.474.474,0,0,1-.475-.47v-7.422a.475.475,0,1,1,.95,0v7.422a.474.474,0,0,1-.475.469Zm0-18.557a.473.473,0,0,1-.475-.468v-7.42a.475.475,0,0,1,.95,0v7.42a.473.473,0,0,1-.475.467Zm0-18.554a.472.472,0,0,1-.475-.467v-7.424a.475.475,0,0,1,.95,0v7.424a.472.472,0,0,1-.475.463Zm0-18.554a.473.473,0,0,1-.475-.468v-7.423a.475.475,0,1,1,.95,0v7.423a.473.473,0,0,1-.475.468Zm0-18.555a.473.473,0,0,1-.475-.468V836.2a.475.475,0,1,1,.95,0v7.423a.473.473,0,0,1-.475.472Zm0-18.557a.472.472,0,0,1-.475-.468v-7.42a.475.475,0,1,1,.95,0v7.42a.472.472,0,0,1-.475.468Zm0-18.555a.472.472,0,0,1-.475-.468v-7.422a.475.475,0,1,1,.95,0v7.422a.472.472,0,0,1-.475.467Zm0-18.554a.472.472,0,0,1-.475-.468v-7.422a.475.475,0,0,1,.95,0v7.422A.472.472,0,0,1,534.542,788.429Zm0-18.555a.472.472,0,0,1-.475-.467v-7.423a.475.475,0,0,1,.95,0v7.423a.472.472,0,0,1-.475.466Zm0-18.554a.472.472,0,0,1-.475-.47v-7.42a.475.475,0,1,1,.95,0v7.42a.472.472,0,0,1-.475.47Z" transform="translate(-534.067 -742.96)" fill="#cfccff"/>
      </g>
      <g id="Group_18183-4" data-name="Group 18183" transform="translate(0 218.985)">
        <path id="Path_8547-4" data-name="Path 8547" d="M534.542,879.267a.472.472,0,0,1-.475-.467v-3.748a.475.475,0,1,1,.95,0V878.8A.472.472,0,0,1,534.542,879.267Z" transform="translate(-534.067 -874.584)" fill="#cfccff"/>
      </g>
    </g>
    <g id="Group_18188-3" data-name="Group 18188" transform="translate(557.02 105.79)">
      <g id="Group_18185-4" data-name="Group 18185">
        <path id="Path_8548-4" data-name="Path 8548" d="M592.24,757.692a.471.471,0,0,1-.473-.468v-3.746a.474.474,0,1,1,.948,0v3.746a.472.472,0,0,1-.475.468Z" transform="translate(-591.766 -753.007)" fill="#cfccff"/>
      </g>
      <g id="Group_18186-4" data-name="Group 18186" transform="translate(0 15.296)">
        <path id="Path_8549-4" data-name="Path 8549" d="M592.24,925.49a.472.472,0,0,1-.473-.468v-7.7a.474.474,0,1,1,.948,0v7.7a.473.473,0,0,1-.475.468Zm0-19.249a.472.472,0,0,1-.473-.47v-7.7a.474.474,0,1,1,.948,0v7.7a.473.473,0,0,1-.475.47Zm0-19.247a.472.472,0,0,1-.473-.47v-7.7a.474.474,0,1,1,.948,0v7.7a.473.473,0,0,1-.475.47Zm0-19.25a.472.472,0,0,1-.473-.468v-7.7a.474.474,0,1,1,.948,0v7.7a.473.473,0,0,1-.475.468Zm0-19.247a.471.471,0,0,1-.473-.468v-7.7a.474.474,0,1,1,.948,0v7.7a.472.472,0,0,1-.475.471Zm0-19.248a.472.472,0,0,1-.473-.468v-7.7a.474.474,0,1,1,.948,0v7.7a.473.473,0,0,1-.475.468Zm0-19.247a.472.472,0,0,1-.473-.468v-7.7a.474.474,0,1,1,.948,0v7.7a.473.473,0,0,1-.475.466Zm0-19.247a.471.471,0,0,1-.473-.468v-7.7a.474.474,0,1,1,.948,0v7.7a.472.472,0,0,1-.475.468Zm0-19.248a.472.472,0,0,1-.473-.468v-7.7a.474.474,0,1,1,.948,0v7.7a.473.473,0,0,1-.475.468Z" transform="translate(-591.766 -762.871)" fill="#cfccff"/>
      </g>
      <g id="Group_18187-4" data-name="Group 18187" transform="translate(0 188.526)">
        <path id="Path_8550-4" data-name="Path 8550" d="M592.24,879.267a.47.47,0,0,1-.473-.467v-3.748a.474.474,0,1,1,.948,0V878.8A.472.472,0,0,1,592.24,879.267Z" transform="translate(-591.766 -874.584)" fill="#cfccff"/>
      </g>
    </g>
    <g id="Group_18188-4" data-name="Group 18188" transform="translate(611.02 105.79)">
      <g id="Group_18186-5" data-name="Group 18186" transform="translate(0 15.296)">
        <path id="Path_8549-5" data-name="Path 8549" d="M592.24,925.49a.472.472,0,0,1-.473-.468v-7.7a.474.474,0,1,1,.948,0v7.7a.473.473,0,0,1-.475.468Zm0-19.249a.472.472,0,0,1-.473-.47v-7.7a.474.474,0,1,1,.948,0v7.7a.473.473,0,0,1-.475.47Zm0-19.247a.472.472,0,0,1-.473-.47v-7.7a.474.474,0,1,1,.948,0v7.7a.473.473,0,0,1-.475.47Zm0-19.25a.472.472,0,0,1-.473-.468v-7.7a.474.474,0,1,1,.948,0v7.7a.473.473,0,0,1-.475.468Zm0-19.247a.471.471,0,0,1-.473-.468v-7.7a.474.474,0,1,1,.948,0v7.7a.472.472,0,0,1-.475.471Zm0-19.248a.472.472,0,0,1-.473-.468v-7.7a.474.474,0,1,1,.948,0v7.7a.473.473,0,0,1-.475.468Zm0-19.247a.472.472,0,0,1-.473-.468v-7.7a.474.474,0,1,1,.948,0v7.7a.473.473,0,0,1-.475.466Z" transform="translate(-591.766 -762.871)" fill="#cfccff"/>
      </g>
      <g id="Group_18187-5" data-name="Group 18187" transform="translate(0 188.526)">
        <path id="Path_8550-5" data-name="Path 8550" d="M592.24,879.267a.47.47,0,0,1-.473-.467v-3.748a.474.474,0,1,1,.948,0V878.8A.472.472,0,0,1,592.24,879.267Z" transform="translate(-591.766 -874.584)" fill="#cfccff"/>
      </g>
    </g>
    <g id="Group_18193-2" data-name="Group 18193" transform="translate(242.521 89.172)">
      <path id="Path_8557-14" data-name="Path 8557" d="M406.965,749.1a6.9,6.9,0,1,1-6.9-6.806,6.9,6.9,0,0,1,6.9,6.806Z" transform="translate(-393.176 -742.29)" fill="#fff"/>
      <path id="Path_8558-14" data-name="Path 8558" d="M404.7,748.516a5.242,5.242,0,1,1-5.243-5.173,5.242,5.242,0,0,1,5.243,5.173Z" transform="translate(-392.567 -741.71)" fill="#0f8d82"/>
    </g>
    <g id="Group_18201-2" data-name="Group 18201" transform="translate(326.298 49.133)">
      <path id="Path_8557-15" data-name="Path 8557" d="M406.965,749.1a6.9,6.9,0,1,1-6.9-6.806,6.9,6.9,0,0,1,6.9,6.806Z" transform="translate(-393.176 -742.29)" fill="#fff"/>
      <path id="Path_8558-15" data-name="Path 8558" d="M404.7,748.516a5.242,5.242,0,1,1-5.243-5.173,5.242,5.242,0,0,1,5.243,5.173Z" transform="translate(-392.567 -741.71)" fill="#0f8d82"/>
    </g>
    <g id="Group_18202-2" data-name="Group 18202" transform="translate(399.104 76.476)">
      <path id="Path_8557-16" data-name="Path 8557" d="M406.965,749.1a6.9,6.9,0,1,1-6.9-6.806,6.9,6.9,0,0,1,6.9,6.806Z" transform="translate(-393.176 -742.29)" fill="#fff"/>
      <path id="Path_8558-16" data-name="Path 8558" d="M404.7,748.516a5.242,5.242,0,1,1-5.243-5.173,5.242,5.242,0,0,1,5.243,5.173Z" transform="translate(-392.567 -741.71)" fill="#0f8d82"/>
    </g>
    <g id="Group_18203-2" data-name="Group 18203" transform="translate(551.074 100.979)">
      <path id="Path_8557-17" data-name="Path 8557" d="M406.965,749.1a6.9,6.9,0,1,1-6.9-6.806,6.9,6.9,0,0,1,6.9,6.806Z" transform="translate(-393.176 -742.29)" fill="#fff"/>
      <path id="Path_8558-17" data-name="Path 8558" d="M404.7,748.516a5.242,5.242,0,1,1-5.243-5.173,5.242,5.242,0,0,1,5.243,5.173Z" transform="translate(-392.567 -741.71)" fill="#0f8d82"/>
    </g>
    <g id="Group_18203-3" data-name="Group 18203" transform="translate(604.642 140.979)">
      <path id="Path_8557-18" data-name="Path 8557" d="M406.965,749.1a6.9,6.9,0,1,1-6.9-6.806,6.9,6.9,0,0,1,6.9,6.806Z" transform="translate(-393.176 -742.29)" fill="#fff"/>
      <path id="Path_8558-18" data-name="Path 8558" d="M404.7,748.516a5.242,5.242,0,1,1-5.243-5.173,5.242,5.242,0,0,1,5.243,5.173Z" transform="translate(-392.567 -741.71)" fill="#0f8d82"/>
    </g>
    <g id="Group_18194-2" data-name="Group 18194" transform="translate(171.026 90.916)">
      <path id="Path_8559-4" data-name="Path 8559" d="M361.819,750.221a6.9,6.9,0,1,1-6.9-6.806A6.9,6.9,0,0,1,361.819,750.221Z" transform="translate(-348.03 -743.415)" fill="#fff"/>
      <path id="Path_8560-4" data-name="Path 8560" d="M359.556,749.641a5.242,5.242,0,1,1-5.242-5.173,5.242,5.242,0,0,1,5.242,5.173Z" transform="translate(-347.421 -742.835)" fill="#0f8d82"/>
    </g>
    <g id="Group_18195-2" data-name="Group 18195" transform="translate(90.137 84.999)">
      <path id="Path_8561-5" data-name="Path 8561" d="M310.742,746.4a6.9,6.9,0,1,1-6.894-6.8A6.9,6.9,0,0,1,310.742,746.4Z" transform="translate(-296.953 -739.599)" fill="#fff"/>
      <path id="Path_8562-5" data-name="Path 8562" d="M308.479,745.824a5.242,5.242,0,1,1-5.24-5.173A5.242,5.242,0,0,1,308.479,745.824Z" transform="translate(-296.344 -739.02)" fill="#0f8d82"/>
    </g>
    <g id="Group_18196-2" data-name="Group 18196" transform="translate(607.166 297.595)">
      <path id="Path_8563-3" data-name="Path 8563" d="M728.668,931.161Z" transform="translate(-728.668 -931.161)" fill="#fff" opacity="0.25"/>
    </g>
    <path id="Path_8564-4" data-name="Path 8564" d="M578.577,745.053a32.306,32.306,0,1,1-32.3-31.894A32.306,32.306,0,0,1,578.577,745.053Z" transform="translate(-80.153 -669.16)" fill="#26a69a" opacity="0.4"/>
    <g id="Group_18197-2" data-name="Group 18197" transform="translate(448.263 58.261)">
      <path id="Path_8565-4" data-name="Path 8565" d="M558.807,739.989a17.859,17.859,0,1,1-17.859-17.633A17.859,17.859,0,0,1,558.807,739.989Z" transform="translate(-523.092 -722.356)" fill="#26a69a"/>
      <path id="Path_8566-4" data-name="Path 8566" d="M551.022,737.994a12.17,12.17,0,1,1-12.17-12.016,12.17,12.17,0,0,1,12.17,12.016Z" transform="translate(-520.995 -720.362)" fill="#fefefe" opacity="0.46"/>
      <path id="Path_8567-4" data-name="Path 8567" d="M543.237,736a6.482,6.482,0,1,1-6.482-6.4,6.482,6.482,0,0,1,6.482,6.4Z" transform="translate(-518.899 -718.367)" fill="#26a69a"/>
    </g>
    <path id="Path_8563-4" data-name="Path 8563" d="M728.668,931.161Z" transform="translate(1714.918 -634.588)" fill="#fff" opacity="0.25"/>
  </g>
</svg>
