<svg xmlns="http://www.w3.org/2000/svg" width="89.567" height="85.758" viewBox="0 0 89.567 85.758">
  <g id="Group_19080" data-name="Group 19080" transform="translate(380.96 -332.879)">
    <path id="Path_8690" data-name="Path 8690" d="M-321.617,347V333.66h-43.639a4,4,0,0,0-4,4v75.848a4,4,0,0,0,4,4h52.977a4,4,0,0,0,4-4V347Z" transform="translate(2.591 0.173)" fill="#e1eef3"/>
    <path id="Path_8691" data-name="Path 8691" d="M-310.235,355.5a2.858,2.858,0,0,1,2.858,2.858,2.858,2.858,0,0,1-2.858,2.861,2.859,2.859,0,0,1-2.857-2.861A2.858,2.858,0,0,1-310.235,355.5Z" transform="translate(15.03 5.01)" fill="#d7deed"/>
    <path id="Path_8692" data-name="Path 8692" d="M-376.369,375.783a3.812,3.812,0,0,1,3.811,3.812,3.81,3.81,0,0,1-3.811,3.812,3.812,3.812,0,0,1-3.812-3.812A3.814,3.814,0,0,1-376.369,375.783Z" transform="translate(0.173 9.502)" fill="#e1eef3"/>
    <path id="Path_8693" data-name="Path 8693" d="M-328.716,386.517h-34.3l25.621-18.5,8.682-6.271,11.434,24.775Z" transform="translate(3.973 6.392)" fill="#febe76"/>
    <path id="Path_8694" data-name="Path 8694" d="M-330.255,333.66-316.914,347h-13.341Z" transform="translate(11.229 0.173)" fill="#7dc7c3"/>
    <path id="Path_8695" data-name="Path 8695" d="M-311.4,342.019a1.905,1.905,0,0,1,0,2.7,1.906,1.906,0,0,1-2.695,0,1.9,1.9,0,0,1,0-2.7A1.908,1.908,0,0,1-311.4,342.019Z" transform="translate(14.684 1.901)" fill="#26a69a"/>
    <path id="Path_8696" data-name="Path 8696" d="M-311.4,376.343a1.9,1.9,0,0,1,0,2.693,1.9,1.9,0,0,1-2.695,0,1.9,1.9,0,0,1,0-2.693A1.906,1.906,0,0,1-311.4,376.343Z" transform="translate(14.684 9.502)" fill="#26a69a"/>
    <path id="Path_8697" data-name="Path 8697" d="M-322.321,395.064a1.9,1.9,0,0,1,0,2.7,1.906,1.906,0,0,1-2.695,0,1.905,1.905,0,0,1,0-2.7A1.908,1.908,0,0,1-322.321,395.064Z" transform="translate(12.266 13.648)" fill="#26a69a"/>
    <path id="Path_8698" data-name="Path 8698" d="M-328.706,389.677a3.421,3.421,0,0,1-.236-1.245,3.37,3.37,0,0,1,.222-1.189,3.252,3.252,0,0,1,.651-1.054,3.215,3.215,0,0,1,1.043-.754,3.222,3.222,0,0,1,1.395-.291,3.156,3.156,0,0,1,1.614.4A2.585,2.585,0,0,1-323,386.59l-1.173.818a1.313,1.313,0,0,0-.285-.431,1.516,1.516,0,0,0-.376-.282,1.622,1.622,0,0,0-.419-.148,2.167,2.167,0,0,0-.42-.043,1.56,1.56,0,0,0-.761.178,1.688,1.688,0,0,0-.54.453,1.937,1.937,0,0,0-.316.633,2.578,2.578,0,0,0-.1.718,2.363,2.363,0,0,0,.121.754,2,2,0,0,0,.349.641,1.688,1.688,0,0,0,.55.445,1.567,1.567,0,0,0,.719.163,1.8,1.8,0,0,0,.425-.053,1.746,1.746,0,0,0,.418-.158,1.51,1.51,0,0,0,.368-.28,1.293,1.293,0,0,0,.27-.423l1.247.735a1.975,1.975,0,0,1-.442.651,2.776,2.776,0,0,1-.675.485,3.641,3.641,0,0,1-.809.3,3.735,3.735,0,0,1-.837.1,2.929,2.929,0,0,1-1.318-.293,3.3,3.3,0,0,1-1.032-.776A3.577,3.577,0,0,1-328.706,389.677Z" transform="translate(11.52 11.575)" fill="#26a69a"/>
    <path id="Path_8699" data-name="Path 8699" d="M-336,357.29l-.772-2.335-.791,2.335Zm-.084-4.077,2.41,6.608h-1.562l-.513-1.479H-337.8l-.5,1.479h-1.562l2.411-6.608Z" transform="translate(9.1 4.503)" fill="#26a69a"/>
    <path id="Path_8700" data-name="Path 8700" d="M-360.912,387.127a.681.681,0,0,0-.171-.5.55.55,0,0,0-.414-.178h-1.556v1.369h1.5a.671.671,0,0,0,.448-.17A.65.65,0,0,0-360.912,387.127Zm.243,2.626a.793.793,0,0,0-.178-.523.554.554,0,0,0-.446-.214h-1.76v1.443h1.7a.678.678,0,0,0,.492-.2A.692.692,0,0,0-360.669,389.754Zm1.223-.792a1.74,1.74,0,0,1,.332,1.1,1.5,1.5,0,0,1-.178.746,1.522,1.522,0,0,1-.485.525,2.276,2.276,0,0,1-.716.315,3.32,3.32,0,0,1-.864.107h-3.222v-6.608h3.677a1.269,1.269,0,0,1,.622.15,1.5,1.5,0,0,1,.476.386,1.777,1.777,0,0,1,.3.539,1.86,1.86,0,0,1,.106.618,1.794,1.794,0,0,1-.236.9,1.511,1.511,0,0,1-.713.634A1.7,1.7,0,0,1-359.446,388.962Z" transform="translate(3.628 11.575)" fill="#26a69a"/>
    <path id="Path_8701" data-name="Path 8701" d="M-373.808,363.861a1.9,1.9,0,0,1,0,2.7,1.9,1.9,0,0,1-2.692,0,1.9,1.9,0,0,1,0-2.7A1.9,1.9,0,0,1-373.808,363.861Z" transform="translate(0.864 6.738)" fill="#26a69a"/>
    <path id="Path_8702" data-name="Path 8702" d="M-316.741,348.125h-13.341a.952.952,0,0,1-.953-.952V333.833a.954.954,0,0,1,.953-.954.954.954,0,0,1,.953.954V346.22h12.388a.952.952,0,0,1,.952.954A.951.951,0,0,1-316.741,348.125Z" transform="translate(11.057 0)" fill="#26a69a"/>
    <path id="Path_8703" data-name="Path 8703" d="M-312.106,418.637h-52.977a4.962,4.962,0,0,1-4.957-4.956V337.833a4.962,4.962,0,0,1,4.957-4.954h43.639a.959.959,0,0,1,.674.281l4.843,4.843c2.7,2.7,5.118,5.118,8.5,8.5a.955.955,0,0,1,.28.675v66.507A4.96,4.96,0,0,1-312.106,418.637Zm-52.977-83.85a3.052,3.052,0,0,0-3.051,3.046v75.848a3.053,3.053,0,0,0,3.051,3.049h52.977a3.052,3.052,0,0,0,3.049-3.049V347.567c-3.234-3.232-5.591-5.589-8.217-8.218l-4.565-4.562Z" transform="translate(2.418 0)" fill="#26a69a"/>
    <path id="Path_8704" data-name="Path 8704" d="M-317.109,387.642h-45.738a.951.951,0,0,1-.906-.658.956.956,0,0,1,.348-1.066l34.3-24.774a.958.958,0,0,1,.8-.15.956.956,0,0,1,.624.523l11.434,24.775a.954.954,0,0,1-.062.914A.953.953,0,0,1-317.109,387.642Zm-42.79-1.9h41.3l-10.325-22.372Z" transform="translate(3.801 6.22)" fill="#26a69a"/>
    <path id="Path_8705" data-name="Path 8705" d="M-348.8,383.841a.952.952,0,0,1-.953-.953v-3.812a.953.953,0,0,1,.953-.951.953.953,0,0,1,.953.951v3.812A.952.952,0,0,1-348.8,383.841Z" transform="translate(6.91 10.02)" fill="#26a69a"/>
    <path id="Path_8706" data-name="Path 8706" d="M-334.762,384.533a.952.952,0,0,1-.953-.953v-7.624a.952.952,0,0,1,.953-.952.953.953,0,0,1,.953.952v7.624A.952.952,0,0,1-334.762,384.533Z" transform="translate(10.02 9.329)" fill="#26a69a"/>
    <path id="Path_8707" data-name="Path 8707" d="M-351.412,341.028h-11.434a.954.954,0,0,1-.953-.955.952.952,0,0,1,.953-.952h11.434a.952.952,0,0,1,.954.952A.955.955,0,0,1-351.412,341.028Z" transform="translate(3.801 1.382)" fill="#26a69a"/>
    <path id="Path_8708" data-name="Path 8708" d="M-351.412,345.706h-11.434a.953.953,0,0,1-.953-.952.953.953,0,0,1,.953-.954h11.434a.954.954,0,0,1,.954.954A.953.953,0,0,1-351.412,345.706Z" transform="translate(3.801 2.419)" fill="#26a69a"/>
    <path id="Path_8709" data-name="Path 8709" d="M-341.882,350.389h-20.964a.956.956,0,0,1-.953-.954.954.954,0,0,1,.953-.953h20.964a.954.954,0,0,1,.953.953A.956.956,0,0,1-341.882,350.389Z" transform="translate(3.801 3.455)" fill="#26a69a"/>
    <path id="Path_8710" data-name="Path 8710" d="M-341.882,355.069h-20.964a.954.954,0,0,1-.953-.955.954.954,0,0,1,.953-.952h20.964a.954.954,0,0,1,.953.952A.954.954,0,0,1-341.882,355.069Z" transform="translate(3.801 4.492)" fill="#26a69a"/>
    <path id="Path_8711" data-name="Path 8711" d="M-319.539,397.191h-49.547a.953.953,0,0,1-.954-.953.954.954,0,0,1,.954-.952h49.547a.954.954,0,0,1,.953.952A.952.952,0,0,1-319.539,397.191Z" transform="translate(2.418 13.821)" fill="#26a69a"/>
    <path id="Path_8712" data-name="Path 8712" d="M-376.2,384.533a4.769,4.769,0,0,1-4.764-4.765A4.769,4.769,0,0,1-376.2,375a4.77,4.77,0,0,1,4.764,4.764A4.77,4.77,0,0,1-376.2,384.533Zm0-7.622a2.861,2.861,0,0,0-2.858,2.857,2.862,2.862,0,0,0,2.858,2.861,2.864,2.864,0,0,0,2.859-2.861A2.863,2.863,0,0,0-376.2,376.911Z" transform="translate(0 9.329)" fill="#26a69a"/>
    <path id="Path_8713" data-name="Path 8713" d="M-310.062,362.345a3.814,3.814,0,0,1-3.811-3.812,3.813,3.813,0,0,1,3.811-3.81,3.814,3.814,0,0,1,3.812,3.81A3.815,3.815,0,0,1-310.062,362.345Zm0-5.716a1.907,1.907,0,0,0-1.905,1.9,1.909,1.909,0,0,0,1.905,1.905,1.909,1.909,0,0,0,1.907-1.905A1.907,1.907,0,0,0-310.062,356.629Z" transform="translate(14.857 4.838)" fill="#26a69a"/>
  </g>
</svg>
