<svg xmlns="http://www.w3.org/2000/svg" width="19.03" height="18.191" viewBox="0 0 19.03 18.191">
  <g id="Layer_1" data-name="Layer 1" transform="translate(-1.908 -3)">
    <path id="Path_9068" data-name="Path 9068" d="M16.055,15.11A6.055,6.055,0,1,0,10,9.055a6.055,6.055,0,0,0,6.055,6.055Zm0-10.38A4.325,4.325,0,1,1,11.73,9.055,4.325,4.325,0,0,1,16.055,4.73Z" transform="translate(-4.592)" fill="#26a69a"/>
    <path id="Path_9069" data-name="Path 9069" d="M20.592,37.706a16.435,16.435,0,0,0-18.26,0,.865.865,0,1,0,.96,1.436,14.7,14.7,0,0,1,16.34,0,.865.865,0,0,0,.96-1.436Z" transform="translate(0 -18.124)" fill="#26a69a"/>
  </g>
</svg>
