<svg xmlns="http://www.w3.org/2000/svg" xmlns:xlink="http://www.w3.org/1999/xlink" width="349" height="317" viewBox="0 0 349 317">
  <defs>
    <clipPath id="clip-path">
      <rect width="349" height="317" fill="none"/>
    </clipPath>
  </defs>
  <g id="Repeat_Grid_2" data-name="Repeat Grid 2" clip-path="url(#clip-path)">
    <g transform="translate(7227 -3295)">
      <circle id="Ellipse_187" data-name="Ellipse 187" cx="4" cy="4" r="4" transform="translate(-7223 3299)" fill="#fff"/>
    </g>
    <g transform="translate(7263 -3295)">
      <circle id="Ellipse_187-2" data-name="Ellipse 187" cx="4" cy="4" r="4" transform="translate(-7223 3299)" fill="#fff"/>
    </g>
    <g transform="translate(7299 -3295)">
      <circle id="Ellipse_187-3" data-name="Ellipse 187" cx="4" cy="4" r="4" transform="translate(-7223 3299)" fill="#fff"/>
    </g>
    <g transform="translate(7335 -3295)">
      <circle id="Ellipse_187-4" data-name="Ellipse 187" cx="4" cy="4" r="4" transform="translate(-7223 3299)" fill="#fff"/>
    </g>
    <g transform="translate(7371 -3295)">
      <circle id="Ellipse_187-5" data-name="Ellipse 187" cx="4" cy="4" r="4" transform="translate(-7223 3299)" fill="#fff"/>
    </g>
    <g transform="translate(7407 -3295)">
      <circle id="Ellipse_187-6" data-name="Ellipse 187" cx="4" cy="4" r="4" transform="translate(-7223 3299)" fill="#fff"/>
    </g>
    <g transform="translate(7443 -3295)">
      <circle id="Ellipse_187-7" data-name="Ellipse 187" cx="4" cy="4" r="4" transform="translate(-7223 3299)" fill="#fff"/>
    </g>
    <g transform="translate(7479 -3295)">
      <circle id="Ellipse_187-8" data-name="Ellipse 187" cx="4" cy="4" r="4" transform="translate(-7223 3299)" fill="#fff"/>
    </g>
    <g transform="translate(7515 -3295)">
      <circle id="Ellipse_187-9" data-name="Ellipse 187" cx="4" cy="4" r="4" transform="translate(-7223 3299)" fill="#fff"/>
    </g>
    <g transform="translate(7551 -3295)">
      <circle id="Ellipse_187-10" data-name="Ellipse 187" cx="4" cy="4" r="4" transform="translate(-7223 3299)" fill="#fff"/>
    </g>
    <g transform="translate(7227 -3259)">
      <circle id="Ellipse_187-11" data-name="Ellipse 187" cx="4" cy="4" r="4" transform="translate(-7223 3299)" fill="#fff"/>
    </g>
    <g transform="translate(7263 -3259)">
      <circle id="Ellipse_187-12" data-name="Ellipse 187" cx="4" cy="4" r="4" transform="translate(-7223 3299)" fill="#fff"/>
    </g>
    <g transform="translate(7299 -3259)">
      <circle id="Ellipse_187-13" data-name="Ellipse 187" cx="4" cy="4" r="4" transform="translate(-7223 3299)" fill="#fff"/>
    </g>
    <g transform="translate(7335 -3259)">
      <circle id="Ellipse_187-14" data-name="Ellipse 187" cx="4" cy="4" r="4" transform="translate(-7223 3299)" fill="#fff"/>
    </g>
    <g transform="translate(7371 -3259)">
      <circle id="Ellipse_187-15" data-name="Ellipse 187" cx="4" cy="4" r="4" transform="translate(-7223 3299)" fill="#fff"/>
    </g>
    <g transform="translate(7407 -3259)">
      <circle id="Ellipse_187-16" data-name="Ellipse 187" cx="4" cy="4" r="4" transform="translate(-7223 3299)" fill="#fff"/>
    </g>
    <g transform="translate(7443 -3259)">
      <circle id="Ellipse_187-17" data-name="Ellipse 187" cx="4" cy="4" r="4" transform="translate(-7223 3299)" fill="#fff"/>
    </g>
    <g transform="translate(7479 -3259)">
      <circle id="Ellipse_187-18" data-name="Ellipse 187" cx="4" cy="4" r="4" transform="translate(-7223 3299)" fill="#fff"/>
    </g>
    <g transform="translate(7515 -3259)">
      <circle id="Ellipse_187-19" data-name="Ellipse 187" cx="4" cy="4" r="4" transform="translate(-7223 3299)" fill="#fff"/>
    </g>
    <g transform="translate(7551 -3259)">
      <circle id="Ellipse_187-20" data-name="Ellipse 187" cx="4" cy="4" r="4" transform="translate(-7223 3299)" fill="#fff"/>
    </g>
    <g transform="translate(7227 -3223)">
      <circle id="Ellipse_187-21" data-name="Ellipse 187" cx="4" cy="4" r="4" transform="translate(-7223 3299)" fill="#fff"/>
    </g>
    <g transform="translate(7263 -3223)">
      <circle id="Ellipse_187-22" data-name="Ellipse 187" cx="4" cy="4" r="4" transform="translate(-7223 3299)" fill="#fff"/>
    </g>
    <g transform="translate(7299 -3223)">
      <circle id="Ellipse_187-23" data-name="Ellipse 187" cx="4" cy="4" r="4" transform="translate(-7223 3299)" fill="#fff"/>
    </g>
    <g transform="translate(7335 -3223)">
      <circle id="Ellipse_187-24" data-name="Ellipse 187" cx="4" cy="4" r="4" transform="translate(-7223 3299)" fill="#fff"/>
    </g>
    <g transform="translate(7371 -3223)">
      <circle id="Ellipse_187-25" data-name="Ellipse 187" cx="4" cy="4" r="4" transform="translate(-7223 3299)" fill="#fff"/>
    </g>
    <g transform="translate(7407 -3223)">
      <circle id="Ellipse_187-26" data-name="Ellipse 187" cx="4" cy="4" r="4" transform="translate(-7223 3299)" fill="#fff"/>
    </g>
    <g transform="translate(7443 -3223)">
      <circle id="Ellipse_187-27" data-name="Ellipse 187" cx="4" cy="4" r="4" transform="translate(-7223 3299)" fill="#fff"/>
    </g>
    <g transform="translate(7479 -3223)">
      <circle id="Ellipse_187-28" data-name="Ellipse 187" cx="4" cy="4" r="4" transform="translate(-7223 3299)" fill="#fff"/>
    </g>
    <g transform="translate(7515 -3223)">
      <circle id="Ellipse_187-29" data-name="Ellipse 187" cx="4" cy="4" r="4" transform="translate(-7223 3299)" fill="#fff"/>
    </g>
    <g transform="translate(7551 -3223)">
      <circle id="Ellipse_187-30" data-name="Ellipse 187" cx="4" cy="4" r="4" transform="translate(-7223 3299)" fill="#fff"/>
    </g>
    <g transform="translate(7227 -3187)">
      <circle id="Ellipse_187-31" data-name="Ellipse 187" cx="4" cy="4" r="4" transform="translate(-7223 3299)" fill="#fff"/>
    </g>
    <g transform="translate(7263 -3187)">
      <circle id="Ellipse_187-32" data-name="Ellipse 187" cx="4" cy="4" r="4" transform="translate(-7223 3299)" fill="#fff"/>
    </g>
    <g transform="translate(7299 -3187)">
      <circle id="Ellipse_187-33" data-name="Ellipse 187" cx="4" cy="4" r="4" transform="translate(-7223 3299)" fill="#fff"/>
    </g>
    <g transform="translate(7335 -3187)">
      <circle id="Ellipse_187-34" data-name="Ellipse 187" cx="4" cy="4" r="4" transform="translate(-7223 3299)" fill="#fff"/>
    </g>
    <g transform="translate(7371 -3187)">
      <circle id="Ellipse_187-35" data-name="Ellipse 187" cx="4" cy="4" r="4" transform="translate(-7223 3299)" fill="#fff"/>
    </g>
    <g transform="translate(7407 -3187)">
      <circle id="Ellipse_187-36" data-name="Ellipse 187" cx="4" cy="4" r="4" transform="translate(-7223 3299)" fill="#fff"/>
    </g>
    <g transform="translate(7443 -3187)">
      <circle id="Ellipse_187-37" data-name="Ellipse 187" cx="4" cy="4" r="4" transform="translate(-7223 3299)" fill="#fff"/>
    </g>
    <g transform="translate(7479 -3187)">
      <circle id="Ellipse_187-38" data-name="Ellipse 187" cx="4" cy="4" r="4" transform="translate(-7223 3299)" fill="#fff"/>
    </g>
    <g transform="translate(7515 -3187)">
      <circle id="Ellipse_187-39" data-name="Ellipse 187" cx="4" cy="4" r="4" transform="translate(-7223 3299)" fill="#fff"/>
    </g>
    <g transform="translate(7551 -3187)">
      <circle id="Ellipse_187-40" data-name="Ellipse 187" cx="4" cy="4" r="4" transform="translate(-7223 3299)" fill="#fff"/>
    </g>
    <g transform="translate(7227 -3151)">
      <circle id="Ellipse_187-41" data-name="Ellipse 187" cx="4" cy="4" r="4" transform="translate(-7223 3299)" fill="#fff"/>
    </g>
    <g transform="translate(7263 -3151)">
      <circle id="Ellipse_187-42" data-name="Ellipse 187" cx="4" cy="4" r="4" transform="translate(-7223 3299)" fill="#fff"/>
    </g>
    <g transform="translate(7299 -3151)">
      <circle id="Ellipse_187-43" data-name="Ellipse 187" cx="4" cy="4" r="4" transform="translate(-7223 3299)" fill="#fff"/>
    </g>
    <g transform="translate(7335 -3151)">
      <circle id="Ellipse_187-44" data-name="Ellipse 187" cx="4" cy="4" r="4" transform="translate(-7223 3299)" fill="#fff"/>
    </g>
    <g transform="translate(7371 -3151)">
      <circle id="Ellipse_187-45" data-name="Ellipse 187" cx="4" cy="4" r="4" transform="translate(-7223 3299)" fill="#fff"/>
    </g>
    <g transform="translate(7407 -3151)">
      <circle id="Ellipse_187-46" data-name="Ellipse 187" cx="4" cy="4" r="4" transform="translate(-7223 3299)" fill="#fff"/>
    </g>
    <g transform="translate(7443 -3151)">
      <circle id="Ellipse_187-47" data-name="Ellipse 187" cx="4" cy="4" r="4" transform="translate(-7223 3299)" fill="#fff"/>
    </g>
    <g transform="translate(7479 -3151)">
      <circle id="Ellipse_187-48" data-name="Ellipse 187" cx="4" cy="4" r="4" transform="translate(-7223 3299)" fill="#fff"/>
    </g>
    <g transform="translate(7515 -3151)">
      <circle id="Ellipse_187-49" data-name="Ellipse 187" cx="4" cy="4" r="4" transform="translate(-7223 3299)" fill="#fff"/>
    </g>
    <g transform="translate(7551 -3151)">
      <circle id="Ellipse_187-50" data-name="Ellipse 187" cx="4" cy="4" r="4" transform="translate(-7223 3299)" fill="#fff"/>
    </g>
    <g transform="translate(7227 -3115)">
      <circle id="Ellipse_187-51" data-name="Ellipse 187" cx="4" cy="4" r="4" transform="translate(-7223 3299)" fill="#fff"/>
    </g>
    <g transform="translate(7263 -3115)">
      <circle id="Ellipse_187-52" data-name="Ellipse 187" cx="4" cy="4" r="4" transform="translate(-7223 3299)" fill="#fff"/>
    </g>
    <g transform="translate(7299 -3115)">
      <circle id="Ellipse_187-53" data-name="Ellipse 187" cx="4" cy="4" r="4" transform="translate(-7223 3299)" fill="#fff"/>
    </g>
    <g transform="translate(7335 -3115)">
      <circle id="Ellipse_187-54" data-name="Ellipse 187" cx="4" cy="4" r="4" transform="translate(-7223 3299)" fill="#fff"/>
    </g>
    <g transform="translate(7371 -3115)">
      <circle id="Ellipse_187-55" data-name="Ellipse 187" cx="4" cy="4" r="4" transform="translate(-7223 3299)" fill="#fff"/>
    </g>
    <g transform="translate(7407 -3115)">
      <circle id="Ellipse_187-56" data-name="Ellipse 187" cx="4" cy="4" r="4" transform="translate(-7223 3299)" fill="#fff"/>
    </g>
    <g transform="translate(7443 -3115)">
      <circle id="Ellipse_187-57" data-name="Ellipse 187" cx="4" cy="4" r="4" transform="translate(-7223 3299)" fill="#fff"/>
    </g>
    <g transform="translate(7479 -3115)">
      <circle id="Ellipse_187-58" data-name="Ellipse 187" cx="4" cy="4" r="4" transform="translate(-7223 3299)" fill="#fff"/>
    </g>
    <g transform="translate(7515 -3115)">
      <circle id="Ellipse_187-59" data-name="Ellipse 187" cx="4" cy="4" r="4" transform="translate(-7223 3299)" fill="#fff"/>
    </g>
    <g transform="translate(7551 -3115)">
      <circle id="Ellipse_187-60" data-name="Ellipse 187" cx="4" cy="4" r="4" transform="translate(-7223 3299)" fill="#fff"/>
    </g>
    <g transform="translate(7227 -3079)">
      <circle id="Ellipse_187-61" data-name="Ellipse 187" cx="4" cy="4" r="4" transform="translate(-7223 3299)" fill="#fff"/>
    </g>
    <g transform="translate(7263 -3079)">
      <circle id="Ellipse_187-62" data-name="Ellipse 187" cx="4" cy="4" r="4" transform="translate(-7223 3299)" fill="#fff"/>
    </g>
    <g transform="translate(7299 -3079)">
      <circle id="Ellipse_187-63" data-name="Ellipse 187" cx="4" cy="4" r="4" transform="translate(-7223 3299)" fill="#fff"/>
    </g>
    <g transform="translate(7335 -3079)">
      <circle id="Ellipse_187-64" data-name="Ellipse 187" cx="4" cy="4" r="4" transform="translate(-7223 3299)" fill="#fff"/>
    </g>
    <g transform="translate(7371 -3079)">
      <circle id="Ellipse_187-65" data-name="Ellipse 187" cx="4" cy="4" r="4" transform="translate(-7223 3299)" fill="#fff"/>
    </g>
    <g transform="translate(7407 -3079)">
      <circle id="Ellipse_187-66" data-name="Ellipse 187" cx="4" cy="4" r="4" transform="translate(-7223 3299)" fill="#fff"/>
    </g>
    <g transform="translate(7443 -3079)">
      <circle id="Ellipse_187-67" data-name="Ellipse 187" cx="4" cy="4" r="4" transform="translate(-7223 3299)" fill="#fff"/>
    </g>
    <g transform="translate(7479 -3079)">
      <circle id="Ellipse_187-68" data-name="Ellipse 187" cx="4" cy="4" r="4" transform="translate(-7223 3299)" fill="#fff"/>
    </g>
    <g transform="translate(7515 -3079)">
      <circle id="Ellipse_187-69" data-name="Ellipse 187" cx="4" cy="4" r="4" transform="translate(-7223 3299)" fill="#fff"/>
    </g>
    <g transform="translate(7551 -3079)">
      <circle id="Ellipse_187-70" data-name="Ellipse 187" cx="4" cy="4" r="4" transform="translate(-7223 3299)" fill="#fff"/>
    </g>
    <g transform="translate(7227 -3043)">
      <circle id="Ellipse_187-71" data-name="Ellipse 187" cx="4" cy="4" r="4" transform="translate(-7223 3299)" fill="#fff"/>
    </g>
    <g transform="translate(7263 -3043)">
      <circle id="Ellipse_187-72" data-name="Ellipse 187" cx="4" cy="4" r="4" transform="translate(-7223 3299)" fill="#fff"/>
    </g>
    <g transform="translate(7299 -3043)">
      <circle id="Ellipse_187-73" data-name="Ellipse 187" cx="4" cy="4" r="4" transform="translate(-7223 3299)" fill="#fff"/>
    </g>
    <g transform="translate(7335 -3043)">
      <circle id="Ellipse_187-74" data-name="Ellipse 187" cx="4" cy="4" r="4" transform="translate(-7223 3299)" fill="#fff"/>
    </g>
    <g transform="translate(7371 -3043)">
      <circle id="Ellipse_187-75" data-name="Ellipse 187" cx="4" cy="4" r="4" transform="translate(-7223 3299)" fill="#fff"/>
    </g>
    <g transform="translate(7407 -3043)">
      <circle id="Ellipse_187-76" data-name="Ellipse 187" cx="4" cy="4" r="4" transform="translate(-7223 3299)" fill="#fff"/>
    </g>
    <g transform="translate(7443 -3043)">
      <circle id="Ellipse_187-77" data-name="Ellipse 187" cx="4" cy="4" r="4" transform="translate(-7223 3299)" fill="#fff"/>
    </g>
    <g transform="translate(7479 -3043)">
      <circle id="Ellipse_187-78" data-name="Ellipse 187" cx="4" cy="4" r="4" transform="translate(-7223 3299)" fill="#fff"/>
    </g>
    <g transform="translate(7515 -3043)">
      <circle id="Ellipse_187-79" data-name="Ellipse 187" cx="4" cy="4" r="4" transform="translate(-7223 3299)" fill="#fff"/>
    </g>
    <g transform="translate(7551 -3043)">
      <circle id="Ellipse_187-80" data-name="Ellipse 187" cx="4" cy="4" r="4" transform="translate(-7223 3299)" fill="#fff"/>
    </g>
    <g transform="translate(7227 -3007)">
      <circle id="Ellipse_187-81" data-name="Ellipse 187" cx="4" cy="4" r="4" transform="translate(-7223 3299)" fill="#fff"/>
    </g>
    <g transform="translate(7263 -3007)">
      <circle id="Ellipse_187-82" data-name="Ellipse 187" cx="4" cy="4" r="4" transform="translate(-7223 3299)" fill="#fff"/>
    </g>
    <g transform="translate(7299 -3007)">
      <circle id="Ellipse_187-83" data-name="Ellipse 187" cx="4" cy="4" r="4" transform="translate(-7223 3299)" fill="#fff"/>
    </g>
    <g transform="translate(7335 -3007)">
      <circle id="Ellipse_187-84" data-name="Ellipse 187" cx="4" cy="4" r="4" transform="translate(-7223 3299)" fill="#fff"/>
    </g>
    <g transform="translate(7371 -3007)">
      <circle id="Ellipse_187-85" data-name="Ellipse 187" cx="4" cy="4" r="4" transform="translate(-7223 3299)" fill="#fff"/>
    </g>
    <g transform="translate(7407 -3007)">
      <circle id="Ellipse_187-86" data-name="Ellipse 187" cx="4" cy="4" r="4" transform="translate(-7223 3299)" fill="#fff"/>
    </g>
    <g transform="translate(7443 -3007)">
      <circle id="Ellipse_187-87" data-name="Ellipse 187" cx="4" cy="4" r="4" transform="translate(-7223 3299)" fill="#fff"/>
    </g>
    <g transform="translate(7479 -3007)">
      <circle id="Ellipse_187-88" data-name="Ellipse 187" cx="4" cy="4" r="4" transform="translate(-7223 3299)" fill="#fff"/>
    </g>
    <g transform="translate(7515 -3007)">
      <circle id="Ellipse_187-89" data-name="Ellipse 187" cx="4" cy="4" r="4" transform="translate(-7223 3299)" fill="#fff"/>
    </g>
    <g transform="translate(7551 -3007)">
      <circle id="Ellipse_187-90" data-name="Ellipse 187" cx="4" cy="4" r="4" transform="translate(-7223 3299)" fill="#fff"/>
    </g>
  </g>
</svg>
