<svg xmlns="http://www.w3.org/2000/svg" width="22" height="22" viewBox="0 0 22 22">
  <g id="noun_edit_3550094" transform="translate(-19.145 -19)">
    <circle id="Ellipse_726" data-name="Ellipse 726" cx="1" cy="1" r="1" transform="translate(19.145 39)" fill="#fff"/>
    <circle id="Ellipse_727" data-name="Ellipse 727" cx="1" cy="1" r="1" transform="translate(25.145 39)" fill="#fff"/>
    <circle id="Ellipse_728" data-name="Ellipse 728" cx="1" cy="1" r="1" transform="translate(30.145 39)" fill="#fff"/>
    <circle id="Ellipse_729" data-name="Ellipse 729" cx="1" cy="1" r="1" transform="translate(36.145 39)" fill="#fff"/>
    <circle id="Ellipse_730" data-name="Ellipse 730" cx="1" cy="1" r="1" transform="translate(36.145 33)" fill="#fff"/>
    <circle id="Ellipse_731" data-name="Ellipse 731" cx="1" cy="1" r="1" transform="translate(19.145 33)" fill="#fff"/>
    <circle id="Ellipse_732" data-name="Ellipse 732" cx="1" cy="1" r="1" transform="translate(19.145 27)" fill="#fff"/>
    <circle id="Ellipse_733" data-name="Ellipse 733" cx="1" cy="1" r="1" transform="translate(19.145 22)" fill="#fff"/>
    <circle id="Ellipse_734" data-name="Ellipse 734" cx="1" cy="1" r="1" transform="translate(25.145 22)" fill="#fff"/>
    <path id="Path_9057" data-name="Path 9057" d="M46.072,19h-.443l-8.64,8.64A6.74,6.74,0,0,0,35,32.44v2.99h2.99a6.74,6.74,0,0,0,4.8-1.989L51.43,24.8v-.443A5.358,5.358,0,0,0,46.072,19Zm-4.8,12.926a4.615,4.615,0,0,1-3.286,1.361h-.846V32.44A4.615,4.615,0,0,1,38.5,29.158l7.986-7.986a3.215,3.215,0,0,1,2.772,2.772Z" transform="translate(-10.285)" fill="#fff"/>
  </g>
</svg>
