<svg xmlns="http://www.w3.org/2000/svg" width="218.715" height="63.684" viewBox="0 0 218.715 63.684">
  <g id="Group_19106" data-name="Group 19106" transform="translate(-29.012 -117.059)">
    <g id="Group_17878" data-name="Group 17878" transform="translate(29.012 117.059)">
      <path id="Path_3468" data-name="Path 3468" d="M64.6,167.107H75.757L58.48,140.951,29.012,185.582H40.025l9.969-15.115,4.735-7.082,3.751-5.646,1.25,1.926,2.814,4.261Z" transform="translate(-29.012 -126.98)" fill="#404041"/>
      <path id="Path_3469" data-name="Path 3469" d="M133.934,125.71,106.52,167.166l-2.556-3.87H92.794l13.612,21.038,38.515-58.625Z" transform="translate(-55.497 -120.651)" fill="#26a69a"/>
      <path id="Path_3470" data-name="Path 3470" d="M168.689,117.059l4.069,12.144-20.844-10.011Z" transform="translate(-80.046 -117.059)" fill="#26a69a"/>
    </g>
    <g id="Group_17879" data-name="Group 17879" transform="translate(137.162 133.295)">
      <path id="Path_3471" data-name="Path 3471" d="M213.96,146.99h5.609l7.212,20.36,7.316-20.36h5.6l-10.327,28.661h-5.261Z" transform="translate(-213.96 -145.723)" fill="#26a69a"/>
      <path id="Path_3472" data-name="Path 3472" d="M265.605,144.824a3.25,3.25,0,0,1,2.4,1.013,3.363,3.363,0,0,1,1,2.455,3.323,3.323,0,0,1-.991,2.425,3.213,3.213,0,0,1-2.371,1,3.259,3.259,0,0,1-2.419-1.023,3.421,3.421,0,0,1-1-2.484,3.387,3.387,0,0,1,3.38-3.39Zm-2.659,8.729h5.319v21.2h-5.319Z" transform="translate(-234.001 -144.824)" fill="#26a69a"/>
      <path id="Path_3473" data-name="Path 3473" d="M292.6,162.325l-3.293,3.293q-2.008-1.987-3.644-1.988a2.287,2.287,0,0,0-1.4.38,1.141,1.141,0,0,0-.507.944,1.161,1.161,0,0,0,.322.789,5.982,5.982,0,0,0,1.588.984l1.948.975a11.481,11.481,0,0,1,4.228,3.1,6.453,6.453,0,0,1-.926,8.418,7.947,7.947,0,0,1-5.563,1.889,8.841,8.841,0,0,1-7.4-3.624l3.273-3.565a7.561,7.561,0,0,0,2.192,1.762,4.841,4.841,0,0,0,2.231.672,2.656,2.656,0,0,0,1.7-.507,1.467,1.467,0,0,0,.643-1.168q0-1.228-2.319-2.4l-1.792-.9q-5.143-2.59-5.143-6.488a5.627,5.627,0,0,1,1.938-4.3,7.037,7.037,0,0,1,4.959-1.782,8.6,8.6,0,0,1,6.976,3.506Z" transform="translate(-240.532 -150.635)" fill="#26a69a"/>
      <path id="Path_3474" data-name="Path 3474" d="M311.986,144.824a3.25,3.25,0,0,1,2.4,1.013,3.363,3.363,0,0,1,1,2.455,3.323,3.323,0,0,1-.991,2.425,3.211,3.211,0,0,1-2.37,1,3.26,3.26,0,0,1-2.419-1.023,3.421,3.421,0,0,1-1-2.484,3.387,3.387,0,0,1,3.38-3.39Zm-2.659,8.729h5.319v21.2h-5.319Z" transform="translate(-253.261 -144.824)" fill="#26a69a"/>
      <path id="Path_3475" data-name="Path 3475" d="M336.422,158.819a11.241,11.241,0,0,1,5.641,1.5,11,11,0,0,1,5.6,9.626,11.135,11.135,0,0,1-1.49,5.611,10.76,10.76,0,0,1-4.062,4.082,11.22,11.22,0,0,1-5.67,1.471,10.573,10.573,0,0,1-7.784-3.244,11.237,11.237,0,0,1,.419-16.163A10.642,10.642,0,0,1,336.422,158.819Zm.088,5.007a5.474,5.474,0,0,0-4.128,1.724,6.12,6.12,0,0,0-1.649,4.413,6.233,6.233,0,0,0,1.63,4.482,5.449,5.449,0,0,0,4.128,1.715,5.509,5.509,0,0,0,4.157-1.734,6.836,6.836,0,0,0,.029-8.894A5.513,5.513,0,0,0,336.51,163.826Z" transform="translate(-260.248 -150.635)" fill="#26a69a"/>
      <path id="Path_3476" data-name="Path 3476" d="M370.882,159.365H376.2v2.172a12.743,12.743,0,0,1,3.279-2.122,7.921,7.921,0,0,1,3.006-.6,7.277,7.277,0,0,1,5.35,2.2,7.556,7.556,0,0,1,1.848,5.533v14.01h-5.26V171.28a23.473,23.473,0,0,0-.341-5.041,3.449,3.449,0,0,0-1.185-1.9,3.32,3.32,0,0,0-2.089-.652,3.915,3.915,0,0,0-2.77,1.08,5.774,5.774,0,0,0-1.6,2.988,24.149,24.149,0,0,0-.233,4.3v8.505h-5.319Z" transform="translate(-279.12 -150.635)" fill="#26a69a"/>
    </g>
  </g>
</svg>
