<svg xmlns="http://www.w3.org/2000/svg" xmlns:xlink="http://www.w3.org/1999/xlink" width="1316" height="264" viewBox="0 0 1316 264">
  <defs>
    <clipPath id="clip-path">
      <rect id="Rectangle_8460" data-name="Rectangle 8460" width="1316" height="264" transform="translate(664 120)" fill="#fff" stroke="#707070" stroke-width="1"/>
    </clipPath>
  </defs>
  <g id="Mask_Group_197" data-name="Mask Group 197" transform="translate(-664 -120)" clip-path="url(#clip-path)">
    <g id="Group_19186" data-name="Group 19186">
      <g id="Group_18218" data-name="Group 18218" transform="translate(925.751 256.451)" opacity="0.35">
        <g id="Group_18161" data-name="Group 18161">
          <path id="Path_8530" data-name="Path 8530" d="M301.627,747.017c-.343,0-.62-.149-.62-.333v-2.666c0-.183.277-.332.62-.332s.618.149.618.332v2.666C302.245,746.868,301.968,747.017,301.627,747.017Z" transform="translate(-301.007 -743.686)" fill="#fff"/>
        </g>
        <g id="Group_18162" data-name="Group 18162" transform="translate(0 10.688)">
          <path id="Path_8531" data-name="Path 8531" d="M301.627,879.727c-.343,0-.62-.15-.62-.333v-5.347c0-.184.277-.333.62-.333s.618.149.618.333v5.347C302.245,879.577,301.968,879.727,301.627,879.727Zm0-13.37c-.343,0-.62-.15-.62-.333v-5.348c0-.184.277-.333.62-.333s.618.149.618.333v5.348C302.245,866.207,301.968,866.357,301.627,866.357Zm0-13.371c-.343,0-.62-.15-.62-.333V847.3c0-.184.277-.333.62-.333s.618.149.618.333v5.349C302.245,852.836,301.968,852.986,301.627,852.986Zm0-13.371c-.343,0-.62-.15-.62-.334v-5.348c0-.183.277-.332.62-.332s.618.149.618.332v5.348C302.245,839.465,301.968,839.615,301.627,839.615Zm0-13.371c-.343,0-.62-.15-.62-.333v-5.349c0-.183.277-.333.62-.333s.618.15.618.333v5.349C302.245,826.094,301.968,826.244,301.627,826.244Zm0-13.371c-.343,0-.62-.149-.62-.333v-5.348c0-.183.277-.333.62-.333s.618.15.618.333v5.348C302.245,812.724,301.968,812.873,301.627,812.873Zm0-13.371c-.343,0-.62-.149-.62-.332v-5.35c0-.183.277-.333.62-.333s.618.15.618.333v5.35C302.245,799.353,301.968,799.5,301.627,799.5Zm0-13.371c-.343,0-.62-.15-.62-.333V780.45c0-.183.277-.334.62-.334s.618.151.618.334V785.8C302.245,785.981,301.968,786.131,301.627,786.131Zm0-13.371c-.343,0-.62-.149-.62-.333v-5.348c0-.183.277-.333.62-.333s.618.15.618.333v5.348C302.245,772.611,301.968,772.76,301.627,772.76Zm0-13.371c-.343,0-.62-.149-.62-.333v-5.348c0-.184.277-.333.62-.333s.618.149.618.333v5.348C302.245,759.24,301.968,759.389,301.627,759.389Z" transform="translate(-301.007 -753.375)" fill="#fff"/>
        </g>
        <g id="Group_18163" data-name="Group 18163" transform="translate(0 144.397)">
          <path id="Path_8532" data-name="Path 8532" d="M301.627,877.915c-.343,0-.62-.149-.62-.332v-2.666c0-.183.277-.333.62-.333s.618.15.618.333v2.666C302.245,877.766,301.968,877.915,301.627,877.915Z" transform="translate(-301.007 -874.584)" fill="#fff"/>
        </g>
      </g>
      <g id="Group_18219" data-name="Group 18219" transform="translate(856.002 295.451)" opacity="0.35">
        <g id="Group_18161-2" data-name="Group 18161">
          <path id="Path_8530-2" data-name="Path 8530" d="M301.627,747.017c-.343,0-.62-.149-.62-.333v-2.666c0-.183.277-.332.62-.332s.618.149.618.332v2.666C302.245,746.868,301.968,747.017,301.627,747.017Z" transform="translate(-301.007 -743.686)" fill="#fff"/>
        </g>
        <g id="Group_18162-2" data-name="Group 18162" transform="translate(0 10.688)">
          <path id="Path_8531-2" data-name="Path 8531" d="M301.627,879.727c-.343,0-.62-.15-.62-.333v-5.347c0-.184.277-.333.62-.333s.618.149.618.333v5.347C302.245,879.577,301.968,879.727,301.627,879.727Zm0-13.37c-.343,0-.62-.15-.62-.333v-5.348c0-.184.277-.333.62-.333s.618.149.618.333v5.348C302.245,866.207,301.968,866.357,301.627,866.357Zm0-13.371c-.343,0-.62-.15-.62-.333V847.3c0-.184.277-.333.62-.333s.618.149.618.333v5.349C302.245,852.836,301.968,852.986,301.627,852.986Zm0-13.371c-.343,0-.62-.15-.62-.334v-5.348c0-.183.277-.332.62-.332s.618.149.618.332v5.348C302.245,839.465,301.968,839.615,301.627,839.615Zm0-13.371c-.343,0-.62-.15-.62-.333v-5.349c0-.183.277-.333.62-.333s.618.15.618.333v5.349C302.245,826.094,301.968,826.244,301.627,826.244Zm0-13.371c-.343,0-.62-.149-.62-.333v-5.348c0-.183.277-.333.62-.333s.618.15.618.333v5.348C302.245,812.724,301.968,812.873,301.627,812.873Zm0-13.371c-.343,0-.62-.149-.62-.332v-5.35c0-.183.277-.333.62-.333s.618.15.618.333v5.35C302.245,799.353,301.968,799.5,301.627,799.5Zm0-13.371c-.343,0-.62-.15-.62-.333V780.45c0-.183.277-.334.62-.334s.618.151.618.334V785.8C302.245,785.981,301.968,786.131,301.627,786.131Zm0-13.371c-.343,0-.62-.149-.62-.333v-5.348c0-.183.277-.333.62-.333s.618.15.618.333v5.348C302.245,772.611,301.968,772.76,301.627,772.76Zm0-13.371c-.343,0-.62-.149-.62-.333v-5.348c0-.184.277-.333.62-.333s.618.149.618.333v5.348C302.245,759.24,301.968,759.389,301.627,759.389Z" transform="translate(-301.007 -753.375)" fill="#fff"/>
        </g>
        <g id="Group_18220" data-name="Group 18220" transform="translate(-77 -3.312)">
          <path id="Path_8531-3" data-name="Path 8531" d="M301.627,879.727c-.343,0-.62-.15-.62-.333v-5.347c0-.184.277-.333.62-.333s.618.149.618.333v5.347C302.245,879.577,301.968,879.727,301.627,879.727Zm0-13.37c-.343,0-.62-.15-.62-.333v-5.348c0-.184.277-.333.62-.333s.618.149.618.333v5.348C302.245,866.207,301.968,866.357,301.627,866.357Zm0-13.371c-.343,0-.62-.15-.62-.333V847.3c0-.184.277-.333.62-.333s.618.149.618.333v5.349C302.245,852.836,301.968,852.986,301.627,852.986Zm0-13.371c-.343,0-.62-.15-.62-.334v-5.348c0-.183.277-.332.62-.332s.618.149.618.332v5.348C302.245,839.465,301.968,839.615,301.627,839.615Zm0-13.371c-.343,0-.62-.15-.62-.333v-5.349c0-.183.277-.333.62-.333s.618.15.618.333v5.349C302.245,826.094,301.968,826.244,301.627,826.244Zm0-13.371c-.343,0-.62-.149-.62-.333v-5.348c0-.183.277-.333.62-.333s.618.15.618.333v5.348C302.245,812.724,301.968,812.873,301.627,812.873Zm0-13.371c-.343,0-.62-.149-.62-.332v-5.35c0-.183.277-.333.62-.333s.618.15.618.333v5.35C302.245,799.353,301.968,799.5,301.627,799.5Zm0-13.371c-.343,0-.62-.15-.62-.333V780.45c0-.183.277-.334.62-.334s.618.151.618.334V785.8C302.245,785.981,301.968,786.131,301.627,786.131Zm0-13.371c-.343,0-.62-.149-.62-.333v-5.348c0-.183.277-.333.62-.333s.618.15.618.333v5.348C302.245,772.611,301.968,772.76,301.627,772.76Zm0-13.371c-.343,0-.62-.149-.62-.333v-5.348c0-.184.277-.333.62-.333s.618.149.618.333v5.348C302.245,759.24,301.968,759.389,301.627,759.389Z" transform="translate(-301.007 -753.375)" fill="#fff"/>
        </g>
        <g id="Group_18163-2" data-name="Group 18163" transform="translate(0 144.397)">
          <path id="Path_8532-2" data-name="Path 8532" d="M301.627,877.915c-.343,0-.62-.149-.62-.332v-2.666c0-.183.277-.333.62-.333s.618.15.618.333v2.666C302.245,877.766,301.968,877.915,301.627,877.915Z" transform="translate(-301.007 -874.584)" fill="#fff"/>
        </g>
      </g>
      <g id="Group_18207" data-name="Group 18207" transform="translate(24343.275 22621.881)">
        <path id="Path_8527" data-name="Path 8527" d="M796.287,745.986l119.3,40.489Z" transform="translate(-23537.707 -23182.4)" fill="#26a69a"/>
        <path id="Path_8528" data-name="Path 8528" d="M240.643,835a1.238,1.238,0,0,1-1.11-.693,1.254,1.254,0,0,1,.558-1.675l126.75-63.46a1.121,1.121,0,0,1,.643-.124l105.6,7.89,92.939-2.322,108.436-55.142a1.232,1.232,0,0,1,1.048-.031l93.656,40.487,80.139-12.213a1.272,1.272,0,0,1,.583.054l119.061,40.611a1.328,1.328,0,0,1,.306.153l54.257,37.582a1.255,1.255,0,0,1,.323,1.737,1.225,1.225,0,0,1-1.722.32L968,790.695,849.382,750.237l-80.193,12.219a1.266,1.266,0,0,1-.674-.089l-93.45-40.4L566.894,776.975a1.217,1.217,0,0,1-.525.134l-93.342,2.326-105.388-7.867L241.193,834.875A1.221,1.221,0,0,1,240.643,835Z" transform="translate(-23590.68 -23185.494)" fill="#fff"/>
        <g id="Group_18189" data-name="Group 18189" transform="translate(-23223.908 -22465.525)">
          <g id="Group_18164" data-name="Group 18164" transform="translate(0 43.132)" opacity="0.35">
            <g id="Group_18161-3" data-name="Group 18161">
              <path id="Path_8530-3" data-name="Path 8530" d="M301.627,747.878c-.343,0-.62-.187-.62-.419V744.1c0-.231.277-.418.62-.418s.618.187.618.418v3.355C302.245,747.691,301.968,747.878,301.627,747.878Z" transform="translate(-301.007 -743.686)" fill="#fff"/>
            </g>
            <g id="Group_18162-3" data-name="Group 18162" transform="translate(0 13.45)">
              <path id="Path_8531-4" data-name="Path 8531" d="M301.627,912.38c-.343,0-.62-.189-.62-.419v-6.729c0-.232.277-.419.62-.419s.618.188.618.419v6.729C302.245,912.192,301.968,912.38,301.627,912.38Zm0-16.825c-.343,0-.62-.189-.62-.419v-6.73c0-.232.277-.419.62-.419s.618.188.618.419v6.73C302.245,895.367,301.968,895.555,301.627,895.555Zm0-16.826c-.343,0-.62-.189-.62-.419v-6.732c0-.232.277-.419.62-.419s.618.187.618.419v6.732C302.245,878.54,301.968,878.729,301.627,878.729Zm0-16.827c-.343,0-.62-.189-.62-.421v-6.73c0-.23.277-.418.62-.418s.618.187.618.418v6.73C302.245,861.714,301.968,861.9,301.627,861.9Zm0-16.826c-.343,0-.62-.189-.62-.419v-6.731c0-.23.277-.419.62-.419s.618.189.618.419v6.731C302.245,844.887,301.968,845.076,301.627,845.076Zm0-16.827c-.343,0-.62-.187-.62-.419V821.1c0-.23.277-.419.62-.419s.618.189.618.419v6.73C302.245,828.062,301.968,828.249,301.627,828.249Zm0-16.826c-.343,0-.62-.187-.62-.418v-6.733c0-.23.277-.419.62-.419s.618.189.618.419v6.733C302.245,811.236,301.968,811.423,301.627,811.423Zm0-16.826c-.343,0-.62-.189-.62-.419v-6.73c0-.231.277-.421.62-.421s.618.19.618.421v6.73C302.245,794.408,301.968,794.6,301.627,794.6Zm0-16.827c-.343,0-.62-.187-.62-.419v-6.73c0-.23.277-.419.62-.419s.618.189.618.419v6.73C302.245,777.583,301.968,777.77,301.627,777.77Zm0-16.826c-.343,0-.62-.187-.62-.419v-6.73c0-.232.277-.419.62-.419s.618.187.618.419v6.73C302.245,760.756,301.968,760.943,301.627,760.943Z" transform="translate(-301.007 -753.375)" fill="#fff"/>
            </g>
            <g id="Group_18163-3" data-name="Group 18163" transform="translate(0 181.714)">
              <path id="Path_8532-3" data-name="Path 8532" d="M301.627,878.776c-.343,0-.62-.187-.62-.418V875c0-.23.277-.419.62-.419s.618.189.618.419v3.355C302.245,878.589,301.968,878.776,301.627,878.776Z" transform="translate(-301.007 -874.584)" fill="#fff"/>
            </g>
          </g>
          <g id="Group_18217" data-name="Group 18217" transform="translate(-128 105.31)" opacity="0.35">
            <g id="Group_18161-4" data-name="Group 18161">
              <path id="Path_8530-4" data-name="Path 8530" d="M301.627,747.017c-.343,0-.62-.149-.62-.333v-2.666c0-.183.277-.332.62-.332s.618.149.618.332v2.666C302.245,746.868,301.968,747.017,301.627,747.017Z" transform="translate(-301.007 -743.686)" fill="#fff"/>
            </g>
            <g id="Group_18162-4" data-name="Group 18162" transform="translate(0 10.688)">
              <path id="Path_8531-5" data-name="Path 8531" d="M301.627,879.727c-.343,0-.62-.15-.62-.333v-5.347c0-.184.277-.333.62-.333s.618.149.618.333v5.347C302.245,879.577,301.968,879.727,301.627,879.727Zm0-13.37c-.343,0-.62-.15-.62-.333v-5.348c0-.184.277-.333.62-.333s.618.149.618.333v5.348C302.245,866.207,301.968,866.357,301.627,866.357Zm0-13.371c-.343,0-.62-.15-.62-.333V847.3c0-.184.277-.333.62-.333s.618.149.618.333v5.349C302.245,852.836,301.968,852.986,301.627,852.986Zm0-13.371c-.343,0-.62-.15-.62-.334v-5.348c0-.183.277-.332.62-.332s.618.149.618.332v5.348C302.245,839.465,301.968,839.615,301.627,839.615Zm0-13.371c-.343,0-.62-.15-.62-.333v-5.349c0-.183.277-.333.62-.333s.618.15.618.333v5.349C302.245,826.094,301.968,826.244,301.627,826.244Zm0-13.371c-.343,0-.62-.149-.62-.333v-5.348c0-.183.277-.333.62-.333s.618.15.618.333v5.348C302.245,812.724,301.968,812.873,301.627,812.873Zm0-13.371c-.343,0-.62-.149-.62-.332v-5.35c0-.183.277-.333.62-.333s.618.15.618.333v5.35C302.245,799.353,301.968,799.5,301.627,799.5Zm0-13.371c-.343,0-.62-.15-.62-.333V780.45c0-.183.277-.334.62-.334s.618.151.618.334V785.8C302.245,785.981,301.968,786.131,301.627,786.131Zm0-13.371c-.343,0-.62-.149-.62-.333v-5.348c0-.183.277-.333.62-.333s.618.15.618.333v5.348C302.245,772.611,301.968,772.76,301.627,772.76Zm0-13.371c-.343,0-.62-.149-.62-.333v-5.348c0-.184.277-.333.62-.333s.618.149.618.333v5.348C302.245,759.24,301.968,759.389,301.627,759.389Z" transform="translate(-301.007 -753.375)" fill="#fff"/>
            </g>
            <g id="Group_18163-4" data-name="Group 18163" transform="translate(0 144.397)">
              <path id="Path_8532-4" data-name="Path 8532" d="M301.627,877.915c-.343,0-.62-.149-.62-.332v-2.666c0-.183.277-.333.62-.333s.618.15.618.333v2.666C302.245,877.766,301.968,877.915,301.627,877.915Z" transform="translate(-301.007 -874.584)" fill="#fff"/>
            </g>
          </g>
          <g id="Group_18168" data-name="Group 18168" transform="translate(105.605 40.39)">
            <g id="Group_18165" data-name="Group 18165">
              <path id="Path_8533" data-name="Path 8533" d="M352.7,751.881c-.343,0-.62-.194-.62-.437v-3.5c0-.241.277-.438.62-.438s.618.2.618.438v3.5C353.322,751.687,353.045,751.881,352.7,751.881Z" transform="translate(-352.084 -747.502)" fill="#cfccff"/>
            </g>
            <g id="Group_18166" data-name="Group 18166" transform="translate(0 13.737)" opacity="0.35">
              <path id="Path_8534" data-name="Path 8534" d="M352.7,918.153c-.343,0-.62-.2-.62-.439v-6.821c0-.241.277-.438.62-.438s.618.2.618.438v6.821C353.322,917.955,353.045,918.153,352.7,918.153Zm0-17.055c-.343,0-.62-.2-.62-.438v-6.821c0-.241.277-.437.62-.437s.618.2.618.437v6.821C353.322,900.9,353.045,901.1,352.7,901.1Zm0-17.052c-.343,0-.62-.2-.62-.438v-6.822c0-.239.277-.436.62-.436s.618.2.618.436v6.822C353.322,883.85,353.045,884.046,352.7,884.046Zm0-17.053c-.343,0-.62-.2-.62-.438v-6.821c0-.241.277-.438.62-.438s.618.2.618.438v6.821C353.322,866.8,353.045,866.992,352.7,866.992Zm0-17.053c-.343,0-.62-.2-.62-.438v-6.822c0-.241.277-.438.62-.438s.618.2.618.438V849.5C353.322,849.741,353.045,849.939,352.7,849.939Zm0-17.053c-.343,0-.62-.2-.62-.438v-6.822c0-.241.277-.437.62-.437s.618.2.618.437v6.822C353.322,832.688,353.045,832.885,352.7,832.885Zm0-17.054c-.343,0-.62-.2-.62-.436v-6.822c0-.241.277-.438.62-.438s.618.2.618.438V815.4C353.322,815.636,353.045,815.832,352.7,815.832Zm0-17.053c-.343,0-.62-.2-.62-.438v-6.821c0-.242.277-.438.62-.438s.618.2.618.438v6.821C353.322,798.581,353.045,798.778,352.7,798.778Zm0-17.054c-.343,0-.62-.2-.62-.438v-6.821c0-.241.277-.439.62-.439s.618.2.618.439v6.821C353.322,781.528,353.045,781.725,352.7,781.725Zm0-17.054c-.343,0-.62-.2-.62-.438v-6.821c0-.242.277-.436.62-.436s.618.194.618.436v6.821C353.322,764.474,353.045,764.671,352.7,764.671Z" transform="translate(-352.084 -756.976)" fill="#fff" stroke="rgba(0,0,0,0)" stroke-width="1"/>
            </g>
            <g id="Group_18167" data-name="Group 18167" transform="translate(0 184.269)">
              <path id="Path_8535" data-name="Path 8535" d="M352.7,878.963c-.343,0-.62-.2-.62-.436v-3.5c0-.241.277-.438.62-.438s.618.2.618.438v3.5C353.322,878.767,353.045,878.963,352.7,878.963Z" transform="translate(-352.084 -874.584)" fill="#cfccff"/>
            </g>
          </g>
          <g id="Group_18172" data-name="Group 18172" transform="translate(198.945 38.759)" opacity="0.35">
            <g id="Group_18169" data-name="Group 18169">
              <path id="Path_8536" data-name="Path 8536" d="M397.847,750.756c-.341,0-.618-.194-.618-.437v-3.5c0-.241.277-.438.618-.438s.62.2.62.438v3.5C398.467,750.562,398.19,750.756,397.847,750.756Z" transform="translate(-397.229 -746.377)" fill="#fff" stroke="rgba(0,0,0,0)" stroke-width="1"/>
            </g>
            <g id="Group_18170" data-name="Group 18170" transform="translate(0 13.829)">
              <path id="Path_8537" data-name="Path 8537" d="M397.847,918.536c-.341,0-.618-.2-.618-.437v-6.882c0-.242.277-.439.618-.439s.62.2.62.439V918.1C398.467,918.34,398.19,918.536,397.847,918.536Zm0-17.207c-.341,0-.618-.2-.618-.438v-6.882c0-.242.277-.438.618-.438s.62.2.62.438v6.882C398.467,901.133,398.19,901.329,397.847,901.329Zm0-17.206c-.341,0-.618-.2-.618-.438V876.8c0-.241.277-.438.618-.438s.62.2.62.438v6.883C398.467,883.926,398.19,884.123,397.847,884.123Zm0-17.207c-.341,0-.618-.2-.618-.438v-6.883c0-.241.277-.438.618-.438s.62.2.62.438v6.883C398.467,866.719,398.19,866.916,397.847,866.916Zm0-17.207c-.341,0-.618-.2-.618-.438v-6.882c0-.242.277-.439.618-.439s.62.2.62.439v6.882C398.467,849.512,398.19,849.709,397.847,849.709Zm0-17.207c-.341,0-.618-.2-.618-.438v-6.882c0-.242.277-.439.618-.439s.62.2.62.439v6.882C398.467,832.3,398.19,832.5,397.847,832.5Zm0-17.207c-.341,0-.618-.2-.618-.438v-6.883c0-.241.277-.438.618-.438s.62.2.62.438v6.883C398.467,815.1,398.19,815.294,397.847,815.294Zm0-17.207c-.341,0-.618-.2-.618-.439v-6.882c0-.241.277-.438.618-.438s.62.2.62.438v6.882C398.467,797.89,398.19,798.087,397.847,798.087Zm0-17.207c-.341,0-.618-.2-.618-.438v-6.883c0-.241.277-.438.618-.438s.62.2.62.438v6.883C398.467,780.684,398.19,780.88,397.847,780.88Zm0-17.207c-.341,0-.618-.2-.618-.439v-6.882c0-.242.277-.438.618-.438s.62.2.62.438v6.882C398.467,763.477,398.19,763.673,397.847,763.673Z" transform="translate(-397.229 -755.914)" fill="#fff" stroke="rgba(0,0,0,0)" stroke-width="1"/>
            </g>
            <g id="Group_18171" data-name="Group 18171" transform="translate(0 185.901)">
              <path id="Path_8538" data-name="Path 8538" d="M397.847,878.963c-.341,0-.618-.2-.618-.436v-3.5c0-.241.277-.438.618-.438s.62.2.62.438v3.5C398.467,878.767,398.19,878.963,397.847,878.963Z" transform="translate(-397.229 -874.584)" fill="#fff" stroke="rgba(0,0,0,0)" stroke-width="1"/>
            </g>
          </g>
          <g id="Group_18176" data-name="Group 18176" transform="translate(307.631)">
            <g id="Group_18173" data-name="Group 18173">
              <path id="Path_8539" data-name="Path 8539" d="M450.416,724.026c-.341,0-.62-.2-.62-.439v-3.5c0-.242.279-.436.62-.436s.618.194.618.436v3.5C451.034,723.83,450.757,724.026,450.416,724.026Z" transform="translate(-449.796 -719.647)" fill="#cfccff"/>
            </g>
            <g id="Group_18174" data-name="Group 18174" transform="translate(0 14.033)" opacity="0.22">
              <path id="Path_8540" data-name="Path 8540" d="M450.416,930.3c-.341,0-.62-.2-.62-.438v-7.022c0-.241.279-.438.62-.438s.618.2.618.438v7.022C451.034,930.1,450.757,930.3,450.416,930.3Zm0-17.554c-.341,0-.62-.2-.62-.436v-7.019c0-.241.279-.438.62-.438s.618.2.618.438v7.019C451.034,912.546,450.757,912.742,450.416,912.742Zm0-17.549c-.341,0-.62-.2-.62-.439v-7.021c0-.241.279-.436.62-.436s.618.2.618.436v7.021C451.034,895,450.757,895.192,450.416,895.192Zm0-17.554c-.341,0-.62-.2-.62-.437V870.18c0-.241.279-.438.62-.438s.618.2.618.438V877.2C451.034,877.443,450.757,877.639,450.416,877.639Zm0-17.552c-.341,0-.62-.2-.62-.438v-7.019c0-.242.279-.438.62-.438s.618.2.618.438v7.019C451.034,859.889,450.757,860.086,450.416,860.086Zm0-17.552c-.341,0-.62-.194-.62-.436v-7.021c0-.242.279-.438.62-.438s.618.2.618.438V842.1C451.034,842.34,450.757,842.534,450.416,842.534Zm0-17.551c-.341,0-.62-.2-.62-.439v-7.021c0-.241.279-.437.62-.437s.618.2.618.437v7.021C451.034,824.786,450.757,824.983,450.416,824.983Zm0-17.552c-.341,0-.62-.2-.62-.436v-7.021c0-.242.279-.439.62-.439s.618.2.618.439v7.021C451.034,807.235,450.757,807.431,450.416,807.431Zm0-17.552c-.341,0-.62-.2-.62-.438V782.42c0-.244.279-.438.62-.438s.618.194.618.438v7.021C451.034,789.681,450.757,789.879,450.416,789.879Zm0-17.552c-.341,0-.62-.2-.62-.438v-7.021c0-.241.279-.438.62-.438s.618.2.618.438v7.021C451.034,772.13,450.757,772.326,450.416,772.326Zm0-17.552c-.341,0-.62-.2-.62-.438v-7.022c0-.241.279-.435.62-.435s.618.194.618.435v7.022C451.034,754.578,450.757,754.774,450.416,754.774Zm0-17.551c-.341,0-.62-.2-.62-.438v-7.021c0-.244.279-.439.62-.439s.618.2.618.439v7.021C451.034,737.027,450.757,737.223,450.416,737.223Z" transform="translate(-449.796 -729.325)" fill="#fff"/>
            </g>
            <g id="Group_18175" data-name="Group 18175" transform="translate(0 224.659)">
              <path id="Path_8541" data-name="Path 8541" d="M450.416,878.963c-.341,0-.62-.2-.62-.436v-3.5c0-.241.279-.438.62-.438s.618.2.618.438v3.5C451.034,878.767,450.757,878.963,450.416,878.963Z" transform="translate(-449.796 -874.584)" fill="#cfccff"/>
            </g>
          </g>
          <g id="Group_18180" data-name="Group 18180" transform="translate(401.612 28.491)">
            <g id="Group_18177" data-name="Group 18177">
              <path id="Path_8542" data-name="Path 8542" d="M495.871,743.676c-.341,0-.62-.2-.62-.438v-3.5c0-.244.279-.439.62-.439s.618.2.618.439v3.5C496.489,743.481,496.21,743.676,495.871,743.676Z" transform="translate(-495.251 -739.296)" fill="#cfccff"/>
            </g>
            <g id="Group_18178" data-name="Group 18178" transform="translate(0 14.409)" opacity="0.22">
              <path id="Path_8543" data-name="Path 8543" d="M495.871,920.963c-.341,0-.62-.2-.62-.439v-7.268c0-.242.279-.439.62-.439s.618.2.618.439v7.268C496.489,920.764,496.21,920.963,495.871,920.963Zm0-18.176c-.341,0-.62-.2-.62-.438v-7.272c0-.241.279-.437.62-.437s.618.2.618.437v7.272C496.489,902.59,496.21,902.787,495.871,902.787Zm0-18.176c-.341,0-.62-.2-.62-.438V876.9c0-.241.279-.438.62-.438s.618.2.618.438v7.272C496.489,884.414,496.21,884.611,495.871,884.611Zm0-18.174c-.341,0-.62-.2-.62-.438v-7.272c0-.242.279-.438.62-.438s.618.2.618.438V866C496.489,866.24,496.21,866.437,495.871,866.437Zm0-18.179c-.341,0-.62-.2-.62-.437v-7.27c0-.241.279-.438.62-.438s.618.2.618.438v7.27C496.489,848.062,496.21,848.258,495.871,848.258Zm0-18.176c-.341,0-.62-.2-.62-.437v-7.272c0-.241.279-.438.62-.438s.618.2.618.438v7.272C496.489,829.885,496.21,830.082,495.871,830.082Zm0-18.175c-.341,0-.62-.2-.62-.439V804.2c0-.242.279-.438.62-.438s.618.2.618.438v7.269C496.489,811.711,496.21,811.908,495.871,811.908Zm0-18.176c-.341,0-.62-.2-.62-.438v-7.272c0-.239.279-.436.62-.436s.618.2.618.436v7.272C496.489,793.535,496.21,793.732,495.871,793.732Zm0-18.176c-.341,0-.62-.2-.62-.438v-7.272c0-.242.279-.436.62-.436s.618.194.618.436v7.272C496.489,775.359,496.21,775.557,495.871,775.557Zm0-18.176c-.341,0-.62-.2-.62-.438v-7.27c0-.243.279-.439.62-.439s.618.2.618.439v7.27C496.489,757.183,496.21,757.38,495.871,757.38Z" transform="translate(-495.251 -749.233)" fill="#fff"/>
            </g>
            <g id="Group_18179" data-name="Group 18179" transform="translate(0 196.168)">
              <path id="Path_8544" data-name="Path 8544" d="M495.871,878.963c-.341,0-.62-.2-.62-.436v-3.5c0-.241.279-.438.62-.438s.618.2.618.438v3.5C496.489,878.767,496.21,878.963,495.871,878.963Z" transform="translate(-495.251 -874.584)" fill="#cfccff"/>
            </g>
          </g>
          <g id="Group_18184" data-name="Group 18184" transform="translate(481.867 19.89)" opacity="0.3">
            <g id="Group_18181" data-name="Group 18181">
              <path id="Path_8545" data-name="Path 8545" d="M534.687,737.744c-.341,0-.62-.2-.62-.438v-3.5c0-.244.279-.439.62-.439s.62.2.62.439v3.5C535.307,737.549,535.028,737.744,534.687,737.744Z" transform="translate(-534.067 -733.364)" fill="#fff"/>
            </g>
            <g id="Group_18182" data-name="Group 18182" transform="translate(0 13.914)">
              <path id="Path_8546" data-name="Path 8546" d="M534.687,924.281c-.341,0-.62-.2-.62-.438V916.9c0-.241.279-.438.62-.438s.62.2.62.438v6.941C535.307,924.084,535.028,924.281,534.687,924.281Zm0-17.351c-.341,0-.62-.2-.62-.439v-6.94c0-.242.279-.439.62-.439s.62.2.62.439v6.94C535.307,906.733,535.028,906.931,534.687,906.931Zm0-17.352c-.341,0-.62-.2-.62-.438V882.2c0-.242.279-.439.62-.439s.62.2.62.439v6.938C535.307,889.381,535.028,889.578,534.687,889.578Zm0-17.349c-.341,0-.62-.2-.62-.437V864.85c0-.241.279-.436.62-.436s.62.2.62.436v6.943C535.307,872.033,535.028,872.229,534.687,872.229Zm0-17.349c-.341,0-.62-.2-.62-.438V847.5c0-.241.279-.438.62-.438s.62.2.62.438v6.941C535.307,854.683,535.028,854.88,534.687,854.88Zm0-17.351c-.341,0-.62-.2-.62-.438V830.15c0-.241.279-.438.62-.438s.62.2.62.438v6.941C535.307,837.332,535.028,837.529,534.687,837.529Zm0-17.352c-.341,0-.62-.2-.62-.438V812.8c0-.241.279-.439.62-.439s.62.2.62.439v6.938C535.307,819.981,535.028,820.177,534.687,820.177Zm0-17.351c-.341,0-.62-.2-.62-.438v-6.94c0-.241.279-.436.62-.436s.62.2.62.436v6.94C535.307,802.63,535.028,802.826,534.687,802.826Zm0-17.349c-.341,0-.62-.2-.62-.438V778.1c0-.244.279-.438.62-.438s.62.194.62.438v6.94C535.307,785.281,535.028,785.477,534.687,785.477Zm0-17.351c-.341,0-.62-.2-.62-.436v-6.941c0-.242.279-.437.62-.437s.62.194.62.437v6.941C535.307,767.93,535.028,768.126,534.687,768.126Zm0-17.349c-.341,0-.62-.2-.62-.439V743.4c0-.244.279-.439.62-.439s.62.2.62.439v6.938C535.307,750.581,535.028,750.777,534.687,750.777Z" transform="translate(-534.067 -742.96)" fill="#fff"/>
            </g>
            <g id="Group_18183" data-name="Group 18183" transform="translate(0 204.769)">
              <path id="Path_8547" data-name="Path 8547" d="M534.687,878.963c-.341,0-.62-.2-.62-.436v-3.5c0-.241.279-.438.62-.438s.62.2.62.438v3.5C535.307,878.767,535.028,878.963,534.687,878.963Z" transform="translate(-534.067 -874.584)" fill="#fff"/>
            </g>
          </g>
          <g id="Group_18188" data-name="Group 18188" transform="translate(601.163 68.646)" opacity="0.2">
            <g id="Group_18185" data-name="Group 18185">
              <path id="Path_8548" data-name="Path 8548" d="M592.384,756.9c-.341,0-.618-.174-.618-.389V753.4c0-.216.277-.39.618-.39s.62.174.62.39v3.11C593,756.722,592.725,756.9,592.384,756.9Z" transform="translate(-591.766 -753.007)" fill="#fff"/>
            </g>
            <g id="Group_18186" data-name="Group 18186" transform="translate(0 12.698)">
              <path id="Path_8549" data-name="Path 8549" d="M592.384,897.869c-.341,0-.618-.175-.618-.389v-6.393c0-.214.277-.389.618-.389s.62.175.62.389v6.393C593,897.694,592.725,897.869,592.384,897.869Zm0-15.979c-.341,0-.618-.175-.618-.39v-6.391c0-.212.277-.388.618-.388s.62.175.62.388V881.5C593,881.715,592.725,881.89,592.384,881.89Zm0-15.978c-.341,0-.618-.175-.618-.39v-6.391c0-.214.277-.387.618-.387s.62.174.62.387v6.391C593,865.737,592.725,865.912,592.384,865.912Zm0-15.981c-.341,0-.618-.175-.618-.389v-6.391c0-.214.277-.387.618-.387s.62.174.62.387v6.391C593,849.757,592.725,849.932,592.384,849.932Zm0-15.978c-.341,0-.618-.174-.618-.389v-6.391c0-.214.277-.387.618-.387s.62.174.62.387v6.391C593,833.78,592.725,833.954,592.384,833.954Zm0-15.979c-.341,0-.618-.175-.618-.389v-6.391c0-.214.277-.389.618-.389s.62.175.62.389v6.391C593,817.8,592.725,817.975,592.384,817.975Zm0-15.978c-.341,0-.618-.175-.618-.389v-6.391c0-.215.277-.389.618-.389s.62.174.62.389v6.391C593,801.822,592.725,802,592.384,802Zm0-15.978c-.341,0-.618-.174-.618-.389v-6.393c0-.214.277-.39.618-.39s.62.176.62.39v6.393C593,785.845,592.725,786.019,592.384,786.019Zm0-15.979c-.341,0-.618-.175-.618-.389V763.26c0-.215.277-.389.618-.389s.62.174.62.389v6.391C593,769.865,592.725,770.04,592.384,770.04Z" transform="translate(-591.766 -762.871)" fill="#fff"/>
            </g>
            <g id="Group_18187" data-name="Group 18187" transform="translate(0 156.505)">
              <path id="Path_8550" data-name="Path 8550" d="M592.384,878.471c-.341,0-.618-.174-.618-.387v-3.111c0-.214.277-.389.618-.389s.62.175.62.389v3.111C593,878.3,592.725,878.471,592.384,878.471Z" transform="translate(-591.766 -874.584)" fill="#fff"/>
            </g>
          </g>
          <g id="Group_18215" data-name="Group 18215" transform="translate(792.163 128.763)" opacity="0.2">
            <g id="Group_18185-2" data-name="Group 18185">
              <path id="Path_8548-2" data-name="Path 8548" d="M592.384,755.875c-.341,0-.618-.128-.618-.287v-2.293c0-.159.277-.288.618-.288s.62.128.62.288v2.293C593,755.747,592.725,755.875,592.384,755.875Z" transform="translate(-591.766 -753.007)" fill="#fff"/>
            </g>
            <g id="Group_18186-2" data-name="Group 18186" transform="translate(0 9.363)">
              <path id="Path_8549-2" data-name="Path 8549" d="M592.384,862.42c-.341,0-.618-.129-.618-.287V857.42c0-.158.277-.287.618-.287s.62.129.62.287v4.714C593,862.291,592.725,862.42,592.384,862.42Zm0-11.783c-.341,0-.618-.129-.618-.288v-4.713c0-.156.277-.286.618-.286s.62.129.62.286v4.713C593,850.508,592.725,850.637,592.384,850.637Zm0-11.782c-.341,0-.618-.129-.618-.288v-4.713c0-.157.277-.286.618-.286s.62.128.62.286v4.713C593,838.726,592.725,838.855,592.384,838.855Zm0-11.784c-.341,0-.618-.129-.618-.287v-4.713c0-.158.277-.286.618-.286s.62.128.62.286v4.713C593,826.942,592.725,827.071,592.384,827.071Zm0-11.782c-.341,0-.618-.128-.618-.287v-4.713c0-.158.277-.286.618-.286s.62.128.62.286V815C593,815.16,592.725,815.288,592.384,815.288Zm0-11.783c-.341,0-.618-.129-.618-.287v-4.713c0-.157.277-.287.618-.287s.62.129.62.287v4.713C593,803.376,592.725,803.505,592.384,803.505Zm0-11.782c-.341,0-.618-.129-.618-.287v-4.713c0-.159.277-.287.618-.287s.62.128.62.287v4.713C593,791.594,592.725,791.723,592.384,791.723Zm0-11.782c-.341,0-.618-.128-.618-.287V774.94c0-.158.277-.288.618-.288s.62.13.62.288v4.714C593,779.812,592.725,779.941,592.384,779.941Zm0-11.783c-.341,0-.618-.129-.618-.287v-4.713c0-.159.277-.287.618-.287s.62.128.62.287v4.713C593,768.028,592.725,768.157,592.384,768.157Z" transform="translate(-591.766 -762.871)" fill="#fff"/>
            </g>
            <g id="Group_18187-2" data-name="Group 18187" transform="translate(0 115.409)">
              <path id="Path_8550-2" data-name="Path 8550" d="M592.384,877.451c-.341,0-.618-.128-.618-.286v-2.294c0-.158.277-.287.618-.287s.62.129.62.287v2.294C593,877.323,592.725,877.451,592.384,877.451Z" transform="translate(-591.766 -874.584)" fill="#fff"/>
            </g>
          </g>
          <g id="Group_18216" data-name="Group 18216" transform="translate(725.163 99.763)" opacity="0.2">
            <g id="Group_18185-3" data-name="Group 18185">
              <path id="Path_8548-3" data-name="Path 8548" d="M592.384,756.141c-.341,0-.618-.14-.618-.313v-2.507c0-.174.277-.314.618-.314s.62.14.62.314v2.507C593,756,592.725,756.141,592.384,756.141Z" transform="translate(-591.766 -753.007)" fill="#fff"/>
            </g>
            <g id="Group_18186-3" data-name="Group 18186" transform="translate(0 10.234)">
              <path id="Path_8549-3" data-name="Path 8549" d="M592.384,871.679c-.341,0-.618-.141-.618-.313v-5.152c0-.172.277-.313.618-.313s.62.141.62.313v5.152C593,871.537,592.725,871.679,592.384,871.679Zm0-12.879c-.341,0-.618-.141-.618-.314v-5.151c0-.171.277-.312.618-.312s.62.141.62.312v5.151C593,858.658,592.725,858.8,592.384,858.8Zm0-12.878c-.341,0-.618-.141-.618-.314v-5.151c0-.172.277-.312.618-.312s.62.14.62.312v5.151C593,845.78,592.725,845.921,592.384,845.921Zm0-12.88c-.341,0-.618-.141-.618-.313v-5.151c0-.172.277-.312.618-.312s.62.14.62.312v5.151C593,832.9,592.725,833.041,592.384,833.041Zm0-12.878c-.341,0-.618-.14-.618-.313V814.7c0-.172.277-.312.618-.312s.62.14.62.312v5.151C593,820.023,592.725,820.163,592.384,820.163Zm0-12.879c-.341,0-.618-.141-.618-.313v-5.151c0-.172.277-.313.618-.313s.62.141.62.313v5.151C593,807.143,592.725,807.284,592.384,807.284Zm0-12.878c-.341,0-.618-.141-.618-.313v-5.151c0-.173.277-.313.618-.313s.62.14.62.313v5.151C593,794.265,592.725,794.406,592.384,794.406Zm0-12.878c-.341,0-.618-.14-.618-.313v-5.152c0-.172.277-.314.618-.314s.62.142.62.314v5.152C593,781.388,592.725,781.528,592.384,781.528Zm0-12.879c-.341,0-.618-.141-.618-.313v-5.151c0-.173.277-.313.618-.313s.62.14.62.313v5.151C593,768.508,592.725,768.649,592.384,768.649Z" transform="translate(-591.766 -762.871)" fill="#fff"/>
            </g>
            <g id="Group_18187-3" data-name="Group 18187" transform="translate(0 126.142)">
              <path id="Path_8550-3" data-name="Path 8550" d="M592.384,877.717c-.341,0-.618-.14-.618-.312V874.9c0-.172.277-.313.618-.313s.62.141.62.313V877.4C593,877.577,592.725,877.717,592.384,877.717Z" transform="translate(-591.766 -874.584)" fill="#fff"/>
            </g>
          </g>
        </g>
        <g id="Group_18193" data-name="Group 18193" transform="translate(-23033.342 -22418.711)">
          <path id="Path_8557" data-name="Path 8557" d="M411.178,751.365a9,9,0,1,1-9-9.075A9.042,9.042,0,0,1,411.178,751.365Z" transform="translate(-393.176 -742.29)" fill="#fff"/>
          <path id="Path_8558" data-name="Path 8558" d="M407.905,750.24a6.843,6.843,0,1,1-6.846-6.9A6.875,6.875,0,0,1,407.905,750.24Z" transform="translate(-392.061 -741.166)" fill="#0f8d82"/>
        </g>
        <g id="Group_18201" data-name="Group 18201" transform="translate(-22923.967 -22472.096)">
          <path id="Path_8557-2" data-name="Path 8557" d="M411.178,751.365a9,9,0,1,1-9-9.075A9.042,9.042,0,0,1,411.178,751.365Z" transform="translate(-393.176 -742.29)" fill="#fff"/>
          <path id="Path_8558-2" data-name="Path 8558" d="M407.905,750.24a6.843,6.843,0,1,1-6.846-6.9A6.875,6.875,0,0,1,407.905,750.24Z" transform="translate(-392.061 -741.166)" fill="#0f8d82"/>
        </g>
        <g id="Group_18202" data-name="Group 18202" transform="translate(-22828.912 -22435.637)">
          <path id="Path_8557-3" data-name="Path 8557" d="M411.178,751.365a9,9,0,1,1-9-9.075A9.042,9.042,0,0,1,411.178,751.365Z" transform="translate(-393.176 -742.29)" fill="#fff"/>
          <path id="Path_8558-3" data-name="Path 8558" d="M407.905,750.24a6.843,6.843,0,1,1-6.846-6.9A6.875,6.875,0,0,1,407.905,750.24Z" transform="translate(-392.061 -741.166)" fill="#0f8d82"/>
        </g>
        <g id="Group_18203" data-name="Group 18203" transform="translate(-22630.506 -22402.965)">
          <path id="Path_8557-4" data-name="Path 8557" d="M411.178,751.365a9,9,0,1,1-9-9.075A9.042,9.042,0,0,1,411.178,751.365Z" transform="translate(-393.176 -742.29)" fill="#fff"/>
          <path id="Path_8558-4" data-name="Path 8558" d="M407.905,750.24a6.843,6.843,0,1,1-6.846-6.9A6.875,6.875,0,0,1,407.905,750.24Z" transform="translate(-392.061 -741.166)" fill="#0f8d82"/>
        </g>
        <g id="Group_18194" data-name="Group 18194" transform="translate(-23126.684 -22416.383)">
          <path id="Path_8559" data-name="Path 8559" d="M366.032,752.49a9,9,0,1,1-9-9.075A9.04,9.04,0,0,1,366.032,752.49Z" transform="translate(-348.03 -743.415)" fill="#fff"/>
          <path id="Path_8560" data-name="Path 8560" d="M362.759,751.366a6.843,6.843,0,1,1-6.844-6.9A6.873,6.873,0,0,1,362.759,751.366Z" transform="translate(-346.915 -742.291)" fill="#0f8d82"/>
        </g>
        <g id="Group_18195" data-name="Group 18195" transform="translate(-23232.287 -22424.271)">
          <path id="Path_8561" data-name="Path 8561" d="M314.955,748.672a9,9,0,1,1-9-9.073A9.04,9.04,0,0,1,314.955,748.672Z" transform="translate(-296.953 -739.599)" fill="#fff"/>
          <path id="Path_8562" data-name="Path 8562" d="M311.682,747.548a6.843,6.843,0,1,1-6.841-6.9A6.872,6.872,0,0,1,311.682,747.548Z" transform="translate(-295.839 -738.476)" fill="#0f8d82"/>
        </g>
        <g id="Group_18196" data-name="Group 18196" transform="translate(-22557.275 -22237.801)">
          <path id="Path_8563" data-name="Path 8563" d="M849.189,993.534Z" transform="translate(-849.189 -993.534)" fill="#fff" opacity="0.25"/>
        </g>
        <path id="Path_8564" data-name="Path 8564" d="M598.318,755.685a42.176,42.176,0,1,1-42.176-42.526A42.352,42.352,0,0,1,598.318,755.685Z" transform="translate(-23297.563 -23192.1)" fill="#26a69a" opacity="0.09"/>
        <g id="Group_18197" data-name="Group 18197" transform="translate(-22764.73 -22459.924)">
          <path id="Path_8565" data-name="Path 8565" d="M569.72,745.866a23.315,23.315,0,1,1-23.316-23.51A23.412,23.412,0,0,1,569.72,745.866Z" transform="translate(-523.092 -722.356)" fill="#26a69a"/>
          <path id="Path_8566" data-name="Path 8566" d="M558.458,742a15.888,15.888,0,1,1-15.889-16.021A15.957,15.957,0,0,1,558.458,742Z" transform="translate(-519.257 -718.489)" fill="#fefefe" opacity="0.46"/>
          <path id="Path_8567" data-name="Path 8567" d="M547.2,738.132a8.462,8.462,0,1,1-8.463-8.531A8.5,8.5,0,0,1,547.2,738.132Z" transform="translate(-515.424 -714.621)" fill="#26a69a"/>
        </g>
      </g>
      <path id="Path_8569" data-name="Path 8569" d="M-22410-21441.959l-67.838-13.59-68.865,43.506-77.236-13.59-71.268,99.443" transform="translate(23404 21712)" fill="none" stroke="#fff" stroke-width="2"/>
      <path id="Path_8571" data-name="Path 8571" d="M-22695.207-21441.959l67.838-13.59,68.865,43.506,77.236-13.59,71.268,99.443" transform="translate(24470 21706.074)" fill="none" stroke="#fff" stroke-width="2"/>
      <g id="Group_18208" data-name="Group 18208" transform="translate(917.988 247.376)">
        <path id="Path_8561-2" data-name="Path 8561" d="M314.955,748.672a9,9,0,1,1-9-9.073A9.04,9.04,0,0,1,314.955,748.672Z" transform="translate(-296.953 -739.599)" fill="#fff"/>
        <path id="Path_8562-2" data-name="Path 8562" d="M311.682,747.548a6.843,6.843,0,1,1-6.841-6.9A6.872,6.872,0,0,1,311.682,747.548Z" transform="translate(-295.839 -738.476)" fill="#0f8d82"/>
      </g>
      <g id="Group_18209" data-name="Group 18209" transform="translate(982.999 260.376)">
        <path id="Path_8561-3" data-name="Path 8561" d="M314.955,748.672a9,9,0,1,1-9-9.073A9.04,9.04,0,0,1,314.955,748.672Z" transform="translate(-296.953 -739.599)" fill="#fff"/>
        <path id="Path_8562-3" data-name="Path 8562" d="M311.682,747.548a6.843,6.843,0,1,1-6.841-6.9A6.872,6.872,0,0,1,311.682,747.548Z" transform="translate(-295.839 -738.476)" fill="#0f8d82"/>
      </g>
      <g id="Group_18210" data-name="Group 18210" transform="translate(846.999 288.376)">
        <path id="Path_8561-4" data-name="Path 8561" d="M314.955,748.672a9,9,0,1,1-9-9.073A9.04,9.04,0,0,1,314.955,748.672Z" transform="translate(-296.953 -739.599)" fill="#fff"/>
        <path id="Path_8562-4" data-name="Path 8562" d="M311.682,747.548a6.843,6.843,0,1,1-6.841-6.9A6.872,6.872,0,0,1,311.682,747.548Z" transform="translate(-295.839 -738.476)" fill="#0f8d82"/>
      </g>
      <g id="Group_18211" data-name="Group 18211" transform="translate(770.999 278.526)">
        <path id="Path_8561-5" data-name="Path 8561" d="M314.955,748.672a9,9,0,1,1-9-9.073A9.04,9.04,0,0,1,314.955,748.672Z" transform="translate(-296.953 -739.599)" fill="#fff"/>
        <path id="Path_8562-5" data-name="Path 8562" d="M311.682,747.548a6.843,6.843,0,1,1-6.841-6.9A6.872,6.872,0,0,1,311.682,747.548Z" transform="translate(-295.839 -738.476)" fill="#0f8d82"/>
      </g>
      <g id="Group_18212" data-name="Group 18212" transform="translate(1767.998 253.238)">
        <path id="Path_8557-5" data-name="Path 8557" d="M411.178,751.365a9,9,0,1,1-9-9.075A9.042,9.042,0,0,1,411.178,751.365Z" transform="translate(-393.176 -742.29)" fill="#fff"/>
        <path id="Path_8558-5" data-name="Path 8558" d="M407.905,750.24a6.843,6.843,0,1,1-6.846-6.9A6.875,6.875,0,0,1,407.905,750.24Z" transform="translate(-392.061 -741.166)" fill="#0f8d82"/>
      </g>
      <g id="Group_18213" data-name="Group 18213" transform="translate(1836.998 240.5)">
        <path id="Path_8557-6" data-name="Path 8557" d="M411.178,751.365a9,9,0,1,1-9-9.075A9.042,9.042,0,0,1,411.178,751.365Z" transform="translate(-393.176 -742.29)" fill="#fff"/>
        <path id="Path_8558-6" data-name="Path 8558" d="M407.905,750.24a6.843,6.843,0,1,1-6.846-6.9A6.875,6.875,0,0,1,407.905,750.24Z" transform="translate(-392.061 -741.166)" fill="#0f8d82"/>
      </g>
      <g id="Group_18214" data-name="Group 18214" transform="translate(1905.998 284.5)">
        <path id="Path_8557-7" data-name="Path 8557" d="M411.178,751.365a9,9,0,1,1-9-9.075A9.042,9.042,0,0,1,411.178,751.365Z" transform="translate(-393.176 -742.29)" fill="#fff"/>
        <path id="Path_8558-7" data-name="Path 8558" d="M407.905,750.24a6.843,6.843,0,1,1-6.846-6.9A6.875,6.875,0,0,1,407.905,750.24Z" transform="translate(-392.061 -741.166)" fill="#0f8d82"/>
      </g>
      <path id="Path_8572" data-name="Path 8572" d="M-22639.471-21327c3.789-3.359,41.088-62.1,41.088-62.1l64.209,10.342,60.678-46.365,65.531,17.338,127.605-68.377,106.395,13.389,93.078-5.957,109.072-58.91,90.686,44.852,83.314-15.148,119.188,38.408,58.139,45.9,66.932-15.191,63.906,40.711,73.846-17.988" transform="translate(23400 21712)" fill="none" stroke="#25a69a" stroke-width="3" opacity="0.28"/>
    </g>
  </g>
</svg>
