<svg xmlns="http://www.w3.org/2000/svg" width="111" height="117" viewBox="0 0 111 117">
  <g id="Group_19157" data-name="Group 19157" transform="translate(-1294 12273)" opacity="0.49">
    <g id="Group_19157-2" data-name="Group 19157" transform="translate(1253 -12527)">
      <circle id="Ellipse_748" data-name="Ellipse 748" cx="4.5" cy="4.5" r="4.5" transform="translate(41 254)" fill="#2aa79b"/>
      <circle id="Ellipse_749" data-name="Ellipse 749" cx="4.5" cy="4.5" r="4.5" transform="translate(78 254)" fill="#2aa79b"/>
      <circle id="Ellipse_750" data-name="Ellipse 750" cx="4.5" cy="4.5" r="4.5" transform="translate(78 291)" fill="#2aa79b"/>
      <circle id="Ellipse_751" data-name="Ellipse 751" cx="4.5" cy="4.5" r="4.5" transform="translate(41 291)" fill="#2aa79b"/>
    </g>
    <g id="Group_19158" data-name="Group 19158" transform="translate(1253 -12456)">
      <circle id="Ellipse_748-2" data-name="Ellipse 748" cx="4.5" cy="4.5" r="4.5" transform="translate(41 254)" fill="#2aa79b"/>
      <circle id="Ellipse_749-2" data-name="Ellipse 749" cx="4.5" cy="4.5" r="4.5" transform="translate(78 254)" fill="#2aa79b"/>
      <circle id="Ellipse_750-2" data-name="Ellipse 750" cx="4.5" cy="4.5" r="4.5" transform="translate(78 291)" fill="#2aa79b"/>
      <circle id="Ellipse_751-2" data-name="Ellipse 751" cx="4.5" cy="4.5" r="4.5" transform="translate(41 291)" fill="#2aa79b"/>
    </g>
    <g id="Group_19159" data-name="Group 19159" transform="translate(1318 -12456)">
      <circle id="Ellipse_748-3" data-name="Ellipse 748" cx="4.5" cy="4.5" r="4.5" transform="translate(41 254)" fill="#2aa79b"/>
      <circle id="Ellipse_749-3" data-name="Ellipse 749" cx="4.5" cy="4.5" r="4.5" transform="translate(78 254)" fill="#2aa79b"/>
      <circle id="Ellipse_750-3" data-name="Ellipse 750" cx="4.5" cy="4.5" r="4.5" transform="translate(78 291)" fill="#2aa79b"/>
      <circle id="Ellipse_751-3" data-name="Ellipse 751" cx="4.5" cy="4.5" r="4.5" transform="translate(41 291)" fill="#2aa79b"/>
    </g>
    <g id="Group_19160" data-name="Group 19160" transform="translate(1318 -12527)">
      <circle id="Ellipse_748-4" data-name="Ellipse 748" cx="4.5" cy="4.5" r="4.5" transform="translate(41 254)" fill="#2aa79b"/>
      <circle id="Ellipse_749-4" data-name="Ellipse 749" cx="4.5" cy="4.5" r="4.5" transform="translate(78 254)" fill="#2aa79b"/>
      <circle id="Ellipse_750-4" data-name="Ellipse 750" cx="4.5" cy="4.5" r="4.5" transform="translate(78 291)" fill="#2aa79b"/>
      <circle id="Ellipse_751-4" data-name="Ellipse 751" cx="4.5" cy="4.5" r="4.5" transform="translate(41 291)" fill="#2aa79b"/>
    </g>
  </g>
</svg>
