<svg xmlns="http://www.w3.org/2000/svg" xmlns:xlink="http://www.w3.org/1999/xlink" width="620.299" height="461.258" viewBox="0 0 620.299 461.258">
  <defs>
    <filter id="Rectangle_3093" x="234.891" y="147.335" width="385.408" height="313.923" filterUnits="userSpaceOnUse">
      <feOffset dy="13" input="SourceAlpha"/>
      <feGaussianBlur stdDeviation="18" result="blur"/>
      <feFlood flood-opacity="0.122"/>
      <feComposite operator="in" in2="blur"/>
      <feComposite in="SourceGraphic"/>
    </filter>
    <linearGradient id="linear-gradient" x1="0.979" y1="1" x2="-0.439" y2="-0.804" gradientUnits="objectBoundingBox">
      <stop offset="0" stop-color="#fff" stop-opacity="0.169"/>
      <stop offset="1" stop-color="#d1f6ff"/>
    </linearGradient>
    <linearGradient id="linear-gradient-2" y1="0.5" x2="1" y2="0.5" gradientUnits="objectBoundingBox">
      <stop offset="0" stop-color="#e9f4fd"/>
      <stop offset="1" stop-color="#fff"/>
    </linearGradient>
    <filter id="Rectangle_3097" x="0" y="0" width="382.885" height="304.319" filterUnits="userSpaceOnUse">
      <feOffset dy="13" input="SourceAlpha"/>
      <feGaussianBlur stdDeviation="13" result="blur-2"/>
      <feFlood flood-opacity="0.161"/>
      <feComposite operator="in" in2="blur-2"/>
      <feComposite in="SourceGraphic"/>
    </filter>
    <filter id="Rectangle_3132" x="52.942" y="239.258" width="243" height="197" filterUnits="userSpaceOnUse">
      <feOffset dy="3" input="SourceAlpha"/>
      <feGaussianBlur stdDeviation="13" result="blur-3"/>
      <feFlood flood-opacity="0.161"/>
      <feComposite operator="in" in2="blur-3"/>
      <feComposite in="SourceGraphic"/>
    </filter>
    <filter id="Path_3444" x="341.646" y="64.255" width="222.707" height="222.707" filterUnits="userSpaceOnUse">
      <feOffset dy="13" input="SourceAlpha"/>
      <feGaussianBlur stdDeviation="13" result="blur-4"/>
      <feFlood flood-opacity="0.161"/>
      <feComposite operator="in" in2="blur-4"/>
      <feComposite in="SourceGraphic"/>
    </filter>
  </defs>
  <g id="Group_17523" data-name="Group 17523" transform="translate(-919.701 -101.606)">
    <g id="Group_17467" data-name="Group 17467" transform="translate(1208.591 289.941)">
      <g id="Group_17453" data-name="Group 17453">
        <g transform="matrix(1, 0, 0, 1, -288.89, -188.34)" filter="url(#Rectangle_3093)">
          <rect id="Rectangle_3093-2" data-name="Rectangle 3093" width="277.408" height="205.923" rx="20" transform="translate(288.89 188.34)" fill="#a0b3c4"/>
        </g>
      </g>
      <g id="Group_17454" data-name="Group 17454" transform="translate(61.866 65.337)">
        <line id="Line_1" data-name="Line 1" x2="191.311" transform="translate(0 111.86)" fill="none" stroke="#13436b" stroke-miterlimit="10" stroke-width="0.25"/>
        <line id="Line_2" data-name="Line 2" x2="191.311" transform="translate(0 89.488)" fill="none" stroke="#13436b" stroke-miterlimit="10" stroke-width="0.25"/>
        <line id="Line_3" data-name="Line 3" x2="191.311" transform="translate(0 67.116)" fill="none" stroke="#13436b" stroke-miterlimit="10" stroke-width="0.25"/>
        <line id="Line_4" data-name="Line 4" x2="191.311" transform="translate(0 44.744)" fill="none" stroke="#13436b" stroke-miterlimit="10" stroke-width="0.25"/>
        <line id="Line_5" data-name="Line 5" x2="191.311" transform="translate(0 22.372)" fill="none" stroke="#13436b" stroke-miterlimit="10" stroke-width="0.25"/>
        <line id="Line_6" data-name="Line 6" x2="191.311" fill="none" stroke="#13436b" stroke-miterlimit="10" stroke-width="0.25"/>
      </g>
      <path id="Path_2842" data-name="Path 2842" d="M1330.174,242.78l-41.156,26.763-30.166-8.87-32.457,44.744-27.493-8.381-15.274,21.384-21-13-23.762,29.8v14.94h191.31Z" transform="translate(-1076.997 -172.964)" fill="url(#linear-gradient)"/>
      <g id="Group_17455" data-name="Group 17455" transform="translate(26.238 65.337)">
        <line id="Line_7" data-name="Line 7" x1="16.749" transform="translate(0 111.86)" fill="none" stroke="#fff" stroke-linecap="round" stroke-miterlimit="10" stroke-width="2"/>
        <line id="Line_8" data-name="Line 8" x1="16.749" transform="translate(0 89.488)" fill="none" stroke="#fff" stroke-linecap="round" stroke-miterlimit="10" stroke-width="2"/>
        <line id="Line_9" data-name="Line 9" x1="16.749" transform="translate(0 67.116)" fill="none" stroke="#fff" stroke-linecap="round" stroke-miterlimit="10" stroke-width="2"/>
        <line id="Line_10" data-name="Line 10" x1="16.749" transform="translate(0 44.744)" fill="none" stroke="#fff" stroke-linecap="round" stroke-miterlimit="10" stroke-width="2"/>
        <line id="Line_11" data-name="Line 11" x1="16.749" transform="translate(0 22.372)" fill="none" stroke="#fff" stroke-linecap="round" stroke-miterlimit="10" stroke-width="2"/>
        <line id="Line_12" data-name="Line 12" x1="16.749" fill="none" stroke="#fff" stroke-linecap="round" stroke-miterlimit="10" stroke-width="2"/>
      </g>
      <path id="Path_2847" data-name="Path 2847" d="M1138.863,335.221l23.762-29.8,21,13,15.274-21.384,27.493,8.381,32.457-44.744,30.166,8.87,41.156-26.763" transform="translate(-1076.997 -172.964)" fill="none" stroke="#fff" stroke-linecap="round" stroke-linejoin="round" stroke-width="6"/>
      <g id="Group_17463" data-name="Group 17463" transform="translate(235.365 49.689)">
        <g id="Group_17461" data-name="Group 17461" transform="translate(0 0)">
          <circle id="Ellipse_161" data-name="Ellipse 161" cx="15.462" cy="15.462" r="15.462" transform="translate(0 30.495) rotate(-80.452)" fill="#ffbd66" stroke="rgba(0,0,0,0)" stroke-width="1"/>
        </g>
        <g id="Group_17462" data-name="Group 17462" transform="translate(12.364 12.363)">
          <circle id="Ellipse_164" data-name="Ellipse 164" cx="5.449" cy="5.449" r="5.449" fill="url(#linear-gradient-2)"/>
        </g>
      </g>
      <g id="Group_17466" data-name="Group 17466" transform="translate(46.405 146.796)">
        <g id="Group_17464" data-name="Group 17464">
          <circle id="Ellipse_165" data-name="Ellipse 165" cx="15.462" cy="15.462" r="15.462" fill="#ffbd66"/>
        </g>
        <g id="Group_17465" data-name="Group 17465" transform="translate(10.013 10.013)">
          <path id="Path_2848" data-name="Path 2848" d="M1147.046,291.581a5.449,5.449,0,1,1-5.45-5.448A5.45,5.45,0,0,1,1147.046,291.581Z" transform="translate(-1136.148 -286.133)" fill="#fff"/>
        </g>
      </g>
    </g>
    <g id="Group_17495" data-name="Group 17495" transform="translate(958.701 127.606)">
      <g id="Group_17468" data-name="Group 17468">
        <g transform="matrix(1, 0, 0, 1, -39, -26)" filter="url(#Rectangle_3097)">
          <rect id="Rectangle_3097-2" data-name="Rectangle 3097" width="304.885" height="226.319" rx="20" transform="translate(39 26)" fill="#fff"/>
        </g>
      </g>
      <g id="Group_17494" data-name="Group 17494" transform="translate(22.741 20.39)">
        <g id="Group_17852" data-name="Group 17852">
          <g id="Group_17851" data-name="Group 17851">
            <g id="Group_17469" data-name="Group 17469" transform="translate(45.253 51.418)">
              <line id="Line_13" data-name="Line 13" x2="210.26" transform="translate(0 122.94)" fill="none" stroke="#a0b3c4" stroke-miterlimit="10" stroke-width="0.25"/>
              <line id="Line_14" data-name="Line 14" x2="210.26" transform="translate(0 98.352)" fill="none" stroke="#a0b3c4" stroke-miterlimit="10" stroke-width="0.25"/>
              <line id="Line_15" data-name="Line 15" x2="210.26" transform="translate(0 73.764)" fill="none" stroke="#a0b3c4" stroke-miterlimit="10" stroke-width="0.25"/>
              <line id="Line_16" data-name="Line 16" x2="210.26" transform="translate(0 49.176)" fill="none" stroke="#a0b3c4" stroke-miterlimit="10" stroke-width="0.25"/>
              <line id="Line_17" data-name="Line 17" x2="210.26" transform="translate(0 24.588)" fill="none" stroke="#a0b3c4" stroke-miterlimit="10" stroke-width="0.25"/>
              <line id="Line_18" data-name="Line 18" x2="210.26" fill="none" stroke="#a0b3c4" stroke-miterlimit="10" stroke-width="0.25"/>
            </g>
            <g id="Group_17470" data-name="Group 17470" transform="translate(6.096 51.418)">
              <line id="Line_19" data-name="Line 19" x1="18.408" transform="translate(0 122.94)" fill="none" stroke="#a0b3c4" stroke-linecap="round" stroke-miterlimit="10" stroke-width="2"/>
              <line id="Line_20" data-name="Line 20" x1="18.408" transform="translate(0 98.352)" fill="none" stroke="#a0b3c4" stroke-linecap="round" stroke-miterlimit="10" stroke-width="2"/>
              <line id="Line_21" data-name="Line 21" x1="18.408" transform="translate(0 73.764)" fill="none" stroke="#a0b3c4" stroke-linecap="round" stroke-miterlimit="10" stroke-width="2"/>
              <line id="Line_22" data-name="Line 22" x1="18.408" transform="translate(0 49.176)" fill="none" stroke="#a0b3c4" stroke-linecap="round" stroke-miterlimit="10" stroke-width="2"/>
              <line id="Line_23" data-name="Line 23" x1="18.408" transform="translate(0 24.588)" fill="none" stroke="#a0b3c4" stroke-linecap="round" stroke-miterlimit="10" stroke-width="2"/>
              <line id="Line_24" data-name="Line 24" x1="18.408" fill="none" stroke="#a0b3c4" stroke-linecap="round" stroke-miterlimit="10" stroke-width="2"/>
            </g>
            <g id="Group_17728" data-name="Group 17728">
              <g id="Group_17491" data-name="Group 17491" transform="translate(63.742 10.138)">
                <g id="Group_17490" data-name="Group 17490" transform="translate(0 0)">
                  <g id="Group_17489" data-name="Group 17489">
                    <g id="Group_17487" data-name="Group 17487">
                      <path id="Path_2857" data-name="Path 2857" d="M1162.508,171.145H1050.531a5.163,5.163,0,0,1-5.163-5.161h0a5.164,5.164,0,0,1,5.163-5.163h111.978a5.162,5.162,0,0,1,5.163,5.163h0A5.162,5.162,0,0,1,1162.508,171.145Z" transform="translate(-1045.368 -160.822)" fill="#a0b3c4"/>
                      <path id="Path_2858" data-name="Path 2858" d="M1162.508,171.145H1050.531a5.163,5.163,0,0,1-5.163-5.161h0a5.164,5.164,0,0,1,5.163-5.163h111.978a5.162,5.162,0,0,1,5.163,5.163h0A5.162,5.162,0,0,1,1162.508,171.145Z" transform="translate(-1045.368 -160.822)" fill="#a0b3c4"/>
                    </g>
                    <g id="Group_17488" data-name="Group 17488" transform="translate(134.512)">
                      <path id="Path_2859" data-name="Path 2859" d="M1149.8,171.145h-38.279a5.163,5.163,0,0,1-5.163-5.163h0a5.162,5.162,0,0,1,5.163-5.161H1149.8a5.162,5.162,0,0,1,5.163,5.161h0A5.162,5.162,0,0,1,1149.8,171.145Z" transform="translate(-1106.361 -160.822)" fill="#a0b3c4"/>
                      <path id="Path_2860" data-name="Path 2860" d="M1149.8,171.145h-38.279a5.163,5.163,0,0,1-5.163-5.163h0a5.162,5.162,0,0,1,5.163-5.161H1149.8a5.162,5.162,0,0,1,5.163,5.161h0A5.162,5.162,0,0,1,1149.8,171.145Z" transform="translate(-1106.361 -160.822)" fill="#a0b3c4"/>
                    </g>
                  </g>
                </g>
              </g>
              <g id="Group_17493" data-name="Group 17493">
                <g id="Group_17492" data-name="Group 17492">
                  <circle id="Ellipse_168" data-name="Ellipse 168" cx="15.3" cy="15.3" r="15.3" fill="#a0b3c4" stroke="rgba(0,0,0,0)" stroke-width="1"/>
                </g>
              </g>
            </g>
          </g>
        </g>
        <g id="Group_17486" data-name="Group 17486" transform="translate(44.446 67.285)">
          <rect id="Rectangle_3133" data-name="Rectangle 3133" width="22" height="44" rx="11" transform="translate(-0.006 64.781)" fill="#13436b" stroke="rgba(0,0,0,0)" stroke-width="1"/>
          <rect id="Rectangle_3135" data-name="Rectangle 3135" width="23" height="71" rx="11.5" transform="translate(38.994 37.781)" fill="#26a69a" stroke="rgba(0,0,0,0)" stroke-width="1"/>
          <rect id="Rectangle_3137" data-name="Rectangle 3137" width="22" height="80" rx="11" transform="translate(78.994 28.781)" fill="#ffbd66" stroke="rgba(0,0,0,0)" stroke-width="1"/>
          <rect id="Rectangle_3139" data-name="Rectangle 3139" width="22" height="53" rx="11" transform="translate(117.994 55.781)" fill="#13436b" stroke="rgba(0,0,0,0)" stroke-width="1"/>
          <rect id="Rectangle_3141" data-name="Rectangle 3141" width="22" height="109" rx="11" transform="translate(157.994 -0.219)" fill="#26a69a" stroke="rgba(0,0,0,0)" stroke-width="1"/>
          <rect id="Rectangle_3143" data-name="Rectangle 3143" width="22" height="68" rx="11" transform="translate(196.994 40.781)" fill="#ffbd66" stroke="rgba(0,0,0,0)" stroke-width="1"/>
        </g>
      </g>
    </g>
    <g id="Group_17682" data-name="Group 17682" transform="translate(-12 -7)">
      <g transform="matrix(1, 0, 0, 1, 931.7, 108.61)" filter="url(#Rectangle_3132)">
        <rect id="Rectangle_3132-2" data-name="Rectangle 3132" width="165" height="119" rx="20" transform="translate(91.94 275.26)" fill="#ffbd66"/>
      </g>
      <g id="Group_17515" data-name="Group 17515" transform="translate(980.007 383.963)">
        <g id="Group_17681" data-name="Group 17681" transform="translate(-3.638 -0.091)">
          <g id="Group_17513" data-name="Group 17513" transform="translate(70.228 15.992)" opacity="0.48">
            <line id="Line_25" data-name="Line 25" y2="74.335" fill="none" stroke="#fff" stroke-miterlimit="10" stroke-width="1"/>
            <line id="Line_26" data-name="Line 26" y2="74.335" transform="translate(19.975)" fill="none" stroke="#fff" stroke-miterlimit="10" stroke-width="1"/>
            <line id="Line_27" data-name="Line 27" y2="74.335" transform="translate(39.95)" fill="none" stroke="#fff" stroke-miterlimit="10" stroke-width="1"/>
            <line id="Line_28" data-name="Line 28" y2="74.335" transform="translate(59.926)" fill="none" stroke="#fff" stroke-miterlimit="10" stroke-width="1"/>
            <line id="Line_29" data-name="Line 29" y2="74.335" transform="translate(79.901)" fill="none" stroke="#fff" stroke-miterlimit="10" stroke-width="1"/>
            <line id="Line_30" data-name="Line 30" y2="74.335" transform="translate(98.67)" fill="none" stroke="#fff" stroke-miterlimit="10" stroke-width="1"/>
            <line id="Line_31" data-name="Line 31" y2="74.335" transform="translate(118.645)" fill="none" stroke="#fff" stroke-miterlimit="10" stroke-width="1"/>
          </g>
          <path id="Path_2870" data-name="Path 2870" d="M1020.154,334.568l26.224-27.489,19.1,10.678,19.1-16.368,26.98-3.666,24.161-26.322" transform="translate(-950.016 -251.807)" fill="none" stroke="#fff" stroke-linecap="round" stroke-linejoin="round" stroke-width="6"/>
          <g id="Group_17853" data-name="Group 17853">
            <g id="Group_17514" data-name="Group 17514" transform="translate(66.273 103.099)">
              <line id="Line_32" data-name="Line 32" x1="7.477" fill="none" stroke="#fff" stroke-linecap="round" stroke-miterlimit="10" stroke-width="2"/>
              <line id="Line_33" data-name="Line 33" x1="7.477" transform="translate(20.191)" fill="none" stroke="#fff" stroke-linecap="round" stroke-miterlimit="10" stroke-width="2"/>
              <line id="Line_34" data-name="Line 34" x1="7.477" transform="translate(40.166)" fill="none" stroke="#fff" stroke-linecap="round" stroke-miterlimit="10" stroke-width="2"/>
              <line id="Line_35" data-name="Line 35" x1="7.477" transform="translate(60.141)" fill="none" stroke="#fff" stroke-linecap="round" stroke-miterlimit="10" stroke-width="2"/>
              <line id="Line_36" data-name="Line 36" x1="7.477" transform="translate(80.116)" fill="none" stroke="#fff" stroke-linecap="round" stroke-miterlimit="10" stroke-width="2"/>
              <line id="Line_37" data-name="Line 37" x1="7.477" transform="translate(98.885)" fill="none" stroke="#fff" stroke-linecap="round" stroke-miterlimit="10" stroke-width="2"/>
              <line id="Line_38" data-name="Line 38" x1="7.477" transform="translate(118.86)" fill="none" stroke="#fff" stroke-linecap="round" stroke-miterlimit="10" stroke-width="2"/>
            </g>
          </g>
        </g>
      </g>
    </g>
    <g id="Group_17687" data-name="Group 17687" transform="translate(997.603 78.761)">
      <g transform="matrix(1, 0, 0, 1, -77.9, 22.84)" filter="url(#Path_3444)">
        <path id="Path_3444-2" data-name="Path 3444" d="M72.353,0A72.353,72.353,0,1,1,0,72.353,72.353,72.353,0,0,1,72.353,0Z" transform="translate(380.65 90.26)" fill="#fff"/>
      </g>
      <g id="Group_17683" data-name="Group 17683" transform="translate(375.097 113.099)">
        <path id="Path_3273" data-name="Path 3273" d="M341.876,113.1v72.353h72.353A72.353,72.353,0,0,0,341.876,113.1Z" transform="translate(-341.876 -113.099)" fill="#26a69a" stroke="rgba(0,0,0,0)" stroke-width="1"/>
      </g>
      <g id="Group_17686" data-name="Group 17686" transform="translate(351.333 161.689)">
        <g id="Group_17685" data-name="Group 17685" transform="translate(0 0)">
          <g id="Group_17684" data-name="Group 17684">
            <circle id="Ellipse_185" data-name="Ellipse 185" cx="23.764" cy="23.764" r="23.764" fill="#13436b"/>
            <circle id="Ellipse_186" data-name="Ellipse 186" cx="23.764" cy="23.764" r="23.764" fill="#13436b"/>
          </g>
        </g>
      </g>
    </g>
  </g>
</svg>
