<svg xmlns="http://www.w3.org/2000/svg" width="2070.346" height="260.245" viewBox="0 0 2070.346 260.245">
  <g id="Group_23" data-name="Group 23" transform="translate(4675.281 -6502.223)" opacity="0.5">
    <path id="Path_49" data-name="Path 49" d="M-4674,6271.59l117.76-42.25,93.795,5.915h87.035l100.555-38.025,87.035,27.885,74.36-11.83,91.133,23.235,60.122,30.845h117.455l71.825-32.11,61.387,22.051,55-8.077,81.538,8.077,27.5,10.059,33.27-10.059,66.154,4.615h55.769l66.538-33.846,56.154,23.077,46.538-6.539,94.231-39.23,83.846,6.154,75.769-1.539,83.461-42.308,72.692,30.385,66.923-8.462,89.231,31.154,43.461,28.462v162.692H-4674Z" transform="translate(0 350)" fill="#26a69a"/>
    <path id="Path_50" data-name="Path 50" d="M-4674,6389.971l116.326-50.531,98.865-54.925h88.979s91.175-52.728,93.372-48.334,85.683,79.092,85.683,79.092,181.252-50.531,185.646-48.334,96.668,72.5,96.668,72.5l75.8-5.493,54.925-26.364,65.91,48.334,130.721-27.463,131.82,5.493h56.024l63.713-31.856,57.122,53.827,117.54-27.463,51.629,16.478,60.417-37.349,79.092-5.493,76.9-35.152,71.4,61.516,162.578-35.152,38.448,14.281v103.259H-4674Z" transform="translate(0 351.079)" fill="#0f8d82"/>
    <g id="Group_18164" data-name="Group 18164" transform="translate(-3512.925 6614.121)">
      <g id="Group_18161" data-name="Group 18161" transform="translate(0 0.002)">
        <path id="Path_8530" data-name="Path 8530" d="M301.369,747.33a.363.363,0,0,1-.362-.364v-2.917a.361.361,0,1,1,.723,0v2.917a.363.363,0,0,1-.361.364Z" transform="translate(-301.007 -743.688)" fill="#fff"/>
      </g>
      <g id="Group_18162" data-name="Group 18162" transform="translate(0 11.697)">
        <path id="Path_8531" data-name="Path 8531" d="M301.369,877.832a.347.347,0,0,1-.362-.328v-5.267a.363.363,0,0,1,.723,0V877.5A.346.346,0,0,1,301.369,877.832Zm0-13.169a.347.347,0,0,1-.362-.328v-5.268a.363.363,0,0,1,.723,0v5.268A.346.346,0,0,1,301.369,864.662Zm0-13.17a.347.347,0,0,1-.362-.329v-5.269a.363.363,0,0,1,.723,0v5.269a.346.346,0,0,1-.361.328Zm0-13.17a.347.347,0,0,1-.362-.33v-5.268a.363.363,0,0,1,.723,0v5.268a.347.347,0,0,1-.361.329Zm0-13.17a.347.347,0,0,1-.362-.329v-5.269a.363.363,0,0,1,.723,0v5.269a.346.346,0,0,1-.361.328Zm0-13.17a.346.346,0,0,1-.362-.328v-5.268a.363.363,0,0,1,.723,0v5.268a.346.346,0,0,1-.361.327Zm0-13.17a.346.346,0,0,1-.362-.327v-5.27a.363.363,0,0,1,.723,0v5.27a.345.345,0,0,1-.361.326Zm0-13.17a.347.347,0,0,1-.362-.328v-5.268a.363.363,0,0,1,.723,0v5.268a.346.346,0,0,1-.361.327Zm0-13.17a.346.346,0,0,1-.362-.328v-5.268a.363.363,0,0,1,.723,0v5.268a.346.346,0,0,1-.361.327Zm0-13.17a.346.346,0,0,1-.362-.328v-5.268a.363.363,0,0,1,.723,0v5.268a.346.346,0,0,1-.361.327Z" transform="translate(-301.007 -753.38)" fill="#fff"/>
      </g>
      <g id="Group_18163" data-name="Group 18163" transform="translate(0 144.197)">
        <path id="Path_8532" data-name="Path 8532" d="M301.369,878.228a.363.363,0,0,1-.362-.363v-2.917a.361.361,0,1,1,.723,0v2.917A.362.362,0,0,1,301.369,878.228Z" transform="translate(-301.007 -874.587)" fill="#fff"/>
      </g>
    </g>
    <g id="Group_18168" data-name="Group 18168" transform="translate(-3447.248 6615.52)">
      <g id="Group_18165" data-name="Group 18165" transform="translate(0 0.003)">
        <path id="Path_8533" data-name="Path 8533" d="M352.446,751.146a.362.362,0,0,1-.362-.363v-2.917a.361.361,0,0,1,.723,0v2.917a.362.362,0,0,1-.361.363Z" transform="translate(-352.084 -747.505)" fill="#cfccff"/>
      </g>
      <g id="Group_18166" data-name="Group 18166" transform="translate(0 11.432)" opacity="0.35">
        <path id="Path_8534" data-name="Path 8534" d="M352.446,880.554a.35.35,0,0,1-.362-.337v-5.229a.363.363,0,0,1,.723,0v5.229a.35.35,0,0,1-.361.337Zm0-13.077a.35.35,0,0,1-.362-.335v-5.23a.363.363,0,0,1,.723,0v5.23a.349.349,0,0,1-.361.335Zm0-13.074a.379.379,0,0,1-.257-.1.321.321,0,0,1-.105-.237v-5.23a.363.363,0,0,1,.723,0v5.23a.349.349,0,0,1-.361.336Zm0-13.076a.349.349,0,0,1-.362-.335v-5.229a.363.363,0,0,1,.723,0v5.23a.349.349,0,0,1-.361.335Zm0-13.076a.35.35,0,0,1-.362-.336V822.69a.363.363,0,0,1,.723,0v5.23a.35.35,0,0,1-.361.333Zm0-13.076a.35.35,0,0,1-.362-.336v-5.234a.363.363,0,0,1,.723,0v5.23a.321.321,0,0,1-.1.24.378.378,0,0,1-.258.1Zm0-13.076a.349.349,0,0,1-.362-.334v-5.23a.363.363,0,0,1,.723,0v5.23a.321.321,0,0,1-.1.237.378.378,0,0,1-.256.1Zm0-13.076a.35.35,0,0,1-.362-.335v-5.229a.363.363,0,0,1,.723,0v5.232a.349.349,0,0,1-.361.334Zm0-13.076a.349.349,0,0,1-.362-.335v-5.23a.363.363,0,0,1,.723,0v5.23a.321.321,0,0,1-.1.238.379.379,0,0,1-.257.1Zm0-13.076a.35.35,0,0,1-.362-.335v-5.23a.363.363,0,0,1,.723,0v5.23a.321.321,0,0,1-.1.238.379.379,0,0,1-.256.1Z" transform="translate(-352.084 -756.976)" fill="#fff" stroke="rgba(0,0,0,0)" stroke-width="1"/>
      </g>
      <g id="Group_18167" data-name="Group 18167" transform="translate(0 142.799)">
        <path id="Path_8535" data-name="Path 8535" d="M352.446,878.228a.363.363,0,0,1-.362-.363v-2.917a.361.361,0,1,1,.723,0v2.917A.362.362,0,0,1,352.446,878.228Z" transform="translate(-352.084 -874.587)" fill="#cfccff"/>
      </g>
    </g>
    <g id="Group_18172" data-name="Group 18172" transform="translate(-3391.816 6617.54)">
      <g id="Group_18169" data-name="Group 18169" transform="translate(0 0.003)">
        <path id="Path_8536" data-name="Path 8536" d="M397.59,749.659a.345.345,0,0,1-.361-.327v-2.627a.363.363,0,0,1,.723,0v2.627a.31.31,0,0,1-.106.231A.383.383,0,0,1,397.59,749.659Z" transform="translate(-397.229 -746.38)" fill="#fff" stroke="rgba(0,0,0,0)" stroke-width="1"/>
      </g>
      <g id="Group_18170" data-name="Group 18170" transform="translate(0 10.363)">
        <path id="Path_8537" data-name="Path 8537" d="M397.59,877.775a.345.345,0,0,1-.361-.327v-5.157a.363.363,0,0,1,.723,0v5.157A.346.346,0,0,1,397.59,877.775Zm0-12.895a.346.346,0,0,1-.361-.328V859.4a.363.363,0,0,1,.723,0v5.157a.311.311,0,0,1-.105.232.384.384,0,0,1-.257.1Zm0-12.893a.346.346,0,0,1-.361-.329V846.5a.363.363,0,0,1,.723,0v5.158a.347.347,0,0,1-.362.329Zm0-12.894a.346.346,0,0,1-.361-.328v-5.154a.363.363,0,0,1,.723,0v5.158a.346.346,0,0,1-.362.325Zm0-12.895a.346.346,0,0,1-.361-.328v-5.157a.363.363,0,0,1,.723,0v5.153a.312.312,0,0,1-.1.234.384.384,0,0,1-.258.1Zm0-12.895a.346.346,0,0,1-.361-.328v-5.157a.363.363,0,0,1,.723,0v5.157a.311.311,0,0,1-.105.232.384.384,0,0,1-.257.1Zm0-12.894a.346.346,0,0,1-.361-.329v-5.158a.363.363,0,0,1,.723,0v5.158a.347.347,0,0,1-.362.33Zm0-12.894a.347.347,0,0,1-.361-.33v-5.157a.363.363,0,0,1,.723,0v5.157a.312.312,0,0,1-.1.233.385.385,0,0,1-.257.1Zm0-12.895a.346.346,0,0,1-.361-.328v-5.155a.363.363,0,0,1,.723,0V774.3a.346.346,0,0,1-.362.327Zm0-12.895a.384.384,0,0,1-.256-.1.311.311,0,0,1-.1-.232V756.24a.363.363,0,0,1,.723,0V761.4a.31.31,0,0,1-.1.234.384.384,0,0,1-.258.1Z" transform="translate(-397.229 -755.914)" fill="#fff" stroke="rgba(0,0,0,0)" stroke-width="1"/>
      </g>
      <g id="Group_18171" data-name="Group 18171" transform="translate(0 139.307)">
        <path id="Path_8538" data-name="Path 8538" d="M397.59,877.866a.345.345,0,0,1-.361-.327v-2.627a.363.363,0,0,1,.723,0v2.627a.346.346,0,0,1-.362.327Z" transform="translate(-397.229 -874.587)" fill="#fff" stroke="rgba(0,0,0,0)" stroke-width="1"/>
      </g>
    </g>
    <g id="Group_18176" data-name="Group 18176" transform="translate(-3326.747 6580.737)">
      <g id="Group_18173" data-name="Group 18173" transform="translate(0 0.002)">
        <path id="Path_8539" data-name="Path 8539" d="M450.158,723.291a.364.364,0,0,1-.362-.366V720.01a.361.361,0,1,1,.723,0v2.915a.363.363,0,0,1-.361.366Z" transform="translate(-449.796 -719.648)" fill="#cfccff"/>
      </g>
      <g id="Group_18174" data-name="Group 18174" transform="translate(0 11.68)">
        <path id="Path_8540" data-name="Path 8540" d="M450.158,887.151a.354.354,0,0,1-.362-.344v-5.515a.362.362,0,0,1,.723,0v5.515a.353.353,0,0,1-.361.344Zm0-13.786a.353.353,0,0,1-.362-.343v-5.51a.362.362,0,0,1,.723,0v5.512a.352.352,0,0,1-.361.342Zm0-13.782a.355.355,0,0,1-.362-.345v-5.514a.362.362,0,0,1,.723,0v5.514a.337.337,0,0,1-.105.244.37.37,0,0,1-.256.1Zm0-13.786a.353.353,0,0,1-.362-.343V839.94a.362.362,0,0,1,.723,0v5.515a.336.336,0,0,1-.106.243.369.369,0,0,1-.255.1Zm0-13.784a.354.354,0,0,1-.362-.344v-5.512a.362.362,0,0,1,.723,0v5.512a.353.353,0,0,1-.361.345Zm0-13.784a.369.369,0,0,1-.256-.1.336.336,0,0,1-.106-.243v-5.513a.362.362,0,0,1,.723,0v5.513a.335.335,0,0,1-.105.244.368.368,0,0,1-.255.1Zm0-13.783a.355.355,0,0,1-.362-.345v-5.513a.362.362,0,0,1,.723,0V804.1a.337.337,0,0,1-.105.244.37.37,0,0,1-.256.1Zm0-13.784a.353.353,0,0,1-.362-.343v-5.514a.362.362,0,0,1,.723,0v5.514a.352.352,0,0,1-.361.343Zm0-13.784a.354.354,0,0,1-.362-.344v-5.513a.362.362,0,0,1,.723,0v5.513a.353.353,0,0,1-.361.344Zm0-13.784a.354.354,0,0,1-.362-.344v-5.513a.362.362,0,0,1,.723,0v5.513a.353.353,0,0,1-.361.339Zm0-13.784a.353.353,0,0,1-.362-.344v-5.515a.362.362,0,0,1,.723,0v5.511a.336.336,0,0,1-.1.245.369.369,0,0,1-.256.1Zm0-13.783a.354.354,0,0,1-.362-.344v-5.513a.362.362,0,0,1,.723,0v5.513a.352.352,0,0,1-.361.342Z" transform="translate(-449.796 -729.327)" fill="#cfccff"/>
      </g>
      <g id="Group_18175" data-name="Group 18175" transform="translate(0 177.543)">
        <path id="Path_8541" data-name="Path 8541" d="M450.158,878.228a.363.363,0,0,1-.362-.363v-2.917a.361.361,0,1,1,.723,0v2.917A.362.362,0,0,1,450.158,878.228Z" transform="translate(-449.796 -874.587)" fill="#cfccff"/>
      </g>
    </g>
    <g id="Group_18180" data-name="Group 18180" transform="translate(-3267.535 6596.962)">
      <g id="Group_18177" data-name="Group 18177">
        <path id="Path_8542" data-name="Path 8542" d="M495.613,742.941a.364.364,0,0,1-.362-.365v-2.915a.361.361,0,1,1,.723,0v2.915a.363.363,0,0,1-.361.365Z" transform="translate(-495.251 -739.296)" fill="#cfccff"/>
      </g>
      <g id="Group_18178" data-name="Group 18178" transform="translate(0 11.991)">
        <path id="Path_8543" data-name="Path 8543" d="M495.613,890.249a.363.363,0,0,1-.362-.361V883.92a.361.361,0,1,1,.723,0v5.968a.363.363,0,0,1-.361.361Zm0-14.925a.362.362,0,0,1-.362-.36v-5.971a.361.361,0,1,1,.723,0v5.971a.362.362,0,0,1-.361.36Zm0-14.925a.362.362,0,0,1-.362-.36v-5.971a.361.361,0,1,1,.723,0v5.971a.362.362,0,0,1-.361.361Zm0-14.924a.362.362,0,0,1-.362-.36v-5.971a.361.361,0,1,1,.723,0v5.971a.362.362,0,0,1-.361.36Zm0-14.928a.361.361,0,0,1-.362-.358v-5.97a.361.361,0,1,1,.723,0v5.97a.361.361,0,0,1-.361.359Zm0-14.925a.362.362,0,0,1-.362-.358v-5.971a.361.361,0,1,1,.723,0v5.971a.362.362,0,0,1-.361.359Zm0-14.924a.362.362,0,0,1-.362-.361v-5.969a.361.361,0,1,1,.723,0v5.969a.362.362,0,0,1-.361.363Zm0-14.925a.362.362,0,0,1-.362-.36v-5.971a.361.361,0,1,1,.723,0v5.971a.362.362,0,0,1-.361.361Zm0-14.925a.362.362,0,0,1-.362-.36v-5.971a.361.361,0,1,1,.723,0v5.971a.362.362,0,0,1-.361.361Zm0-14.925a.362.362,0,0,1-.362-.36v-5.97a.361.361,0,1,1,.723,0v5.97a.362.362,0,0,1-.361.36Z" transform="translate(-495.251 -749.233)" fill="#cfccff"/>
      </g>
      <g id="Group_18179" data-name="Group 18179" transform="translate(0 161.354)">
        <path id="Path_8544" data-name="Path 8544" d="M495.613,878.228a.363.363,0,0,1-.362-.363v-2.917a.361.361,0,1,1,.723,0v2.917a.363.363,0,0,1-.361.363Z" transform="translate(-495.251 -874.584)" fill="#cfccff"/>
      </g>
    </g>
    <g id="Group_18184" data-name="Group 18184" transform="translate(-3220.697 6589.804)">
      <g id="Group_18181" data-name="Group 18181">
        <path id="Path_8545" data-name="Path 8545" d="M534.429,737.009a.364.364,0,0,1-.362-.364V733.73a.362.362,0,0,1,.724,0v2.915A.364.364,0,0,1,534.429,737.009Z" transform="translate(-534.067 -733.364)" fill="#cfccff"/>
      </g>
      <g id="Group_18182" data-name="Group 18182" transform="translate(0 11.579)">
        <path id="Path_8546" data-name="Path 8546" d="M534.429,891.958a.362.362,0,0,1-.362-.36v-5.7a.362.362,0,0,1,.724,0v5.7a.362.362,0,0,1-.362.36Zm0-14.258a.362.362,0,0,1-.362-.361v-5.7a.362.362,0,0,1,.724,0v5.7a.362.362,0,0,1-.362.361Zm0-14.259a.362.362,0,0,1-.362-.36v-5.7a.362.362,0,0,1,.724,0v5.7a.362.362,0,0,1-.362.361Zm0-14.257a.361.361,0,0,1-.362-.359v-5.7a.362.362,0,0,1,.724,0v5.7a.361.361,0,0,1-.362.36Zm0-14.257a.362.362,0,0,1-.362-.36v-5.7a.362.362,0,0,1,.724,0v5.7a.362.362,0,0,1-.362.362Zm0-14.258a.362.362,0,0,1-.362-.36v-5.7a.362.362,0,0,1,.724,0v5.7a.362.362,0,0,1-.362.362Zm0-14.259a.361.361,0,0,1-.362-.36v-5.7a.362.362,0,0,1,.724,0v5.7a.361.361,0,0,1-.362.362Zm0-14.258a.361.361,0,0,1-.362-.36v-5.7a.362.362,0,0,1,.724,0v5.7a.361.361,0,0,1-.362.362Zm0-14.257a.361.361,0,0,1-.362-.36v-5.7a.362.362,0,0,1,.724,0v5.7a.361.361,0,0,1-.362.365Zm0-14.258a.361.361,0,0,1-.362-.359v-5.7a.362.362,0,0,1,.724,0v5.7a.361.361,0,0,1-.362.362Zm0-14.256a.361.361,0,0,1-.362-.361v-5.7a.362.362,0,0,1,.724,0v5.7a.361.361,0,0,1-.362.363Z" transform="translate(-534.067 -742.96)" fill="#cfccff"/>
      </g>
      <g id="Group_18183" data-name="Group 18183" transform="translate(0 168.512)">
        <path id="Path_8547" data-name="Path 8547" d="M534.429,878.228a.363.363,0,0,1-.362-.363v-2.917a.362.362,0,0,1,.724,0v2.917a.363.363,0,0,1-.362.363Z" transform="translate(-534.067 -874.584)" fill="#cfccff"/>
      </g>
    </g>
    <g id="Group_18188" data-name="Group 18188" transform="translate(-3161.485 6575.131)">
      <g id="Group_18185" data-name="Group 18185" transform="translate(0 0.004)">
        <path id="Path_8548" data-name="Path 8548" d="M592.127,756.652a.363.363,0,0,1-.361-.364v-2.915a.361.361,0,1,1,.723,0v2.915A.363.363,0,0,1,592.127,756.652Z" transform="translate(-591.766 -753.011)" fill="#cfccff"/>
      </g>
      <g id="Group_18186" data-name="Group 18186" transform="translate(0 11.906)">
        <path id="Path_8549" data-name="Path 8549" d="M592.127,925.9a.427.427,0,0,1-.361-.47v-7.719a.373.373,0,1,1,.723,0v7.719A.428.428,0,0,1,592.127,925.9Zm0-19.3a.428.428,0,0,1-.361-.472v-7.717a.373.373,0,1,1,.723,0v7.718a.429.429,0,0,1-.362.471Zm0-19.295a.428.428,0,0,1-.361-.472v-7.721a.373.373,0,1,1,.723,0v7.718a.43.43,0,0,1-.362.474Zm0-19.3a.426.426,0,0,1-.361-.469v-7.718a.373.373,0,1,1,.723,0v7.718a.428.428,0,0,1-.362.47Zm0-19.295a.427.427,0,0,1-.361-.469v-7.718a.373.373,0,1,1,.723,0v7.718a.425.425,0,0,1-.362.466Zm0-19.3a.427.427,0,0,1-.361-.469v-7.718a.373.373,0,1,1,.723,0v7.718a.427.427,0,0,1-.362.469Zm0-19.295a.426.426,0,0,1-.361-.469v-7.718a.373.373,0,1,1,.723,0v7.718A.427.427,0,0,1,592.127,810.12Zm0-19.295a.426.426,0,0,1-.361-.469v-7.719a.373.373,0,1,1,.723,0v7.719a.427.427,0,0,1-.362.468Zm0-19.3a.426.426,0,0,1-.361-.469V763.34a.373.373,0,1,1,.723,0v7.718A.427.427,0,0,1,592.127,771.527Z" transform="translate(-591.766 -762.874)" fill="#cfccff"/>
      </g>
      <g id="Group_18187" data-name="Group 18187" transform="translate(0 183.188)">
        <path id="Path_8550" data-name="Path 8550" d="M592.127,878.228a.362.362,0,0,1-.361-.363v-2.917a.361.361,0,1,1,.723,0v2.917a.363.363,0,0,1-.362.363Z" transform="translate(-591.766 -874.587)" fill="#cfccff"/>
      </g>
    </g>
    <path id="Path_8563" data-name="Path 8563" d="M728.668,931.161Z" transform="translate(-3841.532 5829.706)" fill="#fff"/>
    <g id="Group_18164-2" data-name="Group 18164" transform="translate(-4557.581 6586.997)">
      <g id="Group_18161-2" data-name="Group 18161" transform="translate(0 0.003)">
        <path id="Path_8530-2" data-name="Path 8530" d="M301.574,747.887a.683.683,0,0,1-.4-.123.371.371,0,0,1-.165-.3v-3.361c0-.23.253-.417.566-.417s.566.186.566.417v3.361C302.141,747.7,301.888,747.886,301.574,747.887Z" transform="translate(-301.007 -743.689)" fill="#fff"/>
      </g>
      <g id="Group_18162-2" data-name="Group 18162" transform="translate(0 13.482)">
        <path id="Path_8531-2" data-name="Path 8531" d="M301.574,901.121c-.314,0-.568-.175-.567-.39V894.48c0-.213.253-.386.566-.386s.566.173.566.386v6.252C302.14,900.946,301.887,901.12,301.574,901.121Zm0-15.631c-.314,0-.568-.175-.567-.39v-6.254c0-.213.253-.386.566-.386s.566.173.566.386V885.1c0,.213-.253.386-.565.387Zm0-15.635c-.314,0-.568-.175-.567-.39v-6.255c0-.213.253-.386.566-.386s.566.173.566.386v6.255c0,.213-.253.386-.565.387Zm0-15.635c-.315,0-.569-.176-.567-.391v-6.256c0-.213.253-.386.566-.386s.566.173.566.386v6.254c0,.214-.251.389-.565.39Zm0-15.635c-.314,0-.568-.175-.567-.39v-6.255c0-.213.253-.386.566-.386s.566.173.566.386V838.2c0,.213-.253.386-.565.387Zm0-15.635a.721.721,0,0,1-.4-.115.338.338,0,0,1-.165-.275v-6.256c0-.213.253-.386.566-.386s.566.173.566.386v6.254c0,.213-.252.387-.565.388Zm0-15.635c-.314,0-.568-.174-.567-.388v-6.256c0-.213.253-.386.566-.386s.566.173.566.386v6.256c0,.214-.252.388-.565.388Zm0-15.635c-.314,0-.568-.175-.567-.39v-6.254c0-.213.253-.386.566-.386s.566.173.566.386v6.254c0,.213-.253.386-.565.387Zm0-15.635a.721.721,0,0,1-.4-.115.339.339,0,0,1-.165-.275V769.4c0-.213.253-.386.566-.386s.566.173.566.386v6.254c0,.213-.253.386-.565.387Zm0-15.635a.721.721,0,0,1-.4-.115.338.338,0,0,1-.165-.275v-6.254c0-.213.253-.386.566-.386s.566.173.566.386v6.254c0,.213-.253.386-.565.387Z" transform="translate(-301.007 -753.383)" fill="#fff"/>
      </g>
      <g id="Group_18163-2" data-name="Group 18163" transform="translate(0 170.498)">
        <path id="Path_8532-2" data-name="Path 8532" d="M301.574,878.785c-.314,0-.568-.188-.567-.419V875c0-.23.253-.417.566-.417s.566.186.566.417v3.362c0,.23-.252.418-.565.419Z" transform="translate(-301.007 -874.588)" fill="#fff"/>
      </g>
    </g>
    <g id="Group_18168-2" data-name="Group 18168" transform="translate(-4461.057 6593.816)">
      <g id="Group_18165-2" data-name="Group 18165" transform="translate(0 0.004)">
        <path id="Path_8533-2" data-name="Path 8533" d="M352.651,751.589a.7.7,0,0,1-.4-.119.358.358,0,0,1-.165-.288v-3.271c0-.224.253-.405.566-.405s.566.181.566.405v3.271a.357.357,0,0,1-.164.288.7.7,0,0,1-.4.12Z" transform="translate(-352.084 -747.506)" fill="#cfccff"/>
      </g>
      <g id="Group_18166-2" data-name="Group 18166" transform="translate(0 12.823)" opacity="0.35">
        <path id="Path_8534-2" data-name="Path 8534" d="M352.651,897.487c-.3.006-.558-.165-.567-.383v-5.943c.018-.214.266-.382.566-.382s.548.167.566.382V897.1C353.207,897.321,352.955,897.493,352.651,897.487Zm0-14.869a.687.687,0,0,1-.394-.107.357.357,0,0,1-.173-.275v-5.943c.018-.214.266-.382.566-.382s.548.167.566.382v5.943c-.009.217-.262.388-.565.382Zm0-14.866c-.3.007-.558-.164-.567-.382v-5.947c.018-.214.266-.382.566-.382s.548.167.566.382v5.947c-.009.217-.262.388-.565.382Zm0-14.867a.686.686,0,0,1-.394-.107.357.357,0,0,1-.173-.275v-5.943c.018-.214.266-.382.566-.382s.548.167.566.382V852.5c-.009.217-.262.388-.565.382Zm0-14.866c-.3.006-.557-.164-.567-.382V831.69c.018-.214.266-.382.566-.382s.548.167.566.382v5.948c-.01.217-.262.387-.565.382Zm0-14.866c-.3.006-.557-.164-.567-.382v-5.948c.018-.214.266-.382.566-.382s.548.167.566.382v5.948C353.206,822.989,352.954,823.159,352.651,823.153Zm0-14.867c-.3.007-.557-.163-.567-.38v-5.947c.018-.214.266-.382.566-.382s.548.167.566.382V807.9a.355.355,0,0,1-.171.276.685.685,0,0,1-.394.108Zm0-14.866c-.3.006-.557-.164-.567-.382V787.1c.018-.214.266-.382.566-.382s.548.167.566.382v5.943c-.01.216-.263.387-.565.381Zm0-14.867c-.3.006-.557-.164-.567-.382v-5.943c.018-.214.266-.382.566-.382s.548.167.566.382v5.943C353.206,778.388,352.954,778.558,352.651,778.552Zm0-14.866c-.3.006-.557-.164-.567-.382v-5.943c.018-.214.266-.382.566-.382s.548.167.566.382V763.3c-.01.217-.263.387-.565.381Z" transform="translate(-352.084 -756.98)" fill="#fff" stroke="rgba(0,0,0,0)" stroke-width="1"/>
      </g>
      <g id="Group_18167-2" data-name="Group 18167" transform="translate(0 162.064)">
        <path id="Path_8535-2" data-name="Path 8535" d="M352.651,878.671c-.314,0-.568-.183-.567-.407v-3.271c0-.224.253-.405.566-.405s.566.181.566.405v3.271c0,.224-.252.407-.565.407Z" transform="translate(-352.084 -874.588)" fill="#cfccff"/>
      </g>
    </g>
    <g id="Group_18172-2" data-name="Group 18172" transform="translate(-4373.742 6595.295)">
      <g id="Group_18169-2" data-name="Group 18169" transform="translate(0 0.004)">
        <path id="Path_8536-2" data-name="Path 8536" d="M397.794,750.41a.7.7,0,0,1-.4-.118.351.351,0,0,1-.164-.284v-3.227c0-.221.253-.4.566-.4s.566.179.566.4v3.227a.353.353,0,0,1-.165.284.7.7,0,0,1-.4.118Z" transform="translate(-397.229 -746.381)" fill="#fff" stroke="rgba(0,0,0,0)" stroke-width="1"/>
      </g>
      <g id="Group_18170-2" data-name="Group 18170" transform="translate(0 12.733)">
        <path id="Path_8537-2" data-name="Path 8537" d="M397.794,895.118c-.3.007-.555-.16-.565-.374v-5.891c.018-.211.266-.377.566-.377s.548.165.566.377v5.891C398.35,894.958,398.1,895.125,397.794,895.118Zm0-14.729c-.3.006-.555-.161-.565-.375v-5.891c.018-.211.266-.376.566-.376s.548.165.566.376v5.891c-.01.214-.264.382-.567.375Zm0-14.728c-.3.006-.555-.162-.565-.375v-5.894c.018-.211.266-.377.566-.377s.548.165.566.377v5.892a.352.352,0,0,1-.173.272A.694.694,0,0,1,397.794,865.66Zm0-14.729c-.3.006-.555-.162-.565-.375v-5.892c.018-.211.266-.376.566-.376s.548.165.566.376v5.892c-.01.214-.264.382-.567.375Zm0-14.729c-.3.006-.555-.162-.565-.375v-5.893c.018-.211.266-.377.566-.377s.548.165.566.377v5.891a.352.352,0,0,1-.173.271.694.694,0,0,1-.394.105Zm0-14.729c-.3.006-.555-.162-.565-.375v-5.891c.018-.211.266-.377.566-.377s.548.165.566.377V821.1c-.011.214-.264.381-.567.374Zm0-14.729c-.3.006-.555-.162-.565-.375v-5.891c.018-.211.266-.376.566-.376s.548.165.566.376v5.892c-.011.214-.265.38-.567.374Zm0-14.729c-.3.006-.555-.162-.565-.376v-5.891c.018-.211.266-.377.566-.377s.548.165.566.377v5.891c-.011.214-.264.381-.567.375Zm0-14.729c-.3.006-.555-.161-.565-.375v-5.89c.018-.211.266-.377.566-.377s.548.165.566.377v5.892c-.012.213-.266.379-.567.372Zm0-14.729c-.3.006-.556-.162-.565-.376V756.29c.018-.211.266-.376.566-.376s.548.165.566.376v5.891c-.01.214-.264.382-.567.374Z" transform="translate(-397.229 -755.914)" fill="#fff" stroke="rgba(0,0,0,0)" stroke-width="1"/>
      </g>
      <g id="Group_18171-2" data-name="Group 18171" transform="translate(0 160.639)">
        <path id="Path_8538-2" data-name="Path 8538" d="M397.794,878.617c-.313,0-.566-.181-.565-.4v-3.227c0-.221.253-.4.566-.4s.566.179.566.4v3.227C398.362,878.436,398.108,878.616,397.794,878.617Z" transform="translate(-397.229 -874.588)" fill="#fff" stroke="rgba(0,0,0,0)" stroke-width="1"/>
      </g>
    </g>
    <g id="Group_18176-2" data-name="Group 18176" transform="translate(-4274.769 6558.71)">
      <g id="Group_18173-2" data-name="Group 18173" transform="translate(0 0.002)">
        <path id="Path_8539-2" data-name="Path 8539" d="M450.363,724.91a.549.549,0,0,1-.567-.528v-4.211a.568.568,0,0,1,1.132,0v4.211a.5.5,0,0,1-.164.372.592.592,0,0,1-.4.156Z" transform="translate(-449.796 -719.649)" fill="#cfccff"/>
      </g>
      <g id="Group_18174-2" data-name="Group 18174" transform="translate(0 16.859)">
        <path id="Path_8540-2" data-name="Path 8540" d="M450.363,896.84c-.312,0-.567-.164-.567-.369v-5.853c0-.2.255-.369.567-.369s.565.164.565.369v5.853C450.928,896.676,450.675,896.84,450.363,896.84Zm0-14.632c-.312,0-.567-.163-.567-.363v-5.851c0-.2.255-.369.567-.369s.565.164.565.369v5.851c0,.2-.253.362-.565.362Zm0-14.628c-.312,0-.567-.164-.567-.369v-5.846c0-.2.255-.363.567-.363s.565.163.565.363v5.852c0,.2-.253.363-.565.363Zm0-14.632c-.312,0-.567-.163-.567-.363v-5.853c0-.2.255-.369.567-.369s.565.164.565.369v5.853c0,.2-.253.365-.565.365Zm0-14.63c-.312,0-.567-.164-.567-.369V832.1c0-.2.255-.369.567-.369s.565.163.565.369v5.851c0,.2-.253.365-.565.365Zm0-14.63c-.312,0-.567-.162-.567-.363v-5.852c0-.2.255-.369.567-.369s.565.163.565.369v5.852c0,.2-.253.364-.565.364Zm0-14.629c-.312,0-.567-.164-.567-.369v-5.852c0-.2.255-.364.567-.364s.565.163.565.364v5.852c0,.206-.253.37-.565.37Zm0-14.63c-.312,0-.567-.163-.567-.363v-5.852c0-.2.255-.369.567-.369s.565.164.565.369v5.852c0,.2-.253.364-.565.364Zm0-14.63c-.312,0-.567-.164-.567-.369v-5.852c0-.2.255-.369.567-.369s.565.161.565.369v5.852c0,.206-.253.37-.565.37Zm0-14.63c-.312,0-.567-.163-.567-.369v-5.852c0-.2.255-.369.567-.369s.565.164.565.369V764.8c0,.207-.253.37-.565.37Zm0-14.63c-.312,0-.567-.163-.567-.369v-5.853c0-.2.255-.362.567-.362s.565.162.565.362v5.853c0,.207-.253.369-.565.369Zm0-14.629c-.312,0-.567-.163-.567-.369v-5.852c0-.2.255-.369.567-.369s.565.163.565.369v5.852c0,.207-.253.37-.565.37Z" transform="translate(-449.796 -729.317)" fill="#cfccff"/>
      </g>
      <g id="Group_18175-2" data-name="Group 18175" transform="translate(0 195.993)">
        <path id="Path_8541-2" data-name="Path 8541" d="M450.363,879.847a.548.548,0,0,1-.567-.525V875.11a.568.568,0,0,1,1.132,0v4.213a.546.546,0,0,1-.565.525Z" transform="translate(-449.796 -874.588)" fill="#cfccff"/>
      </g>
    </g>
    <g id="Group_18180-2" data-name="Group 18180" transform="translate(-4187.322 6584.23)">
      <g id="Group_18177-2" data-name="Group 18177" transform="translate(0 0.006)">
        <path id="Path_8542-2" data-name="Path 8542" d="M495.818,744.836a.561.561,0,0,1-.567-.554v-4.431a.566.566,0,0,1,1.132,0v4.431a.56.56,0,0,1-.565.554Z" transform="translate(-495.251 -739.302)" fill="#cfccff"/>
      </g>
      <g id="Group_18178-2" data-name="Group 18178" transform="translate(0 18.223)">
        <path id="Path_8543-2" data-name="Path 8543" d="M495.818,888.518c-.312,0-.567-.161-.567-.356v-5.894c0-.194.255-.356.567-.356s.565.16.565.356v5.9C496.383,888.357,496.128,888.518,495.818,888.518Zm0-14.741c-.312,0-.567-.16-.567-.355v-5.9c0-.194.255-.354.567-.354s.565.159.565.354v5.9C496.383,873.617,496.128,873.777,495.818,873.777Zm0-14.742c-.312,0-.567-.16-.567-.355v-5.9c0-.194.255-.355.567-.355s.565.16.565.355v5.9C496.383,858.874,496.128,859.034,495.818,859.034Zm0-14.74c-.312,0-.567-.16-.567-.355v-5.9c0-.194.255-.355.567-.355s.565.159.565.355v5.9C496.383,844.134,496.128,844.294,495.818,844.294Zm0-14.744c-.312,0-.567-.159-.567-.354v-5.9c0-.194.255-.355.567-.355s.565.16.565.355v5.9c0,.2-.255.355-.565.355Zm0-14.741c-.312,0-.567-.16-.567-.354v-5.9c0-.194.255-.355.567-.355s.565.16.565.355v5.9c0,.194-.255.353-.565.353Zm0-14.74c-.312,0-.567-.16-.567-.356v-5.9c0-.194.255-.355.567-.355s.565.159.565.355v5.9c0,.2-.255.355-.565.355Zm0-14.741c-.312,0-.567-.16-.567-.355v-5.9c0-.194.255-.354.567-.354s.565.16.565.354v5.9c0,.194-.255.354-.565.354Zm0-14.741c-.312,0-.567-.16-.567-.355v-5.9c0-.194.255-.354.567-.354s.565.157.565.354v5.9c0,.193-.255.353-.565.353Zm0-14.742c-.312,0-.567-.16-.567-.355v-5.9c0-.194.255-.356.567-.356s.565.159.565.356v5.9c0,.2-.255.355-.565.355Z" transform="translate(-495.251 -749.233)" fill="#cfccff"/>
      </g>
      <g id="Group_18179-2" data-name="Group 18179" transform="translate(0 170.197)">
        <path id="Path_8544-2" data-name="Path 8544" d="M495.818,880.122a.561.561,0,0,1-.567-.552v-4.433a.566.566,0,0,1,1.132,0v4.433a.561.561,0,0,1-.565.552Z" transform="translate(-495.251 -874.588)" fill="#cfccff"/>
      </g>
    </g>
    <g id="Group_18184-2" data-name="Group 18184" transform="translate(-4117.149 6567.661)">
      <g id="Group_18181-2" data-name="Group 18181">
        <path id="Path_8545-2" data-name="Path 8545" d="M534.634,739.073a.569.569,0,0,1-.567-.571v-4.566a.567.567,0,0,1,1.134,0V738.5a.569.569,0,0,1-.567.573Z" transform="translate(-534.067 -733.364)" fill="#cfccff"/>
      </g>
      <g id="Group_18182-2" data-name="Group 18182" transform="translate(0 18.134)">
        <path id="Path_8546-2" data-name="Path 8546" d="M534.634,898.994c-.312,0-.567-.17-.567-.377v-5.973c0-.207.255-.377.567-.377s.567.17.567.377v5.973C535.2,898.824,534.946,898.994,534.634,898.994Zm0-14.931c-.312,0-.567-.17-.567-.378v-5.972c0-.208.255-.378.567-.378s.567.17.567.378v5.972C535.2,883.893,534.946,884.063,534.634,884.063Zm0-14.932c-.312,0-.567-.17-.567-.377v-5.97c0-.208.255-.378.567-.378s.567.17.567.378v5.97C535.2,868.961,534.946,869.131,534.634,869.131Zm0-14.93c-.312,0-.567-.168-.567-.376v-5.974c0-.207.255-.375.567-.375s.567.168.567.375v5.974c0,.207-.255.375-.567.375Zm0-14.93c-.312,0-.567-.17-.567-.377v-5.973c0-.207.255-.377.567-.377s.567.17.567.377v5.973C535.2,839.1,534.946,839.271,534.634,839.271Zm0-14.931c-.312,0-.567-.17-.567-.377V817.99c0-.207.255-.377.567-.377s.567.17.567.377v5.973c0,.208-.255.377-.567.377Zm0-14.932c-.312,0-.567-.168-.567-.377V803.06c0-.207.255-.378.567-.378s.567.171.567.378v5.971c0,.209-.255.377-.567.377Zm0-14.931c-.312,0-.567-.169-.567-.377v-5.972c0-.207.255-.375.567-.375s.567.168.567.375V794.1c0,.209-.255.377-.567.377Zm0-14.93c-.312,0-.567-.168-.567-.377V773.2c0-.21.255-.377.567-.377s.567.167.567.377v5.972c0,.207-.255.375-.567.375Zm0-14.931c-.312,0-.567-.168-.567-.375v-5.973c0-.208.255-.376.567-.376s.567.167.567.376v5.973c0,.207-.255.375-.567.375Zm0-14.93c-.312,0-.567-.168-.567-.378v-5.971c0-.21.255-.378.567-.378s.567.168.567.378v5.971c0,.21-.255.379-.567.379Z" transform="translate(-534.067 -742.96)" fill="#cfccff"/>
      </g>
      <g id="Group_18183-2" data-name="Group 18183" transform="translate(0 186.593)">
        <path id="Path_8547-2" data-name="Path 8547" d="M534.634,880.291a.569.569,0,0,1-.567-.569v-4.568a.567.567,0,0,1,1.134,0v4.568a.569.569,0,0,1-.567.569Z" transform="translate(-534.067 -874.584)" fill="#cfccff"/>
      </g>
    </g>
    <g id="Group_18188-2" data-name="Group 18188" transform="translate(-4023.546 6595.528)">
      <g id="Group_18185-2" data-name="Group 18185" transform="translate(0 0.007)">
        <path id="Path_8548-2" data-name="Path 8548" d="M592.331,758.716a.568.568,0,0,1-.565-.571V753.58a.566.566,0,0,1,1.132,0v4.566a.569.569,0,0,1-.567.57Z" transform="translate(-591.766 -753.014)" fill="#cfccff"/>
      </g>
      <g id="Group_18186-2" data-name="Group 18186" transform="translate(0 18.644)">
        <path id="Path_8549-2" data-name="Path 8549" d="M592.331,891.066c-.314,0-.566-.167-.565-.369v-6.068c0-.2.253-.366.566-.366s.566.164.566.366V890.7c0,.2-.255.365-.567.367Zm0-15.174c-.314,0-.567-.167-.565-.371v-6.069c0-.2.253-.366.566-.366s.566.164.566.366v6.069C592.9,875.725,592.646,875.891,592.331,875.892Zm0-15.173c-.314,0-.567-.167-.565-.371V854.28c0-.2.253-.366.566-.366s.566.164.566.366v6.069c0,.2-.252.37-.567.371Zm0-15.175c-.314,0-.566-.167-.565-.369v-6.069c0-.2.253-.366.566-.366s.566.164.566.366v6.069c0,.2-.253.369-.567.37Zm0-15.173c-.314,0-.567-.166-.565-.369v-6.07c0-.2.253-.366.566-.366s.566.164.566.366V830a.319.319,0,0,1-.165.261.752.752,0,0,1-.4.109Zm0-15.174c-.313,0-.566-.167-.565-.369v-6.069c0-.2.253-.366.566-.366s.566.164.566.366v6.069c0,.2-.253.369-.567.37Zm0-15.173c-.314,0-.566-.167-.565-.369v-6.069c0-.2.253-.366.566-.366s.566.164.566.366v6.069c0,.2-.253.369-.567.37Zm0-15.173c-.314,0-.567-.166-.565-.369v-6.068c0-.2.253-.366.566-.366s.566.164.566.366v6.071c0,.2-.254.367-.567.367Zm0-15.174c-.313,0-.566-.167-.565-.369V763.24c0-.2.253-.366.566-.366s.566.164.566.366v6.069a.318.318,0,0,1-.164.263.752.752,0,0,1-.4.11Z" transform="translate(-591.766 -762.874)" fill="#cfccff"/>
      </g>
      <g id="Group_18187-2" data-name="Group 18187" transform="translate(0 159.772)">
        <path id="Path_8550-2" data-name="Path 8550" d="M592.331,880.291a.567.567,0,0,1-.565-.569v-4.568a.566.566,0,0,1,1.132,0v4.568a.569.569,0,0,1-.567.569Z" transform="translate(-591.766 -874.588)" fill="#cfccff"/>
      </g>
    </g>
    <g id="Group_18196" data-name="Group 18196" transform="translate(-3948.271 6758.25)">
      <path id="Path_8563-2" data-name="Path 8563" d="M849.189,993.534Z" transform="translate(-849.189 -993.534)" fill="#fff" opacity="0.25"/>
    </g>
    <g id="Group_18164-3" data-name="Group 18164" transform="translate(-3962.712 6621.603)">
      <g id="Group_18161-3" data-name="Group 18161" transform="translate(0 0.002)">
        <path id="Path_8530-3" data-name="Path 8530" d="M301.418,747.187a.384.384,0,0,1-.411-.35v-2.8a.416.416,0,0,1,.821,0v2.8A.383.383,0,0,1,301.418,747.187Z" transform="translate(-301.007 -743.688)" fill="#fff"/>
      </g>
      <g id="Group_18162-3" data-name="Group 18162" transform="translate(0 11.235)">
        <path id="Path_8531-3" data-name="Path 8531" d="M301.418,869.536a.373.373,0,0,1-.411-.306v-4.915a.429.429,0,0,1,.821,0v4.915A.372.372,0,0,1,301.418,869.536Zm0-12.291a.373.373,0,0,1-.411-.306v-4.916a.429.429,0,0,1,.821,0v4.916a.372.372,0,0,1-.41.306Zm0-12.292a.373.373,0,0,1-.411-.306v-4.918a.429.429,0,0,1,.821,0v4.918A.372.372,0,0,1,301.418,844.953Zm0-12.293a.373.373,0,0,1-.411-.307v-4.916a.429.429,0,0,1,.821,0v4.916a.372.372,0,0,1-.41.307Zm0-12.292a.373.373,0,0,1-.411-.306v-4.917a.429.429,0,0,1,.821,0v4.917A.372.372,0,0,1,301.418,820.367Zm0-12.292a.372.372,0,0,1-.411-.306v-4.916a.429.429,0,0,1,.821,0v4.916a.371.371,0,0,1-.41.305Zm0-12.292a.372.372,0,0,1-.411-.305v-4.919a.429.429,0,0,1,.821,0v4.919a.371.371,0,0,1-.41.3Zm0-12.292a.373.373,0,0,1-.411-.306v-4.916a.429.429,0,0,1,.821,0v4.916a.372.372,0,0,1-.41.3Zm0-12.292a.372.372,0,0,1-.411-.306v-4.916a.429.429,0,0,1,.821,0v4.916a.371.371,0,0,1-.41.3Zm0-12.292a.372.372,0,0,1-.411-.306v-4.916a.429.429,0,0,1,.821,0V758.6a.371.371,0,0,1-.41.3Z" transform="translate(-301.007 -753.379)" fill="#fff"/>
      </g>
      <g id="Group_18163-3" data-name="Group 18163" transform="translate(0 135.125)">
        <path id="Path_8532-3" data-name="Path 8532" d="M301.418,878.085a.384.384,0,0,1-.411-.349v-2.8a.416.416,0,0,1,.821,0v2.8a.383.383,0,0,1-.41.349Z" transform="translate(-301.007 -874.587)" fill="#fff"/>
      </g>
    </g>
    <g id="Group_18168-3" data-name="Group 18168" transform="translate(-3907.705 6621.909)">
      <g id="Group_18165-3" data-name="Group 18165" transform="translate(0.005 0)">
        <path id="Path_8533-3" data-name="Path 8533" d="M352.5,751a.383.383,0,0,1-.411-.349v-2.8a.416.416,0,0,1,.821,0v2.8A.383.383,0,0,1,352.5,751Z" transform="translate(-352.089 -747.502)" fill="#cfccff"/>
      </g>
      <g id="Group_18166-3" data-name="Group 18166" transform="translate(0.005 10.983)" opacity="0.35">
        <path id="Path_8534-3" data-name="Path 8534" d="M352.5,873.332a.375.375,0,0,1-.411-.317v-4.924a.425.425,0,0,1,.821,0v4.924a.374.374,0,0,1-.41.317Zm0-12.312a.374.374,0,0,1-.411-.316V855.78a.425.425,0,0,1,.821,0V860.7a.373.373,0,0,1-.41.316Zm0-12.31a.374.374,0,0,1-.411-.316v-4.925a.425.425,0,0,1,.821,0v4.923a.373.373,0,0,1-.41.319Zm0-12.311a.374.374,0,0,1-.411-.316v-4.924a.425.425,0,0,1,.821,0v4.924a.374.374,0,0,1-.41.316Zm0-12.311a.375.375,0,0,1-.411-.316v-4.925a.425.425,0,0,1,.821,0v4.925a.374.374,0,0,1-.41.315Zm0-12.311a.375.375,0,0,1-.411-.316v-4.925a.425.425,0,0,1,.821,0v4.925a.374.374,0,0,1-.41.315Zm0-12.311a.374.374,0,0,1-.411-.315v-4.926a.425.425,0,0,1,.821,0v4.925a.373.373,0,0,1-.41.314Zm0-12.311a.375.375,0,0,1-.411-.316v-4.924a.425.425,0,0,1,.821,0v4.924a.374.374,0,0,1-.41.315Zm0-12.311a.375.375,0,0,1-.411-.316V769.6a.425.425,0,0,1,.821,0v4.924a.374.374,0,0,1-.41.315Zm0-12.311a.375.375,0,0,1-.411-.316v-4.924a.425.425,0,0,1,.821,0v4.924a.374.374,0,0,1-.41.314Z" transform="translate(-352.089 -756.978)" fill="#fff" stroke="rgba(0,0,0,0)" stroke-width="1"/>
      </g>
      <g id="Group_18167-3" data-name="Group 18167" transform="translate(0.005 134.819)">
        <path id="Path_8535-3" data-name="Path 8535" d="M352.5,878.085a.384.384,0,0,1-.411-.349v-2.8a.416.416,0,0,1,.821,0v2.8a.383.383,0,0,1-.41.349Z" transform="translate(-352.089 -874.587)" fill="#cfccff"/>
      </g>
    </g>
    <g id="Group_18172-3" data-name="Group 18172" transform="translate(-3844.829 6620.594)">
      <g id="Group_18169-3" data-name="Group 18169" transform="translate(0 0.003)">
        <path id="Path_8536-3" data-name="Path 8536" d="M397.639,749.878a.383.383,0,0,1-.41-.349v-2.8a.416.416,0,0,1,.821,0v2.8a.383.383,0,0,1-.411.349Z" transform="translate(-397.229 -746.38)" fill="#fff" stroke="rgba(0,0,0,0)" stroke-width="1"/>
      </g>
      <g id="Group_18170-3" data-name="Group 18170" transform="translate(0 11.057)">
        <path id="Path_8537-3" data-name="Path 8537" d="M397.639,875.176a.374.374,0,0,1-.41-.32V869.81a.423.423,0,0,1,.821,0v5.046a.375.375,0,0,1-.411.32Zm0-12.619a.375.375,0,0,1-.41-.321V857.19a.423.423,0,0,1,.821,0v5.046a.375.375,0,0,1-.411.321Zm0-12.618a.375.375,0,0,1-.41-.321v-5.046a.423.423,0,0,1,.821,0v5.046a.377.377,0,0,1-.411.319Zm0-12.619a.375.375,0,0,1-.41-.321v-5.046a.423.423,0,0,1,.821,0V837a.376.376,0,0,1-.411.321Zm0-12.619a.375.375,0,0,1-.41-.321v-5.046a.423.423,0,0,1,.821,0v5.046A.376.376,0,0,1,397.639,824.7Zm0-12.619a.375.375,0,0,1-.41-.321v-5.046a.423.423,0,0,1,.821,0v5.046a.377.377,0,0,1-.411.32Zm0-12.619a.375.375,0,0,1-.41-.321V794.1a.423.423,0,0,1,.821,0v5.046A.376.376,0,0,1,397.639,799.462Zm0-12.619a.375.375,0,0,1-.41-.322v-5.046a.423.423,0,0,1,.821,0v5.046a.376.376,0,0,1-.411.321Zm0-12.619a.375.375,0,0,1-.41-.321v-5.046a.423.423,0,0,1,.821,0V773.9a.375.375,0,0,1-.411.32Zm0-12.619a.375.375,0,0,1-.41-.322v-5.046a.423.423,0,0,1,.821,0v5.046a.375.375,0,0,1-.411.321Z" transform="translate(-397.229 -755.917)" fill="#fff" stroke="rgba(0,0,0,0)" stroke-width="1"/>
      </g>
      <g id="Group_18171-3" data-name="Group 18171" transform="translate(0 137.873)">
        <path id="Path_8538-3" data-name="Path 8538" d="M397.639,878.085a.383.383,0,0,1-.41-.349v-2.8a.416.416,0,0,1,.821,0v2.8a.384.384,0,0,1-.411.349Z" transform="translate(-397.229 -874.587)" fill="#fff" stroke="rgba(0,0,0,0)" stroke-width="1"/>
      </g>
    </g>
    <g id="Group_18176-3" data-name="Group 18176" transform="translate(-3773.779 6591.183)">
      <g id="Group_18173-3" data-name="Group 18173" transform="translate(0 0.005)">
        <path id="Path_8539-3" data-name="Path 8539" d="M450.207,723.147a.385.385,0,0,1-.411-.351V720a.416.416,0,0,1,.821,0v2.8A.384.384,0,0,1,450.207,723.147Z" transform="translate(-449.796 -719.651)" fill="#cfccff"/>
      </g>
      <g id="Group_18174-3" data-name="Group 18174" transform="translate(0 11.219)">
        <path id="Path_8540-3" data-name="Path 8540" d="M450.207,877.67a.378.378,0,0,1-.411-.323v-5.184a.423.423,0,0,1,.821,0v5.184a.376.376,0,0,1-.41.323Zm0-12.957a.377.377,0,0,1-.411-.322v-5.181a.423.423,0,0,1,.821,0v5.186a.375.375,0,0,1-.41.318Zm0-12.954a.378.378,0,0,1-.411-.324v-5.182a.423.423,0,0,1,.821,0v5.182a.376.376,0,0,1-.41.325Zm0-12.957a.377.377,0,0,1-.411-.322v-5.184a.423.423,0,0,1,.821,0v5.184a.375.375,0,0,1-.41.323Zm0-12.956a.378.378,0,0,1-.411-.323v-5.181a.423.423,0,0,1,.821,0v5.179a.375.375,0,0,1-.41.326Zm0-12.956a.376.376,0,0,1-.411-.322v-5.182a.423.423,0,0,1,.821,0v5.182a.375.375,0,0,1-.41.323Zm0-12.955a.378.378,0,0,1-.411-.324v-5.182a.423.423,0,0,1,.821,0v5.182a.376.376,0,0,1-.41.325Zm0-12.956a.377.377,0,0,1-.411-.322v-5.181a.421.421,0,0,1,.821,0v5.182a.375.375,0,0,1-.41.322Zm0-12.956a.377.377,0,0,1-.411-.323v-5.182a.423.423,0,0,1,.821,0V773.7a.376.376,0,0,1-.41.324Zm0-12.956a.377.377,0,0,1-.411-.323V755.56a.423.423,0,0,1,.821,0v5.182a.375.375,0,0,1-.41.325Zm0-12.956a.377.377,0,0,1-.411-.323V742.6a.423.423,0,0,1,.821,0v5.184a.374.374,0,0,1-.41.327Zm0-12.955a.377.377,0,0,1-.411-.323v-5.182a.423.423,0,0,1,.821,0v5.182a.375.375,0,0,1-.41.325Z" transform="translate(-449.796 -729.326)" fill="#cfccff"/>
      </g>
      <g id="Group_18175-3" data-name="Group 18175" transform="translate(0 167.285)">
        <path id="Path_8541-3" data-name="Path 8541" d="M450.207,878.085a.385.385,0,0,1-.411-.349v-2.8a.416.416,0,0,1,.821,0v2.8a.383.383,0,0,1-.41.349Z" transform="translate(-449.796 -874.587)" fill="#cfccff"/>
      </g>
    </g>
    <g id="Group_18180-3" data-name="Group 18180" transform="translate(-3711.478 6611.314)">
      <g id="Group_18177-3" data-name="Group 18177" transform="translate(0 0.005)">
        <path id="Path_8542-3" data-name="Path 8542" d="M495.662,742.8a.385.385,0,0,1-.411-.35v-2.8a.416.416,0,0,1,.821,0v2.8a.384.384,0,0,1-.41.35Z" transform="translate(-495.251 -739.301)" fill="#cfccff"/>
      </g>
      <g id="Group_18178-3" data-name="Group 18178" transform="translate(0 11.522)">
        <path id="Path_8543-3" data-name="Path 8543" d="M495.662,876.847a.379.379,0,0,1-.411-.326v-5.4a.422.422,0,0,1,.821,0v5.4a.378.378,0,0,1-.41.326Zm0-13.506a.378.378,0,0,1-.411-.325v-5.4a.422.422,0,0,1,.821,0v5.4a.377.377,0,0,1-.41.325Zm0-13.506a.378.378,0,0,1-.411-.325v-5.4a.422.422,0,0,1,.821,0v5.4a.377.377,0,0,1-.41.326Zm0-13.505a.378.378,0,0,1-.411-.325v-5.4a.422.422,0,0,1,.821,0V836a.378.378,0,0,1-.41.325Zm0-13.509a.378.378,0,0,1-.411-.325v-5.4a.422.422,0,0,1,.821,0v5.4a.377.377,0,0,1-.41.324Zm0-13.506a.378.378,0,0,1-.411-.324v-5.4a.422.422,0,0,1,.821,0v5.4a.377.377,0,0,1-.41.324Zm0-13.505a.378.378,0,0,1-.411-.326v-5.4a.422.422,0,0,1,.821,0v5.4a.378.378,0,0,1-.41.325Zm0-13.506a.378.378,0,0,1-.411-.325v-5.4a.422.422,0,0,1,.821,0v5.4a.378.378,0,0,1-.41.32Zm0-13.506a.378.378,0,0,1-.411-.325v-5.4a.422.422,0,0,1,.821,0v5.4a.378.378,0,0,1-.41.323Zm0-13.506a.379.379,0,0,1-.411-.325v-5.4a.422.422,0,0,1,.821,0v5.4a.378.378,0,0,1-.41.322Z" transform="translate(-495.251 -749.237)" fill="#cfccff"/>
      </g>
      <g id="Group_18179-3" data-name="Group 18179" transform="translate(0 147.152)">
        <path id="Path_8544-3" data-name="Path 8544" d="M495.662,878.085a.385.385,0,0,1-.411-.349v-2.8a.416.416,0,0,1,.821,0v2.8a.384.384,0,0,1-.41.349Z" transform="translate(-495.251 -874.587)" fill="#cfccff"/>
      </g>
    </g>
    <g id="Group_18184-3" data-name="Group 18184" transform="translate(-3658.276 6603.441)">
      <g id="Group_18181-3" data-name="Group 18181" transform="translate(0 0)">
        <path id="Path_8545-3" data-name="Path 8545" d="M534.478,736.866a.385.385,0,0,1-.411-.35v-2.8a.416.416,0,0,1,.822,0v2.8a.385.385,0,0,1-.411.35Z" transform="translate(-534.067 -733.364)" fill="#cfccff"/>
      </g>
      <g id="Group_18182-3" data-name="Group 18182" transform="translate(0 11.116)">
        <path id="Path_8546-3" data-name="Path 8546" d="M534.478,879.234a.379.379,0,0,1-.411-.329v-5.217a.421.421,0,0,1,.822,0V878.9A.38.38,0,0,1,534.478,879.234Zm0-13.041a.38.38,0,0,1-.411-.33v-5.215a.421.421,0,0,1,.822,0v5.215a.379.379,0,0,1-.411.335Zm0-13.042a.38.38,0,0,1-.411-.329v-5.214a.421.421,0,0,1,.822,0v5.214a.378.378,0,0,1-.411.334Zm0-13.04a.379.379,0,0,1-.411-.328v-5.21a.422.422,0,0,1,.822,0v5.218a.379.379,0,0,1-.411.324Zm0-13.04a.378.378,0,0,1-.411-.329v-5.217a.421.421,0,0,1,.822,0v5.217a.378.378,0,0,1-.411.334Zm0-13.041a.379.379,0,0,1-.411-.329v-5.217a.421.421,0,0,1,.822,0V813.7a.378.378,0,0,1-.411.335Zm0-13.042a.379.379,0,0,1-.411-.329v-5.214a.421.421,0,0,1,.822,0v5.214a.378.378,0,0,1-.411.334Zm0-13.041a.379.379,0,0,1-.411-.329V782.4a.422.422,0,0,1,.822,0v5.215a.378.378,0,0,1-.411.335Zm0-13.04a.379.379,0,0,1-.411-.329v-5.216a.421.421,0,0,1,.822,0v5.225a.379.379,0,0,1-.411.326Zm0-13.041a.379.379,0,0,1-.411-.328v-5.211a.422.422,0,0,1,.822,0v5.217a.379.379,0,0,1-.411.327Zm0-13.04a.378.378,0,0,1-.411-.33v-5.214a.421.421,0,0,1,.822,0V748.5a.355.355,0,0,1-.131.248.4.4,0,0,1-.28.088Z" transform="translate(-534.067 -742.953)" fill="#cfccff"/>
      </g>
      <g id="Group_18183-3" data-name="Group 18183" transform="translate(0 155.022)">
        <path id="Path_8547-3" data-name="Path 8547" d="M534.478,878.085a.385.385,0,0,1-.411-.349v-2.8a.416.416,0,0,1,.822,0v2.8A.385.385,0,0,1,534.478,878.085Z" transform="translate(-534.067 -874.584)" fill="#cfccff"/>
      </g>
    </g>
    <g id="Group_18188-3" data-name="Group 18188" transform="translate(-3579.193 6617.544)">
      <g id="Group_18185-3" data-name="Group 18185">
        <path id="Path_8548-3" data-name="Path 8548" d="M592.176,756.509a.383.383,0,0,1-.41-.35v-2.8a.415.415,0,0,1,.821,0v2.8A.385.385,0,0,1,592.176,756.509Z" transform="translate(-591.766 -753.007)" fill="#cfccff"/>
      </g>
      <g id="Group_18186-3" data-name="Group 18186" transform="translate(0 11.433)">
        <path id="Path_8549-3" data-name="Path 8549" d="M592.176,884.426a.384.384,0,0,1-.41-.35V878.32a.416.416,0,0,1,.821,0v5.756a.385.385,0,0,1-.411.35Zm0-14.388a.384.384,0,0,1-.41-.351v-5.755a.416.416,0,0,1,.821,0v5.755A.386.386,0,0,1,592.176,870.038Zm0-14.387a.384.384,0,0,1-.41-.351v-5.755a.416.416,0,0,1,.821,0V855.3A.386.386,0,0,1,592.176,855.651Zm0-14.389a.384.384,0,0,1-.41-.35v-5.755a.416.416,0,0,1,.821,0v5.755a.385.385,0,0,1-.411.35Zm0-14.387a.383.383,0,0,1-.41-.35V820.77a.416.416,0,0,1,.821,0v5.755a.385.385,0,0,1-.411.35Zm0-14.388a.384.384,0,0,1-.41-.35v-5.755a.416.416,0,0,1,.821,0v5.755A.385.385,0,0,1,592.176,812.487Zm0-14.387a.384.384,0,0,1-.41-.35V792a.416.416,0,0,1,.821,0v5.755a.385.385,0,0,1-.411.345Zm0-14.387a.383.383,0,0,1-.41-.35v-5.756a.415.415,0,0,1,.821,0v5.756a.385.385,0,0,1-.411.351Zm0-14.388a.384.384,0,0,1-.41-.35V763.22a.416.416,0,0,1,.821,0v5.755a.385.385,0,0,1-.411.351Z" transform="translate(-591.766 -762.871)" fill="#cfccff"/>
      </g>
      <g id="Group_18187-3" data-name="Group 18187" transform="translate(0 140.92)">
        <path id="Path_8550-3" data-name="Path 8550" d="M592.176,878.085a.383.383,0,0,1-.41-.349v-2.8a.416.416,0,0,1,.821,0v2.8a.385.385,0,0,1-.411.349Z" transform="translate(-591.766 -874.584)" fill="#cfccff"/>
      </g>
    </g>
    <g id="Group_18196-2" data-name="Group 18196" transform="translate(-3535.793 6760.914)">
      <path id="Path_8563-3" data-name="Path 8563" d="M728.668,931.161Z" transform="translate(-728.668 -931.161)" fill="#fff" opacity="0.25"/>
    </g>
    <g id="Group_18164-4" data-name="Group 18164" transform="translate(-3102.679 6563.24)" opacity="0.35">
      <g id="Group_18161-4" data-name="Group 18161" transform="translate(0 -0.02)">
        <path id="Path_8530-4" data-name="Path 8530" d="M301.48,748.451a.474.474,0,0,1-.473-.476v-3.814a.473.473,0,1,1,.945,0v3.814a.474.474,0,0,1-.472.476Z" transform="translate(-301.007 -743.666)" fill="#fff"/>
      </g>
      <g id="Group_18162-4" data-name="Group 18162" transform="translate(0 15.267)">
        <path id="Path_8531-4" data-name="Path 8531" d="M301.48,918.772a.456.456,0,0,1-.473-.437v-6.995a.425.425,0,0,1,.23-.391.511.511,0,0,1,.486,0,.425.425,0,0,1,.23.392v7A.456.456,0,0,1,301.48,918.772Zm0-17.5a.456.456,0,0,1-.473-.437v-7a.425.425,0,0,1,.23-.391.511.511,0,0,1,.486,0,.425.425,0,0,1,.23.392v7a.416.416,0,0,1-.136.31.5.5,0,0,1-.336.13Zm0-17.5a.456.456,0,0,1-.473-.436v-7a.425.425,0,0,1,.23-.392.511.511,0,0,1,.486,0,.425.425,0,0,1,.23.392v7a.416.416,0,0,1-.136.311.5.5,0,0,1-.336.131Zm0-17.5a.457.457,0,0,1-.473-.437v-7a.425.425,0,0,1,.23-.391.511.511,0,0,1,.486,0,.425.425,0,0,1,.23.392v7a.416.416,0,0,1-.136.31.5.5,0,0,1-.336.13Zm0-17.5a.456.456,0,0,1-.473-.436v-7a.425.425,0,0,1,.23-.391.511.511,0,0,1,.486,0,.425.425,0,0,1,.23.392v7a.456.456,0,0,1-.472.436Zm0-17.5a.5.5,0,0,1-.336-.128.415.415,0,0,1-.137-.308v-7a.425.425,0,0,1,.23-.392.511.511,0,0,1,.486,0,.425.425,0,0,1,.23.392v7a.416.416,0,0,1-.136.309.5.5,0,0,1-.336.129Zm0-17.5a.455.455,0,0,1-.473-.435v-7a.425.425,0,0,1,.23-.392.511.511,0,0,1,.486,0,.425.425,0,0,1,.23.392v7a.415.415,0,0,1-.136.309.5.5,0,0,1-.336.129Zm0-17.5a.456.456,0,0,1-.473-.436v-7a.425.425,0,0,1,.23-.391.511.511,0,0,1,.486,0,.425.425,0,0,1,.23.392v7a.416.416,0,0,1-.137.309.5.5,0,0,1-.335.13Zm0-17.5a.5.5,0,0,1-.336-.128.416.416,0,0,1-.137-.308v-7a.425.425,0,0,1,.23-.392.511.511,0,0,1,.486,0,.425.425,0,0,1,.23.392v7a.416.416,0,0,1-.137.308.5.5,0,0,1-.335.129Zm0-17.5a.5.5,0,0,1-.336-.128.416.416,0,0,1-.137-.308v-7a.425.425,0,0,1,.23-.391.511.511,0,0,1,.486,0,.425.425,0,0,1,.23.392v7a.416.416,0,0,1-.137.308.5.5,0,0,1-.335.129Z" transform="translate(-301.007 -753.354)" fill="#fff"/>
      </g>
      <g id="Group_18163-4" data-name="Group 18163" transform="translate(0 191.194)">
        <path id="Path_8532-4" data-name="Path 8532" d="M301.48,879.349a.474.474,0,0,1-.473-.475V875.06a.473.473,0,1,1,.945,0v3.814a.474.474,0,0,1-.472.475Z" transform="translate(-301.007 -874.565)" fill="#fff"/>
      </g>
    </g>
    <g id="Group_18168-4" data-name="Group 18168" transform="translate(-3041.086 6569.708)">
      <g id="Group_18165-4" data-name="Group 18165" transform="translate(0 -0.018)">
        <path id="Path_8533-4" data-name="Path 8533" d="M352.557,752.267a.473.473,0,0,1-.473-.475v-3.814a.473.473,0,1,1,.945,0v3.814a.473.473,0,0,1-.472.475Z" transform="translate(-352.084 -747.484)" fill="#cfccff"/>
      </g>
      <g id="Group_18166-4" data-name="Group 18166" transform="translate(0 14.931)" opacity="0.35">
        <path id="Path_8534-4" data-name="Path 8534" d="M352.557,916.593a.456.456,0,0,1-.473-.435V909.4a.422.422,0,0,1,.23-.389.514.514,0,0,1,.485,0,.422.422,0,0,1,.23.389v6.755a.456.456,0,0,1-.472.435Zm0-16.89a.5.5,0,0,1-.335-.127.412.412,0,0,1-.138-.306v-6.755a.422.422,0,0,1,.23-.389.514.514,0,0,1,.485,0,.422.422,0,0,1,.23.389v6.755a.454.454,0,0,1-.472.433Zm0-16.887a.5.5,0,0,1-.336-.128.412.412,0,0,1-.137-.306v-6.756a.422.422,0,0,1,.23-.389.513.513,0,0,1,.485,0,.422.422,0,0,1,.23.389v6.756a.412.412,0,0,1-.137.307.5.5,0,0,1-.335.128Zm0-16.888a.5.5,0,0,1-.336-.128.412.412,0,0,1-.137-.306v-6.75a.422.422,0,0,1,.23-.389.513.513,0,0,1,.485,0,.422.422,0,0,1,.23.389V865.5a.454.454,0,0,1-.472.43Zm0-16.888a.455.455,0,0,1-.473-.434v-6.756a.422.422,0,0,1,.23-.389.514.514,0,0,1,.485,0,.422.422,0,0,1,.23.389V848.6a.455.455,0,0,1-.472.434Zm0-16.888a.456.456,0,0,1-.473-.434V824.96a.422.422,0,0,1,.23-.389.513.513,0,0,1,.485,0,.422.422,0,0,1,.23.389v6.754a.413.413,0,0,1-.137.307.5.5,0,0,1-.335.129Zm0-16.888a.454.454,0,0,1-.473-.432v-6.756a.422.422,0,0,1,.23-.389.514.514,0,0,1,.485,0,.422.422,0,0,1,.23.389v6.756a.454.454,0,0,1-.472.431Zm0-16.888a.455.455,0,0,1-.473-.433v-6.755a.422.422,0,0,1,.23-.389.514.514,0,0,1,.485,0,.422.422,0,0,1,.23.389v6.755a.455.455,0,0,1-.472.432Zm0-16.888a.455.455,0,0,1-.473-.434V774.3a.422.422,0,0,1,.23-.389.513.513,0,0,1,.485,0,.422.422,0,0,1,.23.389v6.755a.455.455,0,0,1-.472.432Zm0-16.888a.455.455,0,0,1-.473-.434v-6.755a.422.422,0,0,1,.23-.389.514.514,0,0,1,.485,0,.422.422,0,0,1,.23.389v6.755a.455.455,0,0,1-.472.432Z" transform="translate(-352.084 -756.958)" fill="#fff" stroke="rgba(0,0,0,0)" stroke-width="1"/>
      </g>
      <g id="Group_18167-4" data-name="Group 18167" transform="translate(0 184.727)">
        <path id="Path_8535-4" data-name="Path 8535" d="M352.557,879.349a.474.474,0,0,1-.473-.475V875.06a.473.473,0,1,1,.945,0v3.814a.474.474,0,0,1-.472.475Z" transform="translate(-352.084 -874.565)" fill="#cfccff"/>
      </g>
    </g>
    <g id="Group_18172-4" data-name="Group 18172" transform="translate(-2971.313 6567.371)" opacity="0.35">
      <g id="Group_18169-4" data-name="Group 18169" transform="translate(-0.001 -0.018)">
        <path id="Path_8536-4" data-name="Path 8536" d="M397.7,751.142a.473.473,0,0,1-.472-.475v-3.814a.473.473,0,1,1,.945,0v3.814a.473.473,0,0,1-.473.475Z" transform="translate(-397.228 -746.359)" fill="#fff" stroke="rgba(0,0,0,0)" stroke-width="1"/>
      </g>
      <g id="Group_18170-4" data-name="Group 18170" transform="translate(-0.001 15.029)">
        <path id="Path_8537-4" data-name="Path 8537" d="M397.7,917.665a.455.455,0,0,1-.472-.434v-6.844a.424.424,0,0,1,.23-.391.512.512,0,0,1,.485,0,.424.424,0,0,1,.23.391v6.842a.415.415,0,0,1-.137.308.5.5,0,0,1-.336.128Zm0-17.116a.5.5,0,0,1-.335-.129.415.415,0,0,1-.137-.307v-6.845a.424.424,0,0,1,.23-.391.511.511,0,0,1,.485,0,.424.424,0,0,1,.23.391v6.845a.415.415,0,0,1-.137.308.5.5,0,0,1-.336.129Zm0-17.114a.455.455,0,0,1-.472-.436v-6.846a.424.424,0,0,1,.23-.391.512.512,0,0,1,.485,0,.424.424,0,0,1,.23.391V883a.416.416,0,0,1-.137.308.5.5,0,0,1-.336.129Zm0-17.116a.456.456,0,0,1-.472-.435v-6.846a.424.424,0,0,1,.23-.391.512.512,0,0,1,.485,0,.424.424,0,0,1,.23.391v6.846a.456.456,0,0,1-.473.431Zm0-17.115a.455.455,0,0,1-.472-.436v-6.845a.424.424,0,0,1,.23-.391.512.512,0,0,1,.485,0,.424.424,0,0,1,.23.391v6.842a.416.416,0,0,1-.137.309.5.5,0,0,1-.336.13Zm0-17.116a.456.456,0,0,1-.472-.435V824.81a.424.424,0,0,1,.23-.391.512.512,0,0,1,.485,0,.424.424,0,0,1,.23.391v6.845a.456.456,0,0,1-.473.436Zm0-17.115a.455.455,0,0,1-.472-.436v-6.846a.424.424,0,0,1,.23-.391.512.512,0,0,1,.485,0,.424.424,0,0,1,.23.391v6.846A.457.457,0,0,1,397.7,814.975Zm0-17.116a.456.456,0,0,1-.472-.437v-6.844a.424.424,0,0,1,.23-.391.512.512,0,0,1,.485,0,.424.424,0,0,1,.23.391v6.845a.456.456,0,0,1-.473.437Zm0-17.116a.5.5,0,0,1-.335-.129.415.415,0,0,1-.137-.307v-6.846a.424.424,0,0,1,.23-.391.512.512,0,0,1,.485,0,.424.424,0,0,1,.23.391v6.846a.415.415,0,0,1-.137.308.5.5,0,0,1-.336.128Zm0-17.116a.5.5,0,0,1-.335-.129.415.415,0,0,1-.137-.308v-6.845a.424.424,0,0,1,.23-.391.512.512,0,0,1,.485,0,.424.424,0,0,1,.23.391v6.845a.415.415,0,0,1-.137.309.5.5,0,0,1-.336.129Z" transform="translate(-397.228 -755.895)" fill="#fff" stroke="rgba(0,0,0,0)" stroke-width="1"/>
      </g>
      <g id="Group_18171-4" data-name="Group 18171" transform="translate(-0.001 187.064)">
        <path id="Path_8538-4" data-name="Path 8538" d="M397.7,879.349a.474.474,0,0,1-.472-.475V875.06a.473.473,0,1,1,.945,0v3.814a.474.474,0,0,1-.473.475Z" transform="translate(-397.228 -874.565)" fill="#fff" stroke="rgba(0,0,0,0)" stroke-width="1"/>
      </g>
    </g>
    <g id="Group_18176-4" data-name="Group 18176" transform="translate(-2885.47 6526.055)">
      <g id="Group_18173-4" data-name="Group 18173" transform="translate(0 -0.02)">
        <path id="Path_8539-4" data-name="Path 8539" d="M450.269,724.412a.476.476,0,0,1-.473-.478v-3.812a.473.473,0,1,1,.945,0v3.812a.474.474,0,0,1-.472.478Z" transform="translate(-449.796 -719.627)" fill="#cfccff"/>
      </g>
      <g id="Group_18174-4" data-name="Group 18174" transform="translate(0 15.251)">
        <path id="Path_8540-4" data-name="Path 8540" d="M450.269,931.945a.46.46,0,0,1-.473-.441v-7.08a.475.475,0,0,1,.945,0v7.08a.458.458,0,0,1-.472.441Zm0-17.7a.458.458,0,0,1-.473-.44v-7.077a.475.475,0,0,1,.945,0v7.077A.457.457,0,0,1,450.269,914.247Zm0-17.694a.46.46,0,0,1-.473-.443v-7.078a.475.475,0,0,1,.945,0v7.077a.459.459,0,0,1-.472.444Zm0-17.7a.458.458,0,0,1-.473-.44v-7.08a.475.475,0,0,1,.945,0v7.08A.457.457,0,0,1,450.269,878.856Zm0-17.7a.46.46,0,0,1-.473-.441V853.64a.475.475,0,0,1,.945,0v7.077a.458.458,0,0,1-.472.441Zm0-17.7a.457.457,0,0,1-.473-.44v-7.077a.475.475,0,0,1,.945,0v7.078a.427.427,0,0,1-.139.312.486.486,0,0,1-.333.128Zm0-17.695a.46.46,0,0,1-.473-.443v-7.078a.475.475,0,0,1,.945,0v7.078a.459.459,0,0,1-.472.443Zm0-17.7a.458.458,0,0,1-.473-.44v-7.079a.437.437,0,0,1,.23-.4.5.5,0,0,1,.486,0,.437.437,0,0,1,.23.4v7.079a.457.457,0,0,1-.472.44Zm0-17.7a.46.46,0,0,1-.469-.442v-7.078a.475.475,0,0,1,.945,0v7.078a.429.429,0,0,1-.14.314.489.489,0,0,1-.336.128Zm0-17.7a.459.459,0,0,1-.473-.441v-7.078a.475.475,0,0,1,.945,0v7.078a.427.427,0,0,1-.138.313.488.488,0,0,1-.334.129Zm0-17.7a.459.459,0,0,1-.473-.441v-7.08a.475.475,0,0,1,.945,0v7.08a.457.457,0,0,1-.472.438Zm0-17.695a.459.459,0,0,1-.473-.441v-7.075a.437.437,0,0,1,.23-.4.5.5,0,0,1,.486,0,.437.437,0,0,1,.23.4v7.078a.457.457,0,0,1-.472.44Z" transform="translate(-449.796 -729.305)" fill="#cfccff"/>
      </g>
      <g id="Group_18175-4" data-name="Group 18175" transform="translate(0 228.379)">
        <path id="Path_8541-4" data-name="Path 8541" d="M450.269,879.349a.475.475,0,0,1-.473-.475V875.06a.473.473,0,1,1,.945,0v3.814a.474.474,0,0,1-.472.475Z" transform="translate(-449.796 -874.565)" fill="#cfccff"/>
      </g>
    </g>
    <g id="Group_18180-4" data-name="Group 18180" transform="translate(-2810.868 6554.793)">
      <g id="Group_18177-4" data-name="Group 18177" transform="translate(0 -0.017)">
        <path id="Path_8542-4" data-name="Path 8542" d="M495.724,744.063a.475.475,0,0,1-.473-.477v-3.812a.473.473,0,1,1,.945,0v3.812a.475.475,0,0,1-.472.477Z" transform="translate(-495.251 -739.279)" fill="#cfccff"/>
      </g>
      <g id="Group_18178-4" data-name="Group 18178" transform="translate(0 15.695)">
        <path id="Path_8543-4" data-name="Path 8543" d="M495.724,922.3a.461.461,0,0,1-.473-.443v-7.321a.475.475,0,0,1,.945,0v7.321a.46.46,0,0,1-.472.443Zm0-18.317a.459.459,0,0,1-.473-.441v-7.328a.475.475,0,0,1,.945,0v7.328a.459.459,0,0,1-.472.441Zm0-18.317a.459.459,0,0,1-.473-.441V877.9a.475.475,0,0,1,.945,0v7.328a.459.459,0,0,1-.472.444Zm0-18.316a.459.459,0,0,1-.473-.441v-7.332a.475.475,0,0,1,.945,0v7.328a.459.459,0,0,1-.472.444Zm0-18.321a.459.459,0,0,1-.473-.44v-7.326a.475.475,0,0,1,.945,0v7.326A.458.458,0,0,1,495.724,849.03Zm0-18.317a.459.459,0,0,1-.473-.44v-7.328a.475.475,0,0,1,.945,0v7.328a.459.459,0,0,1-.472.44Zm0-18.316a.46.46,0,0,1-.473-.443v-7.321a.475.475,0,0,1,.945,0v7.321a.459.459,0,0,1-.472.443Zm0-18.317a.459.459,0,0,1-.473-.441v-7.328a.475.475,0,0,1,.945,0v7.328a.459.459,0,0,1-.472.44Zm0-18.317a.459.459,0,0,1-.473-.441v-7.329a.475.475,0,0,1,.945,0v7.328a.459.459,0,0,1-.472.443Zm0-18.318a.459.459,0,0,1-.473-.441v-7.332a.475.475,0,0,1,.945,0V757a.459.459,0,0,1-.472.445Z" transform="translate(-495.251 -749.249)" fill="#cfccff"/>
      </g>
      <g id="Group_18179-4" data-name="Group 18179" transform="translate(0 199.641)">
        <path id="Path_8544-4" data-name="Path 8544" d="M495.724,879.349a.475.475,0,0,1-.473-.475V875.06a.473.473,0,1,1,.945,0v3.814a.475.475,0,0,1-.472.475Z" transform="translate(-495.251 -874.565)" fill="#cfccff"/>
      </g>
    </g>
    <g id="Group_18184-4" data-name="Group 18184" transform="translate(-2745.94 6534.104)">
      <g id="Group_18181-4" data-name="Group 18181">
        <path id="Path_8545-4" data-name="Path 8545" d="M534.54,738.131a.475.475,0,0,1-.473-.477v-3.812a.474.474,0,0,1,.947,0v3.812a.475.475,0,0,1-.474.477Z" transform="translate(-534.067 -733.364)" fill="#cfccff"/>
      </g>
      <g id="Group_18182-4" data-name="Group 18182" transform="translate(0 15.141)">
        <path id="Path_8546-4" data-name="Path 8546" d="M534.54,937.793a.473.473,0,0,1-.473-.47v-7.458a.474.474,0,0,1,.947,0v7.458a.473.473,0,0,1-.474.47Zm0-18.644a.474.474,0,0,1-.473-.472V911.22a.474.474,0,0,1,.947,0v7.457a.474.474,0,0,1-.474.473Zm0-18.645a.473.473,0,0,1-.473-.471v-7.455a.474.474,0,0,1,.947,0v7.455a.473.473,0,0,1-.474.467Zm0-18.642a.472.472,0,0,1-.473-.469v-7.46a.474.474,0,0,1,.947,0v7.46A.472.472,0,0,1,534.54,881.862Zm0-18.642a.473.473,0,0,1-.473-.47v-7.459a.474.474,0,0,1,.947,0v7.459a.473.473,0,0,1-.474.47Zm0-18.644a.474.474,0,0,1-.473-.471v-7.458a.474.474,0,0,1,.947,0V844.1a.473.473,0,0,1-.474.472Zm0-18.645a.472.472,0,0,1-.473-.47v-7.455a.474.474,0,0,1,.947,0v7.455a.472.472,0,0,1-.474.47Zm0-18.644a.473.473,0,0,1-.473-.471V799.36a.474.474,0,0,1,.947,0v7.457a.472.472,0,0,1-.474.471Zm0-18.642a.472.472,0,0,1-.473-.47v-7.457a.474.474,0,0,1,.947,0v7.457A.472.472,0,0,1,534.54,788.645Zm0-18.644a.472.472,0,0,1-.473-.469v-7.458a.474.474,0,0,1,.947,0v7.458a.472.472,0,0,1-.474.468Zm0-18.642a.473.473,0,0,1-.473-.472v-7.455a.474.474,0,0,1,.947,0v7.455a.473.473,0,0,1-.474.472Z" transform="translate(-534.067 -742.96)" fill="#cfccff"/>
      </g>
      <g id="Group_18183-4" data-name="Group 18183" transform="translate(0 220.349)">
        <path id="Path_8547-4" data-name="Path 8547" d="M534.54,879.349a.475.475,0,0,1-.473-.475V875.06a.474.474,0,0,1,.947,0v3.814A.475.475,0,0,1,534.54,879.349Z" transform="translate(-534.067 -874.584)" fill="#cfccff"/>
      </g>
    </g>
    <g id="Group_18188-4" data-name="Group 18188" transform="translate(-2657.897 6579.478)">
      <g id="Group_18185-4" data-name="Group 18185" transform="translate(0 -0.017)">
        <path id="Path_8548-4" data-name="Path 8548" d="M592.238,757.364a.5.5,0,0,1-.335-.129.415.415,0,0,1-.137-.307v-3.485a.424.424,0,0,1,.23-.391.511.511,0,0,1,.485,0,.425.425,0,0,1,.23.391v3.488A.456.456,0,0,1,592.238,757.364Z" transform="translate(-591.766 -752.99)" fill="#cfccff"/>
      </g>
      <g id="Group_18186-4" data-name="Group 18186" transform="translate(0 14.212)">
        <path id="Path_8549-4" data-name="Path 8549" d="M592.238,914.154a.455.455,0,0,1-.472-.436v-7.164a.424.424,0,0,1,.23-.391.511.511,0,0,1,.485,0,.425.425,0,0,1,.23.391v7.164A.458.458,0,0,1,592.238,914.154Zm0-17.907a.455.455,0,0,1-.472-.437v-7.162a.424.424,0,0,1,.23-.391.511.511,0,0,1,.485,0,.425.425,0,0,1,.23.391v7.162A.457.457,0,0,1,592.238,896.247Zm0-17.9a.455.455,0,0,1-.472-.437v-7.163a.424.424,0,0,1,.23-.391.511.511,0,0,1,.485,0,.425.425,0,0,1,.23.391V877.9a.457.457,0,0,1-.473.437Zm0-17.909a.455.455,0,0,1-.472-.436v-7.162a.424.424,0,0,1,.23-.391.511.511,0,0,1,.485,0,.425.425,0,0,1,.23.391V860a.457.457,0,0,1-.473.435Zm0-17.906a.455.455,0,0,1-.472-.435v-7.162a.424.424,0,0,1,.23-.391.511.511,0,0,1,.485,0,.425.425,0,0,1,.23.391v7.162A.456.456,0,0,1,592.238,842.528Zm0-17.907a.456.456,0,0,1-.472-.435V817.02a.424.424,0,0,1,.23-.391.511.511,0,0,1,.485,0,.425.425,0,0,1,.23.391v7.162a.417.417,0,0,1-.137.309.5.5,0,0,1-.336.13Zm0-17.906a.455.455,0,0,1-.472-.436v-7.162a.424.424,0,0,1,.23-.391.511.511,0,0,1,.485,0,.425.425,0,0,1,.23.391v7.162a.456.456,0,0,1-.473.436Zm0-17.9a.5.5,0,0,1-.335-.129.415.415,0,0,1-.137-.307V781.21a.424.424,0,0,1,.23-.391.511.511,0,0,1,.485,0,.425.425,0,0,1,.23.391v7.164a.456.456,0,0,1-.473.435Zm0-17.907a.455.455,0,0,1-.472-.436v-7.162a.424.424,0,0,1,.23-.391.511.511,0,0,1,.485,0,.425.425,0,0,1,.23.391v7.162a.457.457,0,0,1-.473.435Z" transform="translate(-591.766 -762.854)" fill="#cfccff"/>
      </g>
      <g id="Group_18187-4" data-name="Group 18187" transform="translate(0 175.367)">
        <path id="Path_8550-4" data-name="Path 8550" d="M592.238,878.939a.455.455,0,0,1-.472-.434v-3.487a.424.424,0,0,1,.23-.391.511.511,0,0,1,.485,0,.425.425,0,0,1,.23.391V878.5A.456.456,0,0,1,592.238,878.939Z" transform="translate(-591.766 -874.565)" fill="#cfccff"/>
      </g>
    </g>
    <g id="Group_18196-3" data-name="Group 18196" transform="translate(-2604.935 6757.789)">
      <path id="Path_8563-4" data-name="Path 8563" d="M728.668,931.161Z" transform="translate(-728.668 -931.161)" fill="#fff" opacity="0.25"/>
    </g>
    <path id="Path_51" data-name="Path 51" d="M-4674,6621.91l118.959-43.2,96.154,6.8h85.8l99.408-38.462,86.534,28.939,69.922-12.224,95.124,23.658,45.031,21.4,15.021,8.805h117.573l71.787-32.424,60.91,22.582s53.866-8.8,54.384-8.7,82.353,8.287,82.353,8.287l27.554,10.048,33.666-10.048,65.364,4.454H-3392l65.468-33.666,56.145,23.1,49.722-7.355,92.815-38.638,83.7,5.9,74.169-1.243,84.839-42.471,73.755,30.973,65.572-8.184,89.086,30.766,43.507,28.694" fill="none" stroke="#fff" stroke-linecap="round" stroke-width="2"/>
    <g id="Group_7" data-name="Group 7" transform="translate(2.935 1.929)">
      <path id="Path_8564" data-name="Path 8564" d="M563.2,737.978a24.615,24.615,0,1,1-24.615-24.819A24.615,24.615,0,0,1,563.2,737.978Z" transform="translate(-3761.493 5852.264)" fill="#26a69a" opacity="0.4"/>
      <path id="Path_8565" data-name="Path 8565" d="M550.3,736.077a13.607,13.607,0,1,1-13.6-13.721,13.607,13.607,0,0,1,13.6,13.721Z" transform="translate(-3759.802 5854.166)" fill="#26a69a"/>
      <path id="Path_8566" data-name="Path 8566" d="M545.228,735.329a9.272,9.272,0,1,1-9.273-9.35,9.272,9.272,0,0,1,9.273,9.35Z" transform="translate(-3759.06 5854.915)" fill="#fefefe" opacity="0.46"/>
      <path id="Path_8567" data-name="Path 8567" d="M540.152,734.58a4.939,4.939,0,1,1-4.939-4.979A4.939,4.939,0,0,1,540.152,734.58Z" transform="translate(-3758.317 5855.663)" fill="#26a69a"/>
    </g>
    <g id="Group_8" data-name="Group 8" transform="translate(2.817 5)">
      <path id="Path_8557" data-name="Path 8557" d="M403.682,747.586a5.253,5.253,0,1,1-5.255-5.3,5.253,5.253,0,0,1,5.255,5.3Z" transform="translate(-3668.781 5848.406)" fill="#fff"/>
      <path id="Path_8558" data-name="Path 8558" d="M402.207,747.369a3.994,3.994,0,1,1-4-4.026A3.994,3.994,0,0,1,402.207,747.369Z" transform="translate(-3668.565 5848.625)" fill="#0f8d82"/>
    </g>
    <g id="Group_9" data-name="Group 9" transform="translate(0.657 4)">
      <path id="Path_8557-2" data-name="Path 8557" d="M403.682,747.586a5.253,5.253,0,1,1-5.255-5.3,5.253,5.253,0,0,1,5.255,5.3Z" transform="translate(-3725.833 5827.127)" fill="#fff"/>
      <path id="Path_8558-2" data-name="Path 8558" d="M402.207,747.369a3.994,3.994,0,1,1-4-4.026A3.994,3.994,0,0,1,402.207,747.369Z" transform="translate(-3725.617 5827.345)" fill="#0f8d82"/>
    </g>
    <g id="Group_11" data-name="Group 11" transform="translate(1.831 5.476)">
      <path id="Path_8559" data-name="Path 8559" d="M358.536,748.711a5.253,5.253,0,1,1-5.254-5.3A5.253,5.253,0,0,1,358.536,748.711Z" transform="translate(-3802.361 5858.149)" fill="#fff"/>
      <path id="Path_8560" data-name="Path 8560" d="M357.061,748.494a3.994,3.994,0,1,1-3.994-4.026,3.994,3.994,0,0,1,3.994,4.026Z" transform="translate(-3802.145 5858.368)" fill="#0f8d82"/>
    </g>
    <g id="Group_12" data-name="Group 12" transform="translate(1.237 4.982)">
      <path id="Path_8557-3" data-name="Path 8557" d="M403.682,747.586a5.253,5.253,0,1,1-5.255-5.3,5.253,5.253,0,0,1,5.255,5.3Z" transform="translate(-3791.482 5857.93)" fill="#fff"/>
      <path id="Path_8558-3" data-name="Path 8558" d="M402.207,747.369a3.994,3.994,0,1,1-4-4.026A3.994,3.994,0,0,1,402.207,747.369Z" transform="translate(-3791.266 5858.148)" fill="#0f8d82"/>
    </g>
    <g id="Group_13" data-name="Group 13" transform="translate(-11.135 -44.876)">
      <path id="Path_8557-4" data-name="Path 8557" d="M403.682,747.586a5.253,5.253,0,1,1-5.255-5.3,5.253,5.253,0,0,1,5.255,5.3Z" transform="translate(-3548.779 5867.026)" fill="#fff"/>
      <path id="Path_8558-4" data-name="Path 8558" d="M402.207,747.369a3.994,3.994,0,1,1-4-4.026A3.994,3.994,0,0,1,402.207,747.369Z" transform="translate(-3548.563 5867.245)" fill="#0f8d82"/>
    </g>
    <g id="Group_18195" data-name="Group 18195" transform="translate(-3109.55 6549.482)">
      <path id="Path_8561" data-name="Path 8561" d="M310.692,746.523a6.869,6.869,0,1,1-6.868-6.924,6.869,6.869,0,0,1,6.868,6.924Z" transform="translate(-296.953 -739.599)" fill="#fff"/>
      <path id="Path_8562" data-name="Path 8562" d="M308.441,745.915a5.222,5.222,0,1,1-5.221-5.264,5.222,5.222,0,0,1,5.221,5.264Z" transform="translate(-296.35 -738.991)" fill="#0f8d82"/>
    </g>
    <g id="Group_18194" data-name="Group 18194" transform="translate(-3047.957 6553.614)">
      <path id="Path_8559-2" data-name="Path 8559" d="M361.769,750.34a6.869,6.869,0,1,1-6.87-6.925A6.869,6.869,0,0,1,361.769,750.34Z" transform="translate(-348.03 -743.415)" fill="#fff"/>
      <path id="Path_8560-2" data-name="Path 8560" d="M359.518,749.732a5.222,5.222,0,1,1-5.223-5.264,5.222,5.222,0,0,1,5.223,5.264Z" transform="translate(-347.427 -742.807)" fill="#0f8d82"/>
    </g>
    <g id="Group_18193" data-name="Group 18193" transform="translate(-2977.239 6551.724)">
      <path id="Path_8557-5" data-name="Path 8557" d="M406.915,749.215a6.869,6.869,0,1,1-6.872-6.925,6.869,6.869,0,0,1,6.872,6.925Z" transform="translate(-393.176 -742.29)" fill="#fff"/>
      <path id="Path_8558-5" data-name="Path 8558" d="M404.664,748.607a5.222,5.222,0,1,1-5.224-5.264,5.222,5.222,0,0,1,5.224,5.264Z" transform="translate(-392.573 -741.681)" fill="#0f8d82"/>
    </g>
    <g id="Group_18201" data-name="Group 18201" transform="translate(-2892.341 6510.822)">
      <path id="Path_8557-6" data-name="Path 8557" d="M406.915,749.215a6.869,6.869,0,1,1-6.872-6.925,6.869,6.869,0,0,1,6.872,6.925Z" transform="translate(-393.176 -742.29)" fill="#fff"/>
      <path id="Path_8558-6" data-name="Path 8558" d="M404.664,748.607a5.222,5.222,0,1,1-5.224-5.264,5.222,5.222,0,0,1,5.224,5.264Z" transform="translate(-392.573 -741.681)" fill="#0f8d82"/>
    </g>
    <g id="Group_18202" data-name="Group 18202" transform="translate(-2817.739 6541.038)">
      <path id="Path_8557-7" data-name="Path 8557" d="M406.915,749.215a6.869,6.869,0,1,1-6.872-6.925,6.869,6.869,0,0,1,6.872,6.925Z" transform="translate(-393.176 -742.29)" fill="#fff"/>
      <path id="Path_8558-7" data-name="Path 8558" d="M404.664,748.607a5.222,5.222,0,1,1-5.224-5.264,5.222,5.222,0,0,1,5.224,5.264Z" transform="translate(-392.573 -741.681)" fill="#0f8d82"/>
    </g>
    <g id="Group_14" data-name="Group 14">
      <path id="Path_8564-2" data-name="Path 8564" d="M578.341,745.613a32.187,32.187,0,1,1-32.187-32.454A32.187,32.187,0,0,1,578.341,745.613Z" transform="translate(-3294.988 5789.064)" fill="#26a69a" opacity="0.4"/>
      <path id="Path_8565-2" data-name="Path 8565" d="M558.676,740.3a17.793,17.793,0,1,1-17.794-17.942A17.793,17.793,0,0,1,558.676,740.3Z" transform="translate(-3289.972 5794.379)" fill="#26a69a"/>
      <path id="Path_8566-2" data-name="Path 8566" d="M550.933,738.205a12.125,12.125,0,1,1-12.126-12.227,12.125,12.125,0,0,1,12.126,12.227Z" transform="translate(-3287.896 5796.472)" fill="#fefefe" opacity="0.46"/>
      <path id="Path_8567-2" data-name="Path 8567" d="M543.19,736.111a6.458,6.458,0,1,1-6.458-6.51A6.458,6.458,0,0,1,543.19,736.111Z" transform="translate(-3285.821 5798.566)" fill="#26a69a"/>
    </g>
    <g id="Group_22" data-name="Group 22" transform="translate(-830.359 76.041)">
      <path id="Path_8564-3" data-name="Path 8564" d="M578.341,745.613a32.187,32.187,0,1,1-32.187-32.454A32.187,32.187,0,0,1,578.341,745.613Z" transform="translate(-3294.988 5789.064)" fill="#26a69a" opacity="0.4"/>
      <path id="Path_8565-3" data-name="Path 8565" d="M558.676,740.3a17.793,17.793,0,1,1-17.794-17.942A17.793,17.793,0,0,1,558.676,740.3Z" transform="translate(-3289.972 5794.379)" fill="#26a69a"/>
      <path id="Path_8566-3" data-name="Path 8566" d="M550.933,738.205a12.125,12.125,0,1,1-12.126-12.227,12.125,12.125,0,0,1,12.126,12.227Z" transform="translate(-3287.896 5796.472)" fill="#fefefe" opacity="0.46"/>
      <path id="Path_8567-3" data-name="Path 8567" d="M543.19,736.111a6.458,6.458,0,1,1-6.458-6.51A6.458,6.458,0,0,1,543.19,736.111Z" transform="translate(-3285.821 5798.566)" fill="#26a69a"/>
    </g>
    <g id="Group_18203" data-name="Group 18203" transform="translate(-2663.822 6563.618)">
      <path id="Path_8557-8" data-name="Path 8557" d="M406.915,749.215a6.869,6.869,0,1,1-6.872-6.925,6.869,6.869,0,0,1,6.872,6.925Z" transform="translate(-393.176 -742.29)" fill="#fff"/>
      <path id="Path_8558-8" data-name="Path 8558" d="M404.664,748.607a5.222,5.222,0,1,1-5.224-5.264,5.222,5.222,0,0,1,5.224,5.264Z" transform="translate(-392.573 -741.681)" fill="#0f8d82"/>
    </g>
    <g id="Group_18202-2" data-name="Group 18202" transform="translate(-4195.55 6564.666)">
      <path id="Path_8557-9" data-name="Path 8557" d="M409.63,750.584a8.227,8.227,0,1,1-8.23-8.294,8.227,8.227,0,0,1,8.23,8.294Z" transform="translate(-393.176 -742.29)" fill="#fff"/>
      <path id="Path_8558-9" data-name="Path 8558" d="M406.728,749.647a6.254,6.254,0,1,1-6.257-6.3A6.254,6.254,0,0,1,406.728,749.647Z" transform="translate(-392.247 -741.353)" fill="#0f8d82"/>
    </g>
    <g id="Group_18201-2" data-name="Group 18201" transform="translate(-4282.43 6538.734)">
      <path id="Path_8557-10" data-name="Path 8557" d="M409.63,750.584a8.227,8.227,0,1,1-8.23-8.294,8.227,8.227,0,0,1,8.23,8.294Z" transform="translate(-393.176 -742.29)" fill="#fff"/>
      <path id="Path_8558-10" data-name="Path 8558" d="M406.728,749.647a6.254,6.254,0,1,1-6.257-6.3A6.254,6.254,0,0,1,406.728,749.647Z" transform="translate(-392.247 -741.353)" fill="#0f8d82"/>
    </g>
    <g id="Group_18193-2" data-name="Group 18193" transform="translate(-4380.838 6576.009)">
      <path id="Path_8557-11" data-name="Path 8557" d="M409.63,750.584a8.227,8.227,0,1,1-8.23-8.294,8.227,8.227,0,0,1,8.23,8.294Z" transform="translate(-393.176 -742.29)" fill="#fff"/>
      <path id="Path_8558-11" data-name="Path 8558" d="M406.728,749.647a6.254,6.254,0,1,1-6.257-6.3A6.254,6.254,0,0,1,406.728,749.647Z" transform="translate(-392.247 -741.353)" fill="#0f8d82"/>
    </g>
    <g id="Group_18194-2" data-name="Group 18194" transform="translate(-4468.718 6576.051)">
      <path id="Path_8559-3" data-name="Path 8559" d="M364.484,751.709a8.227,8.227,0,1,1-8.228-8.294,8.227,8.227,0,0,1,8.228,8.294Z" transform="translate(-348.03 -743.415)" fill="#fff"/>
      <path id="Path_8560-3" data-name="Path 8560" d="M361.582,750.772a6.254,6.254,0,1,1-6.255-6.3,6.254,6.254,0,0,1,6.255,6.3Z" transform="translate(-347.101 -742.478)" fill="#0f8d82"/>
    </g>
    <g id="Group_18195-2" data-name="Group 18195" transform="translate(-4565.242 6569.808)">
      <path id="Path_8561-2" data-name="Path 8561" d="M313.407,747.891a8.227,8.227,0,1,1-8.226-8.292A8.227,8.227,0,0,1,313.407,747.891Z" transform="translate(-296.953 -739.599)" fill="#fff"/>
      <path id="Path_8562-2" data-name="Path 8562" d="M310.505,746.955a6.254,6.254,0,1,1-6.253-6.3A6.254,6.254,0,0,1,310.505,746.955Z" transform="translate(-296.024 -738.663)" fill="#0f8d82"/>
    </g>
    <g id="Group_15" data-name="Group 15" transform="translate(-0.002 -6)">
      <path id="Path_8564-4" data-name="Path 8564" d="M591.065,752.028a38.549,38.549,0,1,1-38.55-38.869A38.549,38.549,0,0,1,591.065,752.028Z" transform="translate(-4669.097 5816.319)" fill="#26a69a" opacity="0.4"/>
      <g id="Group_18197" data-name="Group 18197" transform="translate(-4137.889 6546.858)">
        <path id="Path_8565-4" data-name="Path 8565" d="M565.71,743.845a21.31,21.31,0,1,1-21.31-21.489,21.31,21.31,0,0,1,21.31,21.489Z" transform="translate(-523.092 -722.356)" fill="#26a69a"/>
        <path id="Path_8566-4" data-name="Path 8566" d="M555.726,740.622A14.522,14.522,0,1,1,541.2,725.978a14.522,14.522,0,0,1,14.526,14.644Z" transform="translate(-519.896 -719.133)" fill="#fefefe" opacity="0.46"/>
        <path id="Path_8567-4" data-name="Path 8567" d="M545.743,737.4a7.734,7.734,0,1,1-7.735-7.8A7.734,7.734,0,0,1,545.743,737.4Z" transform="translate(-516.701 -715.909)" fill="#26a69a"/>
      </g>
    </g>
    <g id="Group_10" data-name="Group 10" transform="translate(2.241 4.777)">
      <path id="Path_8561-3" data-name="Path 8561" d="M307.46,744.894a5.253,5.253,0,1,1-5.253-5.295,5.253,5.253,0,0,1,5.253,5.295Z" transform="translate(-3816.65 5857.407)" fill="#fff"/>
      <path id="Path_8562-3" data-name="Path 8562" d="M305.984,744.676a3.994,3.994,0,1,1-3.993-4.026,3.994,3.994,0,0,1,3.993,4.026Z" transform="translate(-3816.434 5857.625)" fill="#0f8d82"/>
    </g>
    <g id="Group_17" data-name="Group 17" transform="translate(-143.01 -4.071)">
      <path id="Path_8561-4" data-name="Path 8561" d="M307.46,744.894a5.253,5.253,0,1,1-5.253-5.295,5.253,5.253,0,0,1,5.253,5.295Z" transform="translate(-3816.65 5857.407)" fill="#fff"/>
      <path id="Path_8562-4" data-name="Path 8562" d="M305.984,744.676a3.994,3.994,0,1,1-3.993-4.026,3.994,3.994,0,0,1,3.993,4.026Z" transform="translate(-3816.434 5857.625)" fill="#0f8d82"/>
    </g>
    <g id="Group_18" data-name="Group 18" transform="translate(-196.214 4.777)">
      <path id="Path_8561-5" data-name="Path 8561" d="M307.46,744.894a5.253,5.253,0,1,1-5.253-5.295,5.253,5.253,0,0,1,5.253,5.295Z" transform="translate(-3816.65 5857.407)" fill="#fff"/>
      <path id="Path_8562-5" data-name="Path 8562" d="M305.984,744.676a3.994,3.994,0,1,1-3.993-4.026,3.994,3.994,0,0,1,3.993,4.026Z" transform="translate(-3816.434 5857.625)" fill="#0f8d82"/>
    </g>
    <g id="Group_19" data-name="Group 19" transform="translate(-259.335 -16.325)">
      <path id="Path_8561-6" data-name="Path 8561" d="M307.46,744.894a5.253,5.253,0,1,1-5.253-5.295,5.253,5.253,0,0,1,5.253,5.295Z" transform="translate(-3816.65 5857.407)" fill="#fff"/>
      <path id="Path_8562-6" data-name="Path 8562" d="M305.984,744.676a3.994,3.994,0,1,1-3.993-4.026,3.994,3.994,0,0,1,3.993,4.026Z" transform="translate(-3816.434 5857.625)" fill="#0f8d82"/>
    </g>
    <g id="Group_20" data-name="Group 20" transform="translate(-330.385 14.397)">
      <path id="Path_8561-7" data-name="Path 8561" d="M307.46,744.894a5.253,5.253,0,1,1-5.253-5.295,5.253,5.253,0,0,1,5.253,5.295Z" transform="translate(-3816.65 5857.407)" fill="#fff"/>
      <path id="Path_8562-7" data-name="Path 8562" d="M305.984,744.676a3.994,3.994,0,1,1-3.993-4.026,3.994,3.994,0,0,1,3.993,4.026Z" transform="translate(-3816.434 5857.625)" fill="#0f8d82"/>
    </g>
    <g id="Group_21" data-name="Group 21" transform="translate(-447.858 14.397)">
      <path id="Path_8561-8" data-name="Path 8561" d="M307.46,744.894a5.253,5.253,0,1,1-5.253-5.295,5.253,5.253,0,0,1,5.253,5.295Z" transform="translate(-3816.65 5857.407)" fill="#fff"/>
      <path id="Path_8562-8" data-name="Path 8562" d="M305.984,744.676a3.994,3.994,0,1,1-3.993-4.026,3.994,3.994,0,0,1,3.993,4.026Z" transform="translate(-3816.434 5857.625)" fill="#0f8d82"/>
    </g>
  </g>
</svg>
