<svg xmlns="http://www.w3.org/2000/svg" width="2069.063" height="275.164" viewBox="0 0 2069.063 275.164">
  <g id="Group_18409" data-name="Group 18409" transform="translate(24541 22589.021)" opacity="0.44">
    <g id="Group_18409-2" data-name="Group 18409" transform="translate(-23456.367 -22525.82)" opacity="0.72">
      <path id="Path_8527" data-name="Path 8527" d="M709.376,781.517V907.929H240v-122.6l76.434-36.667,63,4.559,56.012-1.344,65.22-31.933,56.4,23.475,48.161-7.015L676.817,759.8Z" transform="translate(-240.002 -711.756)" fill="#26a69a"/>
      <path id="Path_8528" data-name="Path 8528" d="M240.147,786.845a.745.745,0,0,1-.666-.4.723.723,0,0,1,.335-.977l76.055-37.036a.688.688,0,0,1,.386-.072l63.367,4.6,55.767-1.355,65.065-32.182a.758.758,0,0,1,.629-.018l56.2,23.629,48.086-7.128a.784.784,0,0,1,.35.031l71.441,23.7a.807.807,0,0,1,.184.089L709.9,781.661a.72.72,0,0,1,.194,1.014.748.748,0,0,1-1.034.187l-32.473-21.876-71.173-23.612-48.119,7.131a.78.78,0,0,1-.4-.052l-56.073-23.577-64.907,32.1a.745.745,0,0,1-.315.078l-56.009,1.358-63.237-4.591L240.477,786.77A.75.75,0,0,1,240.147,786.845Z" transform="translate(-239.179 -711.881)" fill="#fff"/>
      <path id="Path_8529" data-name="Path 8529" d="M240,881.253l76.062-31.6,63.373-34.865,56.012-.716,65.594-31.185,56.4,50.507L604.856,821.7l71.588-17.673,32.933,14.149v78.635H240Z" transform="translate(-239.055 -700.642)" fill="#0f8d82"/>
      <g id="Group_18189" data-name="Group 18189" transform="translate(87.44 7.829)">
        <g id="Group_18164" data-name="Group 18164" transform="translate(0 27.112)" opacity="0.35">
          <g id="Group_18161" data-name="Group 18161">
            <path id="Path_8530" data-name="Path 8530" d="M301.369,747.33a.363.363,0,0,1-.362-.364v-2.917a.361.361,0,1,1,.723,0v2.917A.363.363,0,0,1,301.369,747.33Z" transform="translate(-301.007 -743.686)" fill="#fff"/>
          </g>
          <g id="Group_18162" data-name="Group 18162" transform="translate(0 11.692)">
            <path id="Path_8531" data-name="Path 8531" d="M301.369,891.588a.364.364,0,0,1-.362-.364v-5.849a.361.361,0,1,1,.723,0v5.849A.363.363,0,0,1,301.369,891.588Zm0-14.625a.364.364,0,0,1-.362-.364v-5.85a.361.361,0,1,1,.723,0v5.85A.363.363,0,0,1,301.369,876.963Zm0-14.626a.364.364,0,0,1-.362-.365v-5.851a.361.361,0,1,1,.723,0v5.851A.363.363,0,0,1,301.369,862.337Zm0-14.626a.364.364,0,0,1-.362-.366v-5.85a.361.361,0,1,1,.723,0v5.85A.364.364,0,0,1,301.369,847.71Zm0-14.626a.364.364,0,0,1-.362-.365v-5.851a.361.361,0,1,1,.723,0v5.851A.363.363,0,0,1,301.369,833.084Zm0-14.626a.363.363,0,0,1-.362-.364v-5.85a.361.361,0,1,1,.723,0v5.85A.363.363,0,0,1,301.369,818.458Zm0-14.626a.363.363,0,0,1-.362-.363v-5.852a.361.361,0,1,1,.723,0v5.852A.362.362,0,0,1,301.369,803.832Zm0-14.626a.364.364,0,0,1-.362-.364v-5.85a.361.361,0,1,1,.723,0v5.85A.363.363,0,0,1,301.369,789.206Zm0-14.626a.363.363,0,0,1-.362-.364v-5.85a.361.361,0,1,1,.723,0v5.85A.363.363,0,0,1,301.369,774.58Zm0-14.626a.363.363,0,0,1-.362-.364v-5.85a.361.361,0,1,1,.723,0v5.85A.363.363,0,0,1,301.369,759.954Z" transform="translate(-301.007 -753.375)" fill="#fff"/>
          </g>
          <g id="Group_18163" data-name="Group 18163" transform="translate(0 157.951)">
            <path id="Path_8532" data-name="Path 8532" d="M301.369,878.228a.363.363,0,0,1-.362-.363v-2.917a.361.361,0,1,1,.723,0v2.917A.362.362,0,0,1,301.369,878.228Z" transform="translate(-301.007 -874.584)" fill="#fff"/>
          </g>
        </g>
        <g id="Group_18168" data-name="Group 18168" transform="translate(61.633 31.717)">
          <g id="Group_18165" data-name="Group 18165">
            <path id="Path_8533" data-name="Path 8533" d="M352.446,751.146a.362.362,0,0,1-.362-.363v-2.917a.361.361,0,1,1,.723,0v2.917A.362.362,0,0,1,352.446,751.146Z" transform="translate(-352.084 -747.502)" fill="#cfccff"/>
          </g>
          <g id="Group_18166" data-name="Group 18166" transform="translate(0 11.432)" opacity="0.35">
            <path id="Path_8534" data-name="Path 8534" d="M352.446,891.105a.364.364,0,0,1-.362-.366v-5.676a.361.361,0,1,1,.723,0v5.676A.364.364,0,0,1,352.446,891.105Zm0-14.193a.363.363,0,0,1-.362-.364v-5.676a.361.361,0,1,1,.723,0v5.676A.363.363,0,0,1,352.446,876.912Zm0-14.19a.363.363,0,0,1-.362-.365V856.68a.361.361,0,1,1,.723,0v5.677A.363.363,0,0,1,352.446,862.722Zm0-14.192a.363.363,0,0,1-.362-.364V842.49a.361.361,0,1,1,.723,0v5.676A.363.363,0,0,1,352.446,848.53Zm0-14.192a.364.364,0,0,1-.362-.365V828.3a.361.361,0,1,1,.723,0v5.677A.363.363,0,0,1,352.446,834.339Zm0-14.192a.364.364,0,0,1-.362-.365V814.1a.361.361,0,1,1,.723,0v5.677A.363.363,0,0,1,352.446,820.147Zm0-14.192a.363.363,0,0,1-.362-.363v-5.677a.361.361,0,1,1,.723,0v5.677A.362.362,0,0,1,352.446,805.955Zm0-14.192a.364.364,0,0,1-.362-.364v-5.676a.361.361,0,1,1,.723,0V791.4A.363.363,0,0,1,352.446,791.763Zm0-14.192a.363.363,0,0,1-.362-.364v-5.676a.361.361,0,1,1,.723,0v5.676A.363.363,0,0,1,352.446,777.572Zm0-14.192a.364.364,0,0,1-.362-.364v-5.676a.361.361,0,1,1,.723,0v5.676A.363.363,0,0,1,352.446,763.38Z" transform="translate(-352.084 -756.976)" fill="#fff" stroke="rgba(0,0,0,0)" stroke-width="1"/>
          </g>
          <g id="Group_18167" data-name="Group 18167" transform="translate(0 153.347)">
            <path id="Path_8535" data-name="Path 8535" d="M352.446,878.228a.363.363,0,0,1-.362-.363v-2.917a.361.361,0,1,1,.723,0v2.917A.362.362,0,0,1,352.446,878.228Z" transform="translate(-352.084 -874.584)" fill="#cfccff"/>
          </g>
        </g>
        <g id="Group_18172" data-name="Group 18172" transform="translate(116.109 30.359)" opacity="0.35">
          <g id="Group_18169" data-name="Group 18169">
            <path id="Path_8536" data-name="Path 8536" d="M397.59,750.021a.362.362,0,0,1-.361-.363v-2.917a.361.361,0,1,1,.723,0v2.917A.362.362,0,0,1,397.59,750.021Z" transform="translate(-397.229 -746.377)" fill="#fff" stroke="rgba(0,0,0,0)" stroke-width="1"/>
          </g>
          <g id="Group_18170" data-name="Group 18170" transform="translate(0 11.508)">
            <path id="Path_8537" data-name="Path 8537" d="M397.59,891.246a.362.362,0,0,1-.361-.363v-5.727a.361.361,0,1,1,.723,0v5.727A.363.363,0,0,1,397.59,891.246Zm0-14.32a.363.363,0,0,1-.361-.364v-5.727a.361.361,0,1,1,.723,0v5.727A.363.363,0,0,1,397.59,876.927Zm0-14.318a.363.363,0,0,1-.361-.365v-5.728a.361.361,0,1,1,.723,0v5.728A.364.364,0,0,1,397.59,862.608Zm0-14.32a.363.363,0,0,1-.361-.364V842.2a.361.361,0,1,1,.723,0v5.728A.363.363,0,0,1,397.59,848.289Zm0-14.32a.363.363,0,0,1-.361-.364v-5.727a.361.361,0,1,1,.723,0V833.6A.364.364,0,0,1,397.59,833.969Zm0-14.32a.363.363,0,0,1-.361-.364v-5.727a.361.361,0,1,1,.723,0v5.727A.363.363,0,0,1,397.59,819.649Zm0-14.319a.363.363,0,0,1-.361-.365v-5.728a.361.361,0,1,1,.723,0v5.728A.364.364,0,0,1,397.59,805.33Zm0-14.32a.364.364,0,0,1-.361-.366v-5.727a.361.361,0,1,1,.723,0v5.727A.364.364,0,0,1,397.59,791.01Zm0-14.32a.363.363,0,0,1-.361-.364V770.6a.361.361,0,1,1,.723,0v5.728A.363.363,0,0,1,397.59,776.691Zm0-14.32a.363.363,0,0,1-.361-.366v-5.727a.361.361,0,1,1,.723,0v5.727A.363.363,0,0,1,397.59,762.371Z" transform="translate(-397.229 -755.914)" fill="#fff" stroke="rgba(0,0,0,0)" stroke-width="1"/>
          </g>
          <g id="Group_18171" data-name="Group 18171" transform="translate(0 154.704)">
            <path id="Path_8538" data-name="Path 8538" d="M397.59,878.228a.362.362,0,0,1-.361-.363v-2.917a.361.361,0,1,1,.723,0v2.917A.363.363,0,0,1,397.59,878.228Z" transform="translate(-397.229 -874.584)" fill="#fff" stroke="rgba(0,0,0,0)" stroke-width="1"/>
          </g>
        </g>
        <g id="Group_18176" data-name="Group 18176" transform="translate(179.54)">
          <g id="Group_18173" data-name="Group 18173">
            <path id="Path_8539" data-name="Path 8539" d="M450.158,723.291a.364.364,0,0,1-.362-.366V720.01a.361.361,0,1,1,.723,0v2.915A.363.363,0,0,1,450.158,723.291Z" transform="translate(-449.796 -719.647)" fill="#cfccff"/>
          </g>
          <g id="Group_18174" data-name="Group 18174" transform="translate(0 11.678)">
            <path id="Path_8540" data-name="Path 8540" d="M450.158,894.675a.362.362,0,0,1-.362-.36v-5.778a.361.361,0,0,1,.723,0v5.778A.361.361,0,0,1,450.158,894.675Zm0-14.443a.361.361,0,0,1-.362-.359V874.1a.361.361,0,0,1,.723,0v5.775A.36.36,0,0,1,450.158,880.233Zm0-14.439a.363.363,0,0,1-.362-.361v-5.777a.361.361,0,0,1,.723,0v5.777A.361.361,0,0,1,450.158,865.794Zm0-14.443a.361.361,0,0,1-.362-.359v-5.778a.361.361,0,0,1,.723,0v5.778A.36.36,0,0,1,450.158,851.351Zm0-14.441a.362.362,0,0,1-.362-.36v-5.775a.361.361,0,0,1,.723,0v5.775A.361.361,0,0,1,450.158,836.91Zm0-14.441a.36.36,0,0,1-.362-.359v-5.776a.361.361,0,0,1,.723,0v5.776A.359.359,0,0,1,450.158,822.469Zm0-14.44a.363.363,0,0,1-.362-.361v-5.776a.361.361,0,0,1,.723,0v5.776A.361.361,0,0,1,450.158,808.029Zm0-14.441a.361.361,0,0,1-.362-.359v-5.777a.361.361,0,1,1,.723,0v5.777A.36.36,0,0,1,450.158,793.587Zm0-14.441a.362.362,0,0,1-.362-.36v-5.776a.361.361,0,0,1,.723,0v5.776A.361.361,0,0,1,450.158,779.146Zm0-14.441a.362.362,0,0,1-.362-.36v-5.776a.361.361,0,0,1,.723,0v5.776A.361.361,0,0,1,450.158,764.7Zm0-14.441a.361.361,0,0,1-.362-.36v-5.778a.361.361,0,0,1,.723,0V749.9A.36.36,0,0,1,450.158,750.263Zm0-14.44a.362.362,0,0,1-.362-.36v-5.776a.361.361,0,1,1,.723,0v5.776A.36.36,0,0,1,450.158,735.823Z" transform="translate(-449.796 -729.325)" fill="#cfccff"/>
          </g>
          <g id="Group_18175" data-name="Group 18175" transform="translate(0 185.064)">
            <path id="Path_8541" data-name="Path 8541" d="M450.158,878.228a.363.363,0,0,1-.362-.363v-2.917a.361.361,0,1,1,.723,0v2.917A.362.362,0,0,1,450.158,878.228Z" transform="translate(-449.796 -874.584)" fill="#cfccff"/>
          </g>
        </g>
        <g id="Group_18180" data-name="Group 18180" transform="translate(234.39 23.71)">
          <g id="Group_18177" data-name="Group 18177">
            <path id="Path_8542" data-name="Path 8542" d="M495.613,742.941a.364.364,0,0,1-.362-.365v-2.915a.361.361,0,1,1,.723,0v2.915A.363.363,0,0,1,495.613,742.941Z" transform="translate(-495.251 -739.296)" fill="#cfccff"/>
          </g>
          <g id="Group_18178" data-name="Group 18178" transform="translate(0 11.991)">
            <path id="Path_8543" data-name="Path 8543" d="M495.613,890.249a.363.363,0,0,1-.362-.361v-5.968a.361.361,0,0,1,.723,0v5.968A.363.363,0,0,1,495.613,890.249Zm0-14.925a.362.362,0,0,1-.362-.36v-5.971a.361.361,0,0,1,.723,0v5.971A.362.362,0,0,1,495.613,875.324Zm0-14.925a.362.362,0,0,1-.362-.36v-5.971a.361.361,0,0,1,.723,0v5.971A.362.362,0,0,1,495.613,860.4Zm0-14.924a.362.362,0,0,1-.362-.36v-5.971a.361.361,0,0,1,.723,0v5.971A.362.362,0,0,1,495.613,845.475Zm0-14.928a.361.361,0,0,1-.362-.358v-5.97a.361.361,0,0,1,.723,0v5.97A.361.361,0,0,1,495.613,830.548Zm0-14.925a.362.362,0,0,1-.362-.358v-5.971a.361.361,0,0,1,.723,0v5.971A.362.362,0,0,1,495.613,815.623Zm0-14.924a.362.362,0,0,1-.362-.361v-5.969a.361.361,0,0,1,.723,0v5.969A.362.362,0,0,1,495.613,800.7Zm0-14.925a.362.362,0,0,1-.362-.36v-5.971a.361.361,0,0,1,.723,0v5.971A.362.362,0,0,1,495.613,785.774Zm0-14.925a.362.362,0,0,1-.362-.36v-5.971a.361.361,0,0,1,.723,0v5.971A.362.362,0,0,1,495.613,770.849Zm0-14.925a.362.362,0,0,1-.362-.36v-5.97a.361.361,0,0,1,.723,0v5.97A.362.362,0,0,1,495.613,755.923Z" transform="translate(-495.251 -749.233)" fill="#cfccff"/>
          </g>
          <g id="Group_18179" data-name="Group 18179" transform="translate(0 161.354)">
            <path id="Path_8544" data-name="Path 8544" d="M495.613,878.228a.363.363,0,0,1-.362-.363v-2.917a.361.361,0,1,1,.723,0v2.917A.363.363,0,0,1,495.613,878.228Z" transform="translate(-495.251 -874.584)" fill="#cfccff"/>
          </g>
        </g>
        <g id="Group_18184" data-name="Group 18184" transform="translate(281.228 16.552)">
          <g id="Group_18181" data-name="Group 18181">
            <path id="Path_8545" data-name="Path 8545" d="M534.429,737.009a.364.364,0,0,1-.362-.364V733.73a.362.362,0,1,1,.724,0v2.915A.364.364,0,0,1,534.429,737.009Z" transform="translate(-534.067 -733.364)" fill="#cfccff"/>
          </g>
          <g id="Group_18182" data-name="Group 18182" transform="translate(0 11.579)">
            <path id="Path_8546" data-name="Path 8546" d="M534.429,891.958a.362.362,0,0,1-.362-.36v-5.7a.362.362,0,0,1,.724,0v5.7A.362.362,0,0,1,534.429,891.958Zm0-14.258a.362.362,0,0,1-.362-.361v-5.7a.362.362,0,0,1,.724,0v5.7A.362.362,0,0,1,534.429,877.7Zm0-14.259a.362.362,0,0,1-.362-.36v-5.7a.362.362,0,0,1,.724,0v5.7A.362.362,0,0,1,534.429,863.442Zm0-14.257a.361.361,0,0,1-.362-.359v-5.7a.362.362,0,0,1,.724,0v5.7A.361.361,0,0,1,534.429,849.185Zm0-14.257a.362.362,0,0,1-.362-.36v-5.7a.362.362,0,0,1,.724,0v5.7A.362.362,0,0,1,534.429,834.929Zm0-14.258a.362.362,0,0,1-.362-.36v-5.7a.362.362,0,0,1,.724,0v5.7A.362.362,0,0,1,534.429,820.671Zm0-14.259a.361.361,0,0,1-.362-.36v-5.7a.362.362,0,0,1,.724,0v5.7A.361.361,0,0,1,534.429,806.412Zm0-14.258a.361.361,0,0,1-.362-.36v-5.7a.362.362,0,0,1,.724,0v5.7A.361.361,0,0,1,534.429,792.154Zm0-14.257a.361.361,0,0,1-.362-.36v-5.7a.362.362,0,0,1,.724,0v5.7A.361.361,0,0,1,534.429,777.9Zm0-14.258a.361.361,0,0,1-.362-.359v-5.7a.362.362,0,0,1,.724,0v5.7A.361.361,0,0,1,534.429,763.64Zm0-14.256a.361.361,0,0,1-.362-.361v-5.7a.362.362,0,0,1,.724,0v5.7A.361.361,0,0,1,534.429,749.383Z" transform="translate(-534.067 -742.96)" fill="#cfccff"/>
          </g>
          <g id="Group_18183" data-name="Group 18183" transform="translate(0 168.512)">
            <path id="Path_8547" data-name="Path 8547" d="M534.429,878.228a.363.363,0,0,1-.362-.363v-2.917a.362.362,0,1,1,.724,0v2.917A.363.363,0,0,1,534.429,878.228Z" transform="translate(-534.067 -874.584)" fill="#cfccff"/>
          </g>
        </g>
        <g id="Group_18188" data-name="Group 18188" transform="translate(350.852 38.36)">
          <g id="Group_18185" data-name="Group 18185">
            <path id="Path_8548" data-name="Path 8548" d="M592.127,756.652a.363.363,0,0,1-.361-.364v-2.915a.361.361,0,1,1,.723,0v2.915A.363.363,0,0,1,592.127,756.652Z" transform="translate(-591.766 -753.007)" fill="#cfccff"/>
          </g>
          <g id="Group_18186" data-name="Group 18186" transform="translate(0 11.903)">
            <path id="Path_8549" data-name="Path 8549" d="M592.127,889.415a.363.363,0,0,1-.361-.365v-5.992a.361.361,0,1,1,.723,0v5.992A.364.364,0,0,1,592.127,889.415Zm0-14.979a.364.364,0,0,1-.361-.366V868.08a.361.361,0,1,1,.723,0v5.991A.365.365,0,0,1,592.127,874.437Zm0-14.977a.364.364,0,0,1-.361-.366V853.1a.361.361,0,1,1,.723,0v5.991A.365.365,0,0,1,592.127,859.459Zm0-14.98a.363.363,0,0,1-.361-.364v-5.991a.361.361,0,1,1,.723,0v5.991A.364.364,0,0,1,592.127,844.48Zm0-14.977a.363.363,0,0,1-.361-.364v-5.991a.361.361,0,1,1,.723,0v5.991A.363.363,0,0,1,592.127,829.5Zm0-14.978a.363.363,0,0,1-.361-.364v-5.991a.361.361,0,1,1,.723,0v5.991A.364.364,0,0,1,592.127,814.524Zm0-14.977a.363.363,0,0,1-.361-.364v-5.991a.361.361,0,1,1,.723,0v5.991A.364.364,0,0,1,592.127,799.547Zm0-14.977a.363.363,0,0,1-.361-.364v-5.992a.361.361,0,1,1,.723,0v5.992A.364.364,0,0,1,592.127,784.569Zm0-14.979a.363.363,0,0,1-.361-.364v-5.991a.361.361,0,1,1,.723,0v5.991A.364.364,0,0,1,592.127,769.591Z" transform="translate(-591.766 -762.871)" fill="#cfccff"/>
          </g>
          <g id="Group_18187" data-name="Group 18187" transform="translate(0 146.704)">
            <path id="Path_8550" data-name="Path 8550" d="M592.127,878.228a.362.362,0,0,1-.361-.363v-2.917a.361.361,0,1,1,.723,0v2.917A.363.363,0,0,1,592.127,878.228Z" transform="translate(-591.766 -874.584)" fill="#cfccff"/>
          </g>
        </g>
      </g>
      <g id="Group_18193" data-name="Group 18193" transform="translate(191.059 34.797)">
        <path id="Path_8557" data-name="Path 8557" d="M403.682,747.586a5.253,5.253,0,1,1-5.255-5.3A5.277,5.277,0,0,1,403.682,747.586Z" transform="translate(-393.176 -742.29)" fill="#fff"/>
        <path id="Path_8558" data-name="Path 8558" d="M402.207,747.369a3.994,3.994,0,1,1-4-4.026A4.013,4.013,0,0,1,402.207,747.369Z" transform="translate(-392.96 -742.072)" fill="#0f8d82"/>
      </g>
      <g id="Group_18201" data-name="Group 18201" transform="translate(256.708 3.994)">
        <path id="Path_8557-2" data-name="Path 8557" d="M403.682,747.586a5.253,5.253,0,1,1-5.255-5.3A5.277,5.277,0,0,1,403.682,747.586Z" transform="translate(-393.176 -742.29)" fill="#fff"/>
        <path id="Path_8558-2" data-name="Path 8558" d="M402.207,747.369a3.994,3.994,0,1,1-4-4.026A4.013,4.013,0,0,1,402.207,747.369Z" transform="translate(-392.96 -742.072)" fill="#0f8d82"/>
      </g>
      <g id="Group_18202" data-name="Group 18202" transform="translate(313.76 25.273)">
        <path id="Path_8557-3" data-name="Path 8557" d="M403.682,747.586a5.253,5.253,0,1,1-5.255-5.3A5.277,5.277,0,0,1,403.682,747.586Z" transform="translate(-393.176 -742.29)" fill="#fff"/>
        <path id="Path_8558-3" data-name="Path 8558" d="M402.207,747.369a3.994,3.994,0,1,1-4-4.026A4.013,4.013,0,0,1,402.207,747.369Z" transform="translate(-392.96 -742.072)" fill="#0f8d82"/>
      </g>
      <g id="Group_18203" data-name="Group 18203" transform="translate(433.762 43.893)">
        <path id="Path_8557-4" data-name="Path 8557" d="M403.682,747.586a5.253,5.253,0,1,1-5.255-5.3A5.277,5.277,0,0,1,403.682,747.586Z" transform="translate(-393.176 -742.29)" fill="#fff"/>
        <path id="Path_8558-4" data-name="Path 8558" d="M402.207,747.369a3.994,3.994,0,1,1-4-4.026A4.013,4.013,0,0,1,402.207,747.369Z" transform="translate(-392.96 -742.072)" fill="#0f8d82"/>
      </g>
      <g id="Group_18194" data-name="Group 18194" transform="translate(135.034 36.141)">
        <path id="Path_8559" data-name="Path 8559" d="M358.536,748.711a5.253,5.253,0,1,1-5.254-5.3A5.276,5.276,0,0,1,358.536,748.711Z" transform="translate(-348.03 -743.415)" fill="#fff"/>
        <path id="Path_8560" data-name="Path 8560" d="M357.061,748.494a3.994,3.994,0,1,1-3.994-4.026A4.012,4.012,0,0,1,357.061,748.494Z" transform="translate(-347.814 -743.197)" fill="#0f8d82"/>
      </g>
      <g id="Group_18195" data-name="Group 18195" transform="translate(69.668 31.583)">
        <path id="Path_8561" data-name="Path 8561" d="M307.46,744.894a5.253,5.253,0,1,1-5.253-5.295A5.276,5.276,0,0,1,307.46,744.894Z" transform="translate(-296.953 -739.599)" fill="#fff"/>
        <path id="Path_8562" data-name="Path 8562" d="M305.984,744.676a3.994,3.994,0,1,1-3.993-4.026A4.011,4.011,0,0,1,305.984,744.676Z" transform="translate(-296.737 -739.381)" fill="#0f8d82"/>
      </g>
      <g id="Group_18196" data-name="Group 18196" transform="translate(476.501 195.444)">
        <path id="Path_8563" data-name="Path 8563" d="M728.668,931.161Z" transform="translate(-728.668 -931.161)" fill="#fff" opacity="0.25"/>
      </g>
      <path id="Path_8564" data-name="Path 8564" d="M563.2,737.978a24.615,24.615,0,1,1-24.615-24.819A24.718,24.718,0,0,1,563.2,737.978Z" transform="translate(-172.128 -713.159)" fill="#26a69a" opacity="0.4"/>
      <g id="Group_18197" data-name="Group 18197" transform="translate(352.655 11.098)">
        <path id="Path_8565" data-name="Path 8565" d="M550.3,736.077A13.607,13.607,0,1,1,536.7,722.356,13.664,13.664,0,0,1,550.3,736.077Z" transform="translate(-523.092 -722.356)" fill="#26a69a"/>
        <path id="Path_8566" data-name="Path 8566" d="M545.228,735.329a9.272,9.272,0,1,1-9.273-9.35A9.313,9.313,0,0,1,545.228,735.329Z" transform="translate(-522.35 -721.607)" fill="#fefefe" opacity="0.46"/>
        <path id="Path_8567" data-name="Path 8567" d="M540.152,734.58a4.939,4.939,0,1,1-4.939-4.979A4.96,4.96,0,0,1,540.152,734.58Z" transform="translate(-521.607 -720.859)" fill="#26a69a"/>
      </g>
    </g>
    <g id="Group_18410" data-name="Group 18410" transform="translate(-24541 -22559.766)">
      <g id="Group_18198" data-name="Group 18198" transform="translate(0 -2)">
        <path id="Path_8527-2" data-name="Path 8527" d="M954.918,791.05V937.032H240V795.457L356.42,753.112l95.957,5.265,85.314-1.552,99.339-36.877,85.9,27.109,73.354-8.1,109.039,27.016Z" transform="translate(-238.871 -707.118)" fill="#26a69a"/>
        <path id="Path_8528-2" data-name="Path 8528" d="M240.536,825.058a1.131,1.131,0,0,1-1.015-.633,1.146,1.146,0,0,1,.51-1.531l115.851-58a1.025,1.025,0,0,1,.588-.113L453,771.989l84.948-2.122,99.112-50.4a1.126,1.126,0,0,1,.958-.028l85.6,37.006,73.248-11.163a1.162,1.162,0,0,1,.533.049l108.823,37.119a1.218,1.218,0,0,1,.28.14l49.592,34.351a1.147,1.147,0,0,1,.295,1.587,1.12,1.12,0,0,1-1.574.293l-49.465-34.26L796.931,747.581l-73.3,11.169a1.157,1.157,0,0,1-.616-.081L637.6,721.743l-98.87,50.276a1.111,1.111,0,0,1-.48.123l-85.316,2.126-96.326-7.191L241.039,824.94A1.116,1.116,0,0,1,240.536,825.058Z" transform="translate(-239.403 -707.655)" fill="#fff"/>
        <path id="Path_8529-2" data-name="Path 8529" d="M240,936.936l115.851-49.483,96.525-54.6,85.313-1.122L637.6,782.89l85.9,79.1,72.223-18.311L904.758,816l50.16,22.159V961.31H240Z" transform="translate(-238.871 -731.395)" fill="#0f8d82"/>
        <g id="Group_18189-2" data-name="Group 18189" transform="translate(116.417 12.261)">
          <g id="Group_18164-2" data-name="Group 18164" transform="translate(0 -17.426)" opacity="0.35">
            <g id="Group_18161-2" data-name="Group 18161">
              <path id="Path_8530-2" data-name="Path 8530" d="M301.574,749.393a.568.568,0,0,1-.567-.571v-4.567a.566.566,0,1,1,1.132,0v4.567A.568.568,0,0,1,301.574,749.393Z" transform="translate(-301.007 -743.686)" fill="#fff"/>
            </g>
            <g id="Group_18162-2" data-name="Group 18162" transform="translate(0 18.31)">
              <path id="Path_8531-2" data-name="Path 8531" d="M301.574,969.83a.569.569,0,0,1-.567-.571V960.1a.566.566,0,1,1,1.132,0v9.16A.569.569,0,0,1,301.574,969.83Zm0-22.9a.569.569,0,0,1-.567-.571v-9.162a.566.566,0,1,1,1.132,0v9.162A.569.569,0,0,1,301.574,946.926Zm0-22.906a.57.57,0,0,1-.567-.571v-9.164a.566.566,0,1,1,1.132,0v9.164A.569.569,0,0,1,301.574,924.02Zm0-22.906a.57.57,0,0,1-.567-.573V891.38a.566.566,0,1,1,1.132,0v9.162A.569.569,0,0,1,301.574,901.114Zm0-22.906a.57.57,0,0,1-.567-.571v-9.164a.566.566,0,1,1,1.132,0v9.164A.569.569,0,0,1,301.574,878.208Zm0-22.906a.568.568,0,0,1-.567-.571V845.57a.566.566,0,1,1,1.132,0v9.162A.568.568,0,0,1,301.574,855.3Zm0-22.906a.568.568,0,0,1-.567-.569v-9.165a.566.566,0,1,1,1.132,0v9.165A.567.567,0,0,1,301.574,832.4Zm0-22.906a.569.569,0,0,1-.567-.571v-9.162a.566.566,0,1,1,1.132,0v9.162A.569.569,0,0,1,301.574,809.49Zm0-22.906a.568.568,0,0,1-.567-.571v-9.162a.566.566,0,1,1,1.132,0v9.162A.568.568,0,0,1,301.574,786.584Zm0-22.906a.568.568,0,0,1-.567-.571v-9.162a.566.566,0,1,1,1.132,0v9.162A.568.568,0,0,1,301.574,763.678Z" transform="translate(-301.007 -753.375)" fill="#fff"/>
            </g>
            <g id="Group_18163-2" data-name="Group 18163" transform="translate(0 247.369)">
              <path id="Path_8532-2" data-name="Path 8532" d="M301.574,880.291a.568.568,0,0,1-.567-.569v-4.568a.566.566,0,1,1,1.132,0v4.568A.567.567,0,0,1,301.574,880.291Z" transform="translate(-301.007 -874.584)" fill="#fff"/>
            </g>
          </g>
          <g id="Group_18168-2" data-name="Group 18168" transform="translate(96.524 -13.821)">
            <g id="Group_18165-2" data-name="Group 18165">
              <path id="Path_8533-2" data-name="Path 8533" d="M352.651,753.209a.566.566,0,0,1-.567-.569v-4.568a.566.566,0,1,1,1.132,0v4.568A.566.566,0,0,1,352.651,753.209Z" transform="translate(-352.084 -747.502)" fill="#cfccff"/>
            </g>
            <g id="Group_18166-2" data-name="Group 18166" transform="translate(0 17.904)" opacity="0.35">
              <path id="Path_8534-2" data-name="Path 8534" d="M352.651,953.217a.552.552,0,0,1-.567-.535v-8.3a.567.567,0,0,1,1.132,0v8.3A.551.551,0,0,1,352.651,953.217Zm0-20.766a.55.55,0,0,1-.567-.533v-8.3a.567.567,0,0,1,1.132,0v8.3A.55.55,0,0,1,352.651,932.452Zm0-20.762a.55.55,0,0,1-.567-.533V902.85a.567.567,0,0,1,1.132,0v8.306A.55.55,0,0,1,352.651,911.69Zm0-20.763a.55.55,0,0,1-.567-.533v-8.3a.567.567,0,0,1,1.132,0v8.3A.55.55,0,0,1,352.651,890.927Zm0-20.763a.551.551,0,0,1-.567-.533v-8.307a.567.567,0,0,1,1.132,0v8.307A.551.551,0,0,1,352.651,870.163Zm0-20.763a.551.551,0,0,1-.567-.533V840.56a.567.567,0,0,1,1.132,0v8.307A.551.551,0,0,1,352.651,849.4Zm0-20.764a.55.55,0,0,1-.567-.531V819.8a.567.567,0,0,1,1.132,0V828.1A.549.549,0,0,1,352.651,828.636Zm0-20.763a.551.551,0,0,1-.567-.533v-8.3a.567.567,0,0,1,1.132,0v8.3A.551.551,0,0,1,352.651,807.872Zm0-20.764a.551.551,0,0,1-.567-.533v-8.3a.567.567,0,0,1,1.132,0v8.3A.551.551,0,0,1,352.651,787.109Zm0-20.763a.551.551,0,0,1-.567-.533v-8.3a.567.567,0,0,1,1.132,0v8.3A.551.551,0,0,1,352.651,766.345Z" transform="translate(-352.084 -756.976)" fill="#fff" stroke="rgba(0,0,0,0)" stroke-width="1"/>
            </g>
            <g id="Group_18167-2" data-name="Group 18167" transform="translate(0 226.338)">
              <path id="Path_8535-2" data-name="Path 8535" d="M352.651,880.291a.568.568,0,0,1-.567-.569v-4.568a.566.566,0,1,1,1.132,0v4.568A.567.567,0,0,1,352.651,880.291Z" transform="translate(-352.084 -874.584)" fill="#cfccff"/>
            </g>
          </g>
          <g id="Group_18172-2" data-name="Group 18172" transform="translate(181.839 -14.884)" opacity="0.35">
            <g id="Group_18169-2" data-name="Group 18169">
              <path id="Path_8536-2" data-name="Path 8536" d="M397.794,752.084a.566.566,0,0,1-.565-.569v-4.568a.566.566,0,1,1,1.132,0v4.568A.567.567,0,0,1,397.794,752.084Z" transform="translate(-397.229 -746.377)" fill="#fff" stroke="rgba(0,0,0,0)" stroke-width="1"/>
            </g>
            <g id="Group_18170-2" data-name="Group 18170" transform="translate(0 18.023)">
              <path id="Path_8537-2" data-name="Path 8537" d="M397.794,952.976a.548.548,0,0,1-.565-.529v-8.339a.567.567,0,0,1,1.132,0v8.339A.549.549,0,0,1,397.794,952.976Zm0-20.851a.549.549,0,0,1-.565-.531v-8.339a.567.567,0,0,1,1.132,0v8.339A.549.549,0,0,1,397.794,932.125Zm0-20.85a.55.55,0,0,1-.565-.531V902.4a.567.567,0,0,1,1.132,0v8.341A.55.55,0,0,1,397.794,911.275Zm0-20.851a.55.55,0,0,1-.565-.531v-8.341a.567.567,0,0,1,1.132,0v8.341A.55.55,0,0,1,397.794,890.424Zm0-20.851a.55.55,0,0,1-.565-.531V860.7a.567.567,0,0,1,1.132,0v8.339A.55.55,0,0,1,397.794,869.572Zm0-20.851a.55.55,0,0,1-.565-.531v-8.339a.567.567,0,0,1,1.132,0v8.339A.55.55,0,0,1,397.794,848.721Zm0-20.851a.55.55,0,0,1-.565-.531V819a.567.567,0,0,1,1.132,0v8.341A.55.55,0,0,1,397.794,827.87Zm0-20.851a.55.55,0,0,1-.565-.532v-8.339a.567.567,0,0,1,1.132,0v8.339A.551.551,0,0,1,397.794,807.019Zm0-20.851a.549.549,0,0,1-.565-.531V777.3a.567.567,0,0,1,1.132,0v8.341A.549.549,0,0,1,397.794,786.167Zm0-20.851a.549.549,0,0,1-.565-.532v-8.339a.567.567,0,0,1,1.132,0v8.339A.549.549,0,0,1,397.794,765.316Z" transform="translate(-397.229 -755.914)" fill="#fff" stroke="rgba(0,0,0,0)" stroke-width="1"/>
            </g>
            <g id="Group_18171-2" data-name="Group 18171" transform="translate(0 227.4)">
              <path id="Path_8538-2" data-name="Path 8538" d="M397.794,880.291a.567.567,0,0,1-.565-.569v-4.568a.566.566,0,1,1,1.132,0v4.568A.568.568,0,0,1,397.794,880.291Z" transform="translate(-397.229 -874.584)" fill="#fff" stroke="rgba(0,0,0,0)" stroke-width="1"/>
            </g>
          </g>
          <g id="Group_18176-2" data-name="Group 18176" transform="translate(281.179)">
            <g id="Group_18173-2" data-name="Group 18173">
              <path id="Path_8539-2" data-name="Path 8539" d="M450.363,725.354a.57.57,0,0,1-.567-.573v-4.566a.566.566,0,1,1,1.132,0v4.566A.568.568,0,0,1,450.363,725.354Z" transform="translate(-449.796 -719.647)" fill="#cfccff"/>
            </g>
            <g id="Group_18174-2" data-name="Group 18174" transform="translate(0 18.289)">
              <path id="Path_8540-2" data-name="Path 8540" d="M450.363,910.967c-.312,0-.567-.178-.567-.4v-6.347c0-.218.255-.4.567-.4s.565.178.565.4v6.347C450.928,910.789,450.675,910.967,450.363,910.967Zm0-15.866c-.312,0-.567-.177-.567-.394v-6.344c0-.218.255-.4.567-.4s.565.178.565.4v6.344C450.928,894.925,450.675,895.1,450.363,895.1Zm0-15.862c-.312,0-.567-.178-.567-.4V872.5c0-.217.255-.394.567-.394s.565.177.565.394v6.346C450.928,879.062,450.675,879.24,450.363,879.24Zm0-15.866c-.312,0-.567-.177-.567-.394v-6.347c0-.218.255-.4.567-.4s.565.178.565.4v6.347C450.928,863.2,450.675,863.375,450.363,863.375Zm0-15.864c-.312,0-.567-.178-.567-.4V840.77c0-.219.255-.4.567-.4s.565.177.565.4v6.344C450.928,847.332,450.675,847.51,450.363,847.51Zm0-15.864c-.312,0-.567-.176-.567-.394v-6.346c0-.219.255-.4.567-.4s.565.177.565.4v6.346C450.928,831.471,450.675,831.646,450.363,831.646Zm0-15.863c-.312,0-.567-.178-.567-.4v-6.346c0-.218.255-.395.567-.395s.565.177.565.395v6.346C450.928,815.605,450.675,815.783,450.363,815.783Zm0-15.864c-.312,0-.567-.177-.567-.394v-6.346c0-.219.255-.4.567-.4s.565.178.565.4v6.346C450.928,799.742,450.675,799.919,450.363,799.919Zm0-15.864c-.312,0-.567-.178-.567-.4v-6.346c0-.22.255-.4.567-.4s.565.175.565.4v6.346C450.928,783.877,450.675,784.055,450.363,784.055Zm0-15.864c-.312,0-.567-.177-.567-.4v-6.346c0-.218.255-.4.567-.4s.565.178.565.4v6.346C450.928,768.014,450.675,768.191,450.363,768.191Zm0-15.864c-.312,0-.567-.177-.567-.4v-6.347c0-.217.255-.393.567-.393s.565.176.565.393v6.347C450.928,752.15,450.675,752.326,450.363,752.326Zm0-15.863c-.312,0-.567-.177-.567-.4v-6.346c0-.22.255-.4.567-.4s.565.177.565.4v6.346C450.928,736.287,450.675,736.464,450.363,736.464Z" transform="translate(-449.796 -729.325)" fill="#cfccff"/>
            </g>
            <g id="Group_18175-2" data-name="Group 18175" transform="translate(0 212.516)">
              <path id="Path_8541-2" data-name="Path 8541" d="M450.363,880.291a.569.569,0,0,1-.567-.569v-4.568a.566.566,0,1,1,1.132,0v4.568A.567.567,0,0,1,450.363,880.291Z" transform="translate(-449.796 -874.584)" fill="#cfccff"/>
            </g>
          </g>
          <g id="Group_18180-2" data-name="Group 18180" transform="translate(367.079 37.132)">
            <g id="Group_18177-2" data-name="Group 18177">
              <path id="Path_8542-2" data-name="Path 8542" d="M495.818,745.005a.569.569,0,0,1-.567-.571v-4.566a.566.566,0,1,1,1.132,0v4.566A.569.569,0,0,1,495.818,745.005Z" transform="translate(-495.251 -739.296)" fill="#cfccff"/>
            </g>
            <g id="Group_18178-2" data-name="Group 18178" transform="translate(0 18.779)">
              <path id="Path_8543-2" data-name="Path 8543" d="M495.818,892.766c-.312,0-.567-.166-.567-.367v-6.074c0-.2.255-.367.567-.367s.565.165.565.367V892.4C496.383,892.6,496.128,892.766,495.818,892.766Zm0-15.191c-.312,0-.567-.165-.567-.366v-6.078c0-.2.255-.365.567-.365s.565.164.565.365v6.078C496.383,877.41,496.128,877.575,495.818,877.575Zm0-15.192c-.312,0-.567-.165-.567-.366v-6.078c0-.2.255-.366.567-.366s.565.165.565.366v6.078C496.383,862.218,496.128,862.383,495.818,862.383Zm0-15.19c-.312,0-.567-.165-.567-.366v-6.078c0-.2.255-.366.567-.366s.565.164.565.366v6.078C496.383,847.028,496.128,847.193,495.818,847.193Zm0-15.194c-.312,0-.567-.164-.567-.365v-6.077c0-.2.255-.366.567-.366s.565.165.565.366v6.077C496.383,831.835,496.128,832,495.818,832Zm0-15.191c-.312,0-.567-.165-.567-.365v-6.078c0-.2.255-.366.567-.366s.565.165.565.366v6.078C496.383,816.643,496.128,816.807,495.818,816.807Zm0-15.19c-.312,0-.567-.165-.567-.367v-6.075c0-.2.255-.366.567-.366s.565.164.565.366v6.075C496.383,801.452,496.128,801.617,495.818,801.617Zm0-15.191c-.312,0-.567-.165-.567-.366v-6.078c0-.2.255-.365.567-.365s.565.165.565.365v6.078C496.383,786.261,496.128,786.426,495.818,786.426Zm0-15.191c-.312,0-.567-.165-.567-.366v-6.078c0-.2.255-.365.567-.365s.565.162.565.365v6.078C496.383,771.069,496.128,771.234,495.818,771.234Zm0-15.192c-.312,0-.567-.165-.567-.366V749.6c0-.2.255-.367.567-.367s.565.164.565.367v6.077C496.383,755.878,496.128,756.043,495.818,756.043Z" transform="translate(-495.251 -749.233)" fill="#cfccff"/>
            </g>
            <g id="Group_18179-2" data-name="Group 18179" transform="translate(0 175.383)">
              <path id="Path_8544-2" data-name="Path 8544" d="M495.818,880.291a.569.569,0,0,1-.567-.569v-4.568a.566.566,0,1,1,1.132,0v4.568A.569.569,0,0,1,495.818,880.291Z" transform="translate(-495.251 -874.584)" fill="#cfccff"/>
            </g>
          </g>
          <g id="Group_18184-2" data-name="Group 18184" transform="translate(440.432 25.922)">
            <g id="Group_18181-2" data-name="Group 18181">
              <path id="Path_8545-2" data-name="Path 8545" d="M534.634,739.073a.569.569,0,0,1-.567-.571v-4.566a.567.567,0,1,1,1.134,0V738.5A.569.569,0,0,1,534.634,739.073Z" transform="translate(-534.067 -733.364)" fill="#cfccff"/>
            </g>
            <g id="Group_18182-2" data-name="Group 18182" transform="translate(0 18.134)">
              <path id="Path_8546-2" data-name="Path 8546" d="M534.634,898.994c-.312,0-.567-.17-.567-.377v-5.973c0-.207.255-.377.567-.377s.567.17.567.377v5.973C535.2,898.824,534.946,898.994,534.634,898.994Zm0-14.931c-.312,0-.567-.17-.567-.378v-5.972c0-.208.255-.378.567-.378s.567.17.567.378v5.972C535.2,883.893,534.946,884.063,534.634,884.063Zm0-14.932c-.312,0-.567-.17-.567-.377v-5.97c0-.208.255-.378.567-.378s.567.17.567.378v5.97C535.2,868.961,534.946,869.131,534.634,869.131Zm0-14.93c-.312,0-.567-.168-.567-.376v-5.974c0-.207.255-.375.567-.375s.567.168.567.375v5.974C535.2,854.032,534.946,854.2,534.634,854.2Zm0-14.93c-.312,0-.567-.17-.567-.377v-5.973c0-.207.255-.377.567-.377s.567.17.567.377v5.973C535.2,839.1,534.946,839.271,534.634,839.271Zm0-14.931c-.312,0-.567-.17-.567-.377V817.99c0-.207.255-.377.567-.377s.567.17.567.377v5.973C535.2,824.171,534.946,824.34,534.634,824.34Zm0-14.932c-.312,0-.567-.168-.567-.377v-5.971c0-.207.255-.378.567-.378s.567.171.567.378v5.971C535.2,809.24,534.946,809.408,534.634,809.408Zm0-14.931c-.312,0-.567-.169-.567-.377v-5.972c0-.207.255-.375.567-.375s.567.168.567.375V794.1C535.2,794.309,534.946,794.477,534.634,794.477Zm0-14.93c-.312,0-.567-.168-.567-.377V773.2c0-.21.255-.377.567-.377s.567.167.567.377v5.972C535.2,779.379,534.946,779.547,534.634,779.547Zm0-14.931c-.312,0-.567-.168-.567-.375v-5.973c0-.208.255-.376.567-.376s.567.167.567.376v5.973C535.2,764.448,534.946,764.616,534.634,764.616Zm0-14.93c-.312,0-.567-.168-.567-.378v-5.971c0-.21.255-.378.567-.378s.567.168.567.378v5.971C535.2,749.518,534.946,749.687,534.634,749.687Z" transform="translate(-534.067 -742.96)" fill="#cfccff"/>
            </g>
            <g id="Group_18183-2" data-name="Group 18183" transform="translate(0 186.593)">
              <path id="Path_8547-2" data-name="Path 8547" d="M534.634,880.291a.569.569,0,0,1-.567-.569v-4.568a.567.567,0,1,1,1.134,0v4.568A.569.569,0,0,1,534.634,880.291Z" transform="translate(-534.067 -874.584)" fill="#cfccff"/>
            </g>
          </g>
          <g id="Group_18188-2" data-name="Group 18188" transform="translate(549.471 -8.619)">
            <g id="Group_18185-2" data-name="Group 18185">
              <path id="Path_8548-2" data-name="Path 8548" d="M592.331,758.716a.568.568,0,0,1-.565-.571V753.58a.566.566,0,1,1,1.132,0v4.566A.569.569,0,0,1,592.331,758.716Z" transform="translate(-591.766 -753.007)" fill="#cfccff"/>
            </g>
            <g id="Group_18186-2" data-name="Group 18186" transform="translate(0 18.641)">
              <path id="Path_8549-2" data-name="Path 8549" d="M592.331,961.052a.569.569,0,0,1-.565-.571V951.1a.566.566,0,1,1,1.132,0v9.385A.571.571,0,0,1,592.331,961.052Zm0-23.458a.569.569,0,0,1-.565-.573v-9.383a.566.566,0,1,1,1.132,0v9.383A.571.571,0,0,1,592.331,937.594Zm0-23.456a.569.569,0,0,1-.565-.573v-9.383a.566.566,0,1,1,1.132,0v9.383A.571.571,0,0,1,592.331,914.139Zm0-23.46a.569.569,0,0,1-.565-.571v-9.383a.566.566,0,1,1,1.132,0v9.383A.57.57,0,0,1,592.331,890.679Zm0-23.456a.568.568,0,0,1-.565-.571v-9.383a.566.566,0,1,1,1.132,0v9.383A.569.569,0,0,1,592.331,867.223Zm0-23.458a.569.569,0,0,1-.565-.571v-9.383a.566.566,0,1,1,1.132,0v9.383A.571.571,0,0,1,592.331,843.765Zm0-23.456a.569.569,0,0,1-.565-.571v-9.383a.566.566,0,1,1,1.132,0v9.383A.571.571,0,0,1,592.331,820.309Zm0-23.456a.568.568,0,0,1-.565-.571V786.9a.566.566,0,1,1,1.132,0v9.385A.569.569,0,0,1,592.331,796.853Zm0-23.458a.569.569,0,0,1-.565-.571v-9.383a.566.566,0,1,1,1.132,0v9.383A.571.571,0,0,1,592.331,773.4Z" transform="translate(-591.766 -762.871)" fill="#cfccff"/>
            </g>
            <g id="Group_18187-2" data-name="Group 18187" transform="translate(0 229.754)">
              <path id="Path_8550-2" data-name="Path 8550" d="M592.331,880.291a.567.567,0,0,1-.565-.569v-4.568a.566.566,0,1,1,1.132,0v4.568A.569.569,0,0,1,592.331,880.291Z" transform="translate(-591.766 -874.584)" fill="#cfccff"/>
            </g>
          </g>
        </g>
        <g id="Group_18193-2" data-name="Group 18193" transform="translate(290.596 40.027)">
          <path id="Path_8557-5" data-name="Path 8557" d="M409.63,750.584a8.227,8.227,0,1,1-8.23-8.294A8.264,8.264,0,0,1,409.63,750.584Z" transform="translate(-393.176 -742.29)" fill="#fff"/>
          <path id="Path_8558-5" data-name="Path 8558" d="M406.728,749.647a6.254,6.254,0,1,1-6.257-6.3A6.284,6.284,0,0,1,406.728,749.647Z" transform="translate(-392.247 -741.353)" fill="#0f8d82"/>
        </g>
        <g id="Group_18201-2" data-name="Group 18201" transform="translate(390.568 6.256)">
          <path id="Path_8557-6" data-name="Path 8557" d="M409.63,750.584a8.227,8.227,0,1,1-8.23-8.294A8.264,8.264,0,0,1,409.63,750.584Z" transform="translate(-393.176 -742.29)" fill="#fff"/>
          <path id="Path_8558-6" data-name="Path 8558" d="M406.728,749.647a6.254,6.254,0,1,1-6.257-6.3A6.284,6.284,0,0,1,406.728,749.647Z" transform="translate(-392.247 -741.353)" fill="#0f8d82"/>
        </g>
        <g id="Group_18202-2" data-name="Group 18202" transform="translate(477.448 39.579)">
          <path id="Path_8557-7" data-name="Path 8557" d="M409.63,750.584a8.227,8.227,0,1,1-8.23-8.294A8.264,8.264,0,0,1,409.63,750.584Z" transform="translate(-393.176 -742.29)" fill="#fff"/>
          <path id="Path_8558-7" data-name="Path 8558" d="M406.728,749.647a6.254,6.254,0,1,1-6.257-6.3A6.284,6.284,0,0,1,406.728,749.647Z" transform="translate(-392.247 -741.353)" fill="#0f8d82"/>
        </g>
        <g id="Group_18203-2" data-name="Group 18203" transform="translate(658.793 50.49)">
          <path id="Path_8557-8" data-name="Path 8557" d="M409.63,750.584a8.227,8.227,0,1,1-8.23-8.294A8.264,8.264,0,0,1,409.63,750.584Z" transform="translate(-393.176 -742.29)" fill="#fff"/>
          <path id="Path_8558-8" data-name="Path 8558" d="M406.728,749.647a6.254,6.254,0,1,1-6.257-6.3A6.284,6.284,0,0,1,406.728,749.647Z" transform="translate(-392.247 -741.353)" fill="#0f8d82"/>
        </g>
        <g id="Group_18194-2" data-name="Group 18194" transform="translate(205.28 41.573)">
          <path id="Path_8559-2" data-name="Path 8559" d="M364.484,751.709a8.227,8.227,0,1,1-8.228-8.294A8.262,8.262,0,0,1,364.484,751.709Z" transform="translate(-348.03 -743.415)" fill="#fff"/>
          <path id="Path_8560-2" data-name="Path 8560" d="M361.582,750.772a6.254,6.254,0,1,1-6.255-6.3A6.283,6.283,0,0,1,361.582,750.772Z" transform="translate(-347.101 -742.478)" fill="#0f8d82"/>
        </g>
        <g id="Group_18195-2" data-name="Group 18195" transform="translate(108.756 36.33)">
          <path id="Path_8561-2" data-name="Path 8561" d="M313.407,747.891a8.227,8.227,0,1,1-8.226-8.292A8.262,8.262,0,0,1,313.407,747.891Z" transform="translate(-296.953 -739.599)" fill="#fff"/>
          <path id="Path_8562-2" data-name="Path 8562" d="M310.505,746.955a6.254,6.254,0,1,1-6.253-6.3A6.281,6.281,0,0,1,310.505,746.955Z" transform="translate(-296.024 -738.663)" fill="#0f8d82"/>
        </g>
        <g id="Group_18196-2" data-name="Group 18196" transform="translate(725.727 228.772)">
          <path id="Path_8563-2" data-name="Path 8563" d="M849.189,993.534Z" transform="translate(-849.189 -993.534)" fill="#fff" opacity="0.25"/>
        </g>
        <path id="Path_8564-2" data-name="Path 8564" d="M591.065,752.028a38.549,38.549,0,1,1-38.55-38.869A38.71,38.71,0,0,1,591.065,752.028Z" transform="translate(4.901 -713.159)" fill="#26a69a" opacity="0.4"/>
        <g id="Group_18197-2" data-name="Group 18197" transform="translate(536.109 17.38)">
          <path id="Path_8565-2" data-name="Path 8565" d="M565.71,743.845A21.31,21.31,0,1,1,544.4,722.356,21.4,21.4,0,0,1,565.71,743.845Z" transform="translate(-523.092 -722.356)" fill="#26a69a"/>
          <path id="Path_8566-2" data-name="Path 8566" d="M555.726,740.622A14.522,14.522,0,1,1,541.2,725.978,14.585,14.585,0,0,1,555.726,740.622Z" transform="translate(-519.896 -719.133)" fill="#fefefe" opacity="0.46"/>
          <path id="Path_8567-2" data-name="Path 8567" d="M545.743,737.4a7.734,7.734,0,1,1-7.735-7.8A7.768,7.768,0,0,1,545.743,737.4Z" transform="translate(-516.701 -715.909)" fill="#26a69a"/>
        </g>
      </g>
      <g id="Group_18204" data-name="Group 18204" transform="translate(611.851 39.878)" opacity="0.53">
        <path id="Path_8527-3" data-name="Path 8527" d="M758.515,779.686V902.338H240V783.389l84.435-35.577,69.6,4.424,61.876-1.3,72.048-30.983,62.3,22.777,53.2-6.806,79.084,22.7Z" transform="translate(-239.182 -712.079)" fill="#26a69a"/>
        <path id="Path_8528-3" data-name="Path 8528" d="M240.225,784.184a.846.846,0,0,1-.736-.388.657.657,0,0,1,.37-.939l84.024-35.576a.861.861,0,0,1,.426-.07l70.007,4.423,61.611-1.3,71.883-30.913a.952.952,0,0,1,.695-.017l62.086,22.7,53.125-6.847a.99.99,0,0,1,.386.03L723.03,758.05a.949.949,0,0,1,.2.086L759.2,779.2a.638.638,0,0,1,.214.974.908.908,0,0,1-1.142.18L722.4,759.345l-78.631-22.681-53.161,6.85a.98.98,0,0,1-.447-.05l-61.949-22.648L456.5,751.653a.924.924,0,0,1-.348.075l-61.878,1.3-69.863-4.41-83.823,35.49A.933.933,0,0,1,240.225,784.184Z" transform="translate(-239.403 -712.175)" fill="#fff"/>
        <path id="Path_8529-3" data-name="Path 8529" d="M240,877.375l84.025-30.351,70.007-33.491,61.876-.688,72.461-29.956,62.3,48.516,52.382-11.231L722.135,803.2l36.38,13.591v75.535H240Z" transform="translate(-239.182 -702.065)" fill="#0f8d82"/>
        <g id="Group_18189-3" data-name="Group 18189" transform="translate(84.435 7.52)">
          <g id="Group_18164-3" data-name="Group 18164" transform="translate(0 27.864)" opacity="0.35">
            <g id="Group_18161-3" data-name="Group 18161">
              <path id="Path_8530-3" data-name="Path 8530" d="M301.418,747.187a.384.384,0,0,1-.411-.35v-2.8a.416.416,0,0,1,.821,0v2.8A.383.383,0,0,1,301.418,747.187Z" transform="translate(-301.007 -743.686)" fill="#fff"/>
            </g>
            <g id="Group_18162-3" data-name="Group 18162" transform="translate(0 11.231)">
              <path id="Path_8531-3" data-name="Path 8531" d="M301.418,886.138a.385.385,0,0,1-.411-.35V880.17a.416.416,0,0,1,.821,0v5.618A.384.384,0,0,1,301.418,886.138Zm0-14.048a.385.385,0,0,1-.411-.35v-5.619a.416.416,0,0,1,.821,0v5.619A.384.384,0,0,1,301.418,872.09Zm0-14.049a.385.385,0,0,1-.411-.35V852.07a.416.416,0,0,1,.821,0v5.621A.384.384,0,0,1,301.418,858.041Zm0-14.05a.385.385,0,0,1-.411-.351v-5.619a.416.416,0,0,1,.821,0v5.619A.384.384,0,0,1,301.418,843.991Zm0-14.049a.385.385,0,0,1-.411-.35v-5.62a.416.416,0,0,1,.821,0v5.62A.384.384,0,0,1,301.418,829.942Zm0-14.049a.384.384,0,0,1-.411-.35v-5.619a.416.416,0,0,1,.821,0v5.619A.383.383,0,0,1,301.418,815.892Zm0-14.049a.384.384,0,0,1-.411-.349v-5.622a.416.416,0,0,1,.821,0v5.622A.383.383,0,0,1,301.418,801.843Zm0-14.049a.385.385,0,0,1-.411-.35v-5.619a.416.416,0,0,1,.821,0v5.619A.384.384,0,0,1,301.418,787.793Zm0-14.049a.384.384,0,0,1-.411-.35v-5.619a.416.416,0,0,1,.821,0v5.619A.383.383,0,0,1,301.418,773.744Zm0-14.049a.384.384,0,0,1-.411-.35v-5.619a.416.416,0,0,1,.821,0v5.619A.383.383,0,0,1,301.418,759.694Z" transform="translate(-301.007 -753.375)" fill="#fff"/>
            </g>
            <g id="Group_18163-3" data-name="Group 18163" transform="translate(0 151.724)">
              <path id="Path_8532-3" data-name="Path 8532" d="M301.418,878.085a.384.384,0,0,1-.411-.349v-2.8a.416.416,0,0,1,.821,0v2.8A.383.383,0,0,1,301.418,878.085Z" transform="translate(-301.007 -874.584)" fill="#fff"/>
            </g>
          </g>
          <g id="Group_18168-3" data-name="Group 18168" transform="translate(70.007 32.287)">
            <g id="Group_18165-3" data-name="Group 18165">
              <path id="Path_8533-3" data-name="Path 8533" d="M352.5,751a.383.383,0,0,1-.411-.349v-2.8a.416.416,0,0,1,.821,0v2.8A.383.383,0,0,1,352.5,751Z" transform="translate(-352.084 -747.502)" fill="#cfccff"/>
            </g>
            <g id="Group_18166-3" data-name="Group 18166" transform="translate(0 10.981)" opacity="0.35">
              <path id="Path_8534-3" data-name="Path 8534" d="M352.5,885.817a.385.385,0,0,1-.411-.351v-5.452a.416.416,0,0,1,.821,0v5.452A.384.384,0,0,1,352.5,885.817Zm0-13.633a.384.384,0,0,1-.411-.35v-5.452a.416.416,0,0,1,.821,0v5.452A.383.383,0,0,1,352.5,872.184Zm0-13.631a.384.384,0,0,1-.411-.35v-5.454a.416.416,0,0,1,.821,0V858.2A.383.383,0,0,1,352.5,858.553Zm0-13.632a.384.384,0,0,1-.411-.35v-5.452a.416.416,0,0,1,.821,0v5.452A.384.384,0,0,1,352.5,844.921Zm0-13.632a.385.385,0,0,1-.411-.35v-5.454a.416.416,0,0,1,.821,0v5.454A.384.384,0,0,1,352.5,831.288Zm0-13.632a.385.385,0,0,1-.411-.35v-5.454a.416.416,0,0,1,.821,0v5.454A.384.384,0,0,1,352.5,817.656Zm0-13.632a.384.384,0,0,1-.411-.349v-5.454a.416.416,0,0,1,.821,0v5.454A.383.383,0,0,1,352.5,804.024Zm0-13.632a.385.385,0,0,1-.411-.35v-5.452a.416.416,0,0,1,.821,0v5.452A.384.384,0,0,1,352.5,790.392Zm0-13.632a.385.385,0,0,1-.411-.35v-5.452a.416.416,0,0,1,.821,0v5.452A.384.384,0,0,1,352.5,776.76Zm0-13.632a.385.385,0,0,1-.411-.35v-5.452a.416.416,0,0,1,.821,0v5.452A.384.384,0,0,1,352.5,763.127Z" transform="translate(-352.084 -756.976)" fill="#fff" stroke="rgba(0,0,0,0)" stroke-width="1"/>
            </g>
            <g id="Group_18167-3" data-name="Group 18167" transform="translate(0 147.301)">
              <path id="Path_8535-3" data-name="Path 8535" d="M352.5,878.085a.384.384,0,0,1-.411-.349v-2.8a.416.416,0,0,1,.821,0v2.8A.383.383,0,0,1,352.5,878.085Z" transform="translate(-352.084 -874.584)" fill="#cfccff"/>
            </g>
          </g>
          <g id="Group_18172-3" data-name="Group 18172" transform="translate(131.883 30.983)" opacity="0.35">
            <g id="Group_18169-3" data-name="Group 18169">
              <path id="Path_8536-3" data-name="Path 8536" d="M397.639,749.878a.383.383,0,0,1-.41-.349v-2.8a.416.416,0,0,1,.821,0v2.8A.383.383,0,0,1,397.639,749.878Z" transform="translate(-397.229 -746.377)" fill="#fff" stroke="rgba(0,0,0,0)" stroke-width="1"/>
            </g>
            <g id="Group_18170-3" data-name="Group 18170" transform="translate(0 11.054)">
              <path id="Path_8537-3" data-name="Path 8537" d="M397.639,885.911a.383.383,0,0,1-.41-.349v-5.5a.416.416,0,0,1,.821,0v5.5A.384.384,0,0,1,397.639,885.911Zm0-13.755a.384.384,0,0,1-.41-.35v-5.5a.416.416,0,0,1,.821,0v5.5A.384.384,0,0,1,397.639,872.156Zm0-13.754a.384.384,0,0,1-.41-.35v-5.5a.416.416,0,0,1,.821,0v5.5A.385.385,0,0,1,397.639,858.4Zm0-13.755a.384.384,0,0,1-.41-.35v-5.5a.416.416,0,0,1,.821,0v5.5A.385.385,0,0,1,397.639,844.647Zm0-13.755a.384.384,0,0,1-.41-.35v-5.5a.416.416,0,0,1,.821,0v5.5A.385.385,0,0,1,397.639,830.892Zm0-13.755a.384.384,0,0,1-.41-.35v-5.5a.416.416,0,0,1,.821,0v5.5A.385.385,0,0,1,397.639,817.136Zm0-13.755a.384.384,0,0,1-.41-.35v-5.5a.416.416,0,0,1,.821,0v5.5A.385.385,0,0,1,397.639,803.382Zm0-13.755a.384.384,0,0,1-.41-.351v-5.5a.416.416,0,0,1,.821,0v5.5A.385.385,0,0,1,397.639,789.626Zm0-13.755a.384.384,0,0,1-.41-.35v-5.5a.416.416,0,0,1,.821,0v5.5A.384.384,0,0,1,397.639,775.871Zm0-13.755a.384.384,0,0,1-.41-.351v-5.5a.416.416,0,0,1,.821,0v5.5A.384.384,0,0,1,397.639,762.116Z" transform="translate(-397.229 -755.914)" fill="#fff" stroke="rgba(0,0,0,0)" stroke-width="1"/>
            </g>
            <g id="Group_18171-3" data-name="Group 18171" transform="translate(0 148.605)">
              <path id="Path_8538-3" data-name="Path 8538" d="M397.639,878.085a.383.383,0,0,1-.41-.349v-2.8a.416.416,0,0,1,.821,0v2.8A.384.384,0,0,1,397.639,878.085Z" transform="translate(-397.229 -874.584)" fill="#fff" stroke="rgba(0,0,0,0)" stroke-width="1"/>
            </g>
          </g>
          <g id="Group_18176-3" data-name="Group 18176" transform="translate(203.933)">
            <g id="Group_18173-3" data-name="Group 18173">
              <path id="Path_8539-3" data-name="Path 8539" d="M450.207,723.147a.385.385,0,0,1-.411-.351V720a.416.416,0,0,1,.821,0v2.8A.384.384,0,0,1,450.207,723.147Z" transform="translate(-449.796 -719.647)" fill="#cfccff"/>
            </g>
            <g id="Group_18174-3" data-name="Group 18174" transform="translate(0 11.218)">
              <path id="Path_8540-3" data-name="Path 8540" d="M450.207,889.976a.386.386,0,0,1-.411-.35v-5.614a.416.416,0,0,1,.821,0v5.614A.384.384,0,0,1,450.207,889.976Zm0-14.032a.385.385,0,0,1-.411-.349v-5.611a.416.416,0,0,1,.821,0V875.6A.383.383,0,0,1,450.207,875.944Zm0-14.029a.386.386,0,0,1-.411-.351v-5.612a.416.416,0,0,1,.821,0v5.612A.384.384,0,0,1,450.207,861.916Zm0-14.032a.385.385,0,0,1-.411-.349v-5.614a.416.416,0,0,1,.821,0v5.614A.383.383,0,0,1,450.207,847.884Zm0-14.031a.386.386,0,0,1-.411-.35v-5.611a.416.416,0,0,1,.821,0V833.5A.384.384,0,0,1,450.207,833.853Zm0-14.031a.384.384,0,0,1-.411-.349v-5.612a.416.416,0,0,1,.821,0v5.612A.383.383,0,0,1,450.207,819.822Zm0-14.03a.386.386,0,0,1-.411-.351v-5.612a.416.416,0,0,1,.821,0v5.612A.384.384,0,0,1,450.207,805.792Zm0-14.031a.385.385,0,0,1-.411-.349V785.8a.415.415,0,0,1,.821,0v5.612A.383.383,0,0,1,450.207,791.761Zm0-14.031a.385.385,0,0,1-.411-.35v-5.612a.416.416,0,0,1,.821,0v5.612A.384.384,0,0,1,450.207,777.73Zm0-14.031a.385.385,0,0,1-.411-.35v-5.612a.416.416,0,0,1,.821,0v5.612A.383.383,0,0,1,450.207,763.7Zm0-14.031a.385.385,0,0,1-.411-.35V743.7a.416.416,0,0,1,.821,0v5.614A.383.383,0,0,1,450.207,749.668Zm0-14.03a.385.385,0,0,1-.411-.35v-5.612a.416.416,0,0,1,.821,0v5.612A.383.383,0,0,1,450.207,735.639Z" transform="translate(-449.796 -729.325)" fill="#cfccff"/>
            </g>
            <g id="Group_18175-3" data-name="Group 18175" transform="translate(0 179.588)">
              <path id="Path_8541-3" data-name="Path 8541" d="M450.207,878.085a.385.385,0,0,1-.411-.349v-2.8a.416.416,0,0,1,.821,0v2.8A.383.383,0,0,1,450.207,878.085Z" transform="translate(-449.796 -874.584)" fill="#cfccff"/>
            </g>
          </g>
          <g id="Group_18180-3" data-name="Group 18180" transform="translate(266.234 22.775)">
            <g id="Group_18177-3" data-name="Group 18177">
              <path id="Path_8542-3" data-name="Path 8542" d="M495.662,742.8a.385.385,0,0,1-.411-.35v-2.8a.416.416,0,0,1,.821,0v2.8A.384.384,0,0,1,495.662,742.8Z" transform="translate(-495.251 -739.296)" fill="#cfccff"/>
            </g>
            <g id="Group_18178-3" data-name="Group 18178" transform="translate(0 11.518)">
              <path id="Path_8543-3" data-name="Path 8543" d="M495.662,886.51a.386.386,0,0,1-.411-.351v-5.809a.416.416,0,0,1,.821,0v5.809A.386.386,0,0,1,495.662,886.51Zm0-14.529a.386.386,0,0,1-.411-.35v-5.813a.416.416,0,0,1,.821,0v5.813A.385.385,0,0,1,495.662,871.981Zm0-14.529a.386.386,0,0,1-.411-.35v-5.813a.416.416,0,0,1,.821,0V857.1A.385.385,0,0,1,495.662,857.451Zm0-14.528a.386.386,0,0,1-.411-.35V836.76a.416.416,0,0,1,.821,0v5.813A.385.385,0,0,1,495.662,842.923Zm0-14.532a.385.385,0,0,1-.411-.349v-5.812a.416.416,0,0,1,.821,0v5.812A.384.384,0,0,1,495.662,828.391Zm0-14.529a.386.386,0,0,1-.411-.349V807.7a.416.416,0,0,1,.821,0v5.813A.385.385,0,0,1,495.662,813.862Zm0-14.528a.386.386,0,0,1-.411-.351v-5.811a.416.416,0,0,1,.821,0v5.811A.385.385,0,0,1,495.662,799.334Zm0-14.529a.386.386,0,0,1-.411-.35v-5.813a.416.416,0,0,1,.821,0v5.813A.385.385,0,0,1,495.662,784.8Zm0-14.529a.386.386,0,0,1-.411-.35v-5.813a.416.416,0,0,1,.821,0v5.813A.385.385,0,0,1,495.662,770.275Zm0-14.529a.386.386,0,0,1-.411-.35v-5.812a.416.416,0,0,1,.821,0V755.4A.385.385,0,0,1,495.662,755.746Z" transform="translate(-495.251 -749.233)" fill="#cfccff"/>
            </g>
            <g id="Group_18179-3" data-name="Group 18179" transform="translate(0 156.812)">
              <path id="Path_8544-3" data-name="Path 8544" d="M495.662,878.085a.385.385,0,0,1-.411-.349v-2.8a.416.416,0,0,1,.821,0v2.8A.384.384,0,0,1,495.662,878.085Z" transform="translate(-495.251 -874.584)" fill="#cfccff"/>
            </g>
          </g>
          <g id="Group_18184-3" data-name="Group 18184" transform="translate(319.436 15.899)">
            <g id="Group_18181-3" data-name="Group 18181">
              <path id="Path_8545-3" data-name="Path 8545" d="M534.478,736.866a.385.385,0,0,1-.411-.35v-2.8a.416.416,0,0,1,.822,0v2.8A.385.385,0,0,1,534.478,736.866Z" transform="translate(-534.067 -733.364)" fill="#cfccff"/>
            </g>
            <g id="Group_18182-3" data-name="Group 18182" transform="translate(0 11.123)">
              <path id="Path_8546-3" data-name="Path 8546" d="M534.478,887.9a.386.386,0,0,1-.411-.35v-5.549a.416.416,0,0,1,.822,0v5.549A.386.386,0,0,1,534.478,887.9Zm0-13.87a.386.386,0,0,1-.411-.351v-5.547a.416.416,0,0,1,.822,0v5.547A.386.386,0,0,1,534.478,874.035Zm0-13.871a.386.386,0,0,1-.411-.35v-5.546a.416.416,0,0,1,.822,0v5.546A.385.385,0,0,1,534.478,860.164Zm0-13.869a.385.385,0,0,1-.411-.349V840.4a.417.417,0,0,1,.822,0v5.55A.385.385,0,0,1,534.478,846.295Zm0-13.869a.385.385,0,0,1-.411-.35v-5.549a.416.416,0,0,1,.822,0v5.549A.385.385,0,0,1,534.478,832.426Zm0-13.87a.386.386,0,0,1-.411-.35v-5.549a.416.416,0,0,1,.822,0v5.549A.385.385,0,0,1,534.478,818.557Zm0-13.871a.385.385,0,0,1-.411-.35v-5.546a.416.416,0,0,1,.822,0v5.546A.385.385,0,0,1,534.478,804.685Zm0-13.87a.385.385,0,0,1-.411-.35v-5.547a.417.417,0,0,1,.822,0v5.547A.385.385,0,0,1,534.478,790.816Zm0-13.869a.385.385,0,0,1-.411-.35v-5.548a.416.416,0,0,1,.822,0V776.6A.385.385,0,0,1,534.478,776.947Zm0-13.87a.385.385,0,0,1-.411-.349V757.18a.417.417,0,0,1,.822,0v5.549A.385.385,0,0,1,534.478,763.077Zm0-13.869a.385.385,0,0,1-.411-.351v-5.546a.416.416,0,0,1,.822,0v5.546A.385.385,0,0,1,534.478,749.209Z" transform="translate(-534.067 -742.96)" fill="#cfccff"/>
            </g>
            <g id="Group_18183-3" data-name="Group 18183" transform="translate(0 163.688)">
              <path id="Path_8547-3" data-name="Path 8547" d="M534.478,878.085a.385.385,0,0,1-.411-.349v-2.8a.416.416,0,0,1,.822,0v2.8A.385.385,0,0,1,534.478,878.085Z" transform="translate(-534.067 -874.584)" fill="#cfccff"/>
            </g>
          </g>
          <g id="Group_18188-3" data-name="Group 18188" transform="translate(398.519 38.668)">
            <g id="Group_18185-3" data-name="Group 18185">
              <path id="Path_8548-3" data-name="Path 8548" d="M592.176,756.509a.383.383,0,0,1-.41-.35v-2.8a.415.415,0,0,1,.821,0v2.8A.385.385,0,0,1,592.176,756.509Z" transform="translate(-591.766 -753.007)" fill="#cfccff"/>
            </g>
            <g id="Group_18186-3" data-name="Group 18186" transform="translate(0 11.433)">
              <path id="Path_8549-3" data-name="Path 8549" d="M592.176,884.426a.384.384,0,0,1-.41-.35V878.32a.416.416,0,0,1,.821,0v5.756A.385.385,0,0,1,592.176,884.426Zm0-14.388a.384.384,0,0,1-.41-.351v-5.755a.416.416,0,0,1,.821,0v5.755A.386.386,0,0,1,592.176,870.038Zm0-14.387a.384.384,0,0,1-.41-.351v-5.755a.416.416,0,0,1,.821,0V855.3A.386.386,0,0,1,592.176,855.651Zm0-14.389a.384.384,0,0,1-.41-.35v-5.755a.416.416,0,0,1,.821,0v5.755A.385.385,0,0,1,592.176,841.262Zm0-14.387a.383.383,0,0,1-.41-.35V820.77a.416.416,0,0,1,.821,0v5.755A.385.385,0,0,1,592.176,826.875Zm0-14.388a.384.384,0,0,1-.41-.35v-5.755a.416.416,0,0,1,.821,0v5.755A.385.385,0,0,1,592.176,812.487Zm0-14.387a.384.384,0,0,1-.41-.35V792a.416.416,0,0,1,.821,0v5.755A.385.385,0,0,1,592.176,798.1Zm0-14.387a.383.383,0,0,1-.41-.35v-5.756a.415.415,0,0,1,.821,0v5.756A.385.385,0,0,1,592.176,783.714Zm0-14.388a.384.384,0,0,1-.41-.35v-5.755a.416.416,0,0,1,.821,0v5.755A.385.385,0,0,1,592.176,769.326Z" transform="translate(-591.766 -762.871)" fill="#cfccff"/>
            </g>
            <g id="Group_18187-3" data-name="Group 18187" transform="translate(0 140.92)">
              <path id="Path_8550-3" data-name="Path 8550" d="M592.176,878.085a.383.383,0,0,1-.41-.349v-2.8a.416.416,0,0,1,.821,0v2.8A.385.385,0,0,1,592.176,878.085Z" transform="translate(-591.766 -874.584)" fill="#cfccff"/>
            </g>
          </g>
        </g>
        <g id="Group_18193-3" data-name="Group 18193" transform="translate(210.763 33.766)">
          <path id="Path_8557-9" data-name="Path 8557" d="M405.11,747.377c0,2.81-2.673,5.088-5.969,5.088s-5.965-2.279-5.965-5.088,2.67-5.087,5.965-5.087S405.11,744.568,405.11,747.377Z" transform="translate(-393.176 -742.29)" fill="#fff"/>
          <path id="Path_8558-9" data-name="Path 8558" d="M403.292,747.21c0,2.136-2.033,3.869-4.538,3.869s-4.534-1.733-4.534-3.869,2.03-3.867,4.534-3.867S403.292,745.075,403.292,747.21Z" transform="translate(-392.789 -742.122)" fill="#0f8d82"/>
        </g>
        <g id="Group_18201-3" data-name="Group 18201" transform="translate(283.27 3.837)">
          <path id="Path_8557-10" data-name="Path 8557" d="M405.11,747.377c0,2.81-2.673,5.088-5.969,5.088s-5.965-2.279-5.965-5.088,2.67-5.087,5.965-5.087S405.11,744.568,405.11,747.377Z" transform="translate(-393.176 -742.29)" fill="#fff"/>
          <path id="Path_8558-10" data-name="Path 8558" d="M403.292,747.21c0,2.136-2.033,3.869-4.538,3.869s-4.534-1.733-4.534-3.869,2.03-3.867,4.534-3.867S403.292,745.075,403.292,747.21Z" transform="translate(-392.789 -742.122)" fill="#0f8d82"/>
        </g>
        <g id="Group_18202-3" data-name="Group 18202" transform="translate(346.282 24.276)">
          <path id="Path_8557-11" data-name="Path 8557" d="M405.11,747.377c0,2.81-2.673,5.088-5.969,5.088s-5.965-2.279-5.965-5.088,2.67-5.087,5.965-5.087S405.11,744.568,405.11,747.377Z" transform="translate(-393.176 -742.29)" fill="#fff"/>
          <path id="Path_8558-11" data-name="Path 8558" d="M403.292,747.21c0,2.136-2.033,3.869-4.538,3.869s-4.534-1.733-4.534-3.869,2.03-3.867,4.534-3.867S403.292,745.075,403.292,747.21Z" transform="translate(-392.789 -742.122)" fill="#0f8d82"/>
        </g>
        <g id="Group_18203-3" data-name="Group 18203" transform="translate(477.808 42.592)">
          <path id="Path_8557-12" data-name="Path 8557" d="M405.11,747.377c0,2.81-2.673,5.088-5.969,5.088s-5.965-2.279-5.965-5.088,2.67-5.087,5.965-5.087S405.11,744.568,405.11,747.377Z" transform="translate(-393.176 -742.29)" fill="#fff"/>
          <path id="Path_8558-12" data-name="Path 8558" d="M403.292,747.21c0,2.136-2.033,3.869-4.538,3.869s-4.534-1.733-4.534-3.869,2.03-3.867,4.534-3.867S403.292,745.075,403.292,747.21Z" transform="translate(-392.789 -742.122)" fill="#0f8d82"/>
        </g>
        <g id="Group_18194-3" data-name="Group 18194" transform="translate(148.885 35.07)">
          <path id="Path_8559-3" data-name="Path 8559" d="M359.964,748.5c0,2.81-2.671,5.089-5.968,5.089s-5.966-2.279-5.966-5.089,2.671-5.087,5.966-5.087S359.964,745.693,359.964,748.5Z" transform="translate(-348.03 -743.415)" fill="#fff"/>
          <path id="Path_8560-3" data-name="Path 8560" d="M358.146,748.335c0,2.136-2.031,3.869-4.537,3.869s-4.535-1.733-4.535-3.869,2.031-3.867,4.535-3.867S358.146,746.2,358.146,748.335Z" transform="translate(-347.643 -743.247)" fill="#0f8d82"/>
        </g>
        <g id="Group_18195-3" data-name="Group 18195" transform="translate(78.878 30.647)">
          <path id="Path_8561-3" data-name="Path 8561" d="M308.887,744.685c0,2.811-2.671,5.09-5.966,5.09s-5.968-2.279-5.968-5.09,2.671-5.086,5.968-5.086S308.887,741.877,308.887,744.685Z" transform="translate(-296.953 -739.599)" fill="#fff"/>
          <path id="Path_8562-3" data-name="Path 8562" d="M307.069,744.518c0,2.137-2.031,3.869-4.535,3.869S298,746.655,298,744.518s2.03-3.867,4.537-3.867S307.069,742.384,307.069,744.518Z" transform="translate(-296.566 -739.432)" fill="#0f8d82"/>
        </g>
        <g id="Group_18196-3" data-name="Group 18196" transform="translate(526.354 189.558)">
          <path id="Path_8563-3" data-name="Path 8563" d="M728.668,931.161Z" transform="translate(-728.668 -931.161)" fill="#fff" opacity="0.25"/>
        </g>
        <path id="Path_8564-3" data-name="Path 8564" d="M569.886,737c0,13.165-12.518,23.839-27.959,23.839S513.97,750.165,513.97,737s12.516-23.84,27.956-23.84S569.886,723.833,569.886,737Z" transform="translate(-137.645 -713.159)" fill="#26a69a" opacity="0.4"/>
        <g id="Group_18197-3" data-name="Group 18197" transform="translate(388.828 10.66)">
          <path id="Path_8565-3" data-name="Path 8565" d="M554,735.536c0,7.277-6.919,13.178-15.456,13.178s-15.454-5.9-15.454-13.178,6.919-13.18,15.454-13.18S554,728.257,554,735.536Z" transform="translate(-523.092 -722.356)" fill="#26a69a"/>
          <path id="Path_8566-3" data-name="Path 8566" d="M547.748,734.96c0,4.96-4.716,8.982-10.533,8.982s-10.53-4.022-10.53-8.982,4.715-8.982,10.53-8.982S547.748,730,547.748,734.96Z" transform="translate(-521.761 -721.78)" fill="#fefefe" opacity="0.46"/>
          <path id="Path_8567-3" data-name="Path 8567" d="M541.494,734.383c0,2.641-2.512,4.783-5.61,4.783s-5.609-2.142-5.609-4.783,2.512-4.782,5.609-4.782S541.494,731.742,541.494,734.383Z" transform="translate(-520.43 -721.203)" fill="#26a69a"/>
        </g>
      </g>
      <g id="Group_18206" data-name="Group 18206" transform="translate(1445.98 -29.255)" opacity="0.5">
        <path id="Path_8527-4" data-name="Path 8527" d="M853.765,800.457v165.3H240V805.447L339.948,757.5l82.38,5.962,73.243-1.758,85.284-41.756,73.748,30.7,62.976-9.173,93.611,30.591Z" transform="translate(-240.002 -709.236)" fill="#26a69a"/>
        <path id="Path_8528-4" data-name="Path 8528" d="M240.376,807.61a.974.974,0,0,1-.871-.529.945.945,0,0,1,.438-1.278l99.451-48.43a.9.9,0,0,1,.5-.095l82.86,6.021,72.922-1.772,85.081-42.082a.991.991,0,0,1,.822-.024l73.485,30.9L717.947,741a1.025,1.025,0,0,1,.457.041l93.418,30.993a1.058,1.058,0,0,1,.24.117l42.571,28.681a.941.941,0,0,1,.253,1.326.978.978,0,0,1-1.351.245L811.073,773.8,718.005,742.92l-62.921,9.325a1.02,1.02,0,0,1-.529-.068l-73.323-30.83L496.36,763.325a.974.974,0,0,1-.412.1L422.71,765.2l-82.69-6-99.212,48.313A.981.981,0,0,1,240.376,807.61Z" transform="translate(-239.11 -709.585)" fill="#fff"/>
        <path id="Path_8529-4" data-name="Path 8529" d="M240,911.511l99.46-41.316L422.33,824.6l73.242-.937,85.772-40.778,73.745,66.044,62-15.289,93.609-23.11,43.063,18.5V931.862H240Z" transform="translate(-238.764 -675.341)" fill="#0f8d82"/>
        <g id="Group_18189-4" data-name="Group 18189" transform="translate(114.339 10.237)">
          <g id="Group_18164-4" data-name="Group 18164" transform="translate(0 35.452)" opacity="0.35">
            <g id="Group_18161-4" data-name="Group 18161">
              <path id="Path_8530-4" data-name="Path 8530" d="M301.48,748.451a.474.474,0,0,1-.473-.476v-3.814a.473.473,0,1,1,.945,0v3.814A.474.474,0,0,1,301.48,748.451Z" transform="translate(-301.007 -743.686)" fill="#fff"/>
            </g>
            <g id="Group_18162-4" data-name="Group 18162" transform="translate(0 15.288)">
              <path id="Path_8531-4" data-name="Path 8531" d="M301.48,934.1a.475.475,0,0,1-.473-.477V925.98a.473.473,0,1,1,.945,0v7.648A.475.475,0,0,1,301.48,934.1Zm0-19.124a.475.475,0,0,1-.473-.477v-7.649a.473.473,0,1,1,.945,0V914.5A.475.475,0,0,1,301.48,914.981Zm0-19.125a.475.475,0,0,1-.473-.477v-7.651a.473.473,0,1,1,.945,0v7.651A.475.475,0,0,1,301.48,895.856Zm0-19.125a.476.476,0,0,1-.473-.478V868.6a.473.473,0,1,1,.945,0v7.649A.475.475,0,0,1,301.48,876.73Zm0-19.125a.475.475,0,0,1-.473-.477v-7.651a.473.473,0,1,1,.945,0v7.651A.475.475,0,0,1,301.48,857.6Zm0-19.126a.474.474,0,0,1-.473-.477v-7.649a.473.473,0,1,1,.945,0V838A.474.474,0,0,1,301.48,838.479Zm0-19.125a.474.474,0,0,1-.473-.475v-7.653a.473.473,0,1,1,.945,0v7.653A.474.474,0,0,1,301.48,819.354Zm0-19.125a.475.475,0,0,1-.473-.476V792.1a.473.473,0,1,1,.945,0v7.649A.475.475,0,0,1,301.48,800.228Zm0-19.125a.474.474,0,0,1-.473-.477v-7.65a.473.473,0,1,1,.945,0v7.65A.474.474,0,0,1,301.48,781.1Zm0-19.125a.474.474,0,0,1-.473-.477v-7.649a.473.473,0,1,1,.945,0V761.5A.474.474,0,0,1,301.48,761.978Z" transform="translate(-301.007 -753.375)" fill="#fff"/>
            </g>
            <g id="Group_18163-4" data-name="Group 18163" transform="translate(0 206.541)">
              <path id="Path_8532-4" data-name="Path 8532" d="M301.48,879.349a.474.474,0,0,1-.473-.475v-3.814a.473.473,0,1,1,.945,0v3.814A.474.474,0,0,1,301.48,879.349Z" transform="translate(-301.007 -874.584)" fill="#fff"/>
            </g>
          </g>
          <g id="Group_18168-4" data-name="Group 18168" transform="translate(80.593 41.474)">
            <g id="Group_18165-4" data-name="Group 18165">
              <path id="Path_8533-4" data-name="Path 8533" d="M352.557,752.267a.473.473,0,0,1-.473-.475v-3.814a.473.473,0,1,1,.945,0v3.814A.473.473,0,0,1,352.557,752.267Z" transform="translate(-352.084 -747.502)" fill="#cfccff"/>
            </g>
            <g id="Group_18166-4" data-name="Group 18166" transform="translate(0 14.949)" opacity="0.35">
              <path id="Path_8534-4" data-name="Path 8534" d="M352.557,932.366a.476.476,0,0,1-.473-.478v-7.422a.473.473,0,1,1,.945,0v7.422A.476.476,0,0,1,352.557,932.366Zm0-18.559a.474.474,0,0,1-.473-.476v-7.422a.473.473,0,1,1,.945,0v7.422A.474.474,0,0,1,352.557,913.807Zm0-18.556a.474.474,0,0,1-.473-.477v-7.424a.473.473,0,1,1,.945,0v7.424A.474.474,0,0,1,352.557,895.252Zm0-18.557a.474.474,0,0,1-.473-.477V868.8a.473.473,0,1,1,.945,0v7.422A.474.474,0,0,1,352.557,876.694Zm0-18.557a.475.475,0,0,1-.473-.477v-7.424a.473.473,0,1,1,.945,0v7.424A.475.475,0,0,1,352.557,858.137Zm0-18.557a.476.476,0,0,1-.473-.477v-7.424a.473.473,0,1,1,.945,0V839.1A.475.475,0,0,1,352.557,839.579Zm0-18.557a.474.474,0,0,1-.473-.475v-7.424a.473.473,0,1,1,.945,0v7.424A.474.474,0,0,1,352.557,821.022Zm0-18.557a.475.475,0,0,1-.473-.476v-7.422a.473.473,0,1,1,.945,0v7.422A.475.475,0,0,1,352.557,802.465Zm0-18.557a.475.475,0,0,1-.473-.477v-7.422a.473.473,0,1,1,.945,0v7.422A.475.475,0,0,1,352.557,783.907Zm0-18.557a.475.475,0,0,1-.473-.477v-7.422a.473.473,0,1,1,.945,0v7.422A.475.475,0,0,1,352.557,765.35Z" transform="translate(-352.084 -756.976)" fill="#fff" stroke="rgba(0,0,0,0)" stroke-width="1"/>
            </g>
            <g id="Group_18167-4" data-name="Group 18167" transform="translate(0 200.519)">
              <path id="Path_8535-4" data-name="Path 8535" d="M352.557,879.349a.474.474,0,0,1-.473-.475v-3.814a.473.473,0,1,1,.945,0v3.814A.474.474,0,0,1,352.557,879.349Z" transform="translate(-352.084 -874.584)" fill="#cfccff"/>
            </g>
          </g>
          <g id="Group_18172-4" data-name="Group 18172" transform="translate(151.826 39.699)" opacity="0.35">
            <g id="Group_18169-4" data-name="Group 18169">
              <path id="Path_8536-4" data-name="Path 8536" d="M397.7,751.142a.473.473,0,0,1-.472-.475v-3.814a.473.473,0,1,1,.945,0v3.814A.473.473,0,0,1,397.7,751.142Z" transform="translate(-397.229 -746.377)" fill="#fff" stroke="rgba(0,0,0,0)" stroke-width="1"/>
            </g>
            <g id="Group_18170-4" data-name="Group 18170" transform="translate(0 15.048)">
              <path id="Path_8537-4" data-name="Path 8537" d="M397.7,932.877a.474.474,0,0,1-.472-.475v-7.488a.473.473,0,1,1,.945,0V932.4A.474.474,0,0,1,397.7,932.877Zm0-18.725a.474.474,0,0,1-.472-.477v-7.489a.473.473,0,1,1,.945,0v7.489A.474.474,0,0,1,397.7,914.153Zm0-18.723a.475.475,0,0,1-.472-.477v-7.49a.473.473,0,1,1,.945,0v7.49A.475.475,0,0,1,397.7,895.43Zm0-18.725a.475.475,0,0,1-.472-.476v-7.49a.473.473,0,1,1,.945,0v7.49A.475.475,0,0,1,397.7,876.7Zm0-18.724a.475.475,0,0,1-.472-.477v-7.489a.473.473,0,1,1,.945,0V857.5A.476.476,0,0,1,397.7,857.98Zm0-18.725a.475.475,0,0,1-.472-.476v-7.489a.473.473,0,1,1,.945,0v7.489A.475.475,0,0,1,397.7,839.256Zm0-18.724a.475.475,0,0,1-.472-.477v-7.49a.473.473,0,1,1,.945,0v7.49A.476.476,0,0,1,397.7,820.531Zm0-18.725a.476.476,0,0,1-.472-.478V793.84a.473.473,0,1,1,.945,0v7.489A.476.476,0,0,1,397.7,801.807Zm0-18.725a.474.474,0,0,1-.472-.477v-7.49a.473.473,0,1,1,.945,0v7.49A.474.474,0,0,1,397.7,783.082Zm0-18.725a.474.474,0,0,1-.472-.478v-7.489a.473.473,0,1,1,.945,0v7.489A.475.475,0,0,1,397.7,764.357Z" transform="translate(-397.229 -755.914)" fill="#fff" stroke="rgba(0,0,0,0)" stroke-width="1"/>
            </g>
            <g id="Group_18171-4" data-name="Group 18171" transform="translate(0 202.294)">
              <path id="Path_8538-4" data-name="Path 8538" d="M397.7,879.349a.474.474,0,0,1-.472-.475v-3.814a.473.473,0,1,1,.945,0v3.814A.474.474,0,0,1,397.7,879.349Z" transform="translate(-397.229 -874.584)" fill="#fff" stroke="rgba(0,0,0,0)" stroke-width="1"/>
            </g>
          </g>
          <g id="Group_18176-4" data-name="Group 18176" transform="translate(234.77)">
            <g id="Group_18173-4" data-name="Group 18173">
              <path id="Path_8539-4" data-name="Path 8539" d="M450.269,724.412a.476.476,0,0,1-.473-.478v-3.812a.473.473,0,1,1,.945,0v3.812A.474.474,0,0,1,450.269,724.412Z" transform="translate(-449.796 -719.647)" fill="#cfccff"/>
            </g>
            <g id="Group_18174-4" data-name="Group 18174" transform="translate(0 15.271)">
              <path id="Path_8540-4" data-name="Path 8540" d="M450.269,945.54a.474.474,0,0,1-.473-.471v-7.555a.473.473,0,0,1,.945,0v7.555A.472.472,0,0,1,450.269,945.54Zm0-18.885a.472.472,0,0,1-.473-.469v-7.552a.473.473,0,0,1,.945,0v7.552A.471.471,0,0,1,450.269,926.655Zm0-18.881a.474.474,0,0,1-.473-.473v-7.553a.473.473,0,0,1,.945,0V907.3A.473.473,0,0,1,450.269,907.774Zm0-18.885a.472.472,0,0,1-.473-.47v-7.555a.473.473,0,0,1,.945,0v7.555A.471.471,0,0,1,450.269,888.889Zm0-18.884a.474.474,0,0,1-.473-.471v-7.552a.473.473,0,0,1,.945,0v7.552A.472.472,0,0,1,450.269,870.005Zm0-18.884a.471.471,0,0,1-.473-.469V843.1a.473.473,0,0,1,.945,0v7.553A.47.47,0,0,1,450.269,851.122Zm0-18.882a.474.474,0,0,1-.473-.473v-7.553a.473.473,0,0,1,.945,0v7.553A.473.473,0,0,1,450.269,832.239Zm0-18.884a.472.472,0,0,1-.473-.469v-7.554a.473.473,0,1,1,.945,0v7.554A.471.471,0,0,1,450.269,813.356Zm0-18.884A.474.474,0,0,1,449.8,794v-7.553a.473.473,0,0,1,.945,0V794A.472.472,0,0,1,450.269,794.472Zm0-18.884a.473.473,0,0,1-.473-.471v-7.553a.473.473,0,0,1,.945,0v7.553A.471.471,0,0,1,450.269,775.588Zm0-18.884a.473.473,0,0,1-.473-.471v-7.555a.473.473,0,0,1,.945,0v7.555A.471.471,0,0,1,450.269,756.7Zm0-18.882a.473.473,0,0,1-.473-.471V729.8a.473.473,0,1,1,.945,0v7.553A.471.471,0,0,1,450.269,737.822Z" transform="translate(-449.796 -729.325)" fill="#cfccff"/>
            </g>
            <g id="Group_18175-4" data-name="Group 18175" transform="translate(0 241.993)">
              <path id="Path_8541-4" data-name="Path 8541" d="M450.269,879.349a.475.475,0,0,1-.473-.475v-3.814a.473.473,0,1,1,.945,0v3.814A.474.474,0,0,1,450.269,879.349Z" transform="translate(-449.796 -874.584)" fill="#cfccff"/>
            </g>
          </g>
          <g id="Group_18180-4" data-name="Group 18180" transform="translate(306.493 31.004)">
            <g id="Group_18177-4" data-name="Group 18177">
              <path id="Path_8542-4" data-name="Path 8542" d="M495.724,744.063a.475.475,0,0,1-.473-.477v-3.812a.473.473,0,1,1,.945,0v3.812A.475.475,0,0,1,495.724,744.063Z" transform="translate(-495.251 -739.296)" fill="#cfccff"/>
            </g>
            <g id="Group_18178-4" data-name="Group 18178" transform="translate(0 15.679)">
              <path id="Path_8543-4" data-name="Path 8543" d="M495.724,933.629a.475.475,0,0,1-.473-.472v-7.8a.473.473,0,0,1,.945,0v7.8A.474.474,0,0,1,495.724,933.629Zm0-19.516a.473.473,0,0,1-.473-.47v-7.808a.473.473,0,0,1,.945,0v7.808A.473.473,0,0,1,495.724,914.113Zm0-19.516a.473.473,0,0,1-.473-.47v-7.808a.473.473,0,0,1,.945,0v7.808A.473.473,0,0,1,495.724,894.6Zm0-19.515a.473.473,0,0,1-.473-.47V866.8a.473.473,0,0,1,.945,0v7.808A.473.473,0,0,1,495.724,875.081Zm0-19.52a.472.472,0,0,1-.473-.469v-7.806a.473.473,0,0,1,.945,0v7.806A.472.472,0,0,1,495.724,855.562Zm0-19.516a.473.473,0,0,1-.473-.469v-7.808a.473.473,0,0,1,.945,0v7.808A.473.473,0,0,1,495.724,836.046Zm0-19.515a.474.474,0,0,1-.473-.472v-7.8a.473.473,0,0,1,.945,0v7.8A.473.473,0,0,1,495.724,816.531Zm0-19.516a.473.473,0,0,1-.473-.47v-7.808a.473.473,0,0,1,.945,0v7.808A.473.473,0,0,1,495.724,797.014Zm0-19.516a.473.473,0,0,1-.473-.47V769.22a.473.473,0,0,1,.945,0v7.808A.473.473,0,0,1,495.724,777.5Zm0-19.517a.473.473,0,0,1-.473-.47V749.7a.473.473,0,0,1,.945,0v7.807A.473.473,0,0,1,495.724,757.981Z" transform="translate(-495.251 -749.233)" fill="#cfccff"/>
            </g>
            <g id="Group_18179-4" data-name="Group 18179" transform="translate(0 210.989)">
              <path id="Path_8544-4" data-name="Path 8544" d="M495.724,879.349a.475.475,0,0,1-.473-.475v-3.814a.473.473,0,1,1,.945,0v3.814A.475.475,0,0,1,495.724,879.349Z" transform="translate(-495.251 -874.584)" fill="#cfccff"/>
            </g>
          </g>
          <g id="Group_18184-4" data-name="Group 18184" transform="translate(367.739 21.644)">
            <g id="Group_18181-4" data-name="Group 18181">
              <path id="Path_8545-4" data-name="Path 8545" d="M534.54,738.131a.475.475,0,0,1-.473-.477v-3.812a.473.473,0,1,1,.947,0v3.812A.475.475,0,0,1,534.54,738.131Z" transform="translate(-534.067 -733.364)" fill="#cfccff"/>
            </g>
            <g id="Group_18182-4" data-name="Group 18182" transform="translate(0 15.141)">
              <path id="Path_8546-4" data-name="Path 8546" d="M534.54,937.793a.473.473,0,0,1-.473-.47v-7.458a.473.473,0,0,1,.947,0v7.458A.473.473,0,0,1,534.54,937.793Zm0-18.644a.474.474,0,0,1-.473-.472v-7.457a.473.473,0,0,1,.947,0v7.457A.474.474,0,0,1,534.54,919.15Zm0-18.645a.473.473,0,0,1-.473-.471v-7.455a.473.473,0,0,1,.947,0v7.455A.473.473,0,0,1,534.54,900.5Zm0-18.642a.472.472,0,0,1-.473-.469v-7.46a.473.473,0,0,1,.947,0v7.46A.472.472,0,0,1,534.54,881.862Zm0-18.642a.473.473,0,0,1-.473-.47v-7.459a.473.473,0,0,1,.947,0v7.459A.473.473,0,0,1,534.54,863.22Zm0-18.644a.474.474,0,0,1-.473-.471v-7.458a.473.473,0,0,1,.947,0v7.458A.473.473,0,0,1,534.54,844.577Zm0-18.645a.472.472,0,0,1-.473-.47v-7.455a.473.473,0,0,1,.947,0v7.455A.472.472,0,0,1,534.54,825.931Zm0-18.644a.473.473,0,0,1-.473-.471V799.36a.473.473,0,0,1,.947,0v7.457A.472.472,0,0,1,534.54,807.288Zm0-18.642a.472.472,0,0,1-.473-.47v-7.457a.473.473,0,0,1,.947,0v7.457A.472.472,0,0,1,534.54,788.645Zm0-18.644a.472.472,0,0,1-.473-.469v-7.458a.473.473,0,0,1,.947,0v7.458A.472.472,0,0,1,534.54,770Zm0-18.642a.473.473,0,0,1-.473-.472v-7.455a.473.473,0,0,1,.947,0v7.455A.473.473,0,0,1,534.54,751.359Z" transform="translate(-534.067 -742.96)" fill="#cfccff"/>
            </g>
            <g id="Group_18183-4" data-name="Group 18183" transform="translate(0 220.349)">
              <path id="Path_8547-4" data-name="Path 8547" d="M534.54,879.349a.475.475,0,0,1-.473-.475v-3.814a.473.473,0,1,1,.947,0v3.814A.475.475,0,0,1,534.54,879.349Z" transform="translate(-534.067 -874.584)" fill="#cfccff"/>
            </g>
          </g>
          <g id="Group_18188-4" data-name="Group 18188" transform="translate(458.781 50.16)">
            <g id="Group_18185-4" data-name="Group 18185">
              <path id="Path_8548-4" data-name="Path 8548" d="M592.238,757.774a.474.474,0,0,1-.472-.477v-3.812a.473.473,0,1,1,.945,0V757.3A.475.475,0,0,1,592.238,757.774Z" transform="translate(-591.766 -753.007)" fill="#cfccff"/>
            </g>
            <g id="Group_18186-4" data-name="Group 18186" transform="translate(0 15.564)">
              <path id="Path_8549-4" data-name="Path 8549" d="M592.238,928.343a.475.475,0,0,1-.472-.477V920.03a.473.473,0,1,1,.945,0v7.836A.477.477,0,0,1,592.238,928.343Zm0-19.586a.475.475,0,0,1-.472-.478v-7.834a.473.473,0,1,1,.945,0v7.834A.477.477,0,0,1,592.238,908.757Zm0-19.584a.475.475,0,0,1-.472-.478V880.86a.473.473,0,1,1,.945,0v7.834A.477.477,0,0,1,592.238,889.172Zm0-19.588a.475.475,0,0,1-.472-.477v-7.834a.473.473,0,1,1,.945,0v7.834A.476.476,0,0,1,592.238,869.584Zm0-19.585a.474.474,0,0,1-.472-.476v-7.834a.473.473,0,1,1,.945,0v7.834A.475.475,0,0,1,592.238,850Zm0-19.586a.475.475,0,0,1-.472-.476V822.1a.473.473,0,1,1,.945,0v7.834A.476.476,0,0,1,592.238,830.414Zm0-19.585a.475.475,0,0,1-.472-.477v-7.834a.473.473,0,1,1,.945,0v7.834A.476.476,0,0,1,592.238,810.829Zm0-19.584a.474.474,0,0,1-.472-.477v-7.836a.473.473,0,1,1,.945,0v7.836A.475.475,0,0,1,592.238,791.244Zm0-19.586a.475.475,0,0,1-.472-.477v-7.834a.473.473,0,1,1,.945,0v7.834A.476.476,0,0,1,592.238,771.658Z" transform="translate(-591.766 -762.871)" fill="#cfccff"/>
            </g>
            <g id="Group_18187-4" data-name="Group 18187" transform="translate(0 191.833)">
              <path id="Path_8550-4" data-name="Path 8550" d="M592.238,879.349a.474.474,0,0,1-.472-.475v-3.814a.473.473,0,1,1,.945,0v3.814A.475.475,0,0,1,592.238,879.349Z" transform="translate(-591.766 -874.584)" fill="#cfccff"/>
            </g>
          </g>
        </g>
        <g id="Group_18193-4" data-name="Group 18193" transform="translate(249.833 45.501)">
          <path id="Path_8557-13" data-name="Path 8557" d="M406.915,749.215a6.869,6.869,0,1,1-6.872-6.925A6.9,6.9,0,0,1,406.915,749.215Z" transform="translate(-393.176 -742.29)" fill="#fff"/>
          <path id="Path_8558-13" data-name="Path 8558" d="M404.664,748.607a5.222,5.222,0,1,1-5.224-5.264A5.247,5.247,0,0,1,404.664,748.607Z" transform="translate(-392.573 -741.681)" fill="#0f8d82"/>
        </g>
        <g id="Group_18201-4" data-name="Group 18201" transform="translate(335.677 5.223)">
          <path id="Path_8557-14" data-name="Path 8557" d="M406.915,749.215a6.869,6.869,0,1,1-6.872-6.925A6.9,6.9,0,0,1,406.915,749.215Z" transform="translate(-393.176 -742.29)" fill="#fff"/>
          <path id="Path_8558-14" data-name="Path 8558" d="M404.664,748.607a5.222,5.222,0,1,1-5.224-5.264A5.247,5.247,0,0,1,404.664,748.607Z" transform="translate(-392.573 -741.681)" fill="#0f8d82"/>
        </g>
        <g id="Group_18202-4" data-name="Group 18202" transform="translate(410.279 33.047)">
          <path id="Path_8557-15" data-name="Path 8557" d="M406.915,749.215a6.869,6.869,0,1,1-6.872-6.925A6.9,6.9,0,0,1,406.915,749.215Z" transform="translate(-393.176 -742.29)" fill="#fff"/>
          <path id="Path_8558-15" data-name="Path 8558" d="M404.664,748.607a5.222,5.222,0,1,1-5.224-5.264A5.247,5.247,0,0,1,404.664,748.607Z" transform="translate(-392.573 -741.681)" fill="#0f8d82"/>
        </g>
        <g id="Group_18203-4" data-name="Group 18203" transform="translate(567.196 57.395)">
          <path id="Path_8557-16" data-name="Path 8557" d="M406.915,749.215a6.869,6.869,0,1,1-6.872-6.925A6.9,6.9,0,0,1,406.915,749.215Z" transform="translate(-393.176 -742.29)" fill="#fff"/>
          <path id="Path_8558-16" data-name="Path 8558" d="M404.664,748.607a5.222,5.222,0,1,1-5.224-5.264A5.247,5.247,0,0,1,404.664,748.607Z" transform="translate(-392.573 -741.681)" fill="#0f8d82"/>
        </g>
        <g id="Group_18194-4" data-name="Group 18194" transform="translate(176.573 47.259)">
          <path id="Path_8559-4" data-name="Path 8559" d="M361.769,750.34a6.869,6.869,0,1,1-6.87-6.925A6.9,6.9,0,0,1,361.769,750.34Z" transform="translate(-348.03 -743.415)" fill="#fff"/>
          <path id="Path_8560-4" data-name="Path 8560" d="M359.518,749.732a5.222,5.222,0,1,1-5.223-5.264A5.246,5.246,0,0,1,359.518,749.732Z" transform="translate(-347.427 -742.807)" fill="#0f8d82"/>
        </g>
        <g id="Group_18195-4" data-name="Group 18195" transform="translate(91.099 41.298)">
          <path id="Path_8561-4" data-name="Path 8561" d="M310.692,746.523a6.869,6.869,0,1,1-6.868-6.924A6.9,6.9,0,0,1,310.692,746.523Z" transform="translate(-296.953 -739.599)" fill="#fff"/>
          <path id="Path_8562-4" data-name="Path 8562" d="M308.441,745.915a5.222,5.222,0,1,1-5.221-5.264A5.244,5.244,0,0,1,308.441,745.915Z" transform="translate(-296.35 -738.991)" fill="#0f8d82"/>
        </g>
        <g id="Group_18196-4" data-name="Group 18196" transform="translate(623.083 255.566)">
          <path id="Path_8563-4" data-name="Path 8563" d="M728.668,931.161Z" transform="translate(-728.668 -931.161)" fill="#fff" opacity="0.25"/>
        </g>
        <path id="Path_8564-4" data-name="Path 8564" d="M578.341,745.613a32.187,32.187,0,1,1-32.187-32.454A32.321,32.321,0,0,1,578.341,745.613Z" transform="translate(-66.97 -713.159)" fill="#26a69a" opacity="0.4"/>
        <g id="Group_18197-4" data-name="Group 18197" transform="translate(461.138 14.512)">
          <path id="Path_8565-4" data-name="Path 8565" d="M558.676,740.3a17.793,17.793,0,1,1-17.794-17.942A17.867,17.867,0,0,1,558.676,740.3Z" transform="translate(-523.092 -722.356)" fill="#26a69a"/>
          <path id="Path_8566-4" data-name="Path 8566" d="M550.933,738.205a12.125,12.125,0,1,1-12.126-12.227A12.178,12.178,0,0,1,550.933,738.205Z" transform="translate(-521.016 -720.263)" fill="#fefefe" opacity="0.46"/>
          <path id="Path_8567-4" data-name="Path 8567" d="M543.19,736.111a6.458,6.458,0,1,1-6.458-6.51A6.486,6.486,0,0,1,543.19,736.111Z" transform="translate(-518.941 -718.169)" fill="#26a69a"/>
        </g>
      </g>
    </g>
  </g>
</svg>
