<svg xmlns="http://www.w3.org/2000/svg" width="74.803" height="74.334" viewBox="0 0 74.803 74.334">
  <g id="Group_19146" data-name="Group 19146" transform="translate(-1115.627 -4864.765)">
    <g id="Group_18395" data-name="Group 18395" transform="translate(1307.183 4735.366)">
      <path id="Path_8714" data-name="Path 8714" d="M-153.337,162.942a3.14,3.14,0,0,1,3.117,3.164,3.14,3.14,0,0,1-3.117,3.164,3.141,3.141,0,0,1-3.117-3.164A3.14,3.14,0,0,1-153.337,162.942Z" transform="translate(-0.04 0.46)" fill="#febe76"/>
      <path id="Path_8715" data-name="Path 8715" d="M-137.736,130.178a3.14,3.14,0,0,1,3.117,3.164,3.139,3.139,0,0,1-3.117,3.163,3.14,3.14,0,0,1-3.116-3.163A3.141,3.141,0,0,1-137.736,130.178Z" transform="translate(-0.057 0.011)" fill="#e1eef3"/>
      <path id="Path_8716" data-name="Path 8716" d="M-120.573,176.984a3.139,3.139,0,0,1,3.116,3.163,3.139,3.139,0,0,1-3.116,3.164,3.141,3.141,0,0,1-3.117-3.164A3.14,3.14,0,0,1-120.573,176.984Z" transform="translate(-0.077 0.653)" fill="#26a69a" opacity="0.13"/>
      <path id="Path_8717" data-name="Path 8717" d="M-166.6,194.146a3.924,3.924,0,0,1,3.9,3.954,3.925,3.925,0,0,1-3.9,3.955,3.926,3.926,0,0,1-3.9-3.955A3.925,3.925,0,0,1-166.6,194.146Z" transform="translate(-0.024 0.888)" fill="#e1eef3"/>
      <path id="Path_8719" data-name="Path 8719" d="M-120.571,187.9a1.57,1.57,0,0,1,1.558,1.581,1.57,1.57,0,0,1-1.558,1.581,1.57,1.57,0,0,1-1.557-1.581A1.57,1.57,0,0,1-120.571,187.9Z" transform="translate(-0.079 0.803)" fill="#26a69a"/>
      <path id="Path_8720" data-name="Path 8720" d="M-123.692,152.021a1.571,1.571,0,0,1,1.56,1.582,1.57,1.57,0,0,1-1.56,1.581,1.572,1.572,0,0,1-1.559-1.581A1.572,1.572,0,0,1-123.692,152.021Z" transform="translate(-0.075 0.31)" fill="#26a69a"/>
      <path id="Path_8721" data-name="Path 8721" d="M-139.294,194.146a1.569,1.569,0,0,1,1.558,1.581,1.569,1.569,0,0,1-1.558,1.581,1.571,1.571,0,0,1-1.558-1.581A1.571,1.571,0,0,1-139.294,194.146Z" transform="translate(-0.057 0.888)" fill="#26a69a"/>
      <path id="Path_8722" data-name="Path 8722" d="M-165.816,134.859a1.569,1.569,0,0,1,1.557,1.581,1.569,1.569,0,0,1-1.557,1.581,1.571,1.571,0,0,1-1.558-1.581A1.571,1.571,0,0,1-165.816,134.859Z" transform="translate(-0.027 0.075)" fill="#26a69a"/>
      <path id="Path_8723" data-name="Path 8723" d="M-179.858,131.739a1.57,1.57,0,0,1,1.559,1.581,1.57,1.57,0,0,1-1.559,1.581,1.571,1.571,0,0,1-1.558-1.581A1.571,1.571,0,0,1-179.858,131.739Z" transform="translate(-0.012 0.032)" fill="#26a69a"/>
      <path id="Path_8724" data-name="Path 8724" d="M-184.54,176.984a1.57,1.57,0,0,1,1.56,1.581,1.57,1.57,0,0,1-1.56,1.581,1.57,1.57,0,0,1-1.556-1.581A1.57,1.57,0,0,1-184.54,176.984Z" transform="translate(-0.006 0.653)" fill="#26a69a"/>
      <path id="Path_8725" data-name="Path 8725" d="M-153.344,203.733c-5.252,0-7.82-12.345-8.682-17.652-.516-3.175-.9-6.633-1.144-10.278-.116-1.713-.2-3.5-.251-5.307-.036-1.327-.053-2.649-.053-3.93s.017-2.605.053-3.93c.05-1.808.135-3.594.251-5.308.243-3.645.627-7.1,1.144-10.278.862-5.307,3.43-17.651,8.682-17.651s7.821,12.344,8.682,17.651c.517,3.182.9,6.64,1.145,10.278.116,1.715.2,3.5.25,5.307.035,1.325.053,2.648.053,3.931s-.018,2.605-.053,3.93c-.049,1.807-.134,3.592-.25,5.307-.244,3.638-.627,7.1-1.145,10.278C-145.523,191.388-148.093,203.733-153.344,203.733Zm0-72.754c-2.075,0-5.19,4.277-7.144,16.328-.507,3.125-.887,6.533-1.13,10.128-.112,1.693-.2,3.458-.245,5.245-.035,1.311-.053,2.617-.053,3.886s.018,2.575.053,3.887c.049,1.786.133,3.549.245,5.243.243,3.6.622,7,1.13,10.128,1.954,12.051,5.069,16.327,7.144,16.327s5.189-4.276,7.146-16.327c.507-3.132.886-6.54,1.127-10.128.114-1.694.2-3.458.247-5.243.034-1.31.052-2.618.052-3.887s-.018-2.578-.052-3.889c-.05-1.784-.133-3.548-.247-5.242-.241-3.588-.619-7-1.127-10.128C-148.155,135.256-151.27,130.979-153.344,130.979Z" transform="translate(-0.032 0)" fill="#26a69a"/>
      <path id="Path_8726" data-name="Path 8726" d="M-176.214,193.814a4.1,4.1,0,0,1-3.045-1.1c-3.713-3.768,3.071-14.341,6.158-18.712,1.863-2.632,4-5.353,6.352-8.088,1.132-1.315,2.316-2.638,3.521-3.931.872-.934,1.781-1.881,2.7-2.817s1.855-1.857,2.776-2.741c1.277-1.225,2.579-2.429,3.876-3.575,2.707-2.4,5.387-4.565,7.97-6.444,6.511-4.74,11.977-7.351,15.393-7.351a4.094,4.094,0,0,1,3.045,1.1c3.713,3.768-3.071,14.34-6.159,18.711-1.861,2.633-4,5.353-6.352,8.088-1.132,1.317-2.317,2.64-3.522,3.934-.872.935-1.781,1.883-2.7,2.816s-1.855,1.856-2.776,2.74c-1.288,1.237-2.591,2.439-3.876,3.575-2.708,2.4-5.39,4.567-7.969,6.444C-167.332,191.2-172.8,193.814-176.214,193.814Zm45.7-53.18c-3.048,0-8.328,2.571-14.485,7.055-2.542,1.849-5.184,3.986-7.855,6.35-1.278,1.134-2.566,2.322-3.829,3.534-.909.874-1.833,1.785-2.743,2.709s-1.81,1.863-2.672,2.787c-1.191,1.279-2.362,2.585-3.479,3.885-2.321,2.7-4.428,5.38-6.26,7.972-7.012,9.923-7.79,15.183-6.323,16.671a2.632,2.632,0,0,0,1.943.636c3.048,0,8.328-2.57,14.485-7.052,2.538-1.849,5.183-3.986,7.855-6.352,1.267-1.121,2.554-2.309,3.828-3.532.91-.875,1.834-1.786,2.744-2.711s1.809-1.86,2.67-2.785c1.192-1.277,2.362-2.585,3.481-3.887,2.321-2.7,4.428-5.379,6.26-7.971,7.012-9.924,7.789-15.183,6.323-16.67A2.633,2.633,0,0,0-130.512,140.634Z" transform="translate(-0.013 0.132)" fill="#26a69a"/>
      <path id="Path_8727" data-name="Path 8727" d="M-153.375,176.482c-1.264,0-2.566-.019-3.871-.055-1.783-.051-3.542-.135-5.233-.252-3.587-.247-6.994-.639-10.127-1.164-5.229-.873-17.392-3.48-17.392-8.809s12.163-7.937,17.393-8.81c3.131-.524,6.539-.916,10.127-1.163,1.686-.119,3.446-.2,5.23-.253,1.307-.037,2.609-.055,3.873-.055s2.567.018,3.874.055c1.783.051,3.541.135,5.23.253,3.589.246,7,.639,10.129,1.163,5.228.873,17.391,3.48,17.391,8.81s-12.163,7.936-17.392,8.809c-3.131.524-6.54.916-10.129,1.164-1.69.118-3.448.2-5.228.252C-150.807,176.463-152.11,176.482-153.375,176.482Zm0-18.979c-1.249,0-2.537.017-3.83.053-1.761.051-3.5.135-5.167.249-3.538.244-6.9.631-9.979,1.148-11.876,1.982-16.089,5.144-16.089,7.249s4.213,5.266,16.088,7.248c3.083.518,6.442.9,9.98,1.147,1.67.116,3.408.2,5.167.25,1.293.035,2.581.054,3.83.054s2.539-.018,3.832-.054c1.757-.05,3.5-.135,5.165-.25,3.54-.243,6.9-.629,9.982-1.147,11.874-1.982,16.086-5.144,16.086-7.248s-4.212-5.267-16.086-7.249c-3.083-.517-6.442-.9-9.982-1.148-1.667-.115-3.406-.2-5.166-.249C-150.835,157.521-152.124,157.5-153.375,157.5Z" transform="translate(-0.002 0.364)" fill="#26a69a"/>
      <path id="Path_8728" data-name="Path 8728" d="M-130.512,193.814c-3.415,0-8.882-2.611-15.393-7.352-2.583-1.878-5.263-4.046-7.97-6.444-1.3-1.147-2.6-2.35-3.876-3.575-.921-.884-1.856-1.806-2.776-2.74s-1.833-1.886-2.7-2.818c-1.2-1.294-2.389-2.617-3.521-3.932-2.352-2.735-4.489-5.456-6.352-8.088-3.087-4.371-9.871-14.943-6.158-18.711a4.1,4.1,0,0,1,3.045-1.1c3.415,0,8.882,2.61,15.394,7.351,2.579,1.877,5.261,4.046,7.969,6.443,1.285,1.136,2.588,2.34,3.876,3.576.921.884,1.855,1.806,2.776,2.741s1.83,1.882,2.7,2.815c1.208,1.3,2.392,2.619,3.523,3.934,2.353,2.734,4.49,5.456,6.351,8.087,3.088,4.371,9.872,14.944,6.159,18.712A4.094,4.094,0,0,1-130.512,193.814Zm-45.7-53.18a2.636,2.636,0,0,0-1.943.637c-1.467,1.488-.689,6.746,6.323,16.671,1.832,2.592,3.939,5.274,6.26,7.971,1.117,1.3,2.288,2.607,3.479,3.886.859.921,1.758,1.859,2.672,2.786s1.834,1.836,2.743,2.711c1.263,1.21,2.551,2.4,3.829,3.532,2.671,2.366,5.313,4.5,7.855,6.351,6.157,4.484,11.437,7.053,14.485,7.053a2.633,2.633,0,0,0,1.943-.636c1.466-1.488.689-6.747-6.323-16.671-1.832-2.592-3.939-5.274-6.26-7.972-1.117-1.3-2.287-2.605-3.481-3.886-.859-.922-1.758-1.86-2.67-2.786s-1.834-1.835-2.744-2.709c-1.274-1.224-2.561-2.412-3.828-3.534-2.673-2.365-5.317-4.5-7.855-6.35C-167.886,143.205-173.166,140.634-176.214,140.634Z" transform="translate(-0.013 0.132)" fill="#26a69a"/>
      <path id="Path_8729" data-name="Path 8729" d="M-153.337,170.07a3.93,3.93,0,0,1-3.9-3.953,3.93,3.93,0,0,1,3.9-3.955,3.931,3.931,0,0,1,3.9,3.955A3.931,3.931,0,0,1-153.337,170.07Zm0-6.327a2.359,2.359,0,0,0-2.337,2.373,2.357,2.357,0,0,0,2.337,2.372A2.358,2.358,0,0,0-151,166.117,2.359,2.359,0,0,0-153.337,163.743Z" transform="translate(-0.039 0.45)" fill="#26a69a"/>
      <path id="Path_8730" data-name="Path 8730" d="M-120.573,184.111a3.93,3.93,0,0,1-3.9-3.954,3.929,3.929,0,0,1,3.9-3.954,3.929,3.929,0,0,1,3.9,3.954A3.93,3.93,0,0,1-120.573,184.111Zm0-6.326a2.358,2.358,0,0,0-2.338,2.372,2.358,2.358,0,0,0,2.338,2.372,2.358,2.358,0,0,0,2.337-2.372A2.358,2.358,0,0,0-120.573,177.785Z" transform="translate(-0.076 0.642)" fill="#26a69a"/>
      <path id="Path_8731" data-name="Path 8731" d="M-166.6,202.855a4.715,4.715,0,0,1-4.674-4.745,4.716,4.716,0,0,1,4.674-4.745,4.716,4.716,0,0,1,4.676,4.745A4.716,4.716,0,0,1-166.6,202.855Zm0-7.908a3.143,3.143,0,0,0-3.115,3.163,3.142,3.142,0,0,0,3.115,3.163,3.143,3.143,0,0,0,3.117-3.163A3.144,3.144,0,0,0-166.6,194.947Z" transform="translate(-0.023 0.878)" fill="#26a69a"/>
      <path id="Path_8732" data-name="Path 8732" d="M-137.736,137.307a3.93,3.93,0,0,1-3.895-3.955,3.929,3.929,0,0,1,3.895-3.954,3.929,3.929,0,0,1,3.9,3.954A3.93,3.93,0,0,1-137.736,137.307Zm0-6.328a2.357,2.357,0,0,0-2.336,2.373,2.358,2.358,0,0,0,2.336,2.373,2.36,2.36,0,0,0,2.338-2.373A2.359,2.359,0,0,0-137.736,130.979Z" transform="translate(-0.057 0)" fill="#26a69a"/>
      <path id="Path_8733" data-name="Path 8733" d="M-187.661,156.028a3.928,3.928,0,0,1-3.895-3.954,3.929,3.929,0,0,1,3.895-3.955,3.931,3.931,0,0,1,3.9,3.955A3.93,3.93,0,0,1-187.661,156.028Zm0-6.327A2.358,2.358,0,0,0-190,152.075a2.357,2.357,0,0,0,2.337,2.372,2.357,2.357,0,0,0,2.337-2.372A2.358,2.358,0,0,0-187.661,149.7Z" transform="translate(0 0.257)" fill="#26a69a"/>
    </g>
  </g>
</svg>
