<svg xmlns="http://www.w3.org/2000/svg" width="83.493" height="80.993" viewBox="0 0 83.493 80.993">
  <g id="Group_18375" data-name="Group 18375" transform="translate(379.4 -132.01)">
    <path id="Path_8664" data-name="Path 8664" d="M-311.238,183.5a1.856,1.856,0,0,1,1.855,1.856,1.855,1.855,0,0,1-1.855,1.854,1.855,1.855,0,0,1-1.854-1.854A1.855,1.855,0,0,1-311.238,183.5Z" transform="translate(12.547 9.742)" fill="#26a69a"/>
    <path id="Path_8665" data-name="Path 8665" d="M-312.5,191.3a3.711,3.711,0,0,1,3.709,3.712,3.711,3.711,0,0,1-3.709,3.71,3.71,3.71,0,0,1-3.712-3.71A3.71,3.71,0,0,1-312.5,191.3Z" transform="translate(11.956 11.218)" fill="#d7deed"/>
    <path id="Path_8666" data-name="Path 8666" d="M-312.883,142.257v7.421h-11.131v-7.421a5.566,5.566,0,0,1,5.567-5.567,5.548,5.548,0,0,1,3.935,1.63A5.557,5.557,0,0,1-312.883,142.257Z" transform="translate(10.48 0.886)" fill="#7dc7c3"/>
    <path id="Path_8667" data-name="Path 8667" d="M-315.748,194.208v7.472a9.224,9.224,0,0,1-8.8,9.509h-1.959c-4.539-.447-8.722-3.574-8.722-9.56H-367.7V144.3a7.607,7.607,0,0,1,7.607-7.607h49.91a5.566,5.566,0,0,0-5.567,5.567v7.421m-25.975,37.108a1.857,1.857,0,0,0-1.856-1.856,1.856,1.856,0,0,0-1.855,1.856,1.855,1.855,0,0,0,1.855,1.854A1.856,1.856,0,0,0-341.723,186.786Z" transform="translate(2.214 0.886)" fill="rgba(38,166,154,0.08)"/>
    <path id="Path_8668" data-name="Path 8668" d="M-325.163,200.856h-40.67c-4.894,0-8.993-3.306-8.993-9.56h40.941C-333.885,197.283-329.7,200.409-325.163,200.856Z" transform="translate(0.866 11.218)" fill="#26a69a" opacity="0.57"/>
    <path id="Path_8669" data-name="Path 8669" d="M-347.122,177.254a1.857,1.857,0,0,1,1.856,1.856,1.856,1.856,0,0,1-1.856,1.854,1.855,1.855,0,0,1-1.855-1.854A1.856,1.856,0,0,1-347.122,177.254Z" transform="translate(5.757 8.561)" fill="#26a69a"/>
    <path id="Path_8670" data-name="Path 8670" d="M-368.964,132.01a1.856,1.856,0,0,1,1.855,1.855,1.856,1.856,0,0,1-1.855,1.855,1.856,1.856,0,0,1-1.855-1.855A1.856,1.856,0,0,1-368.964,132.01Z" transform="translate(1.624)" fill="#26a69a"/>
    <path id="Path_8671" data-name="Path 8671" d="M-373.645,174.134a1.856,1.856,0,0,1,1.855,1.856,1.854,1.854,0,0,1-1.855,1.854,1.855,1.855,0,0,1-1.855-1.854A1.856,1.856,0,0,1-373.645,174.134Z" transform="translate(0.738 7.971)" fill="#26a69a"/>
    <path id="Path_8672" data-name="Path 8672" d="M-374.91,141.371a3.711,3.711,0,0,1,3.71,3.71,3.711,3.711,0,0,1-3.71,3.71,3.71,3.71,0,0,1-3.71-3.71A3.71,3.71,0,0,1-374.91,141.371Z" transform="translate(0.148 1.771)" fill="#d7deed"/>
    <path id="Path_8673" data-name="Path 8673" d="M-330.959,210.2h-1.959a.928.928,0,0,1-.928-.929.927.927,0,0,1,.928-.928H-331a8.281,8.281,0,0,0,7.915-8.594V147.759a.928.928,0,0,1,.928-.928.928.928,0,0,1,.928.928v52a10.159,10.159,0,0,1-9.66,10.434C-330.912,210.2-330.935,210.2-330.959,210.2Z" transform="translate(8.62 2.804)" fill="#26a69a"/>
    <path id="Path_8674" data-name="Path 8674" d="M-325.015,201.933h-40.67c-4.938,0-9.92-3.244-9.92-10.489a.928.928,0,0,1,.928-.928h40.941a.927.927,0,0,1,.928.928c0,5.8,4.248,8.279,7.886,8.638a.927.927,0,0,1,.836.968A.929.929,0,0,1-325.015,201.933Zm-48.7-9.561c.356,4.714,3.427,7.7,8.032,7.7h35.321a9.9,9.9,0,0,1-1.365-1.113,10.027,10.027,0,0,1-2.9-6.592Z" transform="translate(0.718 11.07)" fill="#26a69a"/>
    <path id="Path_8675" data-name="Path 8675" d="M-367.551,202.7a.928.928,0,0,1-.929-.928V144.445a8.546,8.546,0,0,1,8.536-8.535h49.91a.926.926,0,0,1,.926.928.926.926,0,0,1-.926.928h-49.91a6.688,6.688,0,0,0-6.68,6.68v57.331A.927.927,0,0,1-367.551,202.7Z" transform="translate(2.066 0.738)" fill="#26a69a"/>
    <path id="Path_8676" data-name="Path 8676" d="M-312.735,150.753h-11.131a.927.927,0,0,1-.928-.928V142.4a6.5,6.5,0,0,1,6.494-6.494,6.447,6.447,0,0,1,4.59,1.9,6.451,6.451,0,0,1,1.9,4.592v7.421A.928.928,0,0,1-312.735,150.753Zm-10.2-1.855h9.277V142.4a4.615,4.615,0,0,0-1.359-3.28,4.607,4.607,0,0,0-3.279-1.359,4.644,4.644,0,0,0-4.639,4.639Z" transform="translate(10.333 0.738)" fill="#26a69a"/>
    <path id="Path_8677" data-name="Path 8677" d="M-346.763,153.366H-359.75a.928.928,0,0,1-.929-.928.928.928,0,0,1,.929-.926h12.987a.927.927,0,0,1,.928.926A.927.927,0,0,1-346.763,153.366Z" transform="translate(3.542 3.69)" fill="#26a69a"/>
    <path id="Path_8678" data-name="Path 8678" d="M-331.92,161.168h-27.83a.929.929,0,0,1-.929-.929.927.927,0,0,1,.929-.926h27.83a.927.927,0,0,1,.929.926A.929.929,0,0,1-331.92,161.168Z" transform="translate(3.542 5.166)" fill="#26a69a"/>
    <path id="Path_8679" data-name="Path 8679" d="M-331.92,165.848h-27.83a.928.928,0,0,1-.929-.928.928.928,0,0,1,.929-.928h27.83a.928.928,0,0,1,.929.928A.928.928,0,0,1-331.92,165.848Z" transform="translate(3.542 6.052)" fill="#26a69a"/>
    <path id="Path_8680" data-name="Path 8680" d="M-331.92,170.528h-27.83a.928.928,0,0,1-.929-.926.929.929,0,0,1,.929-.929h27.83a.929.929,0,0,1,.929.929A.928.928,0,0,1-331.92,170.528Z" transform="translate(3.542 6.937)" fill="#26a69a"/>
    <path id="Path_8681" data-name="Path 8681" d="M-331.92,175.21h-27.83a.929.929,0,0,1-.929-.929.928.928,0,0,1,.929-.928h27.83a.928.928,0,0,1,.929.928A.929.929,0,0,1-331.92,175.21Z" transform="translate(3.542 7.823)" fill="#26a69a"/>
    <path id="Path_8682" data-name="Path 8682" d="M-350.473,179.89h-9.277a.929.929,0,0,1-.929-.928.929.929,0,0,1,.929-.929h9.277a.929.929,0,0,1,.928.929A.929.929,0,0,1-350.473,179.89Z" transform="translate(3.542 8.709)" fill="#26a69a"/>
    <path id="Path_8683" data-name="Path 8683" d="M-335.168,186.13h-7.421a.927.927,0,0,1-.928-.926.928.928,0,0,1,.928-.929h7.421a.929.929,0,0,1,.929.929A.928.928,0,0,1-335.168,186.13Z" transform="translate(6.79 9.89)" fill="#26a69a"/>
    <path id="Path_8684" data-name="Path 8684" d="M-312.354,199.792a4.643,4.643,0,0,1-4.639-4.637,4.644,4.644,0,0,1,4.639-4.639,4.644,4.644,0,0,1,4.638,4.639A4.644,4.644,0,0,1-312.354,199.792Zm0-7.421a2.786,2.786,0,0,0-2.784,2.784,2.785,2.785,0,0,0,2.784,2.782,2.784,2.784,0,0,0,2.782-2.782A2.786,2.786,0,0,0-312.354,192.371Z" transform="translate(11.809 11.07)" fill="#26a69a"/>
    <path id="Path_8685" data-name="Path 8685" d="M-374.762,149.867a4.643,4.643,0,0,1-4.638-4.638,4.644,4.644,0,0,1,4.638-4.639,4.644,4.644,0,0,1,4.638,4.639A4.643,4.643,0,0,1-374.762,149.867Zm0-7.422a2.787,2.787,0,0,0-2.783,2.784,2.786,2.786,0,0,0,2.783,2.783,2.785,2.785,0,0,0,2.783-2.783A2.786,2.786,0,0,0-374.762,142.445Z" transform="translate(0 1.623)" fill="#26a69a"/>
    <path id="Path_8686" data-name="Path 8686" d="M-322.331,156.348q-.125,0-.246,0a9.275,9.275,0,0,0-9.031,9.274,9.285,9.285,0,0,0,6.664,8.9,9.286,9.286,0,0,0,11.891-8.9A9.279,9.279,0,0,0-322.331,156.348Z" transform="translate(9.043 4.605)" fill="#fcd884"/>
    <path id="Path_8687" data-name="Path 8687" d="M-326.927,171.3V181.35l3.464-3.465.246-.246,3.712,3.712V171.3A9.314,9.314,0,0,1-326.927,171.3Z" transform="translate(9.929 7.434)" fill="#fcd884"/>
    <path id="Path_8688" data-name="Path 8688" d="M-319.358,182.426a.925.925,0,0,1-.656-.272l-3.055-3.055-3.055,3.055a.925.925,0,0,1-1.011.2.928.928,0,0,1-.572-.857V171.447a.928.928,0,0,1,1.306-.847,8.7,8.7,0,0,0,1.35.454.93.93,0,0,1,.7,1.111.928.928,0,0,1-1.112.7c-.119-.027-.294-.074-.387-.1v6.5l2.129-2.128a.927.927,0,0,1,1.311,0l2.128,2.128v-6.5c-.061.018-.277.076-.363.1a.928.928,0,0,1-1.12-.683.928.928,0,0,1,.683-1.12,8.539,8.539,0,0,0,1.349-.455.928.928,0,0,1,1.307.847V181.5a.931.931,0,0,1-.572.857A.956.956,0,0,1-319.358,182.426Z" transform="translate(9.781 7.287)" fill="#26a69a"/>
    <path id="Path_8689" data-name="Path 8689" d="M-332.388,165.773a10.158,10.158,0,0,1,2.9-7.127,10.143,10.143,0,0,1,7.034-3.073c.092,0,.181-.006.271-.006a10.217,10.217,0,0,1,10.2,10.206,10.21,10.21,0,0,1-9.4,10.173A10.212,10.212,0,0,1-332.388,165.773Zm10.2-8.35-.225,0a8.3,8.3,0,0,0-8.125,8.347,8.354,8.354,0,0,0,8.125,8.346,8.348,8.348,0,0,0,8.574-8.346A8.359,8.359,0,0,0-322.183,157.423Z" transform="translate(8.896 4.457)" fill="#26a69a"/>
  </g>
</svg>
