<svg xmlns="http://www.w3.org/2000/svg" width="74.644" height="77.114" viewBox="0 0 74.644 77.114">
  <g id="Group_19147" data-name="Group 19147" transform="translate(-336.678 -5005.994)">
    <g id="Group_18934" data-name="Group 18934" transform="translate(716.078 4774.229)">
      <path id="Path_8734" data-name="Path 8734" d="M-373.147,240.639a5.472,5.472,0,0,0-5.473,5.473v36.493h72.984V246.112a5.474,5.474,0,0,0-5.473-5.473Z" transform="translate(0.049 0.561)" fill="#e1eef3"/>
      <path id="Path_8735" data-name="Path 8735" d="M-378.62,280.111v4.479a5.472,5.472,0,0,0,5.473,5.474h62.038a5.473,5.473,0,0,0,5.473-5.474v-4.479Z" transform="translate(0.049 3.055)" fill="#e6f2f4"/>
      <path id="Path_8736" data-name="Path 8736" d="M-322.732,241.151v27.038a27.382,27.382,0,0,0-21.563,0V235.012c10.782-5.556,21.563,0,21.563,0Z" transform="translate(2.218 0.049)" fill="#fcd884"/>
      <path id="Path_8737" data-name="Path 8737" d="M-343.014,235.012v33.177a27.384,27.384,0,0,0-21.565,0V235.012S-353.8,229.456-343.014,235.012Z" transform="translate(0.936 0.049)" fill="#fcd884"/>
      <path id="Path_8738" data-name="Path 8738" d="M-319.136,294.152a3.318,3.318,0,0,1,3.317,3.318,3.318,3.318,0,0,1-3.317,3.319,3.317,3.317,0,0,1-3.318-3.319A3.317,3.317,0,0,1-319.136,294.152Z" transform="translate(3.598 3.942)" fill="#e6f2f4"/>
      <path id="Path_8739" data-name="Path 8739" d="M-370.622,297.273a3.318,3.318,0,0,1,3.317,3.319,3.505,3.505,0,0,1-.252,1.271,3.269,3.269,0,0,1-3.065,2.047,3.319,3.319,0,0,1-3.318-3.318A3.318,3.318,0,0,1-370.622,297.273Z" transform="translate(0.345 4.139)" fill="#e6f2f4" stroke="#26a69a" stroke-width="1"/>
      <path id="Path_8740" data-name="Path 8740" d="M-317.674,283.232a1.661,1.661,0,0,1,1.659,1.66,1.659,1.659,0,0,1-1.659,1.657,1.657,1.657,0,0,1-1.659-1.657A1.659,1.659,0,0,1-317.674,283.232Z" transform="translate(3.795 3.252)" fill="#26a69a"/>
      <path id="Path_8741" data-name="Path 8741" d="M-322.355,283.232a1.66,1.66,0,0,1,1.659,1.66,1.658,1.658,0,0,1-1.659,1.657,1.657,1.657,0,0,1-1.659-1.657A1.659,1.659,0,0,1-322.355,283.232Z" transform="translate(3.499 3.252)" fill="#26a69a"/>
      <path id="Path_8742" data-name="Path 8742" d="M-327.035,283.232a1.66,1.66,0,0,1,1.659,1.66,1.658,1.658,0,0,1-1.659,1.657,1.657,1.657,0,0,1-1.66-1.657A1.659,1.659,0,0,1-327.035,283.232Z" transform="translate(3.204 3.252)" fill="#26a69a"/>
      <path id="Path_8743" data-name="Path 8743" d="M-330.156,294.152a1.66,1.66,0,0,1,1.659,1.66,1.657,1.657,0,0,1-1.659,1.659,1.657,1.657,0,0,1-1.659-1.659A1.659,1.659,0,0,1-330.156,294.152Z" transform="translate(3.007 3.942)" fill="#26a69a"/>
      <path id="Path_8744" data-name="Path 8744" d="M-337.957,272.31a1.66,1.66,0,0,1,1.659,1.66,1.66,1.66,0,0,1-1.659,1.66,1.66,1.66,0,0,1-1.659-1.66A1.66,1.66,0,0,1-337.957,272.31Z" transform="translate(2.514 2.562)" fill="#26a69a"/>
      <path id="Path_8745" data-name="Path 8745" d="M-342.637,272.31a1.66,1.66,0,0,1,1.659,1.66,1.66,1.66,0,0,1-1.659,1.66,1.659,1.659,0,0,1-1.659-1.66A1.659,1.659,0,0,1-342.637,272.31Z" transform="translate(2.218 2.562)" fill="#26a69a"/>
      <path id="Path_8746" data-name="Path 8746" d="M-362.92,292.594a1.659,1.659,0,0,1,1.66,1.656,1.66,1.66,0,0,1-1.66,1.66,1.659,1.659,0,0,1-1.659-1.66A1.658,1.658,0,0,1-362.92,292.594Z" transform="translate(0.936 3.844)" fill="#26a69a"/>
      <path id="Path_8747" data-name="Path 8747" d="M-305.586,280.992h-72.984a.83.83,0,0,1-.829-.831.828.828,0,0,1,.829-.828h72.984a.829.829,0,0,1,.83.828A.831.831,0,0,1-305.586,280.992Z" transform="translate(0 3.006)" fill="#26a69a"/>
      <path id="Path_8748" data-name="Path 8748" d="M-336.447,303.621a.828.828,0,0,1-.828-.828V289.522a.829.829,0,0,1,.828-.829.831.831,0,0,1,.83.829v13.271A.83.83,0,0,1-336.447,303.621Z" transform="translate(2.662 3.597)" fill="#26a69a"/>
      <path id="Path_8749" data-name="Path 8749" d="M-352.048,303.621a.829.829,0,0,1-.829-.828V289.522a.83.83,0,0,1,.829-.829.83.83,0,0,1,.829.829v13.271A.829.829,0,0,1-352.048,303.621Z" transform="translate(1.676 3.597)" fill="#26a69a"/>
      <path id="Path_8750" data-name="Path 8750" d="M-330.188,302.833h-26.54a.829.829,0,0,1-.829-.828.83.83,0,0,1,.829-.83h26.54a.829.829,0,0,1,.829.83A.829.829,0,0,1-330.188,302.833Z" transform="translate(1.38 4.386)" fill="#26a69a"/>
      <path id="Path_8751" data-name="Path 8751" d="M-347.368,303.227a.829.829,0,0,1-.829-.828v-6.636a.829.829,0,0,1,.829-.828.829.829,0,0,1,.829.828V302.4A.829.829,0,0,1-347.368,303.227Z" transform="translate(1.972 3.991)" fill="#26a69a"/>
      <path id="Path_8752" data-name="Path 8752" d="M-341.127,303.227a.829.829,0,0,1-.829-.828v-6.636a.829.829,0,0,1,.829-.828.829.829,0,0,1,.829.828V302.4A.829.829,0,0,1-341.127,303.227Z" transform="translate(2.366 3.991)" fill="#26a69a"/>
      <path id="Path_8753" data-name="Path 8753" d="M-311.06,293.436H-373.1a6.309,6.309,0,0,1-6.3-6.3V246.162a6.309,6.309,0,0,1,6.3-6.3h9.455a.828.828,0,0,1,.829.829.828.828,0,0,1-.829.828H-373.1a4.651,4.651,0,0,0-4.644,4.645v40.972a4.651,4.651,0,0,0,4.644,4.645h62.038a4.65,4.65,0,0,0,4.644-4.645V246.162a4.65,4.65,0,0,0-4.644-4.645h-9.455a.828.828,0,0,1-.829-.828.828.828,0,0,1,.829-.829h9.455a6.31,6.31,0,0,1,6.3,6.3v40.972A6.31,6.31,0,0,1-311.06,293.436Z" transform="translate(0 0.511)" fill="#26a69a"/>
      <path id="Path_8754" data-name="Path 8754" d="M-342.965,269.067a.82.82,0,0,1-.34-.073c-10.72-4.8-20.762-.06-20.862-.01a.83.83,0,0,1-.8-.045.829.829,0,0,1-.389-.7V235.061a.825.825,0,0,1,.45-.735,26.187,26.187,0,0,1,6.978-2.166,24.416,24.416,0,0,1,15.346,2.166.828.828,0,0,1,.356,1.117.83.83,0,0,1-1.116.355,22.757,22.757,0,0,0-14.249-2.013,26.358,26.358,0,0,0-6.106,1.8v31.405a28.876,28.876,0,0,1,5.615-1.464,27.429,27.429,0,0,1,15.46,1.952.828.828,0,0,1,.417,1.1A.83.83,0,0,1-342.965,269.067Z" transform="translate(0.887 0)" fill="#26a69a"/>
      <path id="Path_8755" data-name="Path 8755" d="M-344.247,269.067a.82.82,0,0,1-.451-.133.832.832,0,0,1-.378-.7V235.061a.824.824,0,0,1,.449-.735,23.245,23.245,0,0,1,10.763-2.562,27.356,27.356,0,0,1,11.56,2.562.826.826,0,0,1,.451.735v33.177a.831.831,0,0,1-.39.7.834.834,0,0,1-.8.042h0a26.85,26.85,0,0,0-10.623-2.154,24.88,24.88,0,0,0-10.238,2.164A.81.81,0,0,1-344.247,269.067Zm10.578-3.893a29.325,29.325,0,0,1,10.157,1.818v-31.4a26.653,26.653,0,0,0-10.352-2.17,21.646,21.646,0,0,0-9.553,2.154V266.99A26.589,26.589,0,0,1-333.669,265.173Z" transform="translate(2.169 0)" fill="#26a69a"/>
      <path id="Path_8756" data-name="Path 8756" d="M-349.995,243.644a.956.956,0,0,1-.163-.016l-8.294-1.66a.828.828,0,0,1-.651-.976.83.83,0,0,1,.976-.65l8.293,1.659a.83.83,0,0,1,.652.976A.83.83,0,0,1-349.995,243.644Z" transform="translate(1.281 0.541)" fill="#26a69a"/>
      <path id="Path_8757" data-name="Path 8757" d="M-349.995,248.326a.864.864,0,0,1-.163-.017l-8.294-1.659a.831.831,0,0,1-.651-.976.831.831,0,0,1,.976-.652l8.293,1.659a.83.83,0,0,1,.652.976A.832.832,0,0,1-349.995,248.326Z" transform="translate(1.281 0.837)" fill="#26a69a"/>
      <path id="Path_8758" data-name="Path 8758" d="M-349.995,253.006a.862.862,0,0,1-.163-.017l-8.294-1.66a.829.829,0,0,1-.651-.975.831.831,0,0,1,.976-.651l8.293,1.66a.829.829,0,0,1,.652.976A.832.832,0,0,1-349.995,253.006Z" transform="translate(1.281 1.133)" fill="#26a69a"/>
      <path id="Path_8759" data-name="Path 8759" d="M-349.995,257.685a.78.78,0,0,1-.163-.016l-8.294-1.658a.832.832,0,0,1-.651-.978.829.829,0,0,1,.976-.647l8.293,1.656a.83.83,0,0,1,.652.976A.83.83,0,0,1-349.995,257.685Z" transform="translate(1.281 1.428)" fill="#26a69a"/>
      <path id="Path_8760" data-name="Path 8760" d="M-338.008,243.644a.829.829,0,0,1-.812-.667.83.83,0,0,1,.651-.976l8.294-1.659a.828.828,0,0,1,.976.65.828.828,0,0,1-.651.976l-8.294,1.66A.957.957,0,0,1-338.008,243.644Z" transform="translate(2.563 0.541)" fill="#26a69a"/>
      <path id="Path_8761" data-name="Path 8761" d="M-338.008,248.326a.831.831,0,0,1-.812-.669.83.83,0,0,1,.651-.976l8.294-1.659a.828.828,0,0,1,.976.652.83.83,0,0,1-.651.976l-8.294,1.659A.866.866,0,0,1-338.008,248.326Z" transform="translate(2.563 0.837)" fill="#26a69a"/>
      <path id="Path_8762" data-name="Path 8762" d="M-338.008,253.006a.831.831,0,0,1-.812-.667.829.829,0,0,1,.651-.976l8.294-1.66a.829.829,0,0,1,.976.651.828.828,0,0,1-.651.975l-8.294,1.66A.863.863,0,0,1-338.008,253.006Z" transform="translate(2.563 1.133)" fill="#26a69a"/>
      <path id="Path_8763" data-name="Path 8763" d="M-338.008,257.685a.829.829,0,0,1-.812-.667.83.83,0,0,1,.651-.976l8.294-1.656a.827.827,0,0,1,.976.647.831.831,0,0,1-.651.978l-8.294,1.657A.782.782,0,0,1-338.008,257.685Z" transform="translate(2.563 1.428)" fill="#26a69a"/>
      <path id="Path_8764" data-name="Path 8764" d="M-345.4,274.751h-33.174a.829.829,0,0,1-.829-.83.828.828,0,0,1,.829-.828H-345.4a.828.828,0,0,1,.829.828A.829.829,0,0,1-345.4,274.751Z" transform="translate(0 2.611)" fill="#26a69a"/>
      <path id="Path_8765" data-name="Path 8765" d="M-370.573,304.788a4.152,4.152,0,0,1-4.146-4.146,4.151,4.151,0,0,1,4.146-4.147,4.151,4.151,0,0,1,4.146,4.147A4.152,4.152,0,0,1-370.573,304.788Zm0-6.636a2.492,2.492,0,0,0-2.489,2.49,2.49,2.49,0,0,0,2.489,2.487,2.489,2.489,0,0,0,2.487-2.487A2.491,2.491,0,0,0-370.573,298.152Z" transform="translate(0.296 4.09)" fill="#26a69a"/>
      <path id="Path_8766" data-name="Path 8766" d="M-319.087,301.667a4.152,4.152,0,0,1-4.147-4.147,4.152,4.152,0,0,1,4.147-4.146,4.152,4.152,0,0,1,4.146,4.146A4.153,4.153,0,0,1-319.087,301.667Zm0-6.634a2.491,2.491,0,0,0-2.489,2.487,2.49,2.49,0,0,0,2.489,2.488,2.49,2.49,0,0,0,2.488-2.488A2.491,2.491,0,0,0-319.087,295.033Z" transform="translate(3.549 3.893)" fill="#26a69a"/>
    </g>
  </g>
</svg>
