<svg xmlns="http://www.w3.org/2000/svg" width="157.558" height="47.789" viewBox="0 0 157.558 47.789">
  <g id="Group_18024" data-name="Group 18024" transform="translate(-29.012 -117.059)">
    <g id="Group_17878" data-name="Group 17878" transform="translate(29.012 117.059)">
      <path id="Path_3468" data-name="Path 3468" d="M55.719,160.579h8.37L51.125,140.951,29.012,174.442h8.265L44.757,163.1l3.553-5.314,2.815-4.237.938,1.445,2.111,3.2Z" transform="translate(-29.012 -130.467)" fill="#404041"/>
      <path id="Path_3469" data-name="Path 3469" d="M123.666,125.71l-20.572,31.11-1.918-2.9H92.794L103.009,169.7l28.9-43.993Z" transform="translate(-64.806 -121.913)" fill="#26a69a"/>
      <path id="Path_3470" data-name="Path 3470" d="M164.5,117.059l3.053,9.113-15.641-7.512Z" transform="translate(-97.983 -117.059)" fill="#26a69a"/>
    </g>
    <g id="Group_17879" data-name="Group 17879" transform="translate(103.601 129.242)">
      <path id="Path_3471" data-name="Path 3471" d="M213.96,146.99h4.209l5.412,15.278,5.49-15.278h4.2l-7.75,21.508h-3.948Z" transform="translate(-213.96 -146.04)" fill="#26a69a"/>
      <path id="Path_3472" data-name="Path 3472" d="M264.762,144.824a2.439,2.439,0,0,1,1.8.76,2.523,2.523,0,0,1,.751,1.842,2.494,2.494,0,0,1-.744,1.82,2.411,2.411,0,0,1-1.779.753,2.446,2.446,0,0,1-1.815-.768,2.567,2.567,0,0,1-.751-1.864,2.542,2.542,0,0,1,2.537-2.544Zm-2,6.551h3.991v15.908h-3.991Z" transform="translate(-241.046 -144.824)" fill="#26a69a"/>
      <path id="Path_3473" data-name="Path 3473" d="M288.947,161.45l-2.471,2.471a4.183,4.183,0,0,0-2.735-1.492,1.716,1.716,0,0,0-1.052.285.856.856,0,0,0-.38.709.871.871,0,0,0,.241.592,4.489,4.489,0,0,0,1.191.739l1.462.732a8.616,8.616,0,0,1,3.173,2.324,4.843,4.843,0,0,1-.695,6.317,5.963,5.963,0,0,1-4.174,1.418,6.635,6.635,0,0,1-5.556-2.719l2.456-2.675a5.675,5.675,0,0,0,1.645,1.323,3.633,3.633,0,0,0,1.674.5A1.993,1.993,0,0,0,285,171.6a1.1,1.1,0,0,0,.483-.877q0-.921-1.74-1.8l-1.345-.673q-3.86-1.944-3.86-4.869a4.223,4.223,0,0,1,1.455-3.224,5.28,5.28,0,0,1,3.721-1.337,6.454,6.454,0,0,1,5.235,2.631Z" transform="translate(-249.872 -152.678)" fill="#26a69a"/>
      <path id="Path_3474" data-name="Path 3474" d="M311.143,144.824a2.439,2.439,0,0,1,1.8.76,2.524,2.524,0,0,1,.751,1.842,2.494,2.494,0,0,1-.744,1.82,2.409,2.409,0,0,1-1.778.753,2.446,2.446,0,0,1-1.815-.768,2.567,2.567,0,0,1-.751-1.864,2.542,2.542,0,0,1,2.537-2.544Zm-2,6.551h3.991v15.908h-3.991Z" transform="translate(-267.074 -144.824)" fill="#26a69a"/>
      <path id="Path_3475" data-name="Path 3475" d="M333.679,158.819a8.435,8.435,0,0,1,4.233,1.126,8.256,8.256,0,0,1,4.2,7.223,8.356,8.356,0,0,1-1.118,4.21,8.075,8.075,0,0,1-3.048,3.063,8.42,8.42,0,0,1-4.255,1.1,7.934,7.934,0,0,1-5.841-2.434,8.432,8.432,0,0,1,.315-12.129A7.986,7.986,0,0,1,333.679,158.819Zm.066,3.758a4.107,4.107,0,0,0-3.1,1.294,4.593,4.593,0,0,0-1.237,3.311,4.677,4.677,0,0,0,1.223,3.363,4.089,4.089,0,0,0,3.1,1.287,4.134,4.134,0,0,0,3.12-1.3,5.13,5.13,0,0,0,.022-6.674A4.137,4.137,0,0,0,333.745,162.577Z" transform="translate(-276.517 -152.678)" fill="#26a69a"/>
      <path id="Path_3476" data-name="Path 3476" d="M370.882,159.228h3.991v1.63a9.563,9.563,0,0,1,2.46-1.592,5.944,5.944,0,0,1,2.256-.447,5.461,5.461,0,0,1,4.015,1.652,5.67,5.67,0,0,1,1.387,4.152v10.513h-3.948V168.17a17.612,17.612,0,0,0-.256-3.783,2.588,2.588,0,0,0-.889-1.424,2.492,2.492,0,0,0-1.568-.489,2.938,2.938,0,0,0-2.079.81,4.333,4.333,0,0,0-1.2,2.242,18.125,18.125,0,0,0-.175,3.227v6.383h-3.991Z" transform="translate(-302.023 -152.678)" fill="#26a69a"/>
    </g>
  </g>
</svg>
