<svg xmlns="http://www.w3.org/2000/svg" width="37.576" height="37.516" viewBox="0 0 37.576 37.516">
  <path id="Path_4508" data-name="Path 4508" d="M94.262-60.075a26.785,26.785,0,0,1,6.8.75,13.518,13.518,0,0,1,4.647,2.112,8.5,8.5,0,0,1,2.689,3.2,9.28,9.28,0,0,1,.863,4A8.555,8.555,0,0,1,107.64-44.6a10.147,10.147,0,0,1-4.747,3.2,10.17,10.17,0,0,1,4.846,3.251,8.764,8.764,0,0,1,1.66,5.53,9.152,9.152,0,0,1-.863,3.946,8.611,8.611,0,0,1-2.656,3.2,13.5,13.5,0,0,1-4.614,2.14,25.874,25.874,0,0,1-6.8.778H71.823v-6.558H94.461a8.494,8.494,0,0,0,5.112-1.251,4.161,4.161,0,0,0,1.66-3.529q0-4.5-6.838-4.5H80.586v-5.947H94.2a9.7,9.7,0,0,0,5.145-1.084,3.763,3.763,0,0,0,1.693-3.418,4.13,4.13,0,0,0-1.593-3.39q-1.593-1.278-5.178-1.278H71.889v-6.558Z" transform="translate(-71.823 60.075)" fill="#26a69a"/>
</svg>
