<svg xmlns="http://www.w3.org/2000/svg" width="37.529" height="37.303" viewBox="0 0 37.529 37.303">
  <path id="Path_8406" data-name="Path 8406" d="M94.946-60.075q6.01,0,9.229,2.68t3.219,7.875a9.081,9.081,0,0,1-2.3,6.549q-2.3,2.4-7.328,3.454L80.535-36.035a4.14,4.14,0,0,0-2.79,1.464,4.853,4.853,0,0,0-.644,2.625v1.879a.694.694,0,0,0,.8.774H106.29v6.521H73.3q-3.434,0-3.434-3.04v-5.637a17.172,17.172,0,0,1,.429-4.034,7.744,7.744,0,0,1,1.472-3.067,8.327,8.327,0,0,1,2.79-2.183,17.939,17.939,0,0,1,4.384-1.437l17.415-3.592a5.429,5.429,0,0,0,3.035-1.382,3.309,3.309,0,0,0,.828-2.266,3.814,3.814,0,0,0-1.288-3.012,5.6,5.6,0,0,0-3.8-1.133H71.214v-6.521Z" transform="translate(-69.865 60.075)" fill="#26A69A"/>
</svg>
