<svg xmlns="http://www.w3.org/2000/svg" width="59.703" height="59.755" viewBox="0 0 59.703 59.755">
  <g id="otp_icons" data-name="otp icons" transform="translate(-93.6 -217.005)">
    <path id="Path_8" data-name="Path 8" d="M93.6,247.232a19.2,19.2,0,0,1,.977-3.018,9.1,9.1,0,0,1,8.02-5.249c1.021-.058,2.056-.015,3.135-.015v-8.035a13.808,13.808,0,0,1,11.228-13.634,13.873,13.873,0,0,1,16.769,13.678v7.991c.962,0,1.9-.015,2.814,0a9.232,9.232,0,0,1,8.778,6.3,11.789,11.789,0,0,1,.51,3.018c.088,1.487.029,2.989.015,4.491a2.333,2.333,0,1,1-4.652-.015c-.015-1.4,0-2.8,0-4.2a4.692,4.692,0,0,0-4.958-4.929H103.224a4.546,4.546,0,0,0-4.447,2.625,5.158,5.158,0,0,0-.5,2.187c-.044,6.285-.029,12.555-.015,18.84a4.66,4.66,0,0,0,4.885,4.812c5.964.015,11.942,0,17.906,0a2.566,2.566,0,0,1,1.969.714,2.33,2.33,0,0,1-.671,3.733c-.175.088-.35.16-.525.233H101.882a1.946,1.946,0,0,0-.262-.1,9.044,9.044,0,0,1-7.1-5.279,19.747,19.747,0,0,1-.919-2.9Zm35.434-8.312c0-2.975.029-5.891-.015-8.807a7.766,7.766,0,0,0-.437-2.216,9.343,9.343,0,0,0-10.513-6.081,9.133,9.133,0,0,0-7.655,9.128v7.408c0,.19.015.379.029.554C116.654,238.921,122.822,238.921,129.034,238.921Z" transform="translate(0 0)" fill="#26a69a"/>
    <path id="Path_9" data-name="Path 9" d="M315.694,496.851a8.235,8.235,0,0,1-4.652-2.771c-2.027-2.041-4.112-4.01-6.168-6.037a2.34,2.34,0,0,1,.219-3.762,2.259,2.259,0,0,1,2.843.262c.627.554,1.21,1.167,1.808,1.75l5.381,5.249c.962.933,1.721.86,2.493-.219l11.024-15.4a2.371,2.371,0,0,1,2.741-1.137,2.307,2.307,0,0,1,1.385,3.325,6.948,6.948,0,0,1-.452.685q-5.468,7.634-10.922,15.253a6.17,6.17,0,0,1-4.112,2.7.861.861,0,0,0-.2.088C316.628,496.851,316.161,496.851,315.694,496.851Z" transform="translate(-179.749 -220.105)" fill="#13436b"/>
    <path id="Path_10" data-name="Path 10" d="M171.865,480.248a2.333,2.333,0,1,1-2.333-2.348A2.353,2.353,0,0,1,171.865,480.248Z" transform="translate(-62.867 -222.852)" fill="#13436b"/>
    <path id="Path_11" data-name="Path 11" d="M229.548,482.566a2.333,2.333,0,1,1,2.318-2.362A2.343,2.343,0,0,1,229.548,482.566Z" transform="translate(-114.119 -222.852)" fill="#13436b"/>
    <path id="Path_12" data-name="Path 12" d="M291.863,480.262a2.334,2.334,0,1,1-2.319-2.362A2.353,2.353,0,0,1,291.863,480.262Z" transform="translate(-165.366 -222.852)" fill="#13436b"/>
    <path id="Path_13" data-name="Path 13" d="M350.333,477.9A2.333,2.333,0,1,1,348,480.248,2.352,2.352,0,0,1,350.333,477.9Z" transform="translate(-217.304 -222.852)" fill="#13436b"/>
  </g>
</svg>
