<svg xmlns="http://www.w3.org/2000/svg" xmlns:xlink="http://www.w3.org/1999/xlink" width="153" height="22" viewBox="0 0 153 22">
  <defs>
    <clipPath id="clip-_01">
      <rect width="153" height="22"/>
    </clipPath>
  </defs>
  <g id="_01" data-name="01" clip-path="url(#clip-_01)">
    <rect width="153" height="22" fill="rgba(255,255,255,0)"/>
    <g id="Group_7" data-name="Group 7" transform="translate(-0.5 0.573)">
      <g id="Group_3" data-name="Group 3" transform="translate(1)">
        <rect id="Rectangle_1" data-name="Rectangle 1" width="34.154" height="20.855" rx="1.6" fill="#0066b2"/>
        <path id="Path_1" data-name="Path 1" d="M16.605,13.8H15.06l.967-5.925h1.536Z" transform="translate(-0.784 -0.41)" fill="#fff"/>
        <path id="Path_2" data-name="Path 2" d="M13.394,7.88l-1.469,4.076-.133-.882h0L11.27,8.411a.664.664,0,0,0-.73-.531H8.066L8,7.993a5.963,5.963,0,0,1,1.621.683l1.337,5.147h1.6L15.015,7.9Z" transform="translate(-0.416 -0.41)" fill="#fff"/>
        <path id="Path_3" data-name="Path 3" d="M26.267,13.8H27.7L26.447,7.88H25.2a.711.711,0,0,0-.711.436L22.2,13.8h1.6l.322-.882h1.962Zm-1.7-2.095.815-2.218L25.8,11.71Z" transform="translate(-1.156 -0.41)" fill="#fff"/>
        <path id="Path_4" data-name="Path 4" d="M22.079,9.294l.228-1.308a4.531,4.531,0,0,0-1.393-.256c-.768,0-2.578.332-2.578,1.953s2.133,1.555,2.133,2.36-1.9.654-2.55.152l-.228,1.327a4.38,4.38,0,0,0,1.744.332c1.052,0,2.635-.54,2.635-2.019s-2.19-1.649-2.19-2.322S21.425,8.934,22.079,9.294Z" transform="translate(-0.921 -0.402)" fill="#fff"/>
        <path id="Path_5" data-name="Path 5" d="M11.792,11.074,11.27,8.411a.664.664,0,0,0-.73-.531H8.066L8,7.993a6,6,0,0,1,2.332,1.138A4.607,4.607,0,0,1,11.792,11.074Z" transform="translate(-0.416 -0.41)" fill="#f9a533"/>
      </g>
      <g id="Group_4" data-name="Group 4" transform="translate(40.282)">
        <rect id="Rectangle_2" data-name="Rectangle 2" width="34.154" height="20.855" rx="1.6" transform="translate(0)" fill="#36495d"/>
        <rect id="Rectangle_3" data-name="Rectangle 3" width="4.977" height="8.939" transform="translate(14.589 5.953)" fill="#f16522"/>
        <path id="Path_6" data-name="Path 6" d="M54.324,10.688a5.688,5.688,0,0,1,2.171-4.474,5.688,5.688,0,1,0,0,8.949,5.688,5.688,0,0,1-2.171-4.474" transform="translate(-39.422 -0.26)" fill="#e41b24"/>
        <path id="Path_7" data-name="Path 7" d="M66.2,10.687A5.688,5.688,0,0,1,57,15.162a5.688,5.688,0,0,0,0-8.949,5.688,5.688,0,0,1,9.2,4.474m-.54,3.526v-.19H65.6v.19Zm.36,0v-.228h-.057l-.066.152-.066-.152h-.057v.228h0v-.171l.066.142h0l.066-.142v.171Z" transform="translate(-39.928 -0.26)" fill="#f89e1c"/>
      </g>
      <g id="Group_5" data-name="Group 5" transform="translate(79.564)">
        <rect id="Rectangle_4" data-name="Rectangle 4" width="34.154" height="20.855" rx="1.6" fill="#016fd0"/>
        <g id="Group_1" data-name="Group 1" transform="translate(3.27 5.254)">
          <path id="Path_8" data-name="Path 8" d="M105.669,10.365h2.067V5.55h-2.209v.768l-.493-.768h-1.9V6.5L102.7,5.55H99.517a3.4,3.4,0,0,0-.446,0,2.218,2.218,0,0,0-.36.085l-.265.1a1.384,1.384,0,0,0-.36.237V5.6H87.658l-.284.834L87.08,5.6h-2.36v.948L84.283,5.6H82.312L81.43,7.654v2.759h1.393l.265-.692h.493l.265.692H94.6V9.664l.54.7h2.948v-.351a1.166,1.166,0,0,0,.237.133,1.109,1.109,0,0,0,.246.095l.313.085a3.1,3.1,0,0,0,.512,0h1.773l.265-.692h.493l.256.692h2.986V9.654Zm3.375,6.19V12.024H91.9l-.455.588-.427-.626H86.094v4.825H91l.427-.626.436.626h3.09V15.768h0a2.948,2.948,0,0,0,1.033-.18v1.223h2.095v-.7l.54.7h9.29a2.323,2.323,0,0,0,.739-.123,2.009,2.009,0,0,0,.37-.133Z" transform="translate(-81.43 -5.542)" fill="#f7f7f7"/>
        </g>
        <g id="Group_2" data-name="Group 2" transform="translate(8.712 12.519)">
          <path id="Path_9" data-name="Path 9" d="M108.252,15.855h-1.668V16.5h1.64a1.014,1.014,0,0,0,1.119-1.033.882.882,0,0,0-1-.948h-.749a.3.3,0,0,1-.322-.313.313.313,0,0,1,.322-.322H109l.284-.664h-1.678a1,1,0,0,0-1.119,1.014.948.948,0,0,0,1.014.948h.749a.294.294,0,0,1,.313.313.313.313,0,0,1-.313.36Zm-3.1,0h-1.668V16.5h1.649a1.014,1.014,0,0,0,1.119-1.033.891.891,0,0,0-1-.948h-.758a.294.294,0,0,1-.313-.313.3.3,0,0,1,.313-.322H105.9l.294-.664h-1.678a1,1,0,0,0-1.119,1.014.948.948,0,0,0,1,.948h.749a.294.294,0,0,1,.322.313.313.313,0,0,1-.322.36Zm-2.142-1.943v-.664h-2.6V16.5h2.6v-.645h-1.782V15.2h1.782v-.654h-1.782v-.626Zm-4.351,0a.408.408,0,1,1,0,.806h-.948v-.806Zm-.948,1.422h.37l.948,1.166h.948L98.9,15.3a1.036,1.036,0,0,0-.246-2.057H96.962V16.5h.777Zm-1.981-1a.389.389,0,0,1-.417.408h-.948V13.94h.948a.379.379,0,0,1,.446.36ZM93.644,13.21v3.251h.777V15.39h.948a1.062,1.062,0,0,0,1.147-1.09A1.033,1.033,0,0,0,95.4,13.21ZM92.5,16.461h.948l-1.308-1.64,1.3-1.612h-.948l-.739,1.033-.8-1.033H90l1.3,1.63-1.289,1.621h.948l.8-1.043Zm-2.711-2.588V13.21H87.17v3.251h2.6v-.607H87.957V15.2h1.782v-.654H87.957v-.626Z" transform="translate(-87.17 -13.206)" fill="#006fcf"/>
        </g>
        <path id="Path_10" data-name="Path 10" d="M104.56,7.678V7.412l.171.265,1.242,1.953h.948V6.379h-.758V8.5l-.152-.246L104.8,6.36h-.948V9.63h.758Zm-3.109-.085.237-.626.237.616.294.711h-1.052ZM102.74,9.63h.882l-1.393-3.251H101.2L99.811,9.63h.834l.275-.7h1.545Zm-3.4,0h.047l.313-.692H99.46a.806.806,0,0,1-.844-.948h0a.806.806,0,0,1,.834-.948h.853V6.379h-.948A1.469,1.469,0,0,0,97.8,7.972v.057a1.45,1.45,0,0,0,1.536,1.6Zm-2.768,0h.777V6.379h-.777V9.63Zm-1.64-2.588a.4.4,0,1,1,0,.8h-.948v-.8Zm-.948,1.412h.37L95.3,9.63h.948l-1-1.2A1.033,1.033,0,0,0,95,6.379H93.232V9.63h.777ZM92.635,7.033V6.379H90.057V9.63h2.607V8.967h-1.83V8.313h1.782V7.668H90.834V7.033Zm-6.474.37V6.531l.9,3.1h.711L88.72,6.55V9.63h.758V6.379H88.038l-.616,2.3-.616-2.3H85.431V9.63h.758Zm-3.109.19.265-.626.237.616.294.711H82.8ZM84.341,9.63h.882L83.867,6.379H82.833L81.44,9.63h.834l.275-.7h1.545Z" transform="translate(-78.16 -0.331)" fill="#006fcf"/>
      </g>
      <g id="Group_6" data-name="Group 6" transform="translate(118.846)">
        <rect id="Rectangle_5" data-name="Rectangle 5" width="34.154" height="20.855" rx="1.6" fill="#4d4d4d"/>
        <path id="Path_11" data-name="Path 11" d="M124.394,9.171a2.152,2.152,0,0,0-1.9-1.081H121v4.455h1.744a2.228,2.228,0,0,0,1.953-2.474,2.181,2.181,0,0,0-.3-.9Zm-1.1,2.256a1.488,1.488,0,0,1-.948.341h-.464V8.829a1.9,1.9,0,0,1,1.488.427,1.536,1.536,0,0,1-.076,2.171Z" transform="translate(-117.18 -0.421)" fill="#fff"/>
        <path id="Path_12" data-name="Path 12" d="M148.9,10.66h.1a1.412,1.412,0,0,0,.55-.294,1.251,1.251,0,0,0,.36-.891,1.194,1.194,0,0,0-.834-1.261,1.962,1.962,0,0,0-.521-.1H147.04v4.446h.948v-1.8c.095,0,.123,0,.161.066l1.1,1.64a.133.133,0,0,0,.142.076h.948Zm-.19-.654a1.517,1.517,0,0,1-.8.123V8.783a1.583,1.583,0,0,1,.787.095.569.569,0,0,1,.313.55.607.607,0,0,1-.265.578Z" transform="translate(-118.535 -0.422)" fill="#fff"/>
        <path id="Path_13" data-name="Path 13" d="M151.382,12.929l.218-.142h0l.095-.066v6.9a1.9,1.9,0,0,1-1.9,1.9H127.93c1.251-.256,2.5-.512,3.744-.806,2.417-.569,4.8-1.261,7.138-2.057a67.3,67.3,0,0,0,8.92-3.706,39.142,39.142,0,0,0,3.65-2.019Z" transform="translate(-117.541 -0.662)" fill="#ff6f00"/>
        <path id="Path_14" data-name="Path 14" d="M143.88,8.07h2.455v.758h-1.574v.948h1.517v.758h-1.526V11.8h1.593v.749H143.88Z" transform="translate(-118.371 -0.42)" fill="#fff"/>
        <path id="Path_15" data-name="Path 15" d="M139.838,8.069a.36.36,0,0,1,.076.085c.313.777.616,1.545.948,2.313l.237.588.047-.114c.379-.948.749-1.9,1.119-2.787a.114.114,0,0,1,.133-.095h.853a.512.512,0,0,1-.047.1c-.607,1.46-1.223,2.929-1.839,4.389a.123.123,0,0,1-.142.085h-.332a.246.246,0,0,1-.1-.066l-1.9-4.455h0Z" transform="translate(-118.111 -0.419)" fill="#fff"/>
        <path id="Path_16" data-name="Path 16" d="M136.48,8a2.313,2.313,0,1,1-1.662.647A2.313,2.313,0,0,1,136.48,8Z" transform="translate(-117.862 -0.416)" fill="#ff6f00"/>
        <path id="Path_17" data-name="Path 17" d="M131.987,8a2.19,2.19,0,0,1,1.507.19.1.1,0,0,1,.066.076V9.21c-.142-.1-.265-.209-.4-.294a1.4,1.4,0,0,0-1.659.171,1.6,1.6,0,0,0-.057,2.275.76.76,0,0,0,.123.123,1.441,1.441,0,0,0,1.839,0l.152-.133V12.3a.123.123,0,0,1-.076.114,2.37,2.37,0,0,1-3-.825,2.341,2.341,0,0,1,.7-3.223A2.474,2.474,0,0,1,131.987,8Z" transform="translate(-117.654 -0.413)" fill="#fff"/>
        <path id="Path_18" data-name="Path 18" d="M128.753,11.1a.559.559,0,0,0-.275-.36c-.171-.085-.341-.142-.512-.218l-.54-.228a1.081,1.081,0,0,1-.569-1.346A1.27,1.27,0,0,1,128.032,8a1.9,1.9,0,0,1,1.441.455h0c-.152.2-.294.4-.446.588a1.052,1.052,0,0,0-.588-.351.73.73,0,0,0-.645.19.389.389,0,0,0,0,.55.369.369,0,0,0,.095.076c.152.095.322.152.493.237s.512.218.749.351a1.033,1.033,0,0,1,.531.948,1.45,1.45,0,0,1-.578,1.3,1.754,1.754,0,0,1-2.465-.55l.521-.559a3.6,3.6,0,0,0,.313.351.948.948,0,0,0,.872.209.616.616,0,0,0,.427-.692Z" transform="translate(-117.472 -0.416)" fill="#fff"/>
        <path id="Path_19" data-name="Path 19" d="M125.32,8.08h.853v4.446h-.853Z" transform="translate(-117.405 -0.421)" fill="#fff"/>
      </g>
    </g>
  </g>
</svg>
