<svg xmlns="http://www.w3.org/2000/svg" width="86.365" height="21.089" viewBox="0 0 86.365 21.089"><defs><style>.a{fill:#fff;}.b{fill:#253b80;}.c{fill:#aef3ed;}.d{fill:#048d80;}</style></defs><path class="a" d="M43.033,6.749H38.254a.664.664,0,0,0-.656.56L35.665,19.565a.4.4,0,0,0,.394.46h2.282A.664.664,0,0,0,39,19.463l.521-3.305a.663.663,0,0,1,.655-.561h1.513c3.148,0,4.965-1.523,5.44-4.542a3.681,3.681,0,0,0-.609-3.085A4.434,4.434,0,0,0,43.033,6.749Zm.551,4.476c-.261,1.715-1.572,1.715-2.839,1.715h-.721l.506-3.2a.4.4,0,0,1,.393-.336h.331c.863,0,1.677,0,2.1.492A1.593,1.593,0,0,1,43.585,11.225Z" transform="translate(-10.74 -2.033)"/><path class="a" d="M61.989,12.982H59.7a.4.4,0,0,0-.393.336l-.1.64-.16-.232a3.258,3.258,0,0,0-2.7-.959,5.263,5.263,0,0,0-5.11,4.6,4.32,4.32,0,0,0,.853,3.516,3.581,3.581,0,0,0,2.883,1.164,4.379,4.379,0,0,0,3.168-1.31l-.1.636a.4.4,0,0,0,.393.461h2.062a.664.664,0,0,0,.656-.561l1.237-7.833A.4.4,0,0,0,61.989,12.982ZM58.8,17.437a2.551,2.551,0,0,1-2.582,2.185,1.773,1.773,0,0,1-1.9-2.225,2.562,2.562,0,0,1,2.565-2.2,1.931,1.931,0,0,1,1.526.623A1.981,1.981,0,0,1,58.8,17.437Z" transform="translate(-15.409 -3.845)"/><path class="a" d="M79.5,13.075H77.2a.666.666,0,0,0-.55.291l-3.172,4.672-1.345-4.49a.666.666,0,0,0-.637-.474h-2.26a.4.4,0,0,0-.378.527l2.533,7.434L69.01,24.4a.4.4,0,0,0,.325.629h2.3a.663.663,0,0,0,.546-.285L79.828,13.7A.4.4,0,0,0,79.5,13.075Z" transform="translate(-20.732 -3.938)"/><path class="a" d="M91.814,6.749h-4.78a.664.664,0,0,0-.656.56L84.446,19.565a.4.4,0,0,0,.393.46h2.453a.465.465,0,0,0,.458-.393l.549-3.474a.663.663,0,0,1,.656-.561h1.512c3.149,0,4.965-1.523,5.44-4.542a3.679,3.679,0,0,0-.61-3.085A4.43,4.43,0,0,0,91.814,6.749Zm.551,4.476c-.261,1.715-1.571,1.715-2.839,1.715h-.72l.507-3.2a.4.4,0,0,1,.393-.336h.331c.862,0,1.677,0,2.1.492A1.593,1.593,0,0,1,92.366,11.225Z" transform="translate(-25.431 -2.033)"/><path class="a" d="M110.77,12.982h-2.287a.4.4,0,0,0-.393.336l-.1.64-.161-.232a3.256,3.256,0,0,0-2.7-.959,5.262,5.262,0,0,0-5.109,4.6,4.322,4.322,0,0,0,.852,3.516,3.583,3.583,0,0,0,2.883,1.164,4.379,4.379,0,0,0,3.168-1.31l-.1.636a.4.4,0,0,0,.394.461h2.061a.664.664,0,0,0,.655-.561l1.238-7.833A.4.4,0,0,0,110.77,12.982Zm-3.19,4.454A2.55,2.55,0,0,1,105,19.622a1.773,1.773,0,0,1-1.9-2.225,2.563,2.563,0,0,1,2.565-2.2,1.931,1.931,0,0,1,1.526.623A1.971,1.971,0,0,1,107.58,17.437Z" transform="translate(-30.102 -3.845)"/><path class="a" d="M118.447,7.085l-1.962,12.48a.4.4,0,0,0,.393.46h1.972a.663.663,0,0,0,.656-.561l1.934-12.255a.4.4,0,0,0-.393-.461H118.84A.4.4,0,0,0,118.447,7.085Z" transform="translate(-35.081 -2.032)"/><path class="b" d="M5.4,20.682l.365-2.321-.814-.019H1.061l2.7-17.13a.226.226,0,0,1,.075-.134.221.221,0,0,1,.144-.053h6.555c2.176,0,3.678.453,4.462,1.347a3.07,3.07,0,0,1,.715,1.34,4.836,4.836,0,0,1,0,1.848l-.008.054v.472l.368.208a2.579,2.579,0,0,1,.744.567,2.642,2.642,0,0,1,.6,1.354,5.729,5.729,0,0,1-.086,1.965,6.92,6.92,0,0,1-.805,2.224,4.575,4.575,0,0,1-1.275,1.4,5.174,5.174,0,0,1-1.718.775,8.566,8.566,0,0,1-2.147.248h-.51a1.534,1.534,0,0,0-1.517,1.295l-.038.209L8.684,20.42l-.029.15a.129.129,0,0,1-.041.087.108.108,0,0,1-.067.024H5.4Z" transform="translate(-0.32 -0.308)"/><path class="c" d="M17.97,7.667h0q-.029.188-.067.384c-.864,4.438-3.822,5.971-7.6,5.971H8.381a.934.934,0,0,0-.923.791h0l-.985,6.245-.279,1.77a.492.492,0,0,0,.486.569h3.411a.821.821,0,0,0,.811-.692l.034-.173.642-4.076.041-.224a.82.82,0,0,1,.811-.693h.51c3.3,0,5.892-1.342,6.648-5.224A4.448,4.448,0,0,0,18.9,8.387,3.261,3.261,0,0,0,17.97,7.667Z" transform="translate(-1.864 -2.309)"/><path class="d" d="M17.613,7.017q-.2-.058-.408-.1t-.433-.082a10.681,10.681,0,0,0-1.7-.124H9.939a.819.819,0,0,0-.81.693L8.036,14.323l-.031.2a.934.934,0,0,1,.923-.791h1.923c3.777,0,6.735-1.534,7.6-5.971.026-.131.048-.259.067-.384a4.608,4.608,0,0,0-.711-.3C17.744,7.057,17.679,7.037,17.613,7.017Z" transform="translate(-2.411 -2.02)"/><path class="a" d="M6.719,5.38a.819.819,0,0,1,.81-.693h5.138a10.681,10.681,0,0,1,1.7.124q.222.036.433.082T15.2,5l.194.06a4.677,4.677,0,0,1,.711.3,4.192,4.192,0,0,0-.889-3.768C14.241.477,12.476,0,10.218,0H3.663a.937.937,0,0,0-.926.792L.007,18.1a.563.563,0,0,0,.556.651H4.609L5.626,12.3Z" transform="translate(0)"/></svg>