<svg xmlns="http://www.w3.org/2000/svg" width="27.816" height="48.792" viewBox="0 0 27.816 48.792">
  <path id="Path_2" data-name="Path 2" d="M3.61-10.564v9.272Q3.61,0,2.394,0H-2.774Q-4.066,0-4.066-1.368v-9.2q0-1.216,1.292-1.216H2.394A1.075,1.075,0,0,1,3.61-10.564Zm-.076-9.8v2.28q0,1.292-1.368,1.292H-2.318A1.142,1.142,0,0,1-3.61-18.088v-2.2A9.61,9.61,0,0,1-2.774-24.7a11.964,11.964,0,0,1,3.04-3.42L3.99-31.236a6.043,6.043,0,0,0,2.66-4.712v-1.064q0-5.472-5.7-5.472H-1.1a5.513,5.513,0,0,0-4.1,1.33A5.756,5.756,0,0,0-6.5-37.012v2.2A1.209,1.209,0,0,1-7.866-33.44h-4.788q-1.292,0-1.292-1.368v-2.356q0-5.548,3.116-8.588t8.664-3.04H2.09q5.548,0,8.664,3.04t3.116,8.588v1.6a9,9,0,0,1-3.42,6.84L5.89-25.08a7.082,7.082,0,0,0-1.938,2.242A6.191,6.191,0,0,0,3.534-20.368Z" transform="translate(13.946 48.792)" fill="#26a69a"/>
</svg>
