<svg xmlns="http://www.w3.org/2000/svg" width="481.254" height="224.656" viewBox="0 0 481.254 224.656">
  <g id="Group_19005" data-name="Group 19005" transform="translate(-469.672 -486.008)">
    <g id="Group_107" data-name="Group 107" transform="translate(595.389 559.271)">
      <path id="Path_55" data-name="Path 55" d="M656.718,587.059V578.31h-.408v8.749h-1.081v27.815h2.57V587.059Z" transform="translate(-655.229 -578.31)" fill="#26a69a"/>
    </g>
    <g id="Group_108" data-name="Group 108" transform="translate(600.422 545.003)">
      <path id="Path_56" data-name="Path 56" d="M666.468,569.816h-1.644V555.908H664.2v13.907h-1.644v43.168H664.2v4.658h.621v-4.658h1.644Z" transform="translate(-662.558 -555.908)" fill="#26a69a"/>
    </g>
    <g id="Group_109" data-name="Group 109" transform="translate(620.686 548.211)">
      <path id="Path_57" data-name="Path 57" d="M696.362,573.618h-1.645V559.71H694.1v13.908h-1.645v43.167H694.1v4.658h.621v-4.658h1.645Z" transform="translate(-692.452 -559.71)" fill="#ff575d"/>
    </g>
    <g id="Group_110" data-name="Group 110" transform="translate(591.047 557.379)">
      <path id="Path_58" data-name="Path 58" d="M651.677,584.481h-1.21V570.573h-.457v13.907H648.8v43.167h1.211v4.659h.457v-4.659h1.21Z" transform="translate(-648.799 -570.573)" fill="#ff575d"/>
    </g>
    <g id="Group_111" data-name="Group 111" transform="translate(626.516 583.131)">
      <path id="Path_59" data-name="Path 59" d="M703.821,616.64H702.7v-7.914h-.422v7.914h-1.118V641.2h1.118v2.65h.422V641.2h1.118Z" transform="translate(-701.163 -608.727)" fill="#ff575d"/>
    </g>
    <g id="Group_112" data-name="Group 112" transform="translate(632.593 588.666)">
      <path id="Path_60" data-name="Path 60" d="M711.666,623.635h-.6v-7.914h-.225v7.914h-.6V648.2h.6v2.651h.225V648.2h.6Z" transform="translate(-710.246 -615.721)" fill="#ff575d"/>
    </g>
    <g id="Group_113" data-name="Group 113" transform="translate(635.042 597.323)">
      <path id="Path_61" data-name="Path 61" d="M715.282,632.424h-.6v-12.97h-.226v12.97h-.6v40.257h.6v4.344h.226v-4.344h.6Z" transform="translate(-713.863 -619.454)" fill="#26a69a"/>
    </g>
    <g id="Group_114" data-name="Group 114" transform="translate(671.798 621.015)">
      <path id="Path_62" data-name="Path 62" d="M770.655,664.509h-1.118v-7.914h-.422v7.914H768v24.563h1.117v2.651h.422v-2.651h1.118Z" transform="translate(-767.998 -656.595)" fill="#ff575d"/>
    </g>
    <g id="Group_115" data-name="Group 115" transform="translate(677.854 626.551)">
      <path id="Path_63" data-name="Path 63" d="M778.5,671.5h-.6V663.59h-.225V671.5h-.6v24.563h.6v2.65h.225v-2.65h.6Z" transform="translate(-777.08 -663.59)" fill="#ff575d"/>
    </g>
    <g id="Group_116" data-name="Group 116" transform="translate(680.303 642.213)">
      <path id="Path_64" data-name="Path 64" d="M782.116,680.292h-.6v-12.97h-.225v12.97h-.6V720.55h.6v4.344h.225V720.55h.6Z" transform="translate(-780.697 -667.322)" fill="#26a69a"/>
    </g>
    <g id="Group_117" data-name="Group 117" transform="translate(647.281 652.897)">
      <path id="Path_65" data-name="Path 65" d="M733.355,693.884h-.6v-7.914h-.225v7.914h-.6v24.563h.6V721.1h.225v-2.651h.6Z" transform="translate(-731.935 -685.971)" fill="#26a69a"/>
    </g>
    <g id="Group_118" data-name="Group 118" transform="translate(643.694 653.093)">
      <path id="Path_66" data-name="Path 66" d="M728.058,699.282h-.6v-12.97h-.225v12.97h-.6V739.54h.6v4.345h.225V739.54h.6Z" transform="translate(-726.638 -686.312)" fill="#26a69a"/>
    </g>
    <g id="Group_120" data-name="Group 120" transform="translate(607.918 549.903)">
      <path id="Path_68" data-name="Path 68" d="M677.527,571.272h-1.644V567.6h-.622v3.674h-1.645V594.2h1.644v3.109h.622V594.2h1.644Z" transform="translate(-673.617 -567.598)" fill="#26a69a"/>
    </g>
    <g id="Group_119" data-name="Group 119" transform="translate(614.575 547.854)">
      <path id="Path_67" data-name="Path 67" d="M685.7,568.078v-4.707h-.621v4.707h-1.644v35.269h3.91V568.078Z" transform="translate(-683.437 -563.371)" fill="#26a69a"/>
    </g>
    <g id="Group_121" data-name="Group 121" transform="translate(880.087 599.114)">
      <path id="Path_69" data-name="Path 69" d="M1058.11,637.255v-8.749h-.292v8.749h-.771V665.07h1.835V637.255Z" transform="translate(-1057.047 -628.506)" fill="#26a69a"/>
    </g>
    <g id="Group_122" data-name="Group 122" transform="translate(883.086 587.367)">
      <path id="Path_70" data-name="Path 70" d="M1065.074,620.012H1063.9V606.1h-.443v13.907h-1.175v43.167h1.175v4.659h.443v-4.659h1.175Z" transform="translate(-1062.281 -606.105)" fill="#26a69a"/>
    </g>
    <g id="Group_123" data-name="Group 123" transform="translate(891.63 587.983)">
      <path id="Path_71" data-name="Path 71" d="M1078.812,618.275v-4.707h-.443v4.707h-1.175v35.268h2.793V618.275Z" transform="translate(-1077.193 -613.568)" fill="#26a69a"/>
    </g>
    <g id="Group_124" data-name="Group 124" transform="translate(887.611 589.214)">
      <path id="Path_72" data-name="Path 72" d="M1072.973,621.468H1071.8v-3.673h-.444v3.673h-1.175V644.4h1.175v3.109h.444V644.4h1.174Z" transform="translate(-1070.18 -617.795)" fill="#ff575d"/>
    </g>
    <g id="Group_125" data-name="Group 125" transform="translate(901.029 573.031)">
      <path id="Path_73" data-name="Path 73" d="M1097.51,600.8h-1.644v-3.673h-.622V600.8H1093.6v22.928h1.644v3.109h.622v-3.109h1.644Z" transform="translate(-1093.599 -597.131)" fill="#26a69a"/>
    </g>
    <g id="Group_126" data-name="Group 126" transform="translate(654.035 638.731)">
      <path id="Path_74" data-name="Path 74" d="M745.559,684.7h-1.644v-3.674h-.621V684.7h-1.644v22.928h1.644v3.109h.621v-3.109h1.644Z" transform="translate(-741.649 -681.025)" fill="#26a69a"/>
    </g>
    <g id="Group_127" data-name="Group 127" transform="translate(583.106 586.539)">
      <path id="Path_75" data-name="Path 75" d="M640.924,617.62h-1.644V613.51h-.622v4.111h-1.644v25.656h1.644v3.479h.622v-3.479h1.644Z" transform="translate(-637.014 -613.51)" fill="#26a69a"/>
    </g>
    <g id="Group_128" data-name="Group 128" transform="translate(720.429 595.212)">
      <path id="Path_76" data-name="Path 76" d="M843.505,627.81h-1.644v-4.751h-.621v4.751H839.6v29.656h1.644v4.021h.621v-4.021h1.644Z" transform="translate(-839.595 -623.059)" fill="#26a69a"/>
    </g>
    <g id="Group_129" data-name="Group 129" transform="translate(688.973 625.469)">
      <path id="Path_77" data-name="Path 77" d="M796,670.137h-1.118v-7.914h-.422v7.914h-1.118V694.7h1.118v2.65h.422V694.7H796Z" transform="translate(-793.347 -662.223)" fill="#ff575d"/>
    </g>
    <g id="Group_130" data-name="Group 130" transform="translate(497.845 598.173)">
      <path id="Path_78" data-name="Path 78" d="M521.5,635.646h-1.118v-7.914h-.422v7.914h-1.118V660.21h1.118v2.651h.422V660.21H521.5Z" transform="translate(-518.844 -627.732)" fill="#ff575d"/>
    </g>
    <g id="Group_131" data-name="Group 131" transform="translate(503.048 603.709)">
      <path id="Path_79" data-name="Path 79" d="M529.346,642.641h-.6v-7.914h-.226v7.914h-.6V667.2h.6v2.651h.226V667.2h.6Z" transform="translate(-527.926 -634.727)" fill="#ff575d"/>
    </g>
    <g id="Group_132" data-name="Group 132" transform="translate(505.12 613.177)">
      <path id="Path_80" data-name="Path 80" d="M532.963,651.431h-.6v-12.97h-.225v12.97h-.6v40.258h.6v4.344h.225v-4.344h.6Z" transform="translate(-531.543 -638.461)" fill="#26a69a"/>
    </g>
    <g id="Group_133" data-name="Group 133" transform="translate(507.178 654.794)">
      <path id="Path_81" data-name="Path 81" d="M537.793,697.2h-1.118v-7.914h-.422V697.2h-1.118v24.563h1.118v2.651h.422v-2.651h1.118Z" transform="translate(-535.135 -689.282)" fill="#ff575d"/>
    </g>
    <g id="Group_134" data-name="Group 134" transform="translate(511.25 658.243)">
      <path id="Path_82" data-name="Path 82" d="M544.9,705.65h-1.118V695.3h-.422V705.65h-1.118v32.123h1.118v3.467h.422v-3.467H544.9Z" transform="translate(-542.241 -695.301)" fill="#ff575d"/>
    </g>
    <g id="Group_135" data-name="Group 135" transform="translate(695.021 627.386)">
      <path id="Path_83" data-name="Path 83" d="M803.849,672.558h-.6v-7.914h-.225v7.914h-.6v24.564h.6v2.651h.225v-2.651h.6Z" transform="translate(-802.429 -664.644)" fill="#ff575d"/>
    </g>
    <g id="Group_136" data-name="Group 136" transform="translate(726.924 558.446)">
      <path id="Path_84" data-name="Path 84" d="M852.018,585.45H850.9v-7.913h-.422v7.913H849.36v24.564h1.118v2.65h.422v-2.65h1.118Z" transform="translate(-849.36 -577.537)" fill="#ff575d"/>
    </g>
    <g id="Group_137" data-name="Group 137" transform="translate(732.954 563.982)">
      <path id="Path_85" data-name="Path 85" d="M859.862,592.445h-.6v-7.914h-.226v7.914h-.6v24.564h.6v2.651h.226v-2.651h.6Z" transform="translate(-858.443 -584.531)" fill="#ff575d"/>
    </g>
    <g id="Group_138" data-name="Group 138" transform="translate(735.404 571.306)">
      <path id="Path_86" data-name="Path 86" d="M863.479,601.234h-.6v-12.97h-.226v12.97h-.6v40.258h.6v4.344h.226v-4.344h.6Z" transform="translate(-862.06 -588.265)" fill="#26a69a"/>
    </g>
    <g id="Group_139" data-name="Group 139" transform="translate(744.099 562.9)">
      <path id="Path_87" data-name="Path 87" d="M877.367,591.078h-1.118v-7.914h-.423v7.914h-1.117v24.564h1.117v2.651h.423v-2.651h1.118Z" transform="translate(-874.709 -583.164)" fill="#ff575d"/>
    </g>
    <g id="Group_140" data-name="Group 140" transform="translate(750.121 564.817)">
      <path id="Path_88" data-name="Path 88" d="M885.211,593.5h-.6v-7.914h-.226V593.5h-.6v24.564h.6v2.651h.226v-2.651h.6Z" transform="translate(-883.792 -585.586)" fill="#ff575d"/>
    </g>
    <g id="Group_141" data-name="Group 141" transform="translate(808.872 571.995)">
      <path id="Path_89" data-name="Path 89" d="M972.487,600.615h-.868v-1.558h-.328v1.558h-.868v9.727h.868v1.319h.328v-1.319h.868Z" transform="translate(-970.422 -599.057)" fill="#26a69a"/>
    </g>
    <g id="Group_142" data-name="Group 142" transform="translate(812.086 567.63)">
      <path id="Path_90" data-name="Path 90" d="M977.711,596.093h-1.118v-2.6h-.423v2.6h-1.117v8.057h1.117v.869h.423v-.869h1.118Z" transform="translate(-975.053 -593.497)" fill="#ff575d"/>
    </g>
    <g id="Group_143" data-name="Group 143" transform="translate(818.075 567.63)">
      <path id="Path_91" data-name="Path 91" d="M985.554,596.093h-.6v-2.6h-.225v2.6h-.6v8.057h.6v.869h.225v-.869h.6Z" transform="translate(-984.135 -593.497)" fill="#ff575d"/>
    </g>
    <g id="Group_144" data-name="Group 144" transform="translate(820.525 563.655)">
      <path id="Path_92" data-name="Path 92" d="M989.171,591.327h-.6v-4.255h-.226v4.255h-.6v13.2h.6v1.425h.226v-1.425h.6Z" transform="translate(-987.752 -587.072)" fill="#26a69a"/>
    </g>
    <g id="Group_145" data-name="Group 145" transform="translate(829.26 567.63)">
      <path id="Path_93" data-name="Path 93" d="M1003.058,596.093h-1.117v-2.6h-.423v2.6H1000.4v8.057h1.118v.869h.423v-.869h1.117Z" transform="translate(-1000.4 -593.497)" fill="#ff575d"/>
    </g>
    <g id="Group_146" data-name="Group 146" transform="translate(835.242 567.63)">
      <path id="Path_94" data-name="Path 94" d="M1010.9,596.093h-.6v-2.6h-.226v2.6h-.6v8.057h.6v.869h.226v-.869h.6Z" transform="translate(-1009.485 -593.497)" fill="#ff575d"/>
    </g>
    <g id="Group_147" data-name="Group 147" transform="translate(842.052 562.086)">
      <path id="Path_95" data-name="Path 95" d="M1021.469,587.588h-.869v-1.559h-.328v1.559h-.868v9.728h.868v1.319h.328v-1.319h.869Z" transform="translate(-1019.405 -586.029)" fill="#26a69a"/>
    </g>
    <g id="Group_148" data-name="Group 148" transform="translate(845.273 562.678)">
      <path id="Path_96" data-name="Path 96" d="M1026.693,589.571h-1.118v-2.6h-.423v2.6h-1.117v8.057h1.117v.869h.423v-.869h1.118Z" transform="translate(-1024.035 -586.975)" fill="#ff575d"/>
    </g>
    <g id="Group_149" data-name="Group 149" transform="translate(535.568 616.628)">
      <path id="Path_97" data-name="Path 97" d="M586.75,659.295h-.869v-1.558h-.328v1.558h-.868v9.727h.868v1.319h.328v-1.319h.868Z" transform="translate(-584.685 -657.736)" fill="#26a69a"/>
    </g>
    <g id="Group_150" data-name="Group 150" transform="translate(538.221 612.188)">
      <path id="Path_98" data-name="Path 98" d="M591.973,654.772h-1.118v-2.6h-.422v2.6h-1.118v8.057h1.118v.87h.422v-.87h1.118Z" transform="translate(-589.315 -652.176)" fill="#ff575d"/>
    </g>
    <g id="Group_151" data-name="Group 151" transform="translate(543.424 612.188)">
      <path id="Path_99" data-name="Path 99" d="M599.817,654.772h-.6v-2.6h-.226v2.6h-.6v8.057h.6v.87h.226v-.87h.6Z" transform="translate(-598.398 -652.176)" fill="#ff575d"/>
    </g>
    <g id="Group_152" data-name="Group 152" transform="translate(545.497 608.739)">
      <path id="Path_100" data-name="Path 100" d="M603.434,650.007h-.6v-4.255h-.226v4.255h-.6v13.2h.6v1.425h.226v-1.425h.6Z" transform="translate(-602.015 -645.752)" fill="#26a69a"/>
    </g>
    <g id="Group_153" data-name="Group 153" transform="translate(565.064 612.188)">
      <path id="Path_101" data-name="Path 101" d="M613.122,654.772H612v-2.6h-.422v2.6h-1.118v8.057h1.118v.87H612v-.87h1.118Z" transform="translate(-610.464 -652.176)" fill="#ff575d"/>
    </g>
    <g id="Group_154" data-name="Group 154" transform="translate(571.17 612.188)">
      <path id="Path_102" data-name="Path 102" d="M620.967,654.772h-.6v-2.6h-.225v2.6h-.6v8.057h.6v.87h.225v-.87h.6Z" transform="translate(-619.547 -652.176)" fill="#ff575d"/>
    </g>
    <g id="Group_155" data-name="Group 155" transform="translate(574.754 606.719)">
      <path id="Path_103" data-name="Path 103" d="M626.866,646.268H626v-1.559h-.328v1.559H624.8V656h.868v1.319H626V656h.868Z" transform="translate(-624.801 -644.709)" fill="#26a69a"/>
    </g>
    <g id="Group_156" data-name="Group 156" transform="translate(577.915 607.236)">
      <path id="Path_104" data-name="Path 104" d="M632.089,648.25h-1.118v-2.6h-.422v2.6h-1.118v8.057h1.118v.87h.422v-.87h1.118Z" transform="translate(-629.431 -645.654)" fill="#ff575d"/>
    </g>
    <g id="Group_157" data-name="Group 157" transform="translate(851.247 562.678)">
      <path id="Path_105" data-name="Path 105" d="M1034.537,589.571h-.6v-2.6h-.225v2.6h-.6v8.057h.6v.869h.225v-.869h.6Z" transform="translate(-1033.117 -586.975)" fill="#ff575d"/>
    </g>
    <g id="Group_158" data-name="Group 158" transform="translate(853.697 558.645)">
      <path id="Path_106" data-name="Path 106" d="M1038.153,584.8h-.6v-4.253h-.226V584.8h-.6V598.01h.6v1.425h.226V598.01h.6Z" transform="translate(-1036.734 -580.551)" fill="#26a69a"/>
    </g>
    <g id="Group_159" data-name="Group 159" transform="translate(871.179 567.889)">
      <path id="Path_107" data-name="Path 107" d="M1044.158,597.119h-1.118v-5.738h-.422v5.738H1041.5v17.81h1.118v1.921h.422v-1.921h1.118Z" transform="translate(-1041.5 -591.381)" fill="#ff575d"/>
    </g>
    <g id="Group_160" data-name="Group 160" transform="translate(876.383 567.889)">
      <path id="Path_108" data-name="Path 108" d="M1052,597.119h-.6v-5.738h-.225v5.738h-.6v17.81h.6v1.921h.225v-1.921h.6Z" transform="translate(-1050.582 -591.381)" fill="#ff575d"/>
    </g>
    <g id="Group_161" data-name="Group 161" transform="translate(712.038 586.394)">
      <path id="Path_109" data-name="Path 109" d="M828.977,619.323h-.6v-12.97h-.226v12.97h-.6V659.58h.6v4.344h.226V659.58h.6Z" transform="translate(-827.557 -606.353)" fill="#26a69a"/>
    </g>
    <g id="Group_162" data-name="Group 162" transform="translate(703.611 612.73)">
      <path id="Path_110" data-name="Path 110" d="M818.7,649.8h-1.644v-4.751h-.621V649.8h-1.644v29.656h1.644v4.021h.621v-4.021H818.7Z" transform="translate(-814.785 -645.045)" fill="#26a69a"/>
    </g>
    <g id="Group_163" data-name="Group 163" transform="translate(924.184 546.105)">
      <path id="Path_111" data-name="Path 111" d="M1137.924,566.548h-1.645v-2.6h-.621v2.6h-1.644v16.214h1.644v2.2h.621v-2.2h1.645Z" transform="translate(-1134.014 -563.95)" fill="#26a69a"/>
    </g>
    <g id="Group_164" data-name="Group 164" transform="translate(929.778 526.791)">
      <path id="Path_112" data-name="Path 112" d="M1146.435,543.389h-1.118v-4.327h-.422v4.327h-1.118v13.429h1.118v1.449h.422v-1.449h1.118Z" transform="translate(-1143.777 -539.062)" fill="#ff575d"/>
    </g>
    <g id="Group_165" data-name="Group 165" transform="translate(934.982 529.731)">
      <path id="Path_113" data-name="Path 113" d="M1154.28,547.213h-.6v-4.327h-.225v4.327h-.6v13.429h.6v1.449h.225v-1.449h.6Z" transform="translate(-1152.859 -542.886)" fill="#ff575d"/>
    </g>
    <g id="Group_166" data-name="Group 166" transform="translate(937.054 532.304)">
      <path id="Path_114" data-name="Path 114" d="M1157.9,552.018h-.6v-7.091h-.225v7.091h-.6v22.01h.6V576.4h.225v-2.375h.6Z" transform="translate(-1156.477 -544.927)" fill="#26a69a"/>
    </g>
    <g id="Group_167" data-name="Group 167" transform="translate(944.302 529.157)">
      <path id="Path_115" data-name="Path 115" d="M1171.785,546.466h-1.118v-4.326h-.422v4.326h-1.118V559.9h1.118v1.45h.422V559.9h1.118Z" transform="translate(-1169.127 -542.139)" fill="#ff575d"/>
    </g>
    <g id="Group_168" data-name="Group 168" transform="translate(920.046 554.126)">
      <path id="Path_116" data-name="Path 116" d="M1129.449,578.947h-1.118v-4.326h-.422v4.326h-1.118v13.43h1.118v1.449h.422v-1.449h1.118Z" transform="translate(-1126.791 -574.621)" fill="#ff575d"/>
    </g>
    <g id="Group_169" data-name="Group 169" transform="translate(949.506 530.175)">
      <path id="Path_117" data-name="Path 117" d="M1179.629,547.79h-.6v-4.326h-.225v4.326h-.6v13.43h.6v1.449h.225V561.22h.6Z" transform="translate(-1178.209 -543.464)" fill="#ff575d"/>
    </g>
    <g id="Group_170" data-name="Group 170" transform="translate(939.953 535.843)">
      <path id="Path_118" data-name="Path 118" d="M1162.954,555.164h-.6v-4.327h-.226v4.327h-.6v13.429h.6v1.449h.226v-1.449h.6Z" transform="translate(-1161.535 -550.837)" fill="#ff575d"/>
    </g>
    <g id="Group_171" data-name="Group 171" transform="translate(898.204 598.407)">
      <path id="Path_119" data-name="Path 119" d="M1090.087,636.553h-.6v-4.326h-.226v4.326h-.6v13.43h.6v1.449h.226v-1.449h.6Z" transform="translate(-1088.668 -632.227)" fill="#ff575d"/>
    </g>
    <g id="Group_172" data-name="Group 172" transform="translate(906.209 581.49)">
      <path id="Path_120" data-name="Path 120" d="M1104.066,614.545h-.6v-4.326h-.226v4.326h-.6v13.43h.6v1.449h.226v-1.449h.6Z" transform="translate(-1102.641 -610.219)" fill="#ff575d"/>
    </g>
    <g id="Group_173" data-name="Group 173" transform="translate(909.001 582.508)">
      <path id="Path_121" data-name="Path 121" d="M1108.275,615.869h-.32v-4.326h-.121v4.326h-.32V629.3h.32v1.449h.121V629.3h.32Z" transform="translate(-1107.514 -611.543)" fill="#ff575d"/>
    </g>
    <g id="Group_174" data-name="Group 174" transform="translate(917.287 540.075)">
      <path id="Path_122" data-name="Path 122" d="M1123.394,561.908h-.6v-7.091h-.226v7.091h-.6v22.009h.6v2.375h.226v-2.375h.6Z" transform="translate(-1121.975 -554.817)" fill="#26a69a"/>
    </g>
    <g id="Group_175" data-name="Group 175" transform="translate(909.969 555.373)">
      <path id="Path_123" data-name="Path 123" d="M1113.113,578.568h-1.645v-2.6h-.621v2.6H1109.2v16.214h1.644v2.2h.621v-2.2h1.645Z" transform="translate(-1109.203 -575.971)" fill="#26a69a"/>
    </g>
    <g id="Group_176" data-name="Group 176" transform="translate(527.183 633.735)">
      <path id="Path_124" data-name="Path 124" d="M572.814,677.444h-1.162v-4.128h-.439v4.128H570.05v25.765h1.162V706.7h.439v-3.494h1.162Z" transform="translate(-570.05 -673.316)" fill="#26a69a"/>
    </g>
    <g id="Group_177" data-name="Group 177" transform="translate(531.138 601.898)">
      <path id="Path_125" data-name="Path 125" d="M578.832,640.641h-.79v-6.875h-.3v6.875h-.79v21.341h.79v2.3h.3v-2.3h.79Z" transform="translate(-576.953 -633.766)" fill="#ff575d"/>
    </g>
    <g id="Group_178" data-name="Group 178" transform="translate(524.258 655.362)">
      <path id="Path_126" data-name="Path 126" d="M566.824,697.148h-.79v-6.876h-.3v6.876h-.79v21.341h.79v2.3h.3v-2.3h.79Z" transform="translate(-564.945 -690.273)" fill="#ff575d"/>
    </g>
    <g id="Group_179" data-name="Group 179" transform="translate(522.307 637.33)">
      <path id="Path_127" data-name="Path 127" d="M562.544,670.069h-.422V658.8h-.16v11.269h-.422v34.976h.422v3.775h.16v-3.775h.422Z" transform="translate(-561.54 -658.801)" fill="#26a69a"/>
    </g>
    <g id="Group_180" data-name="Group 180" transform="translate(516.594 667.994)">
      <path id="Path_128" data-name="Path 128" d="M555.479,714.918h-1.645v-2.6h-.621v2.6h-1.645v16.214h1.644v2.2h.622v-2.2h1.645Z" transform="translate(-551.568 -712.32)" fill="#26a69a"/>
    </g>
    <g id="Group_181" data-name="Group 181" transform="translate(478.846 599.017)">
      <path id="Path_129" data-name="Path 129" d="M488.208,635.172h-1.061v-2.6h-.4v2.6h-1.061v16.214h1.061v2.2h.4v-2.2h1.061Z" transform="translate(-485.684 -632.574)" fill="#26a69a"/>
    </g>
    <g id="Group_182" data-name="Group 182" transform="translate(482.456 579.543)">
      <path id="Path_130" data-name="Path 130" d="M493.7,612.013h-.721v-4.327h-.272v4.327h-.721v13.429h.721v1.449h.272v-1.449h.721Z" transform="translate(-491.986 -607.687)" fill="#ff575d"/>
    </g>
    <g id="Group_183" data-name="Group 183" transform="translate(485.815 582.483)">
      <path id="Path_131" data-name="Path 131" d="M498.764,615.837h-.385v-4.327h-.146v4.327h-.385v13.43h.385v1.449h.146v-1.449h.385Z" transform="translate(-497.848 -611.511)" fill="#ff575d"/>
    </g>
    <g id="Group_184" data-name="Group 184" transform="translate(487.152 586.227)">
      <path id="Path_132" data-name="Path 132" d="M501.1,620.642h-.385v-7.091h-.145v7.091h-.385v22.01h.385v2.375h.145v-2.375h.385Z" transform="translate(-500.182 -613.552)" fill="#26a69a"/>
    </g>
    <g id="Group_185" data-name="Group 185" transform="translate(491.83 581.909)">
      <path id="Path_133" data-name="Path 133" d="M510.061,615.09h-.721v-4.326h-.272v4.326h-.721v13.43h.721v1.449h.272V628.52h.721Z" transform="translate(-508.346 -610.764)" fill="#ff575d"/>
    </g>
    <g id="Group_186" data-name="Group 186" transform="translate(495.188 582.927)">
      <path id="Path_134" data-name="Path 134" d="M515.124,616.415h-.385v-4.327h-.145v4.327h-.385v13.429h.385v1.449h.145v-1.449h.385Z" transform="translate(-514.208 -612.088)" fill="#ff575d"/>
    </g>
    <g id="Group_187" data-name="Group 187" transform="translate(474.395 593.998)">
      <path id="Path_135" data-name="Path 135" d="M478.831,630.532h-.385v-7.091H478.3v7.091h-.385v22.01h.385v2.376h.146v-2.376h.385Z" transform="translate(-477.915 -623.441)" fill="#26a69a"/>
    </g>
    <g id="Group_188" data-name="Group 188" transform="translate(469.672 608.286)">
      <path id="Path_136" data-name="Path 136" d="M472.2,647.193h-1.061v-2.6h-.4v2.6h-1.061v16.214h1.061v2.2h.4v-2.2H472.2Z" transform="translate(-469.672 -644.596)" fill="#26a69a"/>
    </g>
    <g id="Group_189" data-name="Group 189" transform="translate(665.276 647.633)">
      <path id="Path_137" data-name="Path 137" d="M762.142,698.989H760.5v-2.181h-.621v2.181h-1.645V712.6h1.645v1.845h.621V712.6h1.644Z" transform="translate(-758.232 -696.807)" fill="#ff575d"/>
    </g>
    <g id="Group_190" data-name="Group 190" transform="translate(765.253 507.867)">
      <path id="Path_138" data-name="Path 138" d="M907.982,532.074h-.812v-7.914h-.307v7.914h-.812v24.564h.812v2.651h.307v-2.651h.812Z" transform="translate(-906.051 -524.161)" fill="#ff575d"/>
    </g>
    <g id="Group_191" data-name="Group 191" transform="translate(767.851 507.867)">
      <path id="Path_139" data-name="Path 139" d="M911.068,532.074h-.434v-7.914h-.164v7.914h-.434v24.564h.434v2.651h.164v-2.651h.434Z" transform="translate(-910.037 -524.161)" fill="#ff575d"/>
    </g>
    <g id="Group_192" data-name="Group 192" transform="translate(772.698 496.646)">
      <path id="Path_140" data-name="Path 140" d="M918.226,517.544h-.434V504.575h-.164v12.969H917.2V557.8h.434v4.344h.164V557.8h.434Z" transform="translate(-917.195 -504.575)" fill="#26a69a"/>
    </g>
    <g id="Group_193" data-name="Group 193" transform="translate(755.117 510.576)">
      <path id="Path_141" data-name="Path 141" d="M893.781,532.562h-1.195v-3.673h-.451v3.673h-1.2V555.49h1.2V558.6h.451V555.49h1.195Z" transform="translate(-890.94 -528.889)" fill="#26a69a"/>
    </g>
    <g id="Group_194" data-name="Group 194" transform="translate(793.808 506.793)">
      <path id="Path_142" data-name="Path 142" d="M950.693,527.037h-1.1v-4.751h-.414v4.751h-1.1v29.656h1.1v4.021h.414v-4.021h1.1Z" transform="translate(-948.084 -522.286)" fill="#26a69a"/>
    </g>
    <g id="Group_195" data-name="Group 195" transform="translate(777.118 507.867)">
      <path id="Path_143" data-name="Path 143" d="M925.5,532.074h-.812v-7.914h-.307v7.914h-.812v24.564h.812v2.651h.307v-2.651h.812Z" transform="translate(-923.568 -524.161)" fill="#ff575d"/>
    </g>
    <g id="Group_196" data-name="Group 196" transform="translate(781.226 497.23)">
      <path id="Path_144" data-name="Path 144" d="M930.752,513.508h-.4v-7.913H930.2v7.913h-.4v24.564h.4v2.651h.151v-2.651h.4Z" transform="translate(-929.804 -505.595)" fill="#ff575d"/>
    </g>
    <g id="Group_197" data-name="Group 197" transform="translate(797.871 545.69)">
      <path id="Path_145" data-name="Path 145" d="M956.01,567.382h-.746v-2.989h-.282v2.989h-.745v9.277h.745v1h.282v-1h.746Z" transform="translate(-954.237 -564.393)" fill="#ff575d"/>
    </g>
    <g id="Group_198" data-name="Group 198" transform="translate(802.709 545.69)">
      <path id="Path_146" data-name="Path 146" d="M962.481,567.382h-.4v-2.989h-.151v2.989h-.4v9.277h.4v1h.151v-1h.4Z" transform="translate(-961.533 -564.393)" fill="#ff575d"/>
    </g>
    <g id="Group_199" data-name="Group 199" transform="translate(806.052 551.146)">
      <path id="Path_147" data-name="Path 147" d="M967.417,575.281h-.4v-4.9h-.15v4.9h-.4v15.2h.4v1.64h.15v-1.64h.4Z" transform="translate(-966.471 -570.383)" fill="#26a69a"/>
    </g>
    <g id="Group_200" data-name="Group 200" transform="translate(790.132 486.008)">
      <path id="Path_148" data-name="Path 148" d="M943.9,498.978h-.4v-12.97h-.151v12.97h-.4v40.258h.4v4.344h.151v-4.344h.4Z" transform="translate(-942.957 -486.008)" fill="#26a69a"/>
    </g>
    <g id="Group_201" data-name="Group 201" transform="translate(784.896 495.58)">
      <path id="Path_149" data-name="Path 149" d="M937.541,507.466h-1.1v-4.751h-.415v4.751h-1.1v29.656h1.1v4.022h.415v-4.022h1.1Z" transform="translate(-934.93 -502.714)" fill="#26a69a"/>
    </g>
    <g id="Group_202" data-name="Group 202" transform="translate(759.967 526.963)">
      <path id="Path_150" data-name="Path 150" d="M900.939,541.6h-1.195v-2.181h-.451V541.6H898.1v13.612h1.195v1.846h.451v-1.846h1.195Z" transform="translate(-898.099 -539.423)" fill="#ff575d"/>
    </g>
  </g>
</svg>
