<svg xmlns="http://www.w3.org/2000/svg" width="159" height="159" viewBox="0 0 159 159"><defs><style>.a{fill:rgba(38,166,154,0.1);stroke:rgba(38,166,154,0.5);}.b,.c,.d,.e,.j{fill:none;}.b,.c,.d{stroke:#26a69a;stroke-width:4px;}.b,.c{stroke-linecap:round;}.c{stroke-linejoin:round;}.e{opacity:0;}.f{fill:#e9f6f5;}.g{fill:#26a69a;}.h{fill:#13436b;}.i{stroke:none;}</style></defs><g transform="translate(-882 -330)"><g class="a" transform="translate(882 330)"><circle class="i" cx="79.5" cy="79.5" r="79.5"/><circle class="j" cx="79.5" cy="79.5" r="79"/></g><g transform="translate(0 -13)"><g transform="translate(913.486 375.773)"><g transform="translate(0 0)"><path class="b" d="M31.33,0A23.382,23.382,0,0,0,7.967,23.363V34.617a18.607,18.607,0,0,1-2.22,8.021L1.269,50.076c-2.765,4.595-.857,9.7,4.205,11.409a81.465,81.465,0,0,0,51.672,0,7.8,7.8,0,0,0,4.205-11.409l-4.478-7.437a19.12,19.12,0,0,1-2.181-8.021V23.363A23.432,23.432,0,0,0,31.33,0Z" transform="translate(15.475 11.331)"/><path class="c" d="M14.407,4.906a23.575,23.575,0,0,0-3.738-.779A26.3,26.3,0,0,0,0,4.906a7.742,7.742,0,0,1,14.407,0Z" transform="translate(39.601 7.554)"/><path class="d" d="M23.363,0A11.716,11.716,0,0,1,11.682,11.682,11.723,11.723,0,0,1,3.427,8.255,11.723,11.723,0,0,1,0,0" transform="translate(35.123 74.218)"/><path class="e" d="M0,0H93.454V93.454H0Z"/></g></g><ellipse class="f" cx="24.5" cy="25" rx="24.5" ry="25" transform="translate(956 404)"/><circle class="g" cx="11.5" cy="11.5" r="11.5" transform="translate(951 403)"/><path class="f" d="M1404.582,720.747s-6.353-7.039-6.353-7.554-1.03-4.636-1.03-4.636l2.575-2.232,3.434.858s3.434,5.666,3.949,6.009a35.945,35.945,0,0,1,2.747,3.09v-3.09l2.747-1.03,4.292,1.03s1.889-1.889,2.575-1.889h3.949s1.889,1.2,2.4.858,4.464-4.807,4.807-3.605,7.383,7.726,7.383,7.726l4.636,8.756v5.837l-2.4,3.949-3.777,4.292-8.413,4.636-5.494,1.2-5.666-1.2-13.735-6.352-4.979-3.949,1.545-4.121h2.4s4.636-.343,4.979,0,2.4.343,1.717-.858S1404.582,720.747,1404.582,720.747Z" transform="translate(-433 -296)"/><path class="h" d="M45.531,26.118V25.6a5.644,5.644,0,0,0-7.644-5.28,5.642,5.642,0,0,0-7.624-4.1A5.847,5.847,0,0,0,24.7,12.045a5.523,5.523,0,0,0-2.008.38V5.646a5.646,5.646,0,0,0-11.292,0V22.273a9.152,9.152,0,0,0-3.556-2.929,5.473,5.473,0,0,0-4.684.219A5.772,5.772,0,0,0,.585,27.229L7.6,41.423c.2.389,4.951,9.538,13.557,9.538H31.193A14.408,14.408,0,0,0,45.546,36.53l-.008-10.412h-.007ZM31.193,47.2H21.155c-6.2,0-10.06-7.212-10.2-7.477l-7-14.158a1.972,1.972,0,0,1,.911-2.643,1.722,1.722,0,0,1,1.545-.093c2.078.852,4.118,4.958,4.915,7.344l.6,1.822,3.233-1.144V5.646a1.882,1.882,0,1,1,3.764,0V27.352h3.8V17.817A2.069,2.069,0,0,1,24.7,15.809a2,2,0,0,1,2.008,1.882V27.98h3.764V21.455a1.882,1.882,0,1,1,3.764,0v8.281H38V25.6a1.882,1.882,0,0,1,3.764,0v2.692h.009l.006,8.244A10.64,10.64,0,0,1,31.193,47.2Z" transform="matrix(0.819, -0.574, 0.574, 0.819, 950.461, 419.393)"/></g></g></svg>