<svg xmlns="http://www.w3.org/2000/svg" width="48" height="48" viewBox="0 0 48 48">
  <g id="Group_7" data-name="Group 7" transform="translate(-1552 -161)">
    <circle id="Ellipse_2" data-name="Ellipse 2" cx="24" cy="24" r="24" transform="translate(1552 161)" fill="#7db934" opacity="0.365"/>
    <circle id="Ellipse_1" data-name="Ellipse 1" cx="21" cy="21" r="21" transform="translate(1555 164)" fill="#7db934"/>
    <path id="Path_4" data-name="Path 4" d="M0,11.008a4.352,4.352,0,0,1,1.837-2.26,1.863,1.863,0,0,1,2.485.281q2.166,2.153,4.319,4.319a2.523,2.523,0,0,1,.205.267l.133.044a1.566,1.566,0,0,1,.192-.313Q15.188,7.318,21.212,1.3a1.99,1.99,0,0,1,3.114,0c.123.123.241.252.37.368a2.869,2.869,0,0,1,.969,1.486v.614a2.9,2.9,0,0,1-.721,1.218q-7.5,7.488-14.993,14.989a1.325,1.325,0,0,1-2.089.005Q4.435,16.547,1,13.122a3.272,3.272,0,0,1-1-1.5Z" transform="translate(1563 174.456)" fill="#fff"/>
  </g>
</svg>
