<svg xmlns="http://www.w3.org/2000/svg" width="75" height="75" viewBox="0 0 75 75">
  <g id="Group_51" data-name="Group 51" transform="translate(-965 -215)">
    <circle id="Ellipse_3" data-name="Ellipse 3" cx="37.5" cy="37.5" r="37.5" transform="translate(965 215)" fill="#ea4c4c"/>
    <path id="Path_119" data-name="Path 119" d="M36.37,31.257,21.707,6.34a2.693,2.693,0,0,0-4.656,0L2.387,31.257a2.746,2.746,0,0,0-.022,2.788,2.687,2.687,0,0,0,2.346,1.369H34.046a2.667,2.667,0,0,0,2.339-1.369A2.729,2.729,0,0,0,36.37,31.257Zm-18.487-15.5h2.448v2.308l-.525,6.459h-1.4l-.525-6.459V15.757Zm2.151,12.559a1.267,1.267,0,0,1-1.836,0,1.339,1.339,0,0,1,0-1.878,1.267,1.267,0,0,1,1.836,0,1.339,1.339,0,0,1,0,1.878Z" transform="translate(983.004 230)" fill="#fff"/>
  </g>
</svg>
