<svg xmlns="http://www.w3.org/2000/svg" width="75" height="75" viewBox="0 0 75 75">
  <g id="Group_52" data-name="Group 52" transform="translate(-965 -215)">
    <circle id="Ellipse_3" data-name="Ellipse 3" cx="37.5" cy="37.5" r="37.5" transform="translate(965 215)" fill="#1c776f"/>
    <path id="Path_122" data-name="Path 122" d="M36.455,4.087A4.318,4.318,0,0,1,35.082,6.27Q25.207,16.129,15.35,26.006a2.863,2.863,0,0,1-3.166.848,3.408,3.408,0,0,1-1.207-.781C7.622,22.749,4.291,19.4.948,16.065A3.518,3.518,0,0,1,0,14.273V13.56A3.218,3.218,0,0,1,.933,11.8a2.891,2.891,0,0,1,4.145.21q3.868,3.86,7.726,7.731a3.2,3.2,0,0,1,.292.43,4.976,4.976,0,0,1,.319-.415L31.358,1.8A2.876,2.876,0,0,1,34.433.949a2.811,2.811,0,0,1,1.95,2.122c.021.079.048.155.073.233Z" transform="translate(984 238.195)" fill="#fff"/>
  </g>
</svg>
