<svg xmlns="http://www.w3.org/2000/svg" width="48" height="48" viewBox="0 0 48 48">
  <g id="Group_7" transform="translate(-1552 -161)">
    <circle id="Ellipse_2" cx="24" cy="24" r="24" transform="translate(1552 161)" fill="#fff"/>
    <circle id="Ellipse_1" cx="21" cy="21" r="21" transform="translate(1555 164)" fill="#32bea6"/>
    <path id="Path_4" d="M1563,185.5a5.021,5.021,0,0,1,1.8-2.3,1.854,1.854,0,0,1,2.5.3l4.3,4.3c.1.1.1.2.2.3h.1c.1-.1.1-.2.2-.3l12-12a1.942,1.942,0,0,1,2.8-.3l.3.3c.1.1.2.3.4.4a3.072,3.072,0,0,1,1,1.5v.6a2.4,2.4,0,0,1-.7,1.2l-15,15a1.3,1.3,0,0,1-1.9.2c-.1-.1-.2-.1-.2-.2l-6.9-6.9a3.072,3.072,0,0,1-1-1.5v-.6Z" fill="#fff"/>
  </g>
</svg>
