<svg xmlns="http://www.w3.org/2000/svg" width="48" height="48" viewBox="0 0 48 48">
  <g id="Group_8" data-name="Group 8" transform="translate(-1552 -161)">
    <circle id="Ellipse_2" data-name="Ellipse 2" cx="24" cy="24" r="24" transform="translate(1552 161)" fill="#e6543a" opacity="0.365"/>
    <circle id="Ellipse_1" data-name="Ellipse 1" cx="21" cy="21" r="21" transform="translate(1555 164)" fill="#e6543a"/>
    <path id="Path_2" data-name="Path 2" d="M0,17.217v-.454a2.339,2.339,0,0,1,.77-1.2Q3.349,13,5.915,10.426a1.069,1.069,0,0,1,.168-.113c-.078-.082-.118-.125-.159-.166Q3.233,7.455.543,4.763A1.486,1.486,0,0,1,.117,3.339,1.484,1.484,0,0,1,1.212,2.155a1.5,1.5,0,0,1,1.56.409Q5.443,5.218,8.111,7.875a1.45,1.45,0,0,1,.143.2c.083-.079.123-.115.161-.152Q10.275,6.063,12.136,4.2c.573-.572,1.13-1.162,1.727-1.708a1.54,1.54,0,0,1,2.159.131,1.558,1.558,0,0,1-.045,2.165q-2.662,2.663-5.326,5.324a1.132,1.132,0,0,1-.2.121c.1.084.15.118.192.159q2.585,2.568,5.171,5.135a2.306,2.306,0,0,1,.766,1.2v.421l-.041.154a1.439,1.439,0,0,1-1.14,1.131,1.732,1.732,0,0,1-1.677-.485q-2.649-2.662-5.308-5.315a.987.987,0,0,1-.108-.161l-.073,0a1.086,1.086,0,0,1-.111.16C6.368,14.4,4.6,16.155,2.853,17.923a1.787,1.787,0,0,1-1.441.555,1.438,1.438,0,0,1-1.37-1.125c-.011-.046-.028-.09-.042-.135" transform="translate(1568 174.917)" fill="#fff"/>
  </g>
</svg>
