<svg xmlns="http://www.w3.org/2000/svg" width="48" height="48" viewBox="0 0 48 48">
  <g id="Group_8" transform="translate(-1552 -161)">
    <circle id="Ellipse_2" cx="24" cy="24" r="24" transform="translate(1552 161)" fill="#fff"/>
    <circle id="Ellipse_1" cx="21" cy="21" r="21" transform="translate(1555 164)" fill="#e04f5f"/>
    <path id="Path_2" d="M1568,192.1v-.5a1.99,1.99,0,0,1,.8-1.2l5.1-5.1c.1,0,.1-.1.2-.1l-.2-.2-5.4-5.4a1.485,1.485,0,0,1-.4-1.4,1.5,1.5,0,0,1,1.1-1.2,1.555,1.555,0,0,1,1.6.4c1.8,1.8,3.6,3.5,5.3,5.3.1.1.1.1.1.2l.2-.2,3.7-3.7c.6-.6,1.1-1.2,1.7-1.7a1.593,1.593,0,0,1,2.2,2.3l-5.3,5.3c-.1,0-.1.1-.2.1l.2.2c1.7,1.7,3.4,3.4,5.2,5.1a2.55,2.55,0,0,1,.8,1.2v.6a1.386,1.386,0,0,1-1.1,1.1,1.625,1.625,0,0,1-1.7-.5l-5.3-5.3a.349.349,0,0,1-.1-.2h-.1c0,.1-.1.1-.1.2l-5.3,5.3a1.974,1.974,0,0,1-1.4.6,1.5,1.5,0,0,1-1.4-1.1c-.2,0-.2,0-.2-.1" fill="#fff"/>
  </g>
</svg>
