<svg xmlns="http://www.w3.org/2000/svg" width="22" height="22" viewBox="0 0 22 22">
  <g id="Group_19146" data-name="Group 19146" transform="translate(-22 -319)">
    <g id="Group_18248" data-name="Group 18248" transform="translate(16 292)">
      <circle id="Ellipse_708" data-name="Ellipse 708" cx="11" cy="11" r="11" transform="translate(6 27)" fill="#26a69a" opacity="0.25"/>
    </g>
    <path id="Path_8772" data-name="Path 8772" d="M15.852,8.64a3.782,3.782,0,0,1,3.59,2.6,3.66,3.66,0,0,1-1.437,4.135,5.805,5.805,0,0,1,3.792,5.4V21.3H20.706V20.76a4.861,4.861,0,0,0-9.69,0v.527H9.92V20.76a5.8,5.8,0,0,1,3.792-5.4A3.659,3.659,0,0,1,12.3,11.243a3.781,3.781,0,0,1,3.555-2.6Zm0,1.054a2.635,2.635,0,1,0,2.7,2.635,2.666,2.666,0,0,0-2.7-2.635Z" transform="translate(17.195 315.027)" fill="#26a69a"/>
  </g>
</svg>
