<svg xmlns="http://www.w3.org/2000/svg" width="572" height="245" viewBox="0 0 572 245">
  <g id="Group_19146" data-name="Group 19146" transform="translate(-58 -949)">
    <g id="Group_18895" data-name="Group 18895" transform="translate(-1392 -519)" opacity="0.21">
      <g id="Group_18459" data-name="Group 18459" transform="translate(12840 4633)">
        <g id="Group_18088" data-name="Group 18088">
          <g id="Group_18086" data-name="Group 18086" transform="translate(-12128 -3159)">
            <g id="Group_18084" data-name="Group 18084">
              <g id="Ellipse_701" data-name="Ellipse 701" transform="translate(738 200)" fill="#fff" stroke="#34ada2" stroke-width="1">
                <circle cx="6.5" cy="6.5" r="6.5" stroke="none"/>
                <circle cx="6.5" cy="6.5" r="6" fill="none"/>
              </g>
              <g id="Ellipse_704" data-name="Ellipse 704" transform="translate(786 200)" fill="#fff" stroke="#34ada2" stroke-width="1">
                <circle cx="6.5" cy="6.5" r="6.5" stroke="none"/>
                <circle cx="6.5" cy="6.5" r="6" fill="none"/>
              </g>
              <g id="Ellipse_702" data-name="Ellipse 702" transform="translate(762 200)" fill="#fff" stroke="#34ada2" stroke-width="1">
                <circle cx="6.5" cy="6.5" r="6.5" stroke="none"/>
                <circle cx="6.5" cy="6.5" r="6" fill="none"/>
              </g>
              <g id="Ellipse_703" data-name="Ellipse 703" transform="translate(810 200)" fill="#fff" stroke="#34ada2" stroke-width="1">
                <circle cx="6.5" cy="6.5" r="6.5" stroke="none"/>
                <circle cx="6.5" cy="6.5" r="6" fill="none"/>
              </g>
            </g>
            <g id="Group_18085" data-name="Group 18085" transform="translate(96)">
              <g id="Ellipse_701-2" data-name="Ellipse 701" transform="translate(738 200)" fill="#fff" stroke="#34ada2" stroke-width="1">
                <circle cx="6.5" cy="6.5" r="6.5" stroke="none"/>
                <circle cx="6.5" cy="6.5" r="6" fill="none"/>
              </g>
              <g id="Ellipse_704-2" data-name="Ellipse 704" transform="translate(786 200)" fill="#fff" stroke="#34ada2" stroke-width="1">
                <circle cx="6.5" cy="6.5" r="6.5" stroke="none"/>
                <circle cx="6.5" cy="6.5" r="6" fill="none"/>
              </g>
              <g id="Ellipse_702-2" data-name="Ellipse 702" transform="translate(762 200)" fill="#fff" stroke="#34ada2" stroke-width="1">
                <circle cx="6.5" cy="6.5" r="6.5" stroke="none"/>
                <circle cx="6.5" cy="6.5" r="6" fill="none"/>
              </g>
              <g id="Ellipse_703-2" data-name="Ellipse 703" transform="translate(810 200)" fill="#fff" stroke="#34ada2" stroke-width="1">
                <circle cx="6.5" cy="6.5" r="6.5" stroke="none"/>
                <circle cx="6.5" cy="6.5" r="6" fill="none"/>
              </g>
            </g>
          </g>
          <g id="Group_18087" data-name="Group 18087" transform="translate(-11936 -3159)">
            <g id="Group_18084-2" data-name="Group 18084">
              <g id="Ellipse_701-3" data-name="Ellipse 701" transform="translate(738 200)" fill="#fff" stroke="#34ada2" stroke-width="1">
                <circle cx="6.5" cy="6.5" r="6.5" stroke="none"/>
                <circle cx="6.5" cy="6.5" r="6" fill="none"/>
              </g>
              <g id="Ellipse_704-3" data-name="Ellipse 704" transform="translate(786 200)" fill="#fff" stroke="#34ada2" stroke-width="1">
                <circle cx="6.5" cy="6.5" r="6.5" stroke="none"/>
                <circle cx="6.5" cy="6.5" r="6" fill="none"/>
              </g>
              <g id="Ellipse_702-3" data-name="Ellipse 702" transform="translate(762 200)" fill="#fff" stroke="#34ada2" stroke-width="1">
                <circle cx="6.5" cy="6.5" r="6.5" stroke="none"/>
                <circle cx="6.5" cy="6.5" r="6" fill="none"/>
              </g>
              <g id="Ellipse_703-3" data-name="Ellipse 703" transform="translate(810 200)" fill="#fff" stroke="#34ada2" stroke-width="1">
                <circle cx="6.5" cy="6.5" r="6.5" stroke="none"/>
                <circle cx="6.5" cy="6.5" r="6" fill="none"/>
              </g>
            </g>
            <g id="Group_18085-2" data-name="Group 18085" transform="translate(96)">
              <g id="Ellipse_701-4" data-name="Ellipse 701" transform="translate(738 200)" fill="#fff" stroke="#34ada2" stroke-width="1">
                <circle cx="6.5" cy="6.5" r="6.5" stroke="none"/>
                <circle cx="6.5" cy="6.5" r="6" fill="none"/>
              </g>
              <g id="Ellipse_704-4" data-name="Ellipse 704" transform="translate(786 200)" fill="#fff" stroke="#34ada2" stroke-width="1">
                <circle cx="6.5" cy="6.5" r="6.5" stroke="none"/>
                <circle cx="6.5" cy="6.5" r="6" fill="none"/>
              </g>
              <g id="Ellipse_702-4" data-name="Ellipse 702" transform="translate(762 200)" fill="#fff" stroke="#34ada2" stroke-width="1">
                <circle cx="6.5" cy="6.5" r="6.5" stroke="none"/>
                <circle cx="6.5" cy="6.5" r="6" fill="none"/>
              </g>
              <g id="Ellipse_703-4" data-name="Ellipse 703" transform="translate(810 200)" fill="#fff" stroke="#34ada2" stroke-width="1">
                <circle cx="6.5" cy="6.5" r="6.5" stroke="none"/>
                <circle cx="6.5" cy="6.5" r="6" fill="none"/>
              </g>
            </g>
          </g>
        </g>
      </g>
      <g id="Group_18460" data-name="Group 18460" transform="translate(12840 4659)">
        <g id="Group_18088-2" data-name="Group 18088">
          <g id="Group_18086-2" data-name="Group 18086" transform="translate(-12128 -3159)">
            <g id="Group_18084-3" data-name="Group 18084">
              <g id="Ellipse_701-5" data-name="Ellipse 701" transform="translate(738 200)" fill="#fff" stroke="#34ada2" stroke-width="1">
                <circle cx="6.5" cy="6.5" r="6.5" stroke="none"/>
                <circle cx="6.5" cy="6.5" r="6" fill="none"/>
              </g>
              <g id="Ellipse_704-5" data-name="Ellipse 704" transform="translate(786 200)" fill="#fff" stroke="#34ada2" stroke-width="1">
                <circle cx="6.5" cy="6.5" r="6.5" stroke="none"/>
                <circle cx="6.5" cy="6.5" r="6" fill="none"/>
              </g>
              <g id="Ellipse_702-5" data-name="Ellipse 702" transform="translate(762 200)" fill="#fff" stroke="#34ada2" stroke-width="1">
                <circle cx="6.5" cy="6.5" r="6.5" stroke="none"/>
                <circle cx="6.5" cy="6.5" r="6" fill="none"/>
              </g>
              <g id="Ellipse_703-5" data-name="Ellipse 703" transform="translate(810 200)" fill="#fff" stroke="#34ada2" stroke-width="1">
                <circle cx="6.5" cy="6.5" r="6.5" stroke="none"/>
                <circle cx="6.5" cy="6.5" r="6" fill="none"/>
              </g>
            </g>
            <g id="Group_18085-3" data-name="Group 18085" transform="translate(96)">
              <g id="Ellipse_701-6" data-name="Ellipse 701" transform="translate(738 200)" fill="#fff" stroke="#34ada2" stroke-width="1">
                <circle cx="6.5" cy="6.5" r="6.5" stroke="none"/>
                <circle cx="6.5" cy="6.5" r="6" fill="none"/>
              </g>
              <g id="Ellipse_704-6" data-name="Ellipse 704" transform="translate(786 200)" fill="#fff" stroke="#34ada2" stroke-width="1">
                <circle cx="6.5" cy="6.5" r="6.5" stroke="none"/>
                <circle cx="6.5" cy="6.5" r="6" fill="none"/>
              </g>
              <g id="Ellipse_702-6" data-name="Ellipse 702" transform="translate(762 200)" fill="#fff" stroke="#34ada2" stroke-width="1">
                <circle cx="6.5" cy="6.5" r="6.5" stroke="none"/>
                <circle cx="6.5" cy="6.5" r="6" fill="none"/>
              </g>
              <g id="Ellipse_703-6" data-name="Ellipse 703" transform="translate(810 200)" fill="#fff" stroke="#34ada2" stroke-width="1">
                <circle cx="6.5" cy="6.5" r="6.5" stroke="none"/>
                <circle cx="6.5" cy="6.5" r="6" fill="none"/>
              </g>
            </g>
          </g>
          <g id="Group_18087-2" data-name="Group 18087" transform="translate(-11936 -3159)">
            <g id="Group_18084-4" data-name="Group 18084">
              <g id="Ellipse_701-7" data-name="Ellipse 701" transform="translate(738 200)" fill="#fff" stroke="#34ada2" stroke-width="1">
                <circle cx="6.5" cy="6.5" r="6.5" stroke="none"/>
                <circle cx="6.5" cy="6.5" r="6" fill="none"/>
              </g>
              <g id="Ellipse_704-7" data-name="Ellipse 704" transform="translate(786 200)" fill="#fff" stroke="#34ada2" stroke-width="1">
                <circle cx="6.5" cy="6.5" r="6.5" stroke="none"/>
                <circle cx="6.5" cy="6.5" r="6" fill="none"/>
              </g>
              <g id="Ellipse_702-7" data-name="Ellipse 702" transform="translate(762 200)" fill="#fff" stroke="#34ada2" stroke-width="1">
                <circle cx="6.5" cy="6.5" r="6.5" stroke="none"/>
                <circle cx="6.5" cy="6.5" r="6" fill="none"/>
              </g>
              <g id="Ellipse_703-7" data-name="Ellipse 703" transform="translate(810 200)" fill="#fff" stroke="#34ada2" stroke-width="1">
                <circle cx="6.5" cy="6.5" r="6.5" stroke="none"/>
                <circle cx="6.5" cy="6.5" r="6" fill="none"/>
              </g>
            </g>
            <g id="Group_18085-4" data-name="Group 18085" transform="translate(96)">
              <g id="Ellipse_701-8" data-name="Ellipse 701" transform="translate(738 200)" fill="#fff" stroke="#34ada2" stroke-width="1">
                <circle cx="6.5" cy="6.5" r="6.5" stroke="none"/>
                <circle cx="6.5" cy="6.5" r="6" fill="none"/>
              </g>
              <g id="Ellipse_704-8" data-name="Ellipse 704" transform="translate(786 200)" fill="#fff" stroke="#34ada2" stroke-width="1">
                <circle cx="6.5" cy="6.5" r="6.5" stroke="none"/>
                <circle cx="6.5" cy="6.5" r="6" fill="none"/>
              </g>
              <g id="Ellipse_702-8" data-name="Ellipse 702" transform="translate(762 200)" fill="#fff" stroke="#34ada2" stroke-width="1">
                <circle cx="6.5" cy="6.5" r="6.5" stroke="none"/>
                <circle cx="6.5" cy="6.5" r="6" fill="none"/>
              </g>
              <g id="Ellipse_703-8" data-name="Ellipse 703" transform="translate(810 200)" fill="#fff" stroke="#34ada2" stroke-width="1">
                <circle cx="6.5" cy="6.5" r="6.5" stroke="none"/>
                <circle cx="6.5" cy="6.5" r="6" fill="none"/>
              </g>
            </g>
          </g>
        </g>
      </g>
    </g>
    <g id="Group_18896" data-name="Group 18896" transform="translate(-1193 -725)" opacity="0.56">
      <g id="Group_18459-2" data-name="Group 18459" transform="translate(12840 4633)">
        <g id="Group_18088-3" data-name="Group 18088">
          <g id="Group_18086-3" data-name="Group 18086" transform="translate(-12128 -3159)">
            <g id="Group_18084-5" data-name="Group 18084">
              <g id="Ellipse_701-9" data-name="Ellipse 701" transform="translate(738 200)" fill="#fff" stroke="#34ada2" stroke-width="1">
                <circle cx="6.5" cy="6.5" r="6.5" stroke="none"/>
                <circle cx="6.5" cy="6.5" r="6" fill="none"/>
              </g>
              <g id="Ellipse_704-9" data-name="Ellipse 704" transform="translate(786 200)" fill="#fff" stroke="#34ada2" stroke-width="1">
                <circle cx="6.5" cy="6.5" r="6.5" stroke="none"/>
                <circle cx="6.5" cy="6.5" r="6" fill="none"/>
              </g>
              <g id="Ellipse_702-9" data-name="Ellipse 702" transform="translate(762 200)" fill="#fff" stroke="#34ada2" stroke-width="1">
                <circle cx="6.5" cy="6.5" r="6.5" stroke="none"/>
                <circle cx="6.5" cy="6.5" r="6" fill="none"/>
              </g>
              <g id="Ellipse_703-9" data-name="Ellipse 703" transform="translate(810 200)" fill="#fff" stroke="#34ada2" stroke-width="1">
                <circle cx="6.5" cy="6.5" r="6.5" stroke="none"/>
                <circle cx="6.5" cy="6.5" r="6" fill="none"/>
              </g>
            </g>
            <g id="Group_18085-5" data-name="Group 18085" transform="translate(96)">
              <g id="Ellipse_701-10" data-name="Ellipse 701" transform="translate(738 200)" fill="#fff" stroke="#34ada2" stroke-width="1">
                <circle cx="6.5" cy="6.5" r="6.5" stroke="none"/>
                <circle cx="6.5" cy="6.5" r="6" fill="none"/>
              </g>
              <g id="Ellipse_704-10" data-name="Ellipse 704" transform="translate(786 200)" fill="#fff" stroke="#34ada2" stroke-width="1">
                <circle cx="6.5" cy="6.5" r="6.5" stroke="none"/>
                <circle cx="6.5" cy="6.5" r="6" fill="none"/>
              </g>
              <g id="Ellipse_702-10" data-name="Ellipse 702" transform="translate(762 200)" fill="#fff" stroke="#34ada2" stroke-width="1">
                <circle cx="6.5" cy="6.5" r="6.5" stroke="none"/>
                <circle cx="6.5" cy="6.5" r="6" fill="none"/>
              </g>
              <g id="Ellipse_703-10" data-name="Ellipse 703" transform="translate(810 200)" fill="#fff" stroke="#34ada2" stroke-width="1">
                <circle cx="6.5" cy="6.5" r="6.5" stroke="none"/>
                <circle cx="6.5" cy="6.5" r="6" fill="none"/>
              </g>
            </g>
          </g>
          <g id="Group_18087-3" data-name="Group 18087" transform="translate(-11936 -3159)">
            <g id="Group_18084-6" data-name="Group 18084">
              <g id="Ellipse_701-11" data-name="Ellipse 701" transform="translate(738 200)" fill="#fff" stroke="#34ada2" stroke-width="1">
                <circle cx="6.5" cy="6.5" r="6.5" stroke="none"/>
                <circle cx="6.5" cy="6.5" r="6" fill="none"/>
              </g>
              <g id="Ellipse_704-11" data-name="Ellipse 704" transform="translate(786 200)" fill="#fff" stroke="#34ada2" stroke-width="1">
                <circle cx="6.5" cy="6.5" r="6.5" stroke="none"/>
                <circle cx="6.5" cy="6.5" r="6" fill="none"/>
              </g>
              <g id="Ellipse_702-11" data-name="Ellipse 702" transform="translate(762 200)" fill="#fff" stroke="#34ada2" stroke-width="1">
                <circle cx="6.5" cy="6.5" r="6.5" stroke="none"/>
                <circle cx="6.5" cy="6.5" r="6" fill="none"/>
              </g>
              <g id="Ellipse_703-11" data-name="Ellipse 703" transform="translate(810 200)" fill="#fff" stroke="#34ada2" stroke-width="1">
                <circle cx="6.5" cy="6.5" r="6.5" stroke="none"/>
                <circle cx="6.5" cy="6.5" r="6" fill="none"/>
              </g>
            </g>
            <g id="Group_18085-6" data-name="Group 18085" transform="translate(96)">
              <g id="Ellipse_701-12" data-name="Ellipse 701" transform="translate(738 200)" fill="#fff" stroke="#34ada2" stroke-width="1">
                <circle cx="6.5" cy="6.5" r="6.5" stroke="none"/>
                <circle cx="6.5" cy="6.5" r="6" fill="none"/>
              </g>
              <g id="Ellipse_704-12" data-name="Ellipse 704" transform="translate(786 200)" fill="#fff" stroke="#34ada2" stroke-width="1">
                <circle cx="6.5" cy="6.5" r="6.5" stroke="none"/>
                <circle cx="6.5" cy="6.5" r="6" fill="none"/>
              </g>
              <g id="Ellipse_702-12" data-name="Ellipse 702" transform="translate(762 200)" fill="#fff" stroke="#34ada2" stroke-width="1">
                <circle cx="6.5" cy="6.5" r="6.5" stroke="none"/>
                <circle cx="6.5" cy="6.5" r="6" fill="none"/>
              </g>
              <g id="Ellipse_703-12" data-name="Ellipse 703" transform="translate(810 200)" fill="#fff" stroke="#34ada2" stroke-width="1">
                <circle cx="6.5" cy="6.5" r="6.5" stroke="none"/>
                <circle cx="6.5" cy="6.5" r="6" fill="none"/>
              </g>
            </g>
          </g>
        </g>
      </g>
      <g id="Group_18460-2" data-name="Group 18460" transform="translate(12840 4659)">
        <g id="Group_18088-4" data-name="Group 18088">
          <g id="Group_18086-4" data-name="Group 18086" transform="translate(-12128 -3159)">
            <g id="Group_18084-7" data-name="Group 18084">
              <g id="Ellipse_701-13" data-name="Ellipse 701" transform="translate(738 200)" fill="#fff" stroke="#34ada2" stroke-width="1">
                <circle cx="6.5" cy="6.5" r="6.5" stroke="none"/>
                <circle cx="6.5" cy="6.5" r="6" fill="none"/>
              </g>
              <g id="Ellipse_704-13" data-name="Ellipse 704" transform="translate(786 200)" fill="#fff" stroke="#34ada2" stroke-width="1">
                <circle cx="6.5" cy="6.5" r="6.5" stroke="none"/>
                <circle cx="6.5" cy="6.5" r="6" fill="none"/>
              </g>
              <g id="Ellipse_702-13" data-name="Ellipse 702" transform="translate(762 200)" fill="#fff" stroke="#34ada2" stroke-width="1">
                <circle cx="6.5" cy="6.5" r="6.5" stroke="none"/>
                <circle cx="6.5" cy="6.5" r="6" fill="none"/>
              </g>
              <g id="Ellipse_703-13" data-name="Ellipse 703" transform="translate(810 200)" fill="#fff" stroke="#34ada2" stroke-width="1">
                <circle cx="6.5" cy="6.5" r="6.5" stroke="none"/>
                <circle cx="6.5" cy="6.5" r="6" fill="none"/>
              </g>
            </g>
            <g id="Group_18085-7" data-name="Group 18085" transform="translate(96)">
              <g id="Ellipse_701-14" data-name="Ellipse 701" transform="translate(738 200)" fill="#fff" stroke="#34ada2" stroke-width="1">
                <circle cx="6.5" cy="6.5" r="6.5" stroke="none"/>
                <circle cx="6.5" cy="6.5" r="6" fill="none"/>
              </g>
              <g id="Ellipse_704-14" data-name="Ellipse 704" transform="translate(786 200)" fill="#fff" stroke="#34ada2" stroke-width="1">
                <circle cx="6.5" cy="6.5" r="6.5" stroke="none"/>
                <circle cx="6.5" cy="6.5" r="6" fill="none"/>
              </g>
              <g id="Ellipse_702-14" data-name="Ellipse 702" transform="translate(762 200)" fill="#fff" stroke="#34ada2" stroke-width="1">
                <circle cx="6.5" cy="6.5" r="6.5" stroke="none"/>
                <circle cx="6.5" cy="6.5" r="6" fill="none"/>
              </g>
              <g id="Ellipse_703-14" data-name="Ellipse 703" transform="translate(810 200)" fill="#fff" stroke="#34ada2" stroke-width="1">
                <circle cx="6.5" cy="6.5" r="6.5" stroke="none"/>
                <circle cx="6.5" cy="6.5" r="6" fill="none"/>
              </g>
            </g>
          </g>
          <g id="Group_18087-4" data-name="Group 18087" transform="translate(-11936 -3159)">
            <g id="Group_18084-8" data-name="Group 18084">
              <g id="Ellipse_701-15" data-name="Ellipse 701" transform="translate(738 200)" fill="#fff" stroke="#34ada2" stroke-width="1">
                <circle cx="6.5" cy="6.5" r="6.5" stroke="none"/>
                <circle cx="6.5" cy="6.5" r="6" fill="none"/>
              </g>
              <g id="Ellipse_704-15" data-name="Ellipse 704" transform="translate(786 200)" fill="#fff" stroke="#34ada2" stroke-width="1">
                <circle cx="6.5" cy="6.5" r="6.5" stroke="none"/>
                <circle cx="6.5" cy="6.5" r="6" fill="none"/>
              </g>
              <g id="Ellipse_702-15" data-name="Ellipse 702" transform="translate(762 200)" fill="#fff" stroke="#34ada2" stroke-width="1">
                <circle cx="6.5" cy="6.5" r="6.5" stroke="none"/>
                <circle cx="6.5" cy="6.5" r="6" fill="none"/>
              </g>
              <g id="Ellipse_703-15" data-name="Ellipse 703" transform="translate(810 200)" fill="#fff" stroke="#34ada2" stroke-width="1">
                <circle cx="6.5" cy="6.5" r="6.5" stroke="none"/>
                <circle cx="6.5" cy="6.5" r="6" fill="none"/>
              </g>
            </g>
            <g id="Group_18085-8" data-name="Group 18085" transform="translate(96)">
              <g id="Ellipse_701-16" data-name="Ellipse 701" transform="translate(738 200)" fill="#fff" stroke="#34ada2" stroke-width="1">
                <circle cx="6.5" cy="6.5" r="6.5" stroke="none"/>
                <circle cx="6.5" cy="6.5" r="6" fill="none"/>
              </g>
              <g id="Ellipse_704-16" data-name="Ellipse 704" transform="translate(786 200)" fill="#fff" stroke="#34ada2" stroke-width="1">
                <circle cx="6.5" cy="6.5" r="6.5" stroke="none"/>
                <circle cx="6.5" cy="6.5" r="6" fill="none"/>
              </g>
              <g id="Ellipse_702-16" data-name="Ellipse 702" transform="translate(762 200)" fill="#fff" stroke="#34ada2" stroke-width="1">
                <circle cx="6.5" cy="6.5" r="6.5" stroke="none"/>
                <circle cx="6.5" cy="6.5" r="6" fill="none"/>
              </g>
              <g id="Ellipse_703-16" data-name="Ellipse 703" transform="translate(810 200)" fill="#fff" stroke="#34ada2" stroke-width="1">
                <circle cx="6.5" cy="6.5" r="6.5" stroke="none"/>
                <circle cx="6.5" cy="6.5" r="6" fill="none"/>
              </g>
            </g>
          </g>
        </g>
      </g>
    </g>
    <g id="Group_18461" data-name="Group 18461" transform="translate(203.811 1027.723)">
      <path id="Path_3468" data-name="Path 3468" d="M97.351,183.557h21.417L85.595,140.951l-56.583,72.7H50.159L69.3,189.029l9.092-11.535,7.2-9.2,2.4,3.137,5.4,6.94Z" transform="translate(-29.012 -122.463)" fill="#34ada2"/>
      <path id="Path_3469" data-name="Path 3469" d="M171.788,125.71l-52.638,67.53-4.908-6.3H92.794l26.137,34.27,73.953-95.5Z" transform="translate(-21.178 -121.74)" fill="#ffbd66"/>
      <path id="Path_3470" data-name="Path 3470" d="M184.705,110.055l3.826,24.57-36.617-18.361Z" transform="translate(-13.917 -117.059)" fill="#ffbd66"/>
    </g>
  </g>
</svg>
